/* XPM */
static char *key_1[] = {
/* columns rows colors chars-per-pixel */
"32 32 256 2 ",
"   c #987069",
".  c #856570",
"X  c #876571",
"o  c #896A73",
"O  c #8A6A73",
"+  c #8B6A73",
"@  c #8C6A74",
"#  c #8D6A74",
"$  c #8D6B74",
"%  c #8F6E76",
"&  c #947077",
"*  c #947078",
"=  c #967178",
"-  c #967379",
";  c #99737A",
":  c #99747A",
">  c #9B767B",
",  c #9D757B",
"<  c #9B767C",
"1  c #9D777D",
"2  c #9E777C",
"3  c #9C787D",
"4  c #9D787D",
"5  c #9E797D",
"6  c #9D797F",
"7  c #9D7A7E",
"8  c #9E7A7E",
"9  c #9F7A7E",
"0  c #A57C78",
"q  c #A47D7B",
"w  c #A57F7A",
"e  c #A57F7B",
"r  c #A07A7E",
"t  c #A17B7F",
"y  c #A17D7F",
"u  c #A27C7F",
"i  c #E19E3F",
"p  c #E6A13F",
"a  c #EBA43F",
"s  c #FEAE31",
"d  c #FFAF32",
"f  c #F8AB37",
"g  c #FDAE37",
"h  c #F4A93A",
"j  c #F5A93C",
"k  c #F4A93D",
"l  c #F6AB3D",
"z  c #F7AB3D",
"x  c #F7AB3F",
"c  c #F8AC3D",
"v  c #F9AD3E",
"b  c #B78866",
"n  c #BA8962",
"m  c #BE8963",
"M  c #A98075",
"N  c #A88077",
"B  c #A88178",
"V  c #AC8278",
"C  c #AC8378",
"Z  c #A9847C",
"A  c #B4897E",
"S  c #BD8E78",
"D  c #CC914D",
"F  c #D89946",
"G  c #DB9B47",
"H  c #DB9B48",
"J  c #D99A4D",
"K  c #D79950",
"L  c #D89B51",
"P  c #DB9C54",
"I  c #DF9E54",
"U  c #D4985E",
"Y  c #D39C5E",
"T  c #DB9D5F",
"R  c #E09E4C",
"E  c #E09E4D",
"W  c #DCA158",
"Q  c #DFA05C",
"!  c #DFA35D",
"~  c #E5A041",
"^  c #EAA445",
"/  c #EAA447",
"(  c #EFA745",
")  c #E3A14E",
"_  c #E7A34D",
"`  c #E6A34E",
"'  c #E7A34E",
"]  c #F4A942",
"[  c #F6AB43",
"{  c #E5A353",
"}  c #E5A055",
"|  c #EBA653",
" . c #EDA750",
".. c #EAA654",
"X. c #E5A35A",
"o. c #E7A458",
"O. c #E7A459",
"+. c #E0A05C",
"@. c #E3A25E",
"#. c #E4A35D",
"$. c #E4A35E",
"%. c #E9A759",
"&. c #CD9667",
"*. c #CF9766",
"=. c #C6926B",
"-. c #CB946B",
";. c #CE9D6F",
":. c #D39962",
">. c #DA9D63",
",. c #D1926A",
"<. c #D49B6A",
"1. c #D79C6C",
"2. c #D89D69",
"3. c #D99E6E",
"4. c #D99E6F",
"5. c #CC9776",
"6. c #C0907C",
"7. c #CE997F",
"8. c #D29771",
"9. c #D69C72",
"0. c #D79D72",
"q. c #D79D73",
"w. c #D89D70",
"e. c #D99F71",
"r. c #D39E7E",
"t. c #E1A261",
"y. c #E0A162",
"u. c #E1A162",
"i. c #E2A363",
"p. c #E4A460",
"a. c #E0A468",
"s. c #9F7D80",
"d. c #9F7E81",
"f. c #A17C80",
"g. c #A17D81",
"h. c #A27C80",
"j. c #A27D80",
"k. c #A37E81",
"l. c #A37F81",
"z. c #A07F82",
"x. c #A18083",
"c. c #A38082",
"v. c #A48183",
"b. c #A78183",
"n. c #A38286",
"m. c #A48284",
"M. c #A48384",
"N. c #A58384",
"B. c #A48285",
"V. c #A58385",
"C. c #A38586",
"Z. c #A48487",
"A. c #A48787",
"S. c #A68687",
"D. c #A78787",
"F. c #AB8083",
"G. c #AD8585",
"H. c #A78888",
"J. c #A78988",
"K. c #A68889",
"L. c #A88988",
"P. c #A98C8C",
"I. c #A98D8D",
"U. c #B48687",
"Y. c #B08C81",
"T. c #BE8F81",
"R. c #B38988",
"E. c #B38A89",
"W. c #B38A8A",
"Q. c #B48988",
"!. c #B68A89",
"~. c #B78B8B",
"^. c #B78B8C",
"/. c #B78C8C",
"(. c #B78C8D",
"). c #B88B8A",
"_. c #BD898A",
"`. c #BC898B",
"'. c #BD8A8A",
"]. c #BD8A8B",
"[. c #BE8B8B",
"{. c #BA8D88",
"}. c #B88C8A",
"|. c #B98C8A",
" X c #B88C8B",
".X c #B88D8B",
"XX c #B98D8B",
"oX c #B98D8C",
"OX c #BF8E8D",
"+X c #B6908E",
"@X c #B9908D",
"#X c #BE908D",
"$X c #BC918E",
"%X c #BC928E",
"&X c #AB9191",
"*X c #AA9192",
"=X c #B79292",
"-X c #C08E8D",
";X c #C08F8D",
":X c #C18F8D",
">X c #C08E8E",
",X c #C18F8E",
"<X c #C09081",
"1X c #C09082",
"2X c #C69481",
"3X c #C39384",
"4X c #C29287",
"5X c #C59485",
"6X c #CA9786",
"7X c #CB9887",
"8X c #C6958B",
"9X c #C1908E",
"0X c #C2908E",
"qX c #C2918F",
"wX c #C0938F",
"eX c #C2928F",
"rX c #C3938F",
"tX c #C89688",
"yX c #C99789",
"uX c #C9988A",
"iX c #CB9B8B",
"pX c #C29290",
"aX c #C29390",
"sX c #C39390",
"dX c #C39391",
"fX c #C19393",
"gX c #C29393",
"hX c #C39490",
"jX c #C39491",
"kX c #C39591",
"lX c #C29492",
"zX c #C39492",
"xX c #C39593",
"cX c #C49490",
"vX c #C49590",
"bX c #C49591",
"nX c #C59591",
"mX c #C49691",
"MX c #C59691",
"NX c #C59791",
"BX c #C49692",
"VX c #C59692",
"CX c #C59792",
"ZX c #C49694",
"AX c #C49794",
"SX c #C59893",
"DX c #C69893",
"FX c #C69993",
"GX c #C59894",
"HX c #C59A94",
"JX c #C69A94",
"KX c #C69A95",
"LX c #C79A95",
"PX c #C79B96",
"IX c #C79B97",
"UX c #C69B98",
/* pixels */
"; 8 x.A.C.s.z.8 8 8 8 8 8 8 5 X * 8 x.A.C.s.z.8 8 8 8 8 8 8 5 . ",
"rXvXCXFXDXmXVXvXbXrX;X[.].:XR.% |.nXCXFXDXmXVXvXbXrX;X[.].:XQ.o ",
"vXcXcXcXcXcXcXcXcXhXBXSXKXhX#X< XXbXcXcXcXcXcXcXcXhXBXSXKXhX#X- ",
"U. X X X X X XXX.X X X X}. X}.= F..X X X X X XXX.X X X X}. X}.& ",
"S.N.j.j.j.j.u # : l.M.D.J.N.f.6 Z.N.j.j.j.j.u # : l.M.D.J.N.f.3 ",
"FXCXmX,X-X0XR.% |.MXCXDXFXBXyXe.r.NXmX,X-X0XR.% |.MXCXDXFXCXvXbX",
"cXcXmXSXKXhX#X< XXbXcXcXcXzX3.t.#.tXBXSXKXhX#X< XXbXcXcXcXcXcXcX",
".X X X}.}.}.).= F.XX X X XoX1.a ' 3X/.}.}.}.).= F.XX X X X X XXX",
"2 k.M.H.&XP.V.d.9 j.j.j.g.n I   m L Z K.&XP.V.d.9 j.j.j.j.j.t + ",
"rXbXCXFXPXJXCXCXbXvXvXbXq.[  .0 -.v %.iXIXJXCXCXbXvXvXbXbXbXnX1 ",
"vXcXcXcXhXhXcXcXcXvXpX8.} S J F ^ 0.w.o.8XhXcXcXcXvXrX'.9XE.j.O ",
"U..X X X X X XXX.X X^.U +.=X<.i _ 4X2X/ T. X XXX.X X}.!.@X+XG.$ ",
"t j.j.j.j.j.h.# : l.m.Y.! D ( &.{ G K =.y j.h.# : l.N.D.I.&XH.7 ",
"bXsX_.-XeXwXb.% |.MXCXGXuX .X.gX7.] ,.OXqXwXb.% |.MXCXDXLXPXFXmX",
"cXhXkXsXFXKX%X< XXbXcXcXjXyXO.@.O.9.zXsXFXKX%X< XXbXcXcXhXhXcXcX",
".X X X X}. X|.= F.XX X X X(.:.s ` {. X X}. X|.= F.XX X X X X XXX",
"2 j.M.J.D.c.v.4 r j.j.j.j.g.b f H q m.J.D.c.v.4 r j.j.j.j.j.u @ ",
"rXvXCXFXDXmXVXbXbXrX;X[.].>X6.h $.vXCXFXDXmXVXbXbXrX;X[.].:XR.o ",
"vXcXcXcXcXcXcXcXcXhXBXSXKXdX5Xl u.lXcXcXcXcXcXcXcXhXBXSXKXhX#X- ",
"U. X X X X X XXX.X X X X}. X1Xz T /. X X X X XXX.X X X X}. X}.& ",
"S.N.j.j.j.j.u # : l.M.D.J.B.V j Y n.j.j.j.j.u # : l.M.D.J.N.f.3 ",
"FXCXmX,X-X0XR.% |.MXCXDXFXBX6Xc i.ZXmX,X-X0XR.% |.MXCXDXFXCXvXbX",
"cXcXmXSXKXhX#X< XXbXcXcXcXjX6Xc y.fXxXAXKXhX#X< XXbXcXcXcXcXcXcX",
".X X X}.}.}.).= F.XX X X X X<Xz Q 2.>.5.~.}.).= F.XX X X X X XXX",
"2 k.M.H.&XP.V.d.9 j.j.j.j.g.V k p ) W ;.*XP.V.d.9 j.j.j.j.j.t + ",
"rXbXCXFXPXJXCXCXbXvXvXbXbXbX7Xx d | p.a.UXJXCXCXbXvXvXbXbXbXnX1 ",
"vXcXcXcXhXhXcXcXcXvXrX'.9XW.C k g ..t.4.jXhXcXcXcXvXrX'.9XE.j.O ",
"U..X X X X X XXX.X X}.!.@X+XA ~ P E R *./. X XXX.X X}.!.@X+XG.$ ",
"t j.j.j.j.j.h.# : l.N.D.I.&XL.B w N M e j.j.h.# : l.N.D.I.&XH.7 ",
"bXsX_.-XeXwXb.% |.MXCXDXLXPXFXbXvXsX`.-XeXwXb.% |.MXCXDXLXPXFXmX",
"hXsXjXaXSXHX$X> .XcXhXhXhXhXhXhXhXsXjXaXSXHX$X> .XcXhXhXhXhXhXhX",
"hXhXhXhXhXhXsX, U.vXhXhXhXhXhXhXhXhXhXhXhXhXsX, U.vXhXhXhXhXhXhX"
};
