/* XPM */
static char *key_0[] = {
/* columns rows colors chars-per-pixel */
"32 32 101 2 ",
"   c #866570",
".  c #8D6C74",
"X  c #947077",
"o  c #967178",
"O  c #9B757B",
"+  c #9E7A7E",
"@  c #A27C7E",
"#  c #E19D3E",
"$  c #E6A13F",
"%  c #EAA23C",
"&  c #FDAE34",
"*  c #F5AA3D",
"=  c #F8AC3D",
"-  c #B78866",
";  c #BA8962",
":  c #A88076",
">  c #AB8379",
",  c #B4897E",
"<  c #BD8E78",
"1  c #CC914D",
"2  c #DB9B4A",
"3  c #DB9C53",
"4  c #D49A5E",
"5  c #DB9D5F",
"6  c #E09E4D",
"7  c #DDA04D",
"8  c #DEA15B",
"9  c #E5A041",
"0  c #EFA745",
"q  c #E5A24D",
"w  c #EBA64B",
"e  c #ECA84F",
"r  c #F5AA42",
"t  c #E5A154",
"y  c #EBA652",
"u  c #EFAB54",
"i  c #E4A35B",
"p  c #CE9666",
"a  c #C6926A",
"s  c #CE9D6F",
"d  c #D39962",
"f  c #DA9D63",
"g  c #D1926A",
"h  c #D69C6B",
"j  c #D99D6D",
"k  c #CC9776",
"l  c #C0907C",
"z  c #CE997F",
"x  c #D29771",
"c  c #D69D73",
"v  c #D99F73",
"b  c #E2A262",
"n  c #E0A468",
"m  c #EBB47E",
"M  c #9F7E81",
"N  c #A27D80",
"B  c #A58385",
"V  c #AC8183",
"C  c #A78888",
"Z  c #A98C8C",
"A  c #B48687",
"S  c #B08C81",
"D  c #BE8E81",
"F  c #B58A8A",
"G  c #B98C8B",
"H  c #B6908E",
"J  c #BD908E",
"K  c #AB9192",
"L  c #B79292",
"P  c #C08F8D",
"I  c #C29282",
"U  c #CA9786",
"Y  c #CB9887",
"T  c #C2928F",
"R  c #C99789",
"E  c #C9988A",
"W  c #C49591",
"Q  c #C69994",
"!  c #C99B90",
"~  c #C59D9B",
"^  c #D4A38D",
"/  c #CFABA7",
"(  c #D9B7A5",
")  c #D4B4B0",
"_  c #D5BAB5",
"`  c #F3C486",
"'  c #EDC39D",
"]  c #DCC9BF",
"[  c #E7C1A2",
"{  c #CABFC0",
"}  c #E4D0CD",
"|  c #E8D8D6",
" . c #EADBDA",
".. c #F2E0CF",
"X. c #F5E7DE",
"o. c #F3E9E7",
"O. c #F2EBEB",
"+. c #FFF3E5",
"@. c #F4F2F2",
"#. c #FCF8F6",
"$. c #FEFCFB",
/* pixels */
"O + B B B B M O + + + @ + + +   X @ N C B M M + + + + + + @ O   ",
"T W W Q Q W W W W W J G G P F . G W W Q Q W Q W W W P G G P A . ",
"W W T W T T W W W W W W Q W P O G W W W W W W Q W W W Q Q W J o ",
"A G G G H G G H H G G G G G G o V G G G G G F F F G G G F G G o ",
"C B N @ @ @ @ . O N B C C B M + B B M N N N N . O N B C C B N O ",
"Q W W T T T F . G W W Q Q W E v ^ Q W Q W P A X G W W W Q Q W W ",
"T W W Q Q T J O G W W W W W j b ' } _ | / W J O G W W W W W W W ",
"G G G G G G G o V G G G G G j % ` #.#.O.~ F F o V G G G G G G G ",
"+ N B C K Z B B + N @ N M ; 3 > ] $.$.@._ K B N @ N N N N N @ . ",
"T W W Q Q Q Q W T W W W c r u _ ..+.$.o. .) Q Q W W W W W W W O ",
"W W W T W W T W W W W x t < 2 2 y [ X.m Q Q W W W W W G G F N . ",
"A G G G G G G G G G F 4 i L h 6 q ! ( e D G G G G G F F J G A . ",
"@ N @ @ N N @ . O N B S 8 1 0 p t 2 7 a @ @ @ . o B B C Z K C + ",
"Q T G J T T B X G W W Q E y i W z r p G T T B . G W W Q Q ~ Q W ",
"T T Q T Q Q J O G W W W W E i i i c W W Q Q J + G T W W T W W W ",
"G G G G G G G o V G G G G G d & q G G F G G G o V G G G G G G G ",
"O N B C C N B O N N N N N N - & 2 @ B C C N N O N N N N N N N . ",
"W W W W Q W Q W T T P G G P < * i W Q Q Q W Q W W W P G G P A . ",
"W W W W W W W W W T Q Q Q W I = b W T T W W W W W W W Q Q W P o ",
"A G G G G G F G G G F G G G I * f G G G G G G G G G F G G F G o ",
"C B N N N N N . O N N Z C V > * 4 B N N N N N . O N B C C B N O ",
"Q W W P P P A X G W W Q Q W U = b Q Q J P P F . G W W Q W W W W ",
"W W W Q Q T P @ G W W W T W Y = b W W W Q Q J O G W W W W W W W ",
"G G G G G G G O N G G G G G l = 8 h f k F G G o V G G G G G G G ",
"O N B C K Z C N @ @ N N N N @ = 9 q 8 s K Z B N @ N N N @ N @ . ",
"W W W W Q Q Q W W W W W W W U = & y i n Q Q Q Q W W W W W W W O ",
"W W W W W W W W W W T G P F > & & y b v W W T W W W T G G F N . ",
"A G G G G G G G G G G F G H S 6 3 7 2 p G G G G G G G F J G A . ",
"@ N N N N N @ . O N B C Z K C @ @ : : : B @ @ . o B B C Z K C + ",
"W T G P T W B . G W W Q Q Q Q W W W G P T T B . G W W Q Q ~ Q W ",
"W T W T Q Q G O G W W W T T W W W W W W Q Q J O G T T W W T W W ",
"W W W W W W W O A W W W E W W W P W W W T T T @ A T W T W W T W "
};
