/* XPM */
static char * key_star_xpm[] = {
"64 64 54 1",
" 	c #6E5967",
".	c #AD707B",
"+	c #C39490",
"@	c #D1B1A5",
"#	c #B77F83",
"$	c #FDAE35",
"%	c #FDB866",
"&	c #C59894",
"*	c #B88890",
"=	c #B07680",
"-	c #CAA3A0",
";	c #FED6B2",
">	c #E4D3D1",
",	c #E5D5D0",
"'	c #E9DCDB",
")	c #D7BDB3",
"!	c #FFF2E9",
"~	c #FFFFFF",
"{	c #D7BDBA",
"]	c #E1CDCC",
"^	c #FAF7F7",
"/	c #D1B0AD",
"(	c #EFE6E6",
"_	c #FEFDFD",
":	c #F5EFEE",
"<	c #FDFBFB",
"[	c #CFADAA",
"}	c #FECB9B",
"|	c #F9F5F5",
"1	c #E3D2D1",
"2	c #C89F9C",
"3	c #877982",
"4	c #FFF9F4",
"5	c #D4D1D3",
"6	c #ABA3A8",
"7	c #7A6975",
"8	c #DCCABE",
"9	c #9A9097",
"0	c #DFCFD2",
"a	c #FBF9F9",
"b	c #F9F6F4",
"c	c #ECE4DE",
"d	c #DFCFC4",
"e	c #DEC8C7",
"f	c #E0DEE0",
"g	c #E0CDCC",
"h	c #C8C4C7",
"i	c #FEDBBE",
"j	c #DEC8C6",
"k	c #DCC5C4",
"l	c #FFF8F4",
"m	c #FDBF7C",
"n	c #D7BDBB",
"o	c #FDB65C",
"                                                                ",
".++++@@@@@++@+++++++++++++++++. .++++@@@@@++@+++++++++++++++++. ",
"+++++++++++++++++++++++++++++++ +++++++++++++++++++++++++++++++ ",
"++++++++++++++++++++.+.....++   ++++++++++++++++++++.+.....++   ",
"+++++++++++++++++++++@+@@@++++# +++++++++++++++++++++@+@@@++++# ",
"+++++++++++++++++++++++++++++++ +++++++++++++++++++++++++++++++ ",
"+++++++++++++++++++++++++++++++ +++++++++++++++++++++++++++++++ ",
".+++++++++++++++++++++++++++++. .+++++++++++++++++++++++++++++. ",
"                                                                ",
"@@@+++++++++++. .+++@+@@@@@+++++@@@+++++++++++. .+++@+@@@@@+++++",
"+++++++++++++++ +++++++++++++++++++++++++++++++ ++++++++++++++++",
"+++++++..+.++   ++++++++++++++$$%&+++++*=+.++   ++++++++++++++++",
"++++++@+@@++++# +++++++++++++$++-;>-++,')@++++# ++++++++++++++++",
"+++++++++++++++ +++++++++++++$$+$!~'{]^~/++++++ ++++++++++++++++",
"+++++++++++++++ ++++++++++++++$$$(_~:<~^[++++++ ++++++++++++++++",
"++++++++++++++. .++++++++++++$$$$}|~~~~12+++++. .+++++++++++++++",
"                            $$  3;4~~~~567                      ",
".+++@+@@888@+@@++++++++++++$$+.90a~~~~~~bcd@+@@+++++++++++++++. ",
"++++++++++++++++++++++++++$$$+ef<~~~~~~~~:g2+++++++++++++++++++ ",
"+++++++++++++++++++++++++$$$$$eh>ii4~~'>>jk2+++++++++++++++++++ ",
"++++++++++++++++++++++++$$++$$$ $$$(_lm+++++++++++++++++++++++# ",
"++++++++++++++++++++++.$$.+  $$$$$+n|1o$++++++++++++++..+.+     ",
"+++++++++++++++++++++++$$+@@++$ $+++:/$$++++++++++++++++@+@@+++ ",
".++++++++++++++++++++++$$++++$$$$$++e-$$++++++++++++++++++++++. ",
"                        $$  $$$ $$$  $$                         ",
"++++++++++++++. .+++@+@@@$$$$$+++$$$$$++++++++. .+++@+@@@888@@++",
"+++++++++++++++ ++++++++++$$$+++++$$$++++++++++ ++++++++++++++++",
"++++...++.++    +++++++++++$$+++++$$...++.++    ++++++++++++++++",
"+++++@+++@@+@+# ++++++++++++$$+++$$++@+++@@+@+# ++++++++++++++++",
"+++++++++++++++ +++++++++++++$$$$$+++++++++++++ ++++++++++++++++",
"+++++++++++++++ +++++++++++++$$$$++++++++++++++ ++++++++++++++++",
"++++++++++++++. .++++++++++++$$$$$++++++++++++. .+++++++++++++++",
"                              $$$                               ",
".++++@@@@@++@++++++++++++++++$$$$$+++@@@@@++@+++++++++++++++++. ",
"++++++++++++++++++++++++++++++$$$++++++++++++++++++++++++++++++ ",
"++++++++++++++++++++.+.....++ $$$+++++++++++++++++++.+.....++   ",
"+++++++++++++++++++++@+@@@++++$$$++++++++++++++++++++@+@@@++++# ",
"++++++++++++++++++++++++++++++$$$++++++++++++++++++++++++++++++ ",
"++++++++++++++++++++++++++++++$$$++++++++++++++++++++++++++++++ ",
".+++++++++++++++++++++++++++++$$$+++++++++++++++++++++++++++++. ",
"                              $$$                               ",
"@@@+++++++++++. .+++@+@@@@@+++$$$@@+++++++++++. .+++@+@@@@@+++++",
"+++++++++++++++ ++++++++++++++$$$++++++++++++++ ++++++++++++++++",
"+++++++..+.++   ++++++++++++++$$$++++++..+.++   ++++++++++++++++",
"++++++@+@@++++# ++++++++++++++$$$+++++@+@@++++# ++++++++++++++++",
"+++++++++++++++ ++++++++++++++$$$++++++++++++++ ++++++++++++++++",
"+++++++++++++++ ++++++++++++++$$$++++++++++++++ ++++++++++++++++",
"++++++++++++++. .+++++++++++++$$$+$$$$$+++++++. .+++++++++++++++",
"                              $$$ $$ $$                         ",
".+++@+@@888@+@@+++++++++++++++$$$$$+@$@@888@+@@+++++++++++++++. ",
"++++++++++++++++++++++++++++++$$$$$$+$$++++++++++++++++++++++++ ",
"++++++++++++++++++++++++++++++$$$$$++$$++++++++++++++++++++++++ ",
"++++++++++++++++++++++++++++++$$$$$$+$$+++++++++++++++++++++++# ",
"++++++++++++++++++++++..+.+   $$$$$++$++++++++++++++++..+.+     ",
"++++++++++++++++++++++++@+@@++$$$+$$+$$+++++++++++++++++@+@@+++ ",
".+++++++++++++++++++++++++++++$$$+$$$$$+++++++++++++++++++++++. ",
"                                                                ",
"++++++++++++++. .+++@+@@@888@@++++++++++++++++. .+++@+@@@888@@++",
"+++++++++++++++ +++++++++++++++++++++++++++++++ ++++++++++++++++",
"++++...++.++    ++++++++++++++++++++...++.++    ++++++++++++++++",
"+++++@+++@@+@+# +++++++++++++++++++++@+++@@+@+# ++++++++++++++++",
"+++++++++++++++ +++++++++++++++++++++++++++++++ ++++++++++++++++",
"+++++++++++++++ +++++++++++++++++++++++++++++++ ++++++++++++++++",
"++++++++++++++. .+++++++++++++++++++++++++++++. .+++++++++++++++"};
