/* XPM */
static char * corner_ld_xpm[] = {
"32 32 11 1",
" 	c #3F3851",
".	c #D25654",
"+	c #E27F6D",
"@	c #FBCA97",
"#	c #FFEAB7",
"$	c #FFFAD6",
"%	c #BF5753",
"&	c #CD7363",
"*	c #AE444E",
"=	c #89365C",
"-	c #EDA27F",
"                        .+@@#$# ",
"  %&&&&&* %***=  %***=  ++@@@@@ ",
"  &&&&&&& &****  &****  ++@@@@@ ",
"  %&&&&&* %***=  %***=  ++-@@@@ ",
"                        +++-@@@ ",
" &&& =***&* *&&&&&%=  = +++++++ ",
" &&& ****&& &&&&&&&*    .+++++. ",
"                                ",
"  &&&&&&* *&&&&&* %*****= =****=",
"  &&&&&&& &&&&&&& &&&&&&% %&&&&%",
"  &&&&&&* *&&&&&* *&&&&&* *&&&&*",
"                                ",
"   &* *&&&&* *&&&&&&* *&&&&* *&&",
"   &% %&&&&% &&&&&&&& &&&&&& &&&",
"   *= =****= *&&&&&&* *&&&&* *&&",
"                                ",
" * =***&* =***&* =%&&&&&* *&&&&*",
" & ****&& ****&& *&&&&&&& &&&&&&",
" * =***&* =***&* =%&&&&&* *&&&&*",
"                                ",
"  * %&&&&&* =%&&&&&* =%&&&&&* =*",
"  & &&&&&&& *&&&&&&& *&&&&&&& **",
"  * %&&&&&* =%&&&&&* =%&&&&&* =*",
"                                ",
"  &&* =* %&&&&&* =%&&&&&* =%&&&&",
"  &&& ** &&&&&&& *&&&&&&& *&&&&&",
"  &&* =* %&&&&&* =%&&&&&* =%&&&&",
"                                ",
"   *&* =&&&&&* =***%* *&&&&* =**",
"       *&&&&&& ****&& &&&&&& ***",
"          &&&& ****&& &&&&&& ***",
"                                "};
