/* XPM */
static char * corner_xpm[] = {
"31 30 12 1",
" 	c #FBCA97",
".	c #E27F6D",
"+	c #3F3851",
"@	c #AE444E",
"#	c #CD7363",
"$	c #89365C",
"%	c #BF5753",
"&	c #EDA27F",
"*	c #D25654",
"=	c #9E3B57",
"-	c #FFEAB7",
";	c #FFFAD6",
"     ..++@@@@##+######+++++++++",
"     ..++$@@@%@+@####@+++++++++",
"    &..++++++++++++++++++++++++",
"   &...++++$%#####@++++++++++++",
".......++++@#######++++++++++++",
"*.....*++++$%#####@++++++++++++",
"+++++++++++++++++++++++++++++++",
"+++++++++$@@@#@++++++++++@####@",
"$=@@@@=$+@@@@##++++++++++######",
"=@@@@@@=+$@@@#@++++++++++@####@",
"+++++++++++++++++++++++++++++++",
"@@@$+$@@@@$+@######@+@####@+@##",
"###%+%####%+########+######+###",
"###@+@####@+@######@+@####@+@##",
"+++++++++++++++++++++++++++++++",
"@######@+@#####@+@#####@+@####@",
"########+#######+######%+%####%",
"@######@+@#####@+%@@@@@$+$@@@@$",
"+++++++++++++++++++++++++++++++",
"###@+++++++@#####%$++$@@@$++$@@",
"####+++++++#######@++++++++++++",
"###@+++++++@#####%$++++++++++++",
"+++++++++++++++++++++++*.....*+",
"++++++++@#####@+%@@@$++.......+",
"++++++++#######+#@@@@++...&   +",
"++++++++@#####@+%@@@$++..&    +",
"+++++++++++++++++++++++..     +",
"+++++++++++@#####%$++++..     +",
"+++++++++++#######@++++*.  -;-+",
"+++++++++++@#####%$++++++++++++"};
