/* XPM */
static char * wall_down_xpm[] = {
"64 64 19 1",
" 	c #6E5967",
".	c #AD707B",
"+	c #C39490",
"@	c #D1B1A5",
"#	c #DCCABE",
"$	c #B77F83",
"%	c #926475",
"&	c #3F3851",
"*	c #FFEAB7",
"=	c #FFFAD6",
"-	c #FBCA97",
";	c #EDA27F",
">	c #E27F6D",
",	c #D25654",
"'	c #89365C",
")	c #9E3B57",
"!	c #AE444E",
"~	c #CD7363",
"{	c #BF5753",
"                                                                ",
".++++@@##@++@+++++++++++++++++. .++++@@##@++@+++++++++++++++++. ",
"+++++++++++++++++++++++++++++++ +++++++++++++++++++++++++++++++ ",
"++++++++++++++++++++.+.....++   ++++++++++++++++++++.+.....++   ",
"+++++++++++++++++++++@+@@@++++$ +++++++++++++++++++++@+@@@++++$ ",
"+++++++++++++++++++++++++++++++ +++++++++++++++++++++++++++++++ ",
"+++++++++++++++++++++++++++++++ +++++++++++++++++++++++++++++++ ",
".+++++++++++++++++++++++++++++. .+++++++++++++++++++++++++++++. ",
"                                                                ",
"@@++++++++++++. .+++@+@###@+++++@@++++++++++++. .+++@+@###@+++++",
"+++++++++++++++ +++++++++++++++++++++++++++++++ ++++++++++++++++",
"+++++++..+.++   +++++++++++++++++++++++..+.++   ++++++++++++++++",
"++++++++@@++++$ $+++++++++++++++++++++++@@++++$ $+++++++++++++++",
"+++++++++++++++     +..+.++++++++++++++++++++++     +..+.+++++++",
"+++++++++++++++ ++++++@@@+@++++++++++++++++++++ ++++++@@@+@+++++",
"++++++++++++++. .+++++++++++++++++++++++++++++. .+++++++++++++++",
"                                                                ",
".+++@+@@###@+@@+++++++++++++++. .+++@+@@###@+@@+++++++++++++++. ",
"+++++++++++++++++++++++++++++++ +++++++++++++++++++++++++++++++ ",
"$++++++++++++++++++++++++++++++ $++++++++++++++++++++++++++++++ ",
"  +..+.++++++++++++++++++++++++   +..+.++++++++++++++++++++++++ ",
"$++@@+@@+++++++++++++++++++++++ $++@@+@@+++++++++++++++++++++++ ",
"+++++++++++++++++++++++++++++++ +++++++++++++++++++++++++++++++ ",
".+++++++++++++++++++++++++++++. .+++++++++++++++++++++++++++++. ",
"                                                                ",
"++@@+@++++++++. .+++@+@###@@++++++@@+@++++++++. .+++@+@###@@++++",
"+++++++++++++++ +++++++++++++++++++++++++++++++ ++++++++++++++++",
".........%%.    .........................%%.    ................",
"............... ............................... ................",
"..............% %.............................% %...............",
"                                                                ",
"                                                                ",
"&&&&&&&&&&&&&&&&&&&&&&&&&&&&&&&&&&&&&&&&&&&&&&&&&&&&&&&&&&&&&&&&",
"*=*--*==*--;>&>;--**=*--;>&>;--**=*--*==*--;>&>;--**=*--;>&>;--*",
"------------>&>---------->&>---------------->&>---------->&>----",
"------------>&>---------->&>---------------->&>---------->&>----",
"-----------;>&>;--------;>&>;--------------;>&>;--------;>&>;---",
"----------;>>&>>;------;>>&>>;------------;>>&>>;------;>>&>>;--",
">>>>>>>>>>>>>&>>>>>>>>>>>>&>>>>>>>>>>>>>>>>>>&>>>>>>>>>>>>&>>>>>",
">>>>>>>>>>>>,&,>>>>>>>>>>,&,>>>>>>>>>>>>>>>>,&,>>>>>>>>>>,&,>>>>",
"&&&&&&&&&&&&&&&&&&&&&&&&&&&&&&&&&&&&&&&&&&&&&&&&&&&&&&&&&&&&&&&&",
"&&&&&&&&&&&&&&&&&&&&&&&&&&&&&&&&&&&&&&&&&&&&&&&&&&&&&&&&&&&&&&&&",
"&')!!!)'&&&&&&&&&')!!!)'&&&&&&&&&')!!!)'&&&&&&&&&')!!!)'&&&&&&&&",
"&)!!!!!)&'!!!!!'&)!!!!!)&'!!!!!'&)!!!!!)&'!!!!!'&)!!!!!)&'!!!!!'",
"&&&&&&&&&&&&&&&&&&&&&&&&&&&&&&&&&&&&&&&&&&&&&&&&&&&&&&&&&&&&&&&&",
"!!!'&'!!!!'&'!!!!!!'&'!!!!'&'!!!!!!'&'!!!!'&'!!!!!!'&'!!!!'&'!!!",
"~~~{&{~~~~{&{~~~~~~{&{~~~~{&{~~~~~~{&{~~~~{&{~~~~~~{&{~~~~{&{~~~",
"~~~!&!~~~~!&!~~~~~~!&!~~~~!&!~~~~~~!&!~~~~!&!~~~~~~!&!~~~~!&!~~~",
"&&&&&&&&&&&&&&&&&&&&&&&&&&&&&&&&&&&&&&&&&&&&&&&&&&&&&&&&&&&&&&&&",
"&!~~~~~!&!~~~~~!&!~~~~~!&!~~~~~!&!~~~~~!&!~~~~~!&!~~~~~!&!~~~~~!",
"&~~~~~~~&~~~~~~~&~~~~~~~&~~~~~~~&~~~~~~~&~~~~~~~&~~~~~~~&~~~~~~~",
"&!~~~~~!&!~~~~~!&!~~~~~!&!~~~~~!&!~~~~~!&!~~~~~!&!~~~~~!&!~~~~~!",
"&&&&&&&&&&&&&&&&&&&&&&&&&&&&&&&&&&&&&&&&&&&&&&&&&&&&&&&&&&&&&&&&",
"~~~!&{~~~~{&!~~~~~~!&{~~~~{&!~~~~~~!&{~~~~{&!~~~~~~!&{~~~~{&!~~~",
"~~~~&!{~~{!&~~~~~~~~&!{~~{!&~~~~~~~~&!{~~{!&~~~~~~~~&!{~~{!&~~~~",
"~~~!&&&&&&&&!~~~~~~!&&&&&&&&!~~~~~~!&&&&&&&&!~~~~~~!&&&&&&&&!~~~",
"&&&&&&&&&&&&&&&&&&&&&&&&&&&&&&&&&&&&&&&&&&&&&&&&&&&&&&&&&&&&&&&&",
"&&&&&&&&&&&&&&&&&&&&&&&&&&&&&&&&&&&&&&&&&&&&&&&&&&&&&&&&&&&&&&&&",
"&&&&&&&&&&&&&&&&&&&&&&&&&&&&&&&&&&&&&&&&&&&&&&&&&&&&&&&&&&&&&&&&",
"&&&&&&&&&&&&&&&&&&&&&&&&&&&&&&&&&&&&&&&&&&&&&&&&&&&&&&&&&&&&&&&&",
"&&&&&&&&&&&&&&&&&&&&&&&&&&&&&&&&&&&&&&&&&&&&&&&&&&&&&&&&&&&&&&&&",
"&&&&&&&&&&&&&&&&&&&&&&&&&&&&&&&&&&&&&&&&&&&&&&&&&&&&&&&&&&&&&&&&",
"&&&&&&&&&&&&&&&&&&&&&&&&&&&&&&&&&&&&&&&&&&&&&&&&&&&&&&&&&&&&&&&&",
"&&&&&&&&&&&&&&&&&&&&&&&&&&&&&&&&&&&&&&&&&&&&&&&&&&&&&&&&&&&&&&&&"};
