/* XPM */
static char * wall_r_xpm[] = {
"32 32 11 1",
" 	c #FFEAB7",
".	c #FBCA97",
"+	c #E27F6D",
"@	c #3F3851",
"#	c #EDA27F",
"$	c #89365C",
"%	c #AE444E",
"&	c #BF5753",
"*	c #CD7363",
"=	c #D25654",
"-	c #FFFAD6",
" ....++@@@@@@@@@@@@@@@@@@@@@@@@@",
"....#++@@$%%%&%@%*****%@%**%@%@@",
"#..#+++@@%%%%**@*******@****@*@@",
"++++++=@@$%%%&%@%*****%@%**%@%@@",
"@@@@@@@@@@@@@@@@@@@@@@@@@@@@@@@@",
"++++++=@@@@$&*****%@%**%@%***@@@",
"#..#+++@@@@%*******@****@****@@@",
"....#++@@@@$&*****%@%**%@%***@@@",
".....++@@@@@@@@@@@@@@@@@@@@@@@@@",
" ....++@@$%%%&%@%*****%@%**%@%*@",
" ....++@@%%%%**@*******@****@**@",
"-....++@@$%%%&%@%*****%@%**%@%*@",
" ....++@@@@@@@@@@@@@@@@@@@@@@@@@",
".....++@@@@$&*****%@%**%@%***@@@",
"....#++@@@@%*******@****@****@@@",
"#..#+++@@@@$&*****%@%**%@%***@@@",
"++++++=@@@@@@@@@@@@@@@@@@@@@@@@@",
"@@@@@@@@@$%%%&%@%*****%@%**%@%*@",
"++++++=@@%%%%**@*******@****@**@",
"#..#+++@@$%%%&%@%*****%@%**%@%*@",
"....#++@@@@@@@@@@@@@@@@@@@@@@@@@",
".....++@@@@$******%@%**%@%***@@@",
" ....++@@@@%*******@****@****@@@",
" ....++@@@@$******%@%**%@%***@@@",
" ....++@@@@@@@@@@@@@@@@@@@@@@@@@",
".....++@@$%%%&%@%****%@$%%%&@%@@",
" ....++@@%%%%**@******@%%%%*@*@@",
".....++@@$%%%&%@%****%@$%%%&@%@@",
"....#++@@@@@@@@@@@@@@@@@@@@@@@@@",
"#..#+++@@@@$&*****%@%**%@%***@@@",
"++++++=@@@@%*******@****@****@@@",
"@@@@@@@@@@@$&*****%@%**%@%***@@@"};
