/* XPM */
static char * wall_down_xpm[] = {
"32 32 11 1",
" 	c #FFEAB7",
".	c #FBCA97",
"+	c #EDA27F",
"@	c #E27F6D",
"#	c #3F3851",
"$	c #FFFAD6",
"%	c #D25654",
"&	c #AE444E",
"*	c #CD7363",
"=	c #BF5753",
"-	c #89365C",
" .+@#@+..  $ ..+@#@+..   . ..+@#",
"...@#@..........@#@...........@#",
"...@#@..........@#@...........@#",
"..+@#@+........+@#@+.........+@#",
".+@@#@@+......+@@#@@+.......+@@#",
"@@@@#@@@@@@@@@@@@#@@@@@@@@@@@@@#",
"@@@%#%@@@@@@@@@@%#%@@@@@@@@@@@%#",
"################################",
"#&******&#&*****&#=&&&&&-#-&&&&-",
"#********#*******#******=#=****=",
"#&******&#&*****&#&*****&#&****&",
"################################",
"#***&#&****&#&******&#&****&#&**",
"#***=#=****=#********#******#***",
"#&&&-#-&&&&-#&******&#&****&#&**",
"################################",
"#&#-&&&*&#-&&&*&#-=*****&#&****&",
"#*#&&&&**#&&&&**#&*******#******",
"#&#-&&&*&#-&&&*&#-=*****&#&****&",
"################################",
"#*&#=*****&#-=*****&#-=*****&#-&",
"#**#*******#&*******#&*******#&&",
"#*&#=*****&#-=*****&#-=*****&#-&",
"################################",
"#&******&#&*****&#=&&&&&-#-&&&&-",
"#********#*******#******=#=****=",
"#&******&#&*****&#&*****&#&****&",
"################################",
"#***&########&******&########&**",
"#***=########********########***",
"#&&&-########&******&########&**",
"################################"};
