/* XPM */
static char * door_open_xpm[] = {
"32 32 401 2",
"  	c #6E5967",
". 	c #6F5967",
"+ 	c #8A6270",
"@ 	c #926572",
"# 	c #966B74",
"$ 	c #A07B7D",
"% 	c #8B6C74",
"& 	c #B38D85",
"* 	c #7B606B",
"= 	c #B59187",
"- 	c #B4A094",
"; 	c #B4A599",
"> 	c #B4958B",
", 	c #89676F",
"' 	c #B08681",
") 	c #B4A297",
"! 	c #B49F94",
"~ 	c #B4A69A",
"{ 	c #715A68",
"] 	c #725A68",
"^ 	c #7D5D6C",
"/ 	c #AB6F7A",
"( 	c #AD707B",
"_ 	c #AE7D81",
": 	c #917B7B",
"< 	c #F3BDA7",
"[ 	c #FCCAAE",
"} 	c #FBCAAE",
"| 	c #FBCBAF",
"1 	c #A56D79",
"2 	c #AC6F7B",
"3 	c #A46D78",
"4 	c #D89F94",
"5 	c #FBD6BB",
"6 	c #FBCDB1",
"7 	c #F8C2A9",
"8 	c #FAC8AD",
"9 	c #AA6F7A",
"0 	c #927375",
"a 	c #FBD5B9",
"b 	c #EDA799",
"c 	c #E18587",
"d 	c #815E6B",
"e 	c #A56C74",
"f 	c #86616C",
"g 	c #A76D75",
"h 	c #A66C74",
"i 	c #946672",
"j 	c #825E6C",
"k 	c #F3B8A3",
"l 	c #EFAC9C",
"m 	c #D58284",
"n 	c #6B5866",
"o 	c #805E6D",
"p 	c #AB6F7B",
"q 	c #6D5866",
"r 	c #646E7E",
"s 	c #8E5400",
"t 	c #905500",
"u 	c #925600",
"v 	c #8C5200",
"w 	c #795C6A",
"x 	c #936672",
"y 	c #B88486",
"z 	c #AE817E",
"A 	c #FBC9AE",
"B 	c #E6928E",
"C 	c #6D5967",
"D 	c #765B6A",
"E 	c #7C5D6B",
"F 	c #7D5E6B",
"G 	c #6E5866",
"H 	c #804B00",
"I 	c #824C00",
"J 	c #7D4900",
"K 	c #C39490",
"L 	c #C39590",
"M 	c #B69288",
"N 	c #F9C7AC",
"O 	c #AB6F76",
"P 	c #7D5D6D",
"Q 	c #AA6E7A",
"R 	c #B77F81",
"S 	c #C08F8D",
"T 	c #6F7886",
"U 	c #714200",
"V 	c #734300",
"W 	c #6D3F00",
"X 	c #7A5D6A",
"Y 	c #B88B89",
"Z 	c #A87079",
"` 	c #C0928F",
" .	c #B28F86",
"..	c #AB7E7D",
"+.	c #82606B",
"@.	c #7C5E6B",
"#.	c #8A626F",
"$.	c #937277",
"%.	c #947378",
"&.	c #697281",
"*.	c #623800",
"=.	c #633900",
"-.	c #5E3600",
";.	c #8D6771",
">.	c #9D747A",
",.	c #A47E80",
"'.	c #A78685",
").	c #B28681",
"!.	c #FCCBAF",
"~.	c #F4B7A3",
"{.	c #9F6A73",
"].	c #6B6A78",
"^.	c #766675",
"/.	c #C1928E",
"(.	c #C49591",
"_.	c #8F6972",
":.	c #6A7583",
"<.	c #522E00",
"[.	c #542F00",
"}.	c #4F2C00",
"|.	c #B88386",
"1.	c #A37D7F",
"2.	c #87656F",
"3.	c #C39390",
"4.	c #B5A69A",
"5.	c #FAC7AC",
"6.	c #9E6972",
"7.	c #798D98",
"8.	c #727987",
"9.	c #BE908D",
"0.	c #967478",
"a.	c #6E7886",
"b.	c #432500",
"c.	c #452600",
"d.	c #402300",
"e.	c #C2938F",
"f.	c #9F7A7D",
"g.	c #B6978C",
"h.	c #AD7C80",
"i.	c #B88C8A",
"j.	c #C1928F",
"k.	c #C1938F",
"l.	c #8B636F",
"m.	c #7A8892",
"n.	c #351C00",
"o.	c #371D00",
"p.	c #381E03",
"q.	c #392008",
"r.	c #371E02",
"s.	c #321A00",
"t.	c #B27B81",
"u.	c #B48A89",
"v.	c #886770",
"w.	c #BC8B8A",
"x.	c #B69B90",
"y.	c #6A5766",
"z.	c #6D5765",
"A.	c #7D8B94",
"B.	c #2B1A0D",
"C.	c #423833",
"D.	c #615C59",
"E.	c #6C6865",
"F.	c #58514E",
"G.	c #382C26",
"H.	c #271505",
"I.	c #9A6C76",
"J.	c #A88182",
"K.	c #A0747A",
"L.	c #C59E97",
"M.	c #977077",
"N.	c #B69388",
"O.	c #A66D7A",
"P.	c #AE707B",
"Q.	c #835E6D",
"R.	c #747F8C",
"S.	c #3E3A37",
"T.	c #898786",
"U.	c #C3C3C2",
"V.	c #D1D0D0",
"W.	c #AEADAC",
"X.	c #666463",
"Y.	c #27201C",
"Z.	c #C29490",
"`.	c #C59591",
" +	c #9D6972",
".+	c #B29D99",
"++	c #AB8E8B",
"@+	c #A17C7F",
"#+	c #A5797A",
"$+	c #EBBDA5",
"%+	c #E0A295",
"&+	c #986871",
"*+	c #996876",
"=+	c #A56D78",
"-+	c #7B5C6B",
";+	c #707A87",
">+	c #676767",
",+	c #CCCCCC",
"'+	c #F8F8F8",
")+	c #FCFCFB",
"!+	c #EDEDED",
"~+	c #A8A8A8",
"{+	c #434241",
"]+	c #A8747C",
"^+	c #AF7E82",
"/+	c #976771",
"(+	c #C49792",
"_+	c #B07E82",
":+	c #B98D8A",
"<+	c #87606D",
"[+	c #687282",
"}+	c #868686",
"|+	c #E8E8E8",
"1+	c #FEFEFE",
"2+	c #FFFFFF",
"3+	c #FCFCFC",
"4+	c #D5D5D5",
"5+	c #6C6C6C",
"6+	c #646F7F",
"7+	c #7C5D6C",
"8+	c #A46C79",
"9+	c #B6A094",
"0+	c #7E636C",
"a+	c #756E7A",
"b+	c #9A9A9A",
"c+	c #E9E9E9",
"d+	c #EAEAEA",
"e+	c #858585",
"f+	c #6A6270",
"g+	c #9B757A",
"h+	c #9A7278",
"i+	c #A07B7E",
"j+	c #A68584",
"k+	c #B69F94",
"l+	c #A1757B",
"m+	c #A98282",
"n+	c #849FA8",
"o+	c #888892",
"p+	c #AFAFAF",
"q+	c #F3F3F3",
"r+	c #E6E6E6",
"s+	c #7F7F7F",
"t+	c #747581",
"u+	c #82979F",
"v+	c #745D69",
"w+	c #735C69",
"x+	c #B6A398",
"y+	c #7B5D6B",
"z+	c #7F99A3",
"A+	c #807E89",
"B+	c #A2A2A2",
"C+	c #EBEBEB",
"D+	c #7B7B7B",
"E+	c #706D7B",
"F+	c #81969E",
"G+	c #B98587",
"H+	c #8D6370",
"I+	c #A7A7A7",
"J+	c #EEEEEE",
"K+	c #E4E4E4",
"L+	c #797979",
"M+	c #6F6C7A",
"N+	c #81959E",
"O+	c #C49490",
"P+	c #735A69",
"Q+	c #88616E",
"R+	c #7F7C88",
"S+	c #FBFBFB",
"T+	c #FDFDFD",
"U+	c #DDDDDD",
"V+	c #767676",
"W+	c #957479",
"X+	c #906B73",
"Y+	c #815F6B",
"Z+	c #BE8A8A",
"`+	c #767380",
" @	c #777777",
".@	c #C1C1C1",
"+@	c #F6F6F6",
"@@	c #ECECEC",
"#@	c #B3B3B2",
"$@	c #535353",
"%@	c #82969E",
"&@	c #755B69",
"*@	c #B6958B",
"=@	c #C3928F",
"-@	c #444342",
";@	c #8E8E8D",
">@	c #D0D0D0",
",@	c #C2C1C1",
"'@	c #767575",
")@	c #282422",
"!@	c #81636E",
"~@	c #846870",
"{@	c #6E6C7A",
"]@	c #281F1A",
"^@	c #585553",
"/@	c #8E8C8B",
"(@	c #A4A3A2",
"_@	c #7D7B7A",
":@	c #423D3A",
"<@	c #1D0D00",
"[@	c #7E606C",
"}@	c #755C6A",
"|@	c #916B73",
"1@	c #A0777B",
"2@	c #70737F",
"3@	c #656A7A",
"4@	c #2B1705",
"5@	c #382A21",
"6@	c #4E4540",
"7@	c #58504C",
"8@	c #473C36",
"9@	c #332113",
"0@	c #2C1600",
"a@	c #7D7681",
"b@	c #987479",
"c@	c #758F9B",
"d@	c #697A89",
"e@	c #946E74",
"f@	c #667181",
"g@	c #361D01",
"h@	c #391F00",
"i@	c #3B2102",
"j@	c #3C2205",
"k@	c #3B2000",
"l@	c #BD8A88",
"m@	c #B58F86",
"n@	c #F8C3AA",
"o@	c #6E5B69",
"p@	c #7D5E6C",
"q@	c #B78A89",
"r@	c #86606D",
"s@	c #6F7887",
"t@	c #452705",
"u@	c #482801",
"v@	c #492900",
"w@	c #472700",
"x@	c #B78C8A",
"y@	c #6D5A69",
"z@	c #7D616C",
"A@	c #977A79",
"B@	c #936F73",
"C@	c #795D69",
"D@	c #9A6876",
"E@	c #65707F",
"F@	c #553106",
"G@	c #573305",
"H@	c #583201",
"I@	c #583200",
"J@	c #563100",
"K@	c #795C69",
"L@	c #B48B84",
"M@	c #FDCBAF",
"N@	c #F7BEA7",
"O@	c #9E6A72",
"P@	c #653C0C",
"Q@	c #693D06",
"R@	c #693D04",
"S@	c #693D01",
"T@	c #693C01",
"U@	c #663B00",
"V@	c #B5A89C",
"W@	c #6B7584",
"X@	c #77470F",
"Y@	c #79480C",
"Z@	c #7A4806",
"`@	c #7A4805",
" #	c #7A4701",
".#	c #774501",
"+#	c #9B6C76",
"@#	c #B59087",
"##	c #8C6470",
"$#	c #895317",
"%#	c #8A530F",
"&#	c #8B530C",
"*#	c #8B5308",
"=#	c #8B5206",
"-#	c #8A5102",
";#	c #874F01",
">#	c #745B69",
",#	c #BA8788",
"'#	c #A77076",
")#	c #E4958F",
"!#	c #E18D8B",
"~#	c #96626F",
"{#	c #646D7D",
"]#	c #9A5D1B",
"^#	c #9B5D14",
"/#	c #9C5D0E",
"(#	c #9C5D0A",
"_#	c #9C5D08",
":#	c #9A5B04",
"<#	c #975A02",
"[#	c #AC6F7A",
"}#	c #825F6E",
"|#	c #97636F",
"1#	c #A66D79",
"2#	c #6A5866",
"3#	c #6C5866",
"4#	c #6C5967",
"    . + @ # $ % & * & = - ; > , ' = ) ! ~ & * & % $ # @ + .     ",
"{ ] ^ / ( _ : < [ } | | | | } | | } | | } | | [ < : _ ( / ^ { . ",
"1 / 2 ( 3 4 5 6 7 8 8 8 8 8 8 8 8 8 8 8 8 8 8 7 6 5 4 3 ( 2 9 + ",
"1 / / / 0 a } b c d e e e e e f g h e e e e d c b } a 0 / / 9 + ",
"i i i j k } l m n o p q r s t u u t s v r w o n m l } k j i i x ",
"y y y z A 8 B C D E F G r H I I I I H J r   .   C B 8 A z y y y ",
"K K L M } N O P Q R S q T U V V V V U W T X Y Z P O N } M K K K ",
"` ` ` ,  ...+.@.#.$.%.q &.*.=.=.=.=.*.-.&.] %.;.@.+... ., ` ` ` ",
">.,.'.).!.~.{.].^./.(._.:.<.[.[.[.[.<.}.:.|./.^.].{.~.!.).1.1.2.",
"3.K L 4.| 5.6.7.8.9.K 0.a.b.c.c.c.c.b.d.a.e.9.8.7.6.5.| 4.K K f.",
"K K K g.} 5.6.h.i.j.k.l.m.n.o.p.q.r.n.s.m.t.j.i.h.6.5.} g.u.1.v.",
"w.` ` x.} 5.6.n y.y.y.z.A.B.C.D.E.F.G.H.A.I.J.J.K.6.5.} x.L.9.M.",
"1.1.1.N.} 8 6.O.P.P.P.Q.R.S.T.U.V.W.X.Y.R.Z.K K `. +8 } N..+++@+",
"y y y #+$+%+&+*+=+=+=+-+;+>+,+'+)+!+~+{+;+]+i.i.^+/+%+$+#+(+(.K ",
"/ 2 ( #+$+%+/+_+:+:+:+<+[+}+|+1+2+3+4+5+6+]+i.i.^+/+%+$+#+K K K ",
"] 7+8+9+| 8  +`.K K K 0+a+b+c+3+2+1+d+e+f+g+K K `. +8 | 9+` ` ` ",
"h+i+j+k+| 5.6.l+m+m+m+n+o+p+q+3+1+1+r+s+t+u+J.J.K.6.5.| k+v+w+w+",
"3.K L x+| 5.6.{ y+y+y+z+A+B+C+1+2+1+d+D+E+F+k.k.G+ +5.| x+^ { . ",
"K K K M } 5.6.H+( ( ( z+A+I+J+1+2+1+K+L+M+N+K K O+ +5.} M 2 9 + ",
"w.` ` ).!.~.{.P+Q+Q+Q+z+R+B+|+S+1+T+U+V+E+F+W+W+X+{.~.!.)./ 9 + ",
"++'.1.,  ...Y+Z+(.(.(.z+`+ @.@C++@@@#@$@M+%@#.#.&@+... ., i i x ",
"(.L K *@} N  +=@K K K z+E+-@;@>@r+,@'@)@M+F+( ( H+6.N } *@y y y ",
"K K L 4.| 5.6.!@~@~@~@z+{@]@^@/@(@_@:@<@{@%@[@[@}@6.5.| 4.K K K ",
"` ` ` 9+| 5.6.|@1@3.(.2@3@4@5@6@7@8@9@0@3@a@3.1@b@6.5.| 9+` ` ` ",
">.,.'.M } 5.6.c@d@9.K e@f@g@h@i@j@k@k@h@f@l@9.d@c@6.5.} M 1.1.2.",
"3.K L m@} n@6.o@p@q@:+r@s@t@u@v@v@v@v@w@s@x@q@p@y@6.n@} m@K K f.",
"K K K z@A@B@C@D@=+=+=+q E@F@G@H@H@I@I@J@E@]+i.:+_+K@B@A@z@u.1.v.",
"w.` ` L@M@N@O@O.P.P.P.q f@P@Q@R@S@S@T@U@f@Z.K K `.6.N@M@L@L.9.M.",
"1.1.1.V@| 5.6.n y.y.y.q W@X@Y@Z@`@ # #.#W@+#m+m+l+6.5.| V@.+++@+",
"y y y @#} n@6.G+k.k.k.##r $#%#&#*#=#-#;#r { y+y+>#6.n@} @#,#G+y ",
"/ 2 ( '#)#!#~#G+k.k.k.##{#]#^#/#(#_#:#<#{#D [#[#}#|#!#)#'#( 2 / ",
"] 7+1#C 2#2#C 3#3#3#3#3#3#3#3#C     C 4#4#4#4#4#  C 2#2#C 1#7+] "};
