/* XPM */
static char * door_closed_xpm[] = {
"32 32 297 2",
"  	c #6E5967",
". 	c #6F5967",
"+ 	c #8A6270",
"@ 	c #926572",
"# 	c #966B74",
"$ 	c #A07B7D",
"% 	c #8B6C74",
"& 	c #B38D85",
"* 	c #7B606B",
"= 	c #B59187",
"- 	c #B4A094",
"; 	c #B4A599",
"> 	c #B4958B",
", 	c #89676F",
"' 	c #B08681",
") 	c #B4A297",
"! 	c #B49F94",
"~ 	c #B4A69A",
"{ 	c #715A68",
"] 	c #725A68",
"^ 	c #7D5D6C",
"/ 	c #AB6F7A",
"( 	c #AD707B",
"_ 	c #AE7D81",
": 	c #917B7B",
"< 	c #F3BDA7",
"[ 	c #FCCAAE",
"} 	c #937677",
"| 	c #FBCAAE",
"1 	c #FBCBAF",
"2 	c #B39087",
"3 	c #FCCBAF",
"4 	c #A56D79",
"5 	c #AC6F7B",
"6 	c #A46D78",
"7 	c #D89F94",
"8 	c #FBD6BB",
"9 	c #FBCDB1",
"0 	c #F8C2A9",
"a 	c #8F6D72",
"b 	c #FAC8AD",
"c 	c #AC7F7E",
"d 	c #F5B9A4",
"e 	c #AA6F7A",
"f 	c #927375",
"g 	c #FBD5B9",
"h 	c #EDA799",
"i 	c #E18587",
"j 	c #815E6B",
"k 	c #A56C74",
"l 	c #86616C",
"m 	c #A76D75",
"n 	c #A66C74",
"o 	c #946672",
"p 	c #825E6C",
"q 	c #F3B8A3",
"r 	c #EFAC9C",
"s 	c #D58284",
"t 	c #6B5866",
"u 	c #805E6D",
"v 	c #AB6F7B",
"w 	c #AF717C",
"x 	c #A16A78",
"y 	c #6D5866",
"z 	c #646E7E",
"A 	c #795C6A",
"B 	c #936672",
"C 	c #B88486",
"D 	c #AE817E",
"E 	c #FBC9AE",
"F 	c #E6928E",
"G 	c #6D5967",
"H 	c #765B6A",
"I 	c #7C5D6B",
"J 	c #7D5E6B",
"K 	c #785C6A",
"L 	c #6E5866",
"M 	c #705A68",
"N 	c #C39490",
"O 	c #C39590",
"P 	c #B69288",
"Q 	c #F9C7AC",
"R 	c #AB6F76",
"S 	c #7D5D6D",
"T 	c #AA6E7A",
"U 	c #B77F81",
"V 	c #C08F8D",
"W 	c #BF8D8B",
"X 	c #AB717B",
"Y 	c #6F7886",
"Z 	c #7A5D6A",
"` 	c #AF7B7D",
" .	c #B98D8B",
"..	c #B98D8A",
"+.	c #B88B89",
"@.	c #A87079",
"#.	c #C0928F",
"$.	c #B28F86",
"%.	c #AB7E7D",
"&.	c #82606B",
"*.	c #7C5E6B",
"=.	c #8A626F",
"-.	c #937277",
";.	c #947378",
">.	c #8A6570",
",.	c #697281",
"'.	c #937177",
").	c #8D6771",
"!.	c #9D747A",
"~.	c #A47E80",
"{.	c #A78685",
"].	c #B28681",
"^.	c #F4B7A3",
"/.	c #9F6A73",
"(.	c #6B6A78",
"_.	c #766675",
":.	c #C1928E",
"<.	c #C49591",
"[.	c #C49490",
"}.	c #8F6972",
"|.	c #6A7583",
"1.	c #B88386",
"2.	c #A37D7F",
"3.	c #87656F",
"4.	c #C39390",
"5.	c #B5A69A",
"6.	c #FAC7AC",
"7.	c #9E6972",
"8.	c #798D98",
"9.	c #727987",
"0.	c #BE908D",
"a.	c #967478",
"b.	c #6E7886",
"c.	c #C2938F",
"d.	c #9F7A7D",
"e.	c #B6978C",
"f.	c #AD7C80",
"g.	c #B88C8A",
"h.	c #C1928F",
"i.	c #C1938F",
"j.	c #8B636F",
"k.	c #7A8892",
"l.	c #B27B81",
"m.	c #B48A89",
"n.	c #886770",
"o.	c #BC8B8A",
"p.	c #B69B90",
"q.	c #6A5766",
"r.	c #6D5765",
"s.	c #7D8B94",
"t.	c #9A6C76",
"u.	c #A88182",
"v.	c #A0747A",
"w.	c #C59E97",
"x.	c #977077",
"y.	c #B69388",
"z.	c #A66D7A",
"A.	c #AE707B",
"B.	c #835E6D",
"C.	c #747F8C",
"D.	c #C29490",
"E.	c #C59591",
"F.	c #9D6972",
"G.	c #B29D99",
"H.	c #AB8E8B",
"I.	c #A17C7F",
"J.	c #A5797A",
"K.	c #EBBDA5",
"L.	c #E0A295",
"M.	c #986871",
"N.	c #996876",
"O.	c #A56D78",
"P.	c #A46C78",
"Q.	c #7B5C6B",
"R.	c #707A87",
"S.	c #A8747C",
"T.	c #AF7E82",
"U.	c #976771",
"V.	c #C49792",
"W.	c #B07E82",
"X.	c #87606D",
"Y.	c #646F7F",
"Z.	c #7C5D6C",
"`.	c #A46C79",
" +	c #B6A094",
".+	c #7E636C",
"++	c #69606F",
"@+	c #9B757A",
"#+	c #C2928F",
"$+	c #9A7278",
"%+	c #A07B7E",
"&+	c #A68584",
"*+	c #B69F94",
"=+	c #A1757B",
"-+	c #A98282",
";+	c #A98081",
">+	c #79606C",
",+	c #849FA8",
"'+	c #747581",
")+	c #82979F",
"!+	c #9C7075",
"~+	c #745D69",
"{+	c #735C69",
"]+	c #B6A398",
"^+	c #7B5D6B",
"/+	c #6F5B69",
"(+	c #7F99A3",
"_+	c #6F6C7A",
":+	c #81969E",
"<+	c #AA747C",
"[+	c #B98587",
"}+	c #8D6370",
"|+	c #7B5F6C",
"1+	c #81959E",
"2+	c #BA8D8B",
"3+	c #735A69",
"4+	c #88616E",
"5+	c #87616E",
"6+	c #715B69",
"7+	c #967479",
"8+	c #957479",
"9+	c #906B73",
"0+	c #815F6B",
"a+	c #BE8A8A",
"b+	c #7F636E",
"c+	c #82969E",
"d+	c #7B5D6C",
"e+	c #8A636F",
"f+	c #755B69",
"g+	c #B6958B",
"h+	c #C3928F",
"i+	c #826770",
"j+	c #A36B78",
"k+	c #81636E",
"l+	c #846870",
"m+	c #836770",
"n+	c #6E6C7A",
"o+	c #775C6A",
"p+	c #7F606C",
"q+	c #7E606C",
"r+	c #755C6A",
"s+	c #916B73",
"t+	c #A0777B",
"u+	c #A06F78",
"v+	c #70737F",
"w+	c #656A7A",
"x+	c #7D7681",
"y+	c #BC8A88",
"z+	c #987479",
"A+	c #758F9B",
"B+	c #697A89",
"C+	c #946E74",
"D+	c #667181",
"E+	c #BD8A88",
"F+	c #B58F86",
"G+	c #F8C3AA",
"H+	c #6E5B69",
"I+	c #7D5E6C",
"J+	c #B78A89",
"K+	c #86606D",
"L+	c #6F7887",
"M+	c #B78C8A",
"N+	c #6D5A69",
"O+	c #7D616C",
"P+	c #977A79",
"Q+	c #936F73",
"R+	c #795D69",
"S+	c #9A6876",
"T+	c #926474",
"U+	c #65707F",
"V+	c #795C69",
"W+	c #B48B84",
"X+	c #FDCBAF",
"Y+	c #F7BEA7",
"Z+	c #9E6A72",
"`+	c #A06A78",
" @	c #B5A89C",
".@	c #6B5766",
"+@	c #6B7584",
"@@	c #9B6C76",
"#@	c #B59087",
"$@	c #8C6470",
"%@	c #745B69",
"&@	c #BA8788",
"*@	c #A77076",
"=@	c #E4958F",
"-@	c #E18D8B",
";@	c #96626F",
">@	c #646D7D",
",@	c #A96E7A",
"'@	c #AC6F7A",
")@	c #825F6E",
"!@	c #97636F",
"~@	c #A66D79",
"{@	c #6A5866",
"]@	c #6C5866",
"^@	c #6C5967",
"    . + @ # $ % & * & = - ; > , ' = ) ! ~ & * & % $ # @ + .     ",
"{ ] ^ / ( _ : < [ } [ | 1 1 | 2 3 | 1 1 1 [ } [ < : _ ( / ^ { . ",
"4 / 5 ( 6 7 8 9 0 a 0 b b b b c d b b b b 0 a 0 9 8 7 6 ( 5 e + ",
"4 / / / f g | h i j k k k k k l m n k k k k j i h | g f / / e + ",
"o o o p q | r s t u v w w w x y z A ( w w v u t s r | q p o o B ",
"C C C D E b F G H I J J J J K L z   M M M M .   G F b E D C C C ",
"N N O P | Q R S T U V V V W X y Y Z `  .....+.@.S R Q | P N N N ",
"#.#.#., $.%.&.*.=.-.;.;.;.;.>.y ,.] '.;.;.;.;.).*.&.%.$., #.#.#.",
"!.~.{.].3 ^./.(._.:.<.<.<.<.[.}.|.1.<.<.<.<.:._.(./.^.3 ].2.2.3.",
"4.N O 5.1 6.7.8.9.0.N N N N N a.b.c.N N N N 0.9.8.7.6.1 5.N N d.",
"N N N e.| 6.7.f.g.h.i.i.i.i.h.j.k.l.i.i.i.i.h.g.f.7.6.| e.m.2.n.",
"o.#.#.p.| 6.7.t q.q.q.q.q.q.q.r.s.t.u.u.u.u.u.u.v.7.6.| p.w.0.x.",
"2.2.2.y.| b 7.z.A.A.A.A.A.A.( B.C.D.N N N N N N E.F.b | y.G.H.I.",
"C C C J.K.L.M.N.O.O.O.O.O.O.P.Q.R.S.g.g.g.g.g.g.T.U.L.K.J.V.<.N ",
"/ 5 ( J.K.L.U.W.............g.X.Y.S.g.g.g.g.g.g.T.U.L.K.J.N N N ",
"] Z.`. +1 b F.E.N N N N N N 1..+++@+#+N N N N N E.F.b 1  +#.#.#.",
"$+%+&+*+1 6.7.=+-+-+-+-+-+;+>+,+'+)+!+u.u.u.u.u.v.7.6.1 *+~+{+{+",
"4.N O ]+1 6.7.{ ^+^+^+^+^+Z /+(+_+:+<+i.i.i.i.i.[+F.6.1 ]+^ { . ",
"N N N P | 6.7.}+( ( ( ( ( ( |+(+_+1+2+N N N N N [.F.6.| P 5 e + ",
"o.#.#.].3 ^./.3+4+4+4+4+4+5+6+(+_+:+5+7+8+8+8+8+9+/.^.3 ]./ e + ",
"H.{.2., $.%.0+a+<.<.<.<.<.#+b+(+_+c+d+e+=.=.=.=.f+&.%.$., o o B ",
"<.O N g+| Q F.h+N N N N N N i+(+_+:+j+( ( ( ( ( }+7.Q | g+C C C ",
"N N O 5.1 6.7.k+l+l+l+l+l+m+6+(+n+c+o+p+q+q+q+q+r+7.6.1 5.N N N ",
"#.#.#. +1 6.7.s+t+4.<.<.<.[.u+v+w+x+y+<.<.<.4.t+z+7.6.1  +#.#.#.",
"!.~.{.P | 6.7.A+B+0.N N N N N C+D+E+N N N N 0.B+A+7.6.| P 2.2.3.",
"4.N O F+| G+7.H+I+J+........g.K+L+M+g.g.g.g.J+I+N+7.G+| F+N N d.",
"N N N O+P+Q+R+S+O.O.O.O.O.O.T+y U+S.g.g.g.g.g...W.V+Q+P+O+m.2.n.",
"o.#.#.W+X+Y+Z+z.A.A.A.A.A.A.`+y D+D.N N N N N N E.7.Y+X+W+w.0.x.",
"2.2.2. @1 6.7.t q.q.q.q.q.q..@y +@@@-+-+-+-+-+-+=+7.6.1  @G.H.I.",
"C C C #@| G+7.[+i.i.i.i.i.i.h.$@z { ^+^+^+^+^+^+%@7.G+| #@&@[+C ",
"/ 5 ( *@=@-@;@[+i.i.i.i.i.i.h.$@>@H ,@'@'@'@'@'@)@!@-@=@*@( 5 / ",
"] Z.~@G {@{@G ]@]@]@]@]@]@]@]@G     G ^@^@^@^@^@  G {@{@G ~@Z.] "};
