/* XPM */
static char * kingo_2_xpm[] = {
"64 64 27 1",
" 	c #6E5967",
".	c #AD707B",
"+	c #C39490",
"@	c #D1B1A5",
"#	c #B77F83",
"$	c #DCCABE",
"%	c #3F3851",
"&	c #E44B3B",
"*	c #EF895A",
"=	c #F6C27D",
"-	c #FFEFA9",
";	c #5F7D93",
">	c #768EA1",
",	c #A5C2C7",
"'	c #F2F7F6",
")	c #B9355C",
"!	c #DA4949",
"~	c #CD8674",
"{	c #DEB19C",
"]	c #E36254",
"^	c #ECD4BE",
"/	c #F07860",
"(	c #F69972",
"_	c #8CA9B5",
":	c #25667E",
"<	c #298A91",
"[	c #37AB9C",
"                                                                ",
".++++@@@@@++@+++++++++++++++++. .++++@@@@@++@+++++++++++++++++. ",
"+++++++++++++++++++++++++++++++ +++++++++++++++++++++++++++++++ ",
"++++++++++++++++++++.+.....++   ++++++++++++++++++++.+.....++   ",
"+++++++++++++++++++++@+@@@++++# +++++++++++++++++++++@+@@@++++# ",
"+++++++++++++++++++++++++++++++ +++++++++++++++++++++++++++++++ ",
"+++++++++++++++++++++++++++++++ +++++++++++++++++++++++++++++++ ",
".+++++++++++++++++++++++++++++. .+++++++++++++++++++++++++++++. ",
"                                                                ",
"@@@+++++++++++. .+++@+@@@@@+++++@@@+++++++++++. .+++@+@@@@@+++++",
"+++++++++++++++ +++++++++++++++++++++++++++++++ ++++++++++++++++",
"+++++++..+.++   +++++++++++++++++++++++..+.++   ++++++++++++++++",
"++++++@+@@++++# ++++++++++++++++++++++@+@@++++# ++++++++++++++++",
"+++++++++++++++ +++++++++++++++++++++++++++++++ ++++++++++++++++",
"+++++++++++++++ +++++++++++++++++++++++++++++++ ++++++++++++++++",
"++++++++++++++. .+++++++++++++++++++++++++++++. .+++++++++++++++",
"                                                                ",
".+++@+@@$$$@+@@+++++++++++++++. .+++@+@@$$$@+@@+++++++++++++++. ",
"+++++++++++++++++++++++++++++++ +++++++++++++++++++++++++++++++ ",
"+++++++++++++++++++++++++++++++ +++++++++++++++++++++++++++++++ ",
"++++++++++++++++++++++++++++++# ++++++++++++++++++++++++++++++# ",
"++++++++++++++++++++++..%%%%  %%%%%%+%%+++++++++++++++..+.+     ",
"+++++++++++++++++++++++%&*=*%%*==-=-%-=%++++++++++++++++@+@@+++ ",
".++++++++++++++++++++++%**==%%==%%%-%--%++++++++++++++++++++++. ",
"                       %**==*===*%*-=--%                        ",
"++++++++++++++. .+++@+@%&*==*======-=-=%++++++. .+++@+@@@$$$@@++",
"+++++++++++++++ +++++++%%%%%%%%%%%%%%%%%+++++++ ++++++++++++++++",
"++++...++.++    ++++++%;>%;>>,%,,,%',%''%.++    ++++++++++++++++",
"+++++@+++@@+@+# ++++++%%%%%%%%%%%%%%%%%%%@@+@+# ++++++++++++++++",
"+++++++++++++++ ++++++%%)!!!!!~{{{{{~!!%%++++++ ++++++++++++++++",
"+++++++++++++++ +++++++%!!!!]{%^^^^^%{]%+++++++ ++++++++++++++++",
"++++++++++++++. .++++++%!!]//^^^////^^/%++++++. .+++++++++++++++",
"                       %)!///////%%////%                        ",
".++++@@@@@++@++++++++++%%!]!///(/(((///%@@++@+++++++++++++++++. ",
"++++++++++%%%%%%%%%++++%%%!!///////////%+++++++++++++++++++++++ ",
"+++++++++%',''',',_%.+%{~%)%]!////////]%++++++++++++.+.....++   ",
"+++++++++%,_______>%+%^^{%%%!!/]!//]!]!%%++++++++++++@+@@@++++# ",
"+++++++++%,_,___,_>%+%^^{~%%)%!!!!!!%!!%^%+++++++++++++++++++++ ",
"+++++++++%,_>___>_>%+%^%%~~%%%)!%)!)%)%%{%+%%++++++++++++++++++ ",
".++++++++%,_______>%%%%%%%%%%%%%%%%%%%%%%%%,'%++++++++++++++++. ",
"         %,_______>%%%;;___,,,',''',,___;%%_,%                  ",
"@@@++++++%,_______>%%%%%%%%%%%%%%%%%%%%%%%%;_%. .+++@+@@@@@+++++",
"+++++++++%,_______>%++++%%%%%%%%%%%%%%%++++%%++ ++++++++++++++++",
"+++++++..%,_,___,_>%++++%:<<<<[[<[<<<:%..+.++   ++++++++++++++++",
"++++++@+@%,_>___>_>%++++%<:%%%%%%%%%:<%+@@++++# ++++++++++++++++",
"+++++++++%_>>>>>>>;%++++%:%+++++++++%:%++++++++ ++++++++++++++++",
"++++++++++%%%%%%%%%+++++%%++++++++++%%+++++++++ ++++++++++++++++",
"++++++++++++++. .+++++++++++++++++++++++++++++. .+++++++++++++++",
"                                                                ",
".+++@+@@$$$@+@@+++++++++++++++. .+++@+@@$$$@+@@+++++++++++++++. ",
"+++++++++++++++++++++++++++++++ +++++++++++++++++++++++++++++++ ",
"+++++++++++++++++++++++++++++++ +++++++++++++++++++++++++++++++ ",
"++++++++++++++++++++++++++++++# ++++++++++++++++++++++++++++++# ",
"++++++++++++++++++++++..+.+     ++++++++++++++++++++++..+.+     ",
"++++++++++++++++++++++++@+@@+++ ++++++++++++++++++++++++@+@@+++ ",
".+++++++++++++++++++++++++++++. .+++++++++++++++++++++++++++++. ",
"                                                                ",
"++++++++++++++. .+++@+@@@$$$@@++++++++++++++++. .+++@+@@@$$$@@++",
"+++++++++++++++ +++++++++++++++++++++++++++++++ ++++++++++++++++",
"++++...++.++    ++++++++++++++++++++...++.++    ++++++++++++++++",
"+++++@+++@@+@+# +++++++++++++++++++++@+++@@+@+# ++++++++++++++++",
"+++++++++++++++ +++++++++++++++++++++++++++++++ ++++++++++++++++",
"+++++++++++++++ +++++++++++++++++++++++++++++++ ++++++++++++++++",
"++++++++++++++. .+++++++++++++++++++++++++++++. .+++++++++++++++"};
