/* XPM */
static char *en_10[] = {
/* columns rows colors chars-per-pixel */
"32 32 207 2 ",
"   c #34586C",
".  c #3D5F6F",
"X  c #386A72",
"o  c #377577",
"O  c #367378",
"+  c #455F65",
"@  c #475E65",
"#  c #5B5C71",
"$  c #5A5E71",
"%  c #5C6669",
"&  c #436F72",
"*  c #476F7C",
"=  c #4B7A75",
"-  c #4F7E7E",
";  c #4E7E7F",
":  c #5F7C78",
">  c #65616D",
",  c #686D6C",
"<  c #736471",
"1  c #706974",
"2  c #647B7D",
"3  c #7B7579",
"4  c #856570",
"5  c #876571",
"6  c #896A73",
"7  c #8A6A73",
"8  c #8B6A73",
"9  c #8C6A74",
"0  c #8D6A74",
"q  c #8D6B74",
"w  c #8C6C75",
"e  c #8F6E76",
"r  c #916D76",
"t  c #906F76",
"y  c #87727C",
"u  c #8D7178",
"i  c #897979",
"p  c #8F7D7B",
"a  c #947077",
"s  c #947078",
"d  c #967178",
"f  c #967379",
"g  c #99737A",
"h  c #99747A",
"j  c #9B767B",
"k  c #9D757B",
"l  c #9B767C",
"z  c #9D777D",
"x  c #9E777C",
"c  c #91797B",
"v  c #90787C",
"b  c #93787D",
"n  c #9C787D",
"m  c #9D787D",
"M  c #9E797D",
"N  c #9D797E",
"B  c #9D787F",
"V  c #9E797E",
"C  c #9D7A7E",
"Z  c #9E7A7E",
"A  c #9F7A7E",
"S  c #A07A7E",
"D  c #A17A7E",
"F  c #A07B7F",
"G  c #A17B7F",
"H  c #A17C7F",
"J  c #A27C7F",
"K  c #3B8A7F",
"L  c #42897C",
"P  c #4B8E7D",
"I  c #508472",
"U  c #578874",
"Y  c #538F78",
"T  c #469078",
"R  c #499179",
"E  c #4E947C",
"W  c #569179",
"Q  c #55977E",
"!  c #619078",
"~  c #68957A",
"^  c #9B7D80",
"/  c #9F7D80",
"(  c #9F7E81",
")  c #A17C80",
"_  c #A27C80",
"`  c #A27D80",
"'  c #A27D81",
"]  c #A37E81",
"[  c #A37F81",
"{  c #A07F82",
"}  c #A47D81",
"|  c #338C86",
" . c #3A8B80",
".. c #3E9D82",
"X. c #409582",
"o. c #439E80",
"O. c #44A580",
"+. c #4AA280",
"@. c #4CAB83",
"#. c #4FB487",
"$. c #41B28E",
"%. c #45BA8B",
"&. c #46B98C",
"*. c #57B98A",
"=. c #908280",
"-. c #908480",
";. c #9C8080",
":. c #9C8382",
">. c #9E8382",
",. c #A18083",
"<. c #A38082",
"1. c #A48183",
"2. c #A78183",
"3. c #A48384",
"4. c #A58384",
"5. c #A58385",
"6. c #A38586",
"7. c #A48586",
"8. c #A48787",
"9. c #A68687",
"0. c #A78787",
"q. c #AB8083",
"w. c #AB8183",
"e. c #AD8585",
"r. c #A58A87",
"t. c #A78888",
"y. c #A78988",
"u. c #A88888",
"i. c #A98888",
"p. c #A98989",
"a. c #A98C8C",
"s. c #A98D8D",
"d. c #AB8E8E",
"f. c #B18787",
"g. c #B48687",
"h. c #B38988",
"j. c #B38989",
"k. c #B18A89",
"l. c #B38A89",
"z. c #B48988",
"x. c #B58889",
"c. c #B68889",
"v. c #B68A89",
"b. c #B78D8B",
"n. c #B88B8A",
"m. c #BA8A8A",
"M. c #BD898A",
"N. c #BD8A8A",
"B. c #BD8A8B",
"V. c #BE8B8B",
"C. c #B88C8A",
"Z. c #B98C8A",
"A. c #B88C8B",
"S. c #B88D8B",
"D. c #B98D8B",
"F. c #BA8D8B",
"G. c #BA8E8C",
"H. c #B6908E",
"J. c #B9908D",
"K. c #BB908E",
"L. c #BE908D",
"P. c #BC918E",
"I. c #BC928E",
"U. c #AB9191",
"Y. c #AD9292",
"T. c #9197A2",
"R. c #8CA0A6",
"E. c #9EA8AF",
"W. c #A0AEB1",
"Q. c #C08E8D",
"!. c #C08F8D",
"~. c #C18F8D",
"^. c #C08F8E",
"/. c #C18F8E",
"(. c #C1908E",
"). c #C2908E",
"_. c #C2918F",
"`. c #C0938F",
"'. c #C3938F",
"]. c #C19390",
"[. c #C29390",
"{. c #C39390",
"}. c #C39490",
"|. c #C39491",
" X c #C39591",
".X c #C49490",
"XX c #C49590",
"oX c #C49591",
"OX c #C59591",
"+X c #C49691",
"@X c #C59691",
"#X c #C49692",
"$X c #C59692",
"%X c #C59792",
"&X c #C79692",
"*X c #C79792",
"=X c #C69793",
"-X c #C59893",
";X c #C69893",
":X c #C79893",
">X c #C69993",
",X c #C59A94",
"<X c #C69A94",
"1X c #C69A95",
"2X c #C79A95",
"3X c #C69B95",
"4X c #C79B96",
/* pixels */
"g Z ,.8.6./ { Z Z Z Z Z Z Z M 5 s Z ,.8.6./ { Z Z Z Z Z Z Z M 4 ",
"'.XX%X>X;X+X$XXXoX'.!.V.B.~.h.e Z.OX%X>X;X+X$XXXoX'.!.V.B.~.z.6 ",
"XX.X.X.X.X.X.X.X.X}.#X-X1X}.L.l D.oX.X.X.X.X.X.X.X}.#X-X1X}.L.f ",
"g.A.A.A.A.A.A.D.S.A.A.A.C.A.Z.d q.S.A.A.A.A.A.D.S.A.A.A.C.A.C.a ",
"9.4.` ` ` ` J q h [ 3.0.y.4.J N 7.4.` ` ` ` J q h [ 3.0.y.4.) n ",
">X%X+X/.Q.).h.e Z.@X%X;X>X%XXX+X;X%X+X/.Q.).h.e Z.@X%X;X>X%XXXoX",
".X.X+X-X1X}.L.l D.oX.X.X.X.X.X.X.X.X+X-X1X}.L.l D.oX.X.X.X.X.X.X",
"S.A.A.C.C.C.n.d q.D.A.A.A.A.A.D.S.A.A.C.C.C.n.d q.D.A.A.A.A.A.D.",
"x [ 3.t.U.a.5.( A ` ` ` ` ` H 0 h [ 3.t.U.a.5.( A ` ` ` ` ` G 8 ",
"'.oX%X;X4X<X%X%XoXXXXXoXoXoXOXD n.@X%X;X4X<X%X%XoXXXXXoXoXoXOXz ",
"XX.X.X.X}.}..X.X.XXX'.N.(.l.` t G.oX.X.X}.}..X.X.XXX'.N.(.l.` 7 ",
"g.S.A.A.A.A.A.D.S.A.C.v.J.H.e.r w.D.A.A.A.A.A.D.S.A.C.v.J.H.e.q ",
"F ` ` ` ` ` _ q h [ 4.0.d.Y.p.A F ] } ] ` ` _ q h [ 4.0.s.U.t.C ",
"oX{.M.Q._.`.2.e Z.@X%X%Xr.=.k.c.x.f.p >.).].2.e Z.@X%X;X2X4X>X+X",
".X}. X{.>X1XI.l D.oXoXZ., E Y ~ ! W Q % K.3XI.l D.oX.X.X}.}..X.X",
"S.A.A.A.C.A.Z.d q.D.S.j.> ..o.+.&.@. .< Z.A.Z.d q.D.A.A.A.A.A.D.",
"x ` 3.y.0.<.1.m S ` ` y E.- U I ; W.* 1 i.<.1.m S ` ` ` ` ` J 9 ",
"'.XX%X>X;X+X$XoXoX'.).B T.$ R T # R.L 3 :X+X$XoXoX'.!.V.B.~.h.6 ",
"XX.X.X.X.X.X.X.X.X}.=X:.@   O o X X.O.P ;.OX.X.X.X}.#X-X1X}.L.f ",
"g.A.A.A.A.A.A.D.S.A.F.c + | $.#.*.%.K & v F.A.D.S.A.A.A.C.A.C.a ",
"9.4.` ` ` ` J q h [ 4.0.b = : i -.2 . w ` ` J q h [ 3.0.y.4.) n ",
">X%X+X/.Q.).h.e Z.@X%X;X;X^ ' &X:Xb.u m.^.).h.e Z.@X%X;X>X%XXXoX",
".X.X+X-X1X}.L.l D.oX.X.X.XOXOX.X.XoX*X-X1X}.L.l D.oX.X.X.X.X.X.X",
"S.A.A.C.C.C.n.d q.D.A.A.A.A.A.D.S.A.A.C.C.C.n.d q.D.A.A.A.A.A.D.",
"x [ 3.t.U.a.5.( A ` ` ` ` ` H 0 h [ 3.t.U.a.5.( A ` ` ` ` ` G 8 ",
"'.oX%X;X4X<X%X%XoXXXXXoXoXoXOXD n.@X%X;X4X<X%X%XoXXXXXoXoXoXOXz ",
"XX.X.X.X}.}..X.X.XXX'.N.(.l.` t G.oX.X.X}.}..X.X.XXX'.N.(.l.` 7 ",
"g.S.A.A.A.A.A.D.S.A.C.v.J.H.e.r w.D.A.A.A.A.A.D.S.A.C.v.J.H.e.q ",
"F ` ` ` ` ` _ q h [ 4.0.s.U.u.V A ` ` ` ` ` _ q h [ 4.0.s.U.t.C ",
"oX{.M.Q._.`.2.e Z.@X%X;X2X4X>X+XoX{.M.Q._.`.2.e Z.@X%X;X2X4X>X+X",
"}.{.|.[.-X,XP.j S..X}.}.}.}.}.}.}.{.|.[.-X,XP.j S..X}.}.}.}.}.}.",
"}.}.}.}.}.}.{.k g.XX}.}.}.}.}.}.}.}.}.}.}.}.{.k g.XX}.}.}.}.}.}."
};
