/* XPM */
static char *en_3[] = {
/* columns rows colors chars-per-pixel */
"32 32 211 2 ",
"   c #34586C",
".  c #3C5D6E",
"X  c #386A72",
"o  c #377577",
"O  c #367378",
"+  c #5F5C69",
"@  c #5E5D6C",
"#  c #5B5C71",
"$  c #5A5D71",
"%  c #426867",
"&  c #52666D",
"*  c #586C6B",
"=  c #476E7C",
"-  c #4B7A75",
";  c #4F7E7E",
":  c #4E7E7F",
">  c #5F7C78",
",  c #66616D",
"<  c #736471",
"1  c #716974",
"2  c #647B7D",
"3  c #737E79",
"4  c #856570",
"5  c #876571",
"6  c #896A73",
"7  c #8A6A73",
"8  c #8B6A73",
"9  c #8C6A74",
"0  c #8D6A74",
"q  c #8D6B74",
"w  c #8F6E76",
"e  c #916D76",
"r  c #906F76",
"t  c #8D7178",
"y  c #88727C",
"u  c #897979",
"i  c #8C787B",
"p  c #8D7A7B",
"a  c #947077",
"s  c #927178",
"d  c #947078",
"f  c #967178",
"g  c #947279",
"h  c #967379",
"j  c #95747C",
"k  c #99737A",
"l  c #99747A",
"z  c #9B767B",
"x  c #9D757B",
"c  c #9B767C",
"v  c #9B777C",
"b  c #9D777D",
"n  c #9E777C",
"m  c #9A797D",
"M  c #987B7E",
"N  c #9C787D",
"B  c #9D787D",
"V  c #9E797D",
"C  c #9D797E",
"Z  c #9E797E",
"A  c #9D7A7E",
"S  c #9E7A7E",
"D  c #9F7A7E",
"F  c #A07A7E",
"G  c #A17A7E",
"H  c #A17B7F",
"J  c #A17C7F",
"K  c #A27C7F",
"L  c #4C8673",
"P  c #4D8673",
"I  c #40857A",
"U  c #42857B",
"Y  c #508472",
"T  c #578874",
"R  c #469078",
"E  c #499179",
"W  c #67847A",
"Q  c #668B7B",
"!  c #6B8978",
"~  c #619078",
"^  c #68957A",
"/  c #828B7F",
"(  c #997D81",
")  c #9B7D80",
"_  c #9F7D80",
"`  c #9F7E81",
"'  c #A17C80",
"]  c #A27C80",
"[  c #A27D80",
"{  c #A27D81",
"}  c #A37E81",
"|  c #A37F81",
" . c #A07F82",
".. c #368B82",
"X. c #328C86",
"o. c #3A8B80",
"O. c #3E9380",
"+. c #3E9D82",
"@. c #438F80",
"#. c #419582",
"$. c #439F80",
"%. c #41A686",
"&. c #4AA280",
"*. c #4DAC84",
"=. c #4FB487",
"-. c #41B28E",
";. c #45BA8B",
":. c #46B98C",
">. c #57B98A",
",. c #908480",
"<. c #9E868A",
"1. c #A18083",
"2. c #A38082",
"3. c #A48183",
"4. c #A78183",
"5. c #A48384",
"6. c #A58384",
"7. c #A58385",
"8. c #A38586",
"9. c #A48586",
"0. c #A48787",
"q. c #A68687",
"w. c #A78787",
"e. c #AB8083",
"r. c #AB8183",
"t. c #AC8585",
"y. c #AD8585",
"u. c #AC8586",
"i. c #AD8586",
"p. c #A38789",
"a. c #A78888",
"s. c #A78988",
"d. c #A88888",
"f. c #AA8888",
"g. c #A98C8C",
"h. c #A98D8D",
"j. c #B48687",
"k. c #B38988",
"l. c #B38989",
"z. c #B38A89",
"x. c #B48988",
"c. c #B68889",
"v. c #B78989",
"b. c #B68A89",
"n. c #B78A89",
"m. c #B78D8B",
"M. c #B98A8A",
"N. c #B88B8A",
"B. c #BB8B8B",
"V. c #BD898A",
"C. c #BD8A8A",
"Z. c #BD8A8B",
"A. c #BE8B8B",
"S. c #B88C8A",
"D. c #B98C8A",
"F. c #B88C8B",
"G. c #B88D8B",
"H. c #B98D8B",
"J. c #B98E8D",
"K. c #BA8E8C",
"L. c #B6908E",
"P. c #B7918E",
"I. c #B9908D",
"U. c #BA908D",
"Y. c #BE908D",
"T. c #BC918E",
"R. c #BC928E",
"E. c #BF928F",
"W. c #AB9191",
"Q. c #8F9DA4",
"!. c #8C9FA6",
"~. c #9EA8AF",
"^. c #A0AEB1",
"/. c #C08E8D",
"(. c #C08F8D",
"). c #C18F8D",
"_. c #C18F8E",
"`. c #C1908E",
"'. c #C2908E",
"]. c #C2918F",
"[. c #C0938F",
"{. c #C3938F",
"}. c #C19390",
"|. c #C29390",
" X c #C39390",
".X c #C39490",
"XX c #C39491",
"oX c #C39591",
"OX c #C49490",
"+X c #C49590",
"@X c #C49591",
"#X c #C59591",
"$X c #C69591",
"%X c #C49691",
"&X c #C59691",
"*X c #C49692",
"=X c #C59692",
"-X c #C59792",
";X c #C79692",
":X c #C79792",
">X c #C69793",
",X c #C59893",
"<X c #C69893",
"1X c #C79893",
"2X c #C69993",
"3X c #C59A94",
"4X c #C69A94",
"5X c #C69A95",
"6X c #C79A95",
"7X c #C79B95",
"8X c #C79B96",
/* pixels */
"k S 1.0.8._  .S S S S S S S V 5 d S 1.0.8._  .S S S S S S S V 4 ",
"{.+X-X2X<X%X=X+X@X{.(.A.Z.).k.w D.#X-X2X<X%X=X+X@X{.(.A.Z.).x.6 ",
"+XOXOXOXOXOXOXOXOX.X*X,X5X.XY.c H.@XOXOXOXOXOXOXOX.X*X,X5X.XY.h ",
"j.F.F.F.F.F.F.H.G.F.F.F.S.F.S.f e.H.F.F.F.F.F.H.G.F.F.F.S.F.S.a ",
"q.6.[ [ [ [ K q l | 5.w.s.6.K C 9.6.[ [ [ [ K q l | 5.w.s.6.' N ",
"2X-X%X_./.'.k.w D.&X-X<X2X-X+X%X<X-X%X_./.'.k.w D.&X-X<X2X-X+X@X",
"OXOX%X,X5X.XY.c H.@XOXOXOXOXOXOXOXOX%X,X5X.XY.c H.@XOXOXOXOXOXOX",
"G.F.F.S.S.S.N.f e.H.F.F.F.F.F.H.G.F.F.S.S.S.N.f e.H.F.F.F.F.F.H.",
"n } 5.a.W.g.7.` D [ [ [ [ [ J 0 l | 5.a.W.g.7.` D [ [ [ [ [ H 8 ",
"{.@X-X<X8X4X-X-X@X+X+X@X+X@X$XG N.&X-X<X8X4X-X-X@X+X+X@X+X@X$Xb ",
"+XOXOXOX.X.XOXOXOX+X{.C.`.z.[ r K.@XOXOX.X.XOXOXOX+X{.C.`.z.[ 7 ",
"j.G.F.F.F.F.F.H.G.F.S.b.U.P.i.e r.H.H.G.F.F.F.H.G.F.S.b.I.L.y.q ",
"H [ [ [ [ [ ] q l | 5.w.p.<.a.D H [ g v { [ ] q l | 6.w.h.W.a.A ",
"@X XV./.].[.4.w D.&X-XE./ Q M v.c.m ! 3 B.}.4.w D.&X-X<X6X8X2X%X",
"OX.XoX X2X5XR.c H.@X@Xn.* I L ^ ~ P U & J.7XR.c H.@XOXOX.X.XOXOX",
"G.F.F.F.S.F.D.f e.H.G.l., +.$.&.:.*.o.< D.F.D.f e.H.F.F.F.F.F.H.",
"n [ 5.s.w.2.3.B F [ [ y ~.; T Y : ^.= 1 f.2.3.B F [ [ [ [ [ K 9 ",
"{.+X-X2X<X%X=X@X@X{.'.j Q.$ E R # !.@.W U.&X=X@X@X{.(.A.Z.).k.6 ",
"+XOXOXOXOXOXOXOXOX.X>Xp %   O o X #.%.O.i $XOXOXOX.X*X,X5X.XY.h ",
"j.F.F.F.F.F.F.H.G.F.G.t.+ X.-.=.>.;...@ u.H.F.H.G.F.F.F.S.F.S.a ",
"q.6.[ [ [ [ K q l | 5.d.( - > u ,.2 . s } [ K q l | 5.w.s.6.' N ",
"2X-X%X_./.'.k.w D.&X-X<X,X) { ;X1Xm.t M.(.'.k.w D.&X-X<X2X-X+X@X",
"OXOX%X,X5X.XY.c H.@XOXOXOX#X#XOXOX@X:X,X5X.XY.c H.@XOXOXOXOXOXOX",
"G.F.F.S.S.S.N.f e.H.F.F.F.F.F.H.G.F.F.S.S.S.N.f e.H.F.F.F.F.F.H.",
"n } 5.a.W.g.7.` D [ [ [ [ [ J 0 l | 5.a.W.g.7.` D [ [ [ [ [ H 8 ",
"{.@X-X<X8X4X-X-X@X+X+X@X+X@X$XG N.&X-X<X8X4X-X-X@X+X+X@X+X@X$Xb ",
"+XOXOXOX.X.XOXOXOX+X{.C.`.z.[ r K.@XOXOX.X.XOXOXOX+X{.C.`.z.[ 7 ",
"j.G.F.F.F.F.F.H.G.F.S.b.I.L.y.e r.H.F.F.F.F.F.H.G.F.S.b.I.L.y.q ",
"H [ [ [ [ [ ] q l | 6.w.h.W.d.Z D [ [ [ [ [ ] q l | 6.w.h.W.a.A ",
"@X XV./.].[.4.w D.&X-X<X6X8X2X%X@X XV./.].[.4.w D.&X-X<X6X8X2X%X",
".X XXX|.,X3XT.z G.OX.X.X.X.X.X.X.X XXX|.,X3XT.z G.OX.X.X.X.X.X.X",
".X.X.X.X.X.X Xx j.+X.X.X.X.X.X.X.X.X.X.X.X.X Xx j.+X.X.X.X.X.X.X"
};
