/* XPM */
static char *en_6[] = {
/* columns rows colors chars-per-pixel */
"32 32 217 2 ",
"   c #3C5D6E",
".  c #3C7471",
"X  c #464E65",
"o  c #465067",
"O  c #645E67",
"+  c #496166",
"@  c #5F6D7B",
"#  c #5F6E7B",
"$  c #477477",
"%  c #457D71",
"&  c #477E73",
"*  c #4C7B76",
"=  c #46727B",
"-  c #417D7E",
";  c #5F7C78",
":  c #5E797C",
">  c #66606B",
",  c #6B6C73",
"<  c #756370",
"1  c #756772",
"2  c #796B75",
"3  c #647B7D",
"4  c #737673",
"5  c #856570",
"6  c #876571",
"7  c #896A73",
"8  c #8A6A73",
"9  c #8B6A73",
"0  c #8C6A74",
"q  c #8D6A74",
"w  c #8D6B74",
"e  c #8F6E76",
"r  c #916D76",
"t  c #906F76",
"y  c #86707A",
"u  c #8D7178",
"i  c #827B79",
"p  c #807C7A",
"a  c #887878",
"s  c #897979",
"d  c #8B7B7A",
"f  c #947077",
"g  c #917178",
"h  c #947078",
"j  c #967178",
"k  c #947279",
"l  c #967379",
"z  c #99737A",
"x  c #99747A",
"c  c #9B767B",
"v  c #9D757B",
"b  c #9B767C",
"n  c #9D777D",
"m  c #9E777C",
"M  c #93797C",
"N  c #9B787D",
"B  c #9C787D",
"V  c #9D787D",
"C  c #9E797D",
"Z  c #9D797E",
"A  c #9E797E",
"S  c #9D7A7E",
"D  c #9E7A7E",
"F  c #9F7A7E",
"G  c #A07A7E",
"H  c #A17A7E",
"J  c #A07A7F",
"K  c #A17B7F",
"L  c #A27B7F",
"P  c #A17C7F",
"I  c #A27C7F",
"U  c #51997A",
"Y  c #599D7C",
"T  c #678B7B",
"R  c #6C8978",
"E  c #82817B",
"W  c #2D7581",
"Q  c #767B85",
"!  c #987D81",
"~  c #9B7D80",
"^  c #9F7D80",
"/  c #9F7E81",
"(  c #A17C80",
")  c #A27C80",
"_  c #A27D80",
"`  c #A37D80",
"'  c #A27D81",
"]  c #A37E80",
"[  c #A37E81",
"{  c #A37F81",
"}  c #A07F82",
"|  c #358D84",
" . c #3E9B82",
".. c #3B9D86",
"X. c #3A9E87",
"o. c #37978A",
"O. c #379989",
"+. c #588586",
"@. c #419380",
"#. c #419581",
"$. c #429980",
"%. c #409B87",
"&. c #4E9980",
"*. c #6D9D90",
"=. c #42A987",
"-. c #47B183",
";. c #46B084",
":. c #42B68A",
">. c #47BB89",
",. c #47BC8B",
"<. c #52B886",
"1. c #53BB86",
"2. c #59B886",
"3. c #5BBF88",
"4. c #908380",
"5. c #9C8081",
"6. c #9D8281",
"7. c #9E8383",
"8. c #9E868A",
"9. c #A18083",
"0. c #A38082",
"q. c #A48183",
"w. c #A78183",
"e. c #A38185",
"r. c #A48384",
"t. c #A58384",
"y. c #A58385",
"u. c #A38586",
"i. c #A48586",
"p. c #A48787",
"a. c #A68687",
"s. c #A78787",
"d. c #AB8083",
"f. c #AB8183",
"g. c #A88787",
"h. c #AD8585",
"j. c #AD8586",
"k. c #A88788",
"l. c #A3888A",
"z. c #A78888",
"x. c #A78988",
"c. c #A88888",
"v. c #A98C8C",
"b. c #A98D8D",
"n. c #B48687",
"m. c #B38988",
"M. c #B38A89",
"N. c #B48988",
"B. c #B68A89",
"V. c #B78D8B",
"C. c #B98A8A",
"Z. c #B88B8A",
"A. c #BD898A",
"S. c #BD8A8A",
"D. c #BD8A8B",
"F. c #BE8B8B",
"G. c #B88C8A",
"H. c #B98C8A",
"J. c #B88C8B",
"K. c #B88D8B",
"L. c #B98D8B",
"P. c #BA8C8B",
"I. c #BB8C8B",
"U. c #BA8D8B",
"Y. c #BB8D8B",
"T. c #BA8E8C",
"R. c #BC8E8C",
"E. c #B6908E",
"W. c #B7918E",
"Q. c #B9908D",
"!. c #BA908D",
"~. c #BE908D",
"^. c #BC918E",
"/. c #BC928E",
"(. c #BF928F",
"). c #AB9191",
"_. c #BF9390",
"`. c #C08E8D",
"'. c #C08F8D",
"]. c #C18F8D",
"[. c #C18F8E",
"{. c #C1908E",
"}. c #C2908E",
"|. c #C2918F",
" X c #C0938F",
".X c #C3938F",
"XX c #C19390",
"oX c #C29390",
"OX c #C39390",
"+X c #C39490",
"@X c #C39491",
"#X c #C39591",
"$X c #C49490",
"%X c #C49590",
"&X c #C49591",
"*X c #C59591",
"=X c #C49691",
"-X c #C59691",
";X c #C49692",
":X c #C59692",
">X c #C59792",
",X c #C69692",
"<X c #C79692",
"1X c #C79792",
"2X c #C69793",
"3X c #C59893",
"4X c #C69893",
"5X c #C79893",
"6X c #C69993",
"7X c #C59A94",
"8X c #C69A94",
"9X c #C69A95",
"0X c #C79A95",
"qX c #C69B95",
"wX c #C79B96",
"eX c #B2BBC0",
"rX c #B2BCC1",
/* pixels */
"z D 9.p.u.^ } D D D D D D D C 6 h D 9.p.u.^ } D D D D D D D C 5 ",
".X%X>X6X4X=X:X%X&X.X'.F.D.].m.e H.*X>X6X4X=X:X%X&X.X'.F.D.].N.7 ",
"%X$X$X$X$X$X$X$X$X+X;X3X9X+X~.b L.&X$X$X$X$X$X$X$X+X;X3X9X+X~.l ",
"n.J.J.J.J.J.J.L.K.J.J.J.G.J.G.j d.L.J.J.J.J.J.L.K.J.J.J.G.J.G.f ",
"a.t._ _ _ _ I w x { r.s.x.t.I Z i.t._ _ _ _ I w x { r.s.x.t.( B ",
"6X>X=X[.`.}.m.e H.-X>X4X6X>X%X=X4X>X=X[.`.}.m.e H.-X>X4X6X>X%X&X",
"$X$X=X3X9X+X~.b L.&X$X$X$X$X$X$X$X$X=X3X9X+X~.b L.&X$X$X$X$X$X$X",
"K.J.J.G.G.G.Z.j d.L.J.J.J.J.J.L.K.J.J.G.G.G.Z.j d.L.J.J.J.J.J.L.",
"m [ r.z.).v.y./ F _ _ _ _ _ P q x { r.z.).v.y./ F _ _ _ _ _ K 9 ",
".X&X>X4XwX8X>X>X&X%X%X&X&X&X*XH Z.-X>X4XwX8X>X>X&X%X%X&X&X&X*Xn ",
"%X$X$X$X+X+X$X$X$X%X.XS.{.M._ t T.&X$X$X+X+X$X$X$X%X.XS.{.M._ 8 ",
"n.K.J.J.J.J.J.L.K.J.G.B.!.W.j.r f.L.L.K.J.J.J.L.K.J.G.B.Q.E.h.w ",
"K _ _ _ _ _ ) w x { r.s.l.8.k.J L ) k N ` _ ) w x { t.s.b.).z.S ",
"&XOXA.`.|. Xw.e H.-X>X(.E T p d a i R 4 I.XXw.e H.-X>X4X0XwX6X-X",
"$X+X#XOX6X9X/.b L.&X&XR.O $.;.2.<.-.@.> _.qX/.b L.&X$X$X+X+X$X$X",
"K.J.J.J.G.J.H.j d.L.L.e.Q #.& % %.*.- 2 Y.J.H.j d.L.J.J.J.J.J.L.",
"m _ r.x.s.0.q.V G _ ` y rX# Y U @ eX= , g.0.q.V G _ _ _ _ _ I 0 ",
".X%X>X6X4X=X:X&X&X.X}.M : X . . o +.=.&.7.,X:X&X&X.X'.F.D.].m.7 ",
"%X$X$X$X$X$X$X$X$X+X2X6.+ W o...X.:. .$ 5.*X$X$X$X+X;X3X9X+X~.l ",
"n.J.J.J.J.J.J.L.K.J.J.P.1 O.,.1.3.>.| < U.J.J.L.K.J.J.J.G.J.G.f ",
"a.t._ _ _ _ I w x { r.c.! * ; s 4.3   g ] _ I w x { r.s.x.t.( B ",
"6X>X=X[.`.}.m.e H.-X>X4X3X~ ' <X5XV.u C.'.}.m.e H.-X>X4X6X>X%X&X",
"$X$X=X3X9X+X~.b L.&X$X$X$X*X*X$X$X&X1X3X9X+X~.b L.&X$X$X$X$X$X$X",
"K.J.J.G.G.G.Z.j d.L.J.J.J.J.J.L.K.J.J.G.G.G.Z.j d.L.J.J.J.J.J.L.",
"m [ r.z.).v.y./ F _ _ _ _ _ P q x { r.z.).v.y./ F _ _ _ _ _ K 9 ",
".X&X>X4XwX8X>X>X&X%X%X&X&X&X*XH Z.-X>X4XwX8X>X>X&X%X%X&X&X&X*Xn ",
"%X$X$X$X+X+X$X$X$X%X.XS.{.M._ t T.&X$X$X+X+X$X$X$X%X.XS.{.M._ 8 ",
"n.K.J.J.J.J.J.L.K.J.G.B.Q.E.h.r f.L.J.J.J.J.J.L.K.J.G.B.Q.E.h.w ",
"K _ _ _ _ _ ) w x { t.s.b.).c.A F _ _ _ _ _ ) w x { t.s.b.).z.S ",
"&XOXA.`.|. Xw.e H.-X>X4X0XwX6X=X&XOXA.`.|. Xw.e H.-X>X4X0XwX6X-X",
"+XOX@XoX3X7X^.c K.$X+X+X+X+X+X+X+XOX@XoX3X7X^.c K.$X+X+X+X+X+X+X",
"+X+X+X+X+X+XOXv n.%X+X+X+X+X+X+X+X+X+X+X+X+XOXv n.%X+X+X+X+X+X+X"
};
