/* XPM */
static char *en_7[] = {
/* columns rows colors chars-per-pixel */
"32 32 218 2 ",
"   c #35586C",
".  c #3C5D6E",
"X  c #386A72",
"o  c #377477",
"O  c #367278",
"+  c #5B5C71",
"@  c #5B5E71",
"#  c #406767",
"$  c #5D6769",
"%  c #476E7C",
"&  c #4C7B76",
"*  c #4F7E7E",
"=  c #4E7E7F",
"-  c #547473",
";  c #5F7C78",
":  c #63616E",
">  c #65616D",
",  c #64626E",
"<  c #6B646A",
"1  c #6D656A",
"2  c #6A6F6E",
"3  c #776570",
"4  c #7C6B71",
"5  c #786874",
"6  c #7B6874",
"7  c #796B75",
"8  c #7C6C75",
"9  c #647B7D",
"0  c #856570",
"q  c #876571",
"w  c #896A73",
"e  c #8A6A73",
"r  c #8B6A73",
"t  c #8C6A74",
"y  c #8D6A74",
"u  c #8D6B74",
"i  c #8F6D76",
"p  c #8F6E76",
"a  c #8F6F76",
"s  c #916D76",
"d  c #926D76",
"f  c #906F76",
"g  c #837376",
"h  c #857477",
"j  c #8D7178",
"k  c #897979",
"l  c #8E7C7E",
"z  c #947077",
"x  c #917178",
"c  c #947078",
"v  c #967178",
"b  c #967379",
"n  c #92777C",
"m  c #99737A",
"M  c #99747A",
"N  c #9B767B",
"B  c #9D757B",
"V  c #9B767C",
"C  c #9D777D",
"Z  c #9E777C",
"A  c #9C787D",
"S  c #9D787D",
"D  c #9E797D",
"F  c #9D797E",
"G  c #9E797E",
"H  c #9D7A7E",
"J  c #9E7A7E",
"K  c #9F7A7E",
"L  c #A07A7E",
"P  c #A17A7E",
"I  c #A17B7F",
"U  c #A17C7F",
"Y  c #A27C7F",
"T  c #3D937E",
"R  c #508472",
"E  c #578874",
"W  c #469078",
"Q  c #499179",
"!  c #4F957D",
"~  c #57917A",
"^  c #55937B",
"/  c #56987E",
"(  c #629078",
")  c #6A967B",
"_  c #937A81",
"`  c #987D81",
"'  c #9B7D80",
"]  c #9A7E80",
"[  c #9F7D80",
"{  c #9F7E81",
"}  c #A17C80",
"|  c #A27C80",
" . c #A27D80",
".. c #A27D81",
"X. c #A37E80",
"o. c #A37E81",
"O. c #A37F81",
"+. c #A07F82",
"@. c #2F8B8B",
"#. c #348D84",
"$. c #398B80",
"%. c #3F9883",
"&. c #3E9D82",
"*. c #3B9E86",
"=. c #418C83",
"-. c #409482",
";. c #429E80",
":. c #4AA280",
">. c #4CAB83",
",. c #42B58C",
"<. c #47BA89",
"1. c #46B98C",
"2. c #44BF8C",
"3. c #49BE89",
"4. c #53BA86",
"5. c #5BBE88",
"6. c #40B890",
"7. c #47C58C",
"8. c #908380",
"9. c #A18083",
"0. c #A38082",
"q. c #A48082",
"w. c #A48183",
"e. c #A78183",
"r. c #A48384",
"t. c #A58384",
"y. c #A58385",
"u. c #A38586",
"i. c #A48586",
"p. c #A48787",
"a. c #A68687",
"s. c #A78787",
"d. c #AB8083",
"f. c #AB8183",
"g. c #AC8184",
"h. c #AD8585",
"j. c #AE8586",
"k. c #A78788",
"l. c #A78888",
"z. c #A78988",
"x. c #A88888",
"c. c #A98C8C",
"v. c #A98D8D",
"b. c #B48687",
"n. c #B38988",
"m. c #B38A89",
"M. c #B48988",
"N. c #B78989",
"B. c #B68A89",
"V. c #B78A89",
"C. c #B78D8B",
"Z. c #B98A8A",
"A. c #B88B8A",
"S. c #BD898A",
"D. c #BD8A8A",
"F. c #BD8A8B",
"G. c #BE8B8B",
"H. c #B88C8A",
"J. c #B98C8A",
"K. c #B88C8B",
"L. c #B88D8B",
"P. c #B98D8B",
"I. c #BA8D8B",
"U. c #BB8D8B",
"Y. c #BB8E8B",
"T. c #BA8E8C",
"R. c #BB8E8C",
"E. c #BB8F8D",
"W. c #B6908E",
"Q. c #B9908D",
"!. c #BB908E",
"~. c #B9928F",
"^. c #BA928E",
"/. c #BE908D",
"(. c #BC918E",
"). c #BC928E",
"_. c #AB9191",
"`. c #8A9AA2",
"'. c #8B9EA7",
"]. c #9EA8AF",
"[. c #A0AEB1",
"{. c #C08E8D",
"}. c #C08F8D",
"|. c #C18F8D",
" X c #C18F8E",
".X c #C1908E",
"XX c #C2908E",
"oX c #C3908E",
"OX c #C2918F",
"+X c #C0938F",
"@X c #C3938F",
"#X c #C19390",
"$X c #C29390",
"%X c #C39390",
"&X c #C39490",
"*X c #C39491",
"=X c #C39591",
"-X c #C49490",
";X c #C49590",
":X c #C49591",
">X c #C59591",
",X c #C49691",
"<X c #C59691",
"1X c #C49692",
"2X c #C59692",
"3X c #C59792",
"4X c #C79692",
"5X c #C69792",
"6X c #C79792",
"7X c #C59893",
"8X c #C69893",
"9X c #C79893",
"0X c #C69993",
"qX c #C59A94",
"wX c #C69A94",
"eX c #C69A95",
"rX c #C79A95",
"tX c #C79B96",
/* pixels */
"m J 9.p.u.[ +.J J J J J J J D q c J 9.p.u.[ +.J J J J J J J D 0 ",
"@X;X3X0X8X,X2X;X:X@X}.G.F.|.n.p J.>X3X0X8X,X2X;X:X@X}.G.F.|.M.w ",
";X-X-X-X-X-X-X-X-X&X1X7XeX&X/.V P.:X-X-X-X-X-X-X-X&X1X7XeX&X/.b ",
"b.K.K.K.K.K.K.P.L.K.K.K.H.K.H.v d.P.K.K.K.K.K.P.L.K.K.K.H.K.H.z ",
"a.t. . . . .Y u M O.r.s.z.t.U F i.t. . . . .Y u M O.r.s.z.t.} A ",
"0X3X,X X{.XXn.p J.<X3X8X0X3X;X,X8X3X,X X{.XXn.p J.<X3X8X0X3X;X:X",
"-X-X,X7XeX&X/.V P.:X-X-X-X-X-X-X-X-X,X7XeX&X/.V P.:X-X-X-X-X-X-X",
"L.K.K.H.H.H.A.v d.P.K.K.K.K.K.P.L.K.K.H.H.H.A.v d.P.K.K.K.K.K.P.",
"Z o.r.l._.c.y.{ K  . . . . .U y M O.r.l._.c.y.{ K  . . . . .I r ",
"@X:X3X8XtXwX3X3X:X;X;X:X;X:X>XP A.<X3X8XtXwX3X3X:X;X;X:X;X:X>XC ",
";X-X-X-X&X&X-X-X-X;X@XD..Xm. .f T.:X-X-X&X&X-X-X-X;X@XD..Xm. .e ",
"b.L.K.K.K.K.K.P.L.K.H.V.!.~.j.d g.T.I.I.K.K.K.P.L.K.H.B.Q.W.h.u ",
"I  . . . . .| u M O.t.a.g < n i s a 1 4 U  .| u M O.t.s.v._.l.H ",
":X%XS.{.OX+Xe.p J.<X5XE.2 ! ^ ) ( ~ / $ N.#Xe.p J.<X3X8XrXtX0X<X",
"-X&X=X%X0XeX).V P.:X:XL.> &.;.:.1.>.$.5 0XeX).V P.:X-X-X&X&X-X-X",
"L.K.K.K.H.K.J.v d.P.P._ ].* E R = [.% 7 Y.K.J.v d.P.K.K.K.K.K.P.",
"Z  .r.z.s.0.w.S L  .X.3 `.@ Q W + '.=.- ] q.w.S L  . . . . .Y t ",
"@X;X3X0X8X,X2X:X:X@XoXh #   O o X -.,.%.l 4X2X:X:X@X}.G.F.|.n.w ",
";X-X-X-X-X-X-X-X-X&X3X^., @.6.2.2.7.T : L.:X-X-X-X&X1X7XeX&X/.b ",
"b.K.K.K.K.K.K.P.L.K.K.U.8 *.3.4.5.<.#.6 R.K.K.P.L.K.K.K.H.K.H.z ",
"a.t. . . . .Y u M O.r.k.` & ; k 8.9 . x X. .Y u M O.r.s.z.t.} A ",
"0X3X,X X{.XXn.p J.<X3X8X7X' ..4X9XC.j Z.}.XXn.p J.<X3X8X0X3X;X:X",
"-X-X,X7XeX&X/.V P.:X-X-X-X>X>X-X-X:X6X7XeX&X/.V P.:X-X-X-X-X-X-X",
"L.K.K.H.H.H.A.v d.P.K.K.K.K.K.P.L.K.K.H.H.H.A.v d.P.K.K.K.K.K.P.",
"Z o.r.l._.c.y.{ K  . . . . .U y M O.r.l._.c.y.{ K  . . . . .I r ",
"@X:X3X8XtXwX3X3X:X;X;X:X;X:X>XP A.<X3X8XtXwX3X3X:X;X;X:X;X:X>XC ",
";X-X-X-X&X&X-X-X-X;X@XD..Xm. .f T.:X-X-X&X&X-X-X-X;X@XD..Xm. .e ",
"b.L.K.K.K.K.K.P.L.K.H.B.Q.W.h.s f.P.K.K.K.K.K.P.L.K.H.B.Q.W.h.u ",
"I  . . . . .| u M O.t.s.v._.x.G K  . . . . .| u M O.t.s.v._.l.H ",
":X%XS.{.OX+Xe.p J.<X3X8XrXtX0X,X:X%XS.{.OX+Xe.p J.<X3X8XrXtX0X<X",
"&X%X*X$X7XqX(.N L.-X&X&X&X&X&X&X&X%X*X$X7XqX(.N L.-X&X&X&X&X&X&X",
"&X&X&X&X&X&X%XB b.;X&X&X&X&X&X&X&X&X&X&X&X&X%XB b.;X&X&X&X&X&X&X"
};
