/* XPM */
static char *en_8[] = {
/* columns rows colors chars-per-pixel */
"32 32 226 2 ",
"   c #35586C",
".  c #3C5D6E",
"X  c #3F6D6E",
"o  c #386A72",
"O  c #377477",
"+  c #367278",
"@  c #5B5C71",
"#  c #5B5D71",
"$  c #52666E",
"%  c #596D6C",
"&  c #5E6E6F",
"*  c #4C7B76",
"=  c #47707D",
"-  c #4F7E7E",
";  c #4E7E7F",
":  c #5F7C78",
">  c #63616E",
",  c #66606D",
"<  c #7B646E",
"1  c #7A6670",
"2  c #796873",
"3  c #7B6874",
"4  c #7A6A75",
"5  c #7C6C75",
"6  c #766F78",
"7  c #627270",
"8  c #6F7B73",
"9  c #6B7C76",
"0  c #647B7D",
"q  c #856570",
"w  c #876571",
"e  c #806F75",
"r  c #896A73",
"t  c #8A6A73",
"y  c #8B6A73",
"u  c #8C6A74",
"i  c #8D6A74",
"p  c #8D6B74",
"a  c #8F6E76",
"s  c #906D76",
"d  c #916D76",
"f  c #926D76",
"g  c #906F76",
"h  c #916E77",
"j  c #8D7178",
"k  c #897979",
"l  c #947077",
"z  c #917178",
"x  c #947078",
"c  c #967178",
"v  c #967379",
"b  c #99737A",
"n  c #99747A",
"m  c #9B767B",
"M  c #9D757B",
"N  c #9B767C",
"B  c #9A777C",
"V  c #9B777C",
"C  c #9D777D",
"Z  c #9E777C",
"A  c #9C787D",
"S  c #9D787D",
"D  c #9E797D",
"F  c #9D797E",
"G  c #9E797E",
"H  c #9D7A7E",
"J  c #9E7A7E",
"K  c #9F7A7E",
"L  c #A07A7E",
"P  c #A17A7E",
"I  c #A17B7F",
"U  c #A17C7F",
"Y  c #A27C7F",
"T  c #3A8B7F",
"R  c #3C937D",
"E  c #4E8774",
"W  c #4E8875",
"Q  c #42857B",
"!  c #41867A",
"~  c #508472",
"^  c #5F8274",
"/  c #578874",
"(  c #469078",
")  c #47927E",
"_  c #499179",
"`  c #678676",
"'  c #629179",
"]  c #6A977B",
"[  c #947982",
"{  c #987D81",
"}  c #9B7D80",
"|  c #9F7D80",
" . c #9F7E81",
".. c #9F7F82",
"X. c #A17C80",
"o. c #A27C80",
"O. c #A27D80",
"+. c #A27D81",
"@. c #A37E80",
"#. c #A37E81",
"$. c #A37F81",
"%. c #A07F82",
"&. c #2F8B8B",
"*. c #348D84",
"=. c #3E9D82",
"-. c #3B9E86",
";. c #409482",
":. c #429385",
">. c #4A9281",
",. c #439F80",
"<. c #4AA280",
"1. c #4DAC84",
"2. c #42B58C",
"3. c #47BA89",
"4. c #46B98C",
"5. c #44BF8C",
"6. c #49BE89",
"7. c #53BA86",
"8. c #5BBE88",
"9. c #40B890",
"0. c #47C58C",
"q. c #908380",
"w. c #9D8082",
"e. c #A18083",
"r. c #A38082",
"t. c #A58083",
"y. c #A48183",
"u. c #A78183",
"i. c #A48384",
"p. c #A58384",
"a. c #A58385",
"s. c #A38586",
"d. c #A48586",
"f. c #A48787",
"g. c #A68687",
"h. c #A78787",
"j. c #AB8083",
"k. c #AB8183",
"l. c #AC8184",
"z. c #AD8585",
"x. c #AE8586",
"c. c #A78788",
"v. c #A78888",
"b. c #A78988",
"n. c #A88888",
"m. c #A98C8C",
"M. c #A98D8D",
"N. c #B48687",
"B. c #B58788",
"V. c #B38988",
"C. c #B38A89",
"Z. c #B48888",
"A. c #B48988",
"S. c #B68A89",
"D. c #B48A8A",
"F. c #B78A8A",
"G. c #B78B8A",
"H. c #B78D8B",
"J. c #B38D8C",
"K. c #BA8989",
"L. c #B98A8A",
"P. c #B88B8A",
"I. c #BD898A",
"U. c #BD8A8A",
"Y. c #BD8A8B",
"T. c #BE8B8B",
"R. c #B88C8A",
"E. c #B98C8A",
"W. c #B88C8B",
"Q. c #B88D8B",
"!. c #B98D8B",
"~. c #BB8D8B",
"^. c #B88D8C",
"/. c #B98D8C",
"(. c #B88E8D",
"). c #BA8E8C",
"_. c #BB8E8C",
"`. c #B6908E",
"'. c #B9908D",
"]. c #BB918F",
"[. c #BE908D",
"{. c #BC918E",
"}. c #BC928E",
"|. c #AB9191",
" X c #8B9EA7",
".X c #8CA4A6",
"XX c #9EA7AF",
"oX c #A0AEB1",
"OX c #C08E8D",
"+X c #C08F8D",
"@X c #C18F8D",
"#X c #C18F8E",
"$X c #C1908E",
"%X c #C2908E",
"&X c #C2918F",
"*X c #C0938F",
"=X c #C3938F",
"-X c #C19390",
";X c #C29390",
":X c #C39390",
">X c #C39490",
",X c #C39491",
"<X c #C39591",
"1X c #C49490",
"2X c #C49590",
"3X c #C59590",
"4X c #C49591",
"5X c #C59591",
"6X c #C49691",
"7X c #C59691",
"8X c #C49692",
"9X c #C59692",
"0X c #C59792",
"qX c #C69692",
"wX c #C79692",
"eX c #C69792",
"rX c #C79792",
"tX c #C59893",
"yX c #C69893",
"uX c #C79893",
"iX c #C69993",
"pX c #C59A94",
"aX c #C69A94",
"sX c #C69A95",
"dX c #C79A95",
"fX c #C79B96",
/* pixels */
"b J e.f.s.| %.J J J J J J J D w x J e.f.s.| %.J J J J J J J D q ",
"=X2X0XiXyX6X9X2X4X=X+XT.Y.@XV.a E.5X0XiXyX6X9X2X4X=X+XT.Y.@XA.r ",
"2X1X1X1X1X1X1X1X1X>X8XtXsX>X[.N !.4X1X1X1X1X1X1X1X>X8XtXsX>X[.v ",
"N.W.W.W.W.W.W.!.Q.W.W.W.R.W.R.c j.Q.W.W.W.W.W.!.Q.W.W.W.R.W.R.l ",
"g.p.O.O.O.O.Y p n $.i.h.b.i.Y F d.p.O.O.O.O.Y p n $.i.h.b.i.X.A ",
"iX0X6X#XOX%XV.a E.7X0XyXiX0X2X6XyX0X6X#XOX%XV.a E.7X0XyXiX0X2X4X",
"1X1X6XtXsX>X[.N !.4X1X1X1X1X1X1X1X1X6XtXsX>X[.N !.4X1X1X1X1X1X1X",
"Q.W.W.R.R.R.P.c j.!.W.W.W.W.W.!.Q.W.W.R.R.R.P.c j.!.W.W.W.W.W.!.",
"Z #.i.v.|.m.a. .K O.O.O.O.O.U i n $.i.v.|.m.a. .K O.O.O.O.O.I y ",
"=X4X0XyXfXaX0X0X4X2X2X4X2X4X5XP P.7X0XyXfXaX0X0X4X2X2X4X2X4X5XC ",
"2X1X1X1X>X>X1X1X1X2X=XU.$XD.O.g ).4X2X1X>X>X1X1X1X2X=XU.$XC.O.t ",
"N.Q.W.W.W.W.W.!.Q.W.R.F.(.J.x.f l.).Z.G.Q.W.W.!.Q.W.R.S.'.`.z.p ",
"I O.O.O.O.O.o.p n $.a...8 ^ 1 s h < ` 7 V @.o.p n $.i.h.M.|.v.H ",
"4X:XI.OX&X*Xu.a E.7XeX/.% ! W ] ' E Q $ B.-Xu.a E.7X0XyXdXfXiX7X",
"1X>X<X:XiXsX}.N !.4X4X^., =.,.<.4.1.T 2 iXsX}.N !.4X1X1X>X>X1X1X",
"Q.W.W.W.R.W.E.c j.!.!.[ XX- / ~ ; oX= 6 ~.W.E.c j.!.W.W.W.W.W.!.",
"Z O.i.b.h.r.y.S L @.B & .X# _ ( @  X:.) e t.y.S L O.O.O.O.O.Y u ",
"=X2X0XiXyX6X9X4X4X:XK.9 X   + O o ;.2.>.w.qX9X4X4X=X+XT.Y.@XV.r ",
"2X1X1X1X1X1X1X1X1X>XeX].> &.9.5.5.0.R 4 3X1X1X1X1X>X8XtXsX>X[.v ",
"N.W.W.W.W.W.W.!.Q.W.W.~.5 -.6.7.8.3.*.3 _.W.W.!.Q.W.W.W.R.W.R.l ",
"g.p.O.O.O.O.Y p n $.i.c.{ * : k q.0 . z @.O.Y p n $.i.h.b.i.X.A ",
"iX0X6X#XOX%XV.a E.7X0XyXtX} +.wXuXH.j L.+X%XV.a E.7X0XyXiX0X2X4X",
"1X1X6XtXsX>X[.N !.4X1X1X1X5X5X1X1X4XrXtXsX>X[.N !.4X1X1X1X1X1X1X",
"Q.W.W.R.R.R.P.c j.!.W.W.W.W.W.!.Q.W.W.R.R.R.P.c j.!.W.W.W.W.W.!.",
"Z #.i.v.|.m.a. .K O.O.O.O.O.U i n $.i.v.|.m.a. .K O.O.O.O.O.I y ",
"=X4X0XyXfXaX0X0X4X2X2X4X2X4X5XP P.7X0XyXfXaX0X0X4X2X2X4X2X4X5XC ",
"2X1X1X1X>X>X1X1X1X2X=XU.$XC.O.g ).4X1X1X>X>X1X1X1X2X=XU.$XC.O.t ",
"N.Q.W.W.W.W.W.!.Q.W.R.S.'.`.z.d k.!.W.W.W.W.W.!.Q.W.R.S.'.`.z.p ",
"I O.O.O.O.O.o.p n $.i.h.M.|.n.G K O.O.O.O.O.o.p n $.i.h.M.|.v.H ",
"4X:XI.OX&X*Xu.a E.7X0XyXdXfXiX6X4X:XI.OX&X*Xu.a E.7X0XyXdXfXiX7X",
">X:X,X;XtXpX{.m Q.1X>X>X>X>X>X>X>X:X,X;XtXpX{.m Q.1X>X>X>X>X>X>X",
">X>X>X>X>X>X:XM N.2X>X>X>X>X>X>X>X>X>X>X>X>X:XM N.2X>X>X>X>X>X>X"
};
