/* XPM */
static char *en_9[] = {
/* columns rows colors chars-per-pixel */
"32 32 215 2 ",
"   c #34586C",
".  c #3C5D6E",
"X  c #386A72",
"o  c #377577",
"O  c #367378",
"+  c #445C68",
"@  c #5B5C71",
"#  c #5B5D71",
"$  c #52666D",
"%  c #586C6B",
"&  c #4B7A75",
"*  c #497876",
"=  c #47707D",
"-  c #4F7E7E",
";  c #4E7E7F",
":  c #5F7C78",
">  c #66616D",
",  c #75616F",
"<  c #6A6A74",
"1  c #726370",
"2  c #736471",
"3  c #647B7D",
"4  c #6F7A78",
"5  c #707C77",
"6  c #737E79",
"7  c #856570",
"8  c #876571",
"9  c #896A73",
"0  c #8A6A73",
"q  c #8B6A73",
"w  c #8C6A74",
"e  c #8D6A74",
"r  c #8D6B74",
"t  c #8F6E76",
"y  c #916D76",
"u  c #906F76",
"i  c #8D7178",
"p  c #89727C",
"a  c #897979",
"s  c #947077",
"d  c #917178",
"f  c #947078",
"g  c #967178",
"h  c #947279",
"j  c #967379",
"k  c #99737A",
"l  c #99747A",
"z  c #9B767B",
"x  c #9D757B",
"c  c #9B767C",
"v  c #9B777C",
"b  c #9D777D",
"n  c #9E777C",
"m  c #9A797D",
"M  c #987B7E",
"N  c #9C787D",
"B  c #9D787D",
"V  c #9E797D",
"C  c #9D797E",
"Z  c #9E797E",
"A  c #9D7A7E",
"S  c #9E7A7E",
"D  c #9F7A7E",
"F  c #A07A7E",
"G  c #A17A7E",
"H  c #A17B7F",
"J  c #A17C7F",
"K  c #A27C7F",
"L  c #4C8673",
"P  c #4D8673",
"I  c #40857A",
"U  c #42857B",
"Y  c #508472",
"T  c #578874",
"R  c #469078",
"E  c #499179",
"W  c #668B7B",
"Q  c #6B8978",
"!  c #619078",
"~  c #68957A",
"^  c #828B7F",
"/  c #987D81",
"(  c #9B7D80",
")  c #9F7D80",
"_  c #9C7F81",
"`  c #9F7E81",
"'  c #A17C80",
"]  c #A27C80",
"[  c #A27D80",
"{  c #A37D80",
"}  c #A27D81",
"|  c #A37E80",
" . c #A37E81",
".. c #A37F81",
"X. c #A07F82",
"o. c #368980",
"O. c #328C86",
"+. c #3A8B80",
"@. c #3E9D82",
"#. c #409583",
"$. c #429386",
"%. c #4B9683",
"&. c #439F80",
"*. c #42A281",
"=. c #4AA280",
"-. c #4DAC84",
";. c #4FB487",
":. c #41B28E",
">. c #45BA8B",
",. c #46B98C",
"<. c #57B98A",
"1. c #908480",
"2. c #9F8383",
"3. c #9E868A",
"4. c #A18083",
"5. c #A38082",
"6. c #A48183",
"7. c #A78183",
"8. c #A48384",
"9. c #A58384",
"0. c #A58385",
"q. c #A38586",
"w. c #A48586",
"e. c #A48787",
"r. c #A68687",
"t. c #A78787",
"y. c #AB8083",
"u. c #AB8183",
"i. c #A88787",
"p. c #AD8585",
"a. c #AD8586",
"s. c #A38789",
"d. c #A78888",
"f. c #A78988",
"g. c #A88888",
"h. c #A98C8C",
"j. c #A98D8D",
"k. c #B48687",
"l. c #B48788",
"z. c #B38988",
"x. c #B38989",
"c. c #B38A89",
"v. c #B48988",
"b. c #B68889",
"n. c #B78989",
"m. c #B68A89",
"M. c #B78A89",
"N. c #B78D8B",
"B. c #B98A8A",
"V. c #B88B8A",
"C. c #BB8B8A",
"Z. c #BB8B8B",
"A. c #BD898A",
"S. c #BD8A8A",
"D. c #BD8A8B",
"F. c #BE8B8B",
"G. c #B88C8A",
"H. c #B98C8A",
"J. c #B88C8B",
"K. c #B88D8B",
"L. c #B98D8B",
"P. c #BA8D8B",
"I. c #B98E8D",
"U. c #BA8E8C",
"Y. c #B6908E",
"T. c #B7918E",
"R. c #B9908D",
"E. c #BA908D",
"W. c #BE908D",
"Q. c #BC918E",
"!. c #BE918F",
"~. c #BC928E",
"^. c #BF928F",
"/. c #AB9191",
"(. c #8B9EA6",
"). c #8AA3A7",
"_. c #9FA8AF",
"`. c #A0AEB1",
"'. c #C08E8D",
"]. c #C08F8D",
"[. c #C18F8D",
"{. c #C18F8E",
"}. c #C1908E",
"|. c #C2908E",
" X c #C2918F",
".X c #C0938F",
"XX c #C3938F",
"oX c #C19390",
"OX c #C29390",
"+X c #C39390",
"@X c #C39490",
"#X c #C39491",
"$X c #C39591",
"%X c #C49490",
"&X c #C49590",
"*X c #C49591",
"=X c #C59591",
"-X c #C49691",
";X c #C59691",
":X c #C49692",
">X c #C59692",
",X c #C59792",
"<X c #C69692",
"1X c #C79692",
"2X c #C79792",
"3X c #C59893",
"4X c #C69893",
"5X c #C79893",
"6X c #C69993",
"7X c #C59A94",
"8X c #C69A94",
"9X c #C69A95",
"0X c #C79A95",
"qX c #C79B95",
"wX c #C79B96",
/* pixels */
"k S 4.e.q.) X.S S S S S S S V 8 f S 4.e.q.) X.S S S S S S S V 7 ",
"XX&X,X6X4X-X>X&X*XXX].F.D.[.z.t H.=X,X6X4X-X>X&X*XXX].F.D.[.v.9 ",
"&X%X%X%X%X%X%X%X%X@X:X3X9X@XW.c L.*X%X%X%X%X%X%X%X@X:X3X9X@XW.j ",
"k.J.J.J.J.J.J.L.K.J.J.J.G.J.G.g y.L.J.J.J.J.J.L.K.J.J.J.G.J.G.s ",
"r.9.[ [ [ [ K r l ..8.t.f.9.K C w.9.[ [ [ [ K r l ..8.t.f.9.' N ",
"6X,X-X{.'.|.z.t H.;X,X4X6X,X&X-X4X,X-X{.'.|.z.t H.;X,X4X6X,X&X*X",
"%X%X-X3X9X@XW.c L.*X%X%X%X%X%X%X%X%X-X3X9X@XW.c L.*X%X%X%X%X%X%X",
"K.J.J.G.G.G.V.g y.L.J.J.J.J.J.L.K.J.J.G.G.G.V.g y.L.J.J.J.J.J.L.",
"n  .8.d./.h.0.` D [ [ [ [ [ J e l ..8.d./.h.0.` D [ [ [ [ [ H q ",
"XX*X,X4XwX8X,X,X*X&X&X*X&X*X=XG V.;X,X4XwX8X,X,X*X&X&X*X&X*X=Xb ",
"&X%X%X%X@X@X%X%X%X&XXXS.}.c.[ u U.*X%X%X@X@X%X%X%X&XXXS.}.c.[ 0 ",
"k.K.J.J.J.J.J.L.K.J.G.m.E.T.a.y u.L.L.K.J.J.J.L.K.J.G.m.R.Y.p.r ",
"H [ [ [ [ [ ] r l ..8.t.s.3.d.D H [ h v { [ ] r l ..9.t.j./.d.A ",
"*X+XA.'. X.X7.t H.;X,X^.^ W M n.b.m Q 6 Z.oX7.t H.;X,X4X0XwX6X;X",
"%X@X$X+X6X9X~.c L.*X*XM.% I L ~ ! P U $ I.qX~.c L.*X%X%X@X@X%X%X",
"K.J.J.J.G.J.H.g y.L.K.x.> @.&.=.,.-.+.2 H.J.H.g y.L.J.J.J.J.J.L.",
"n [ 8.f.t.5.6.B F [ { p _.- T Y ; `.= < i.5.6.B F [ [ [ [ [ K w ",
"XX&X,X6X4X-X>X*X*X+XC.4 ).# E R @ (.$.%.2.<X>X*X*XXX].F.D.[.z.9 ",
"&X%X%X%X%X%X%X%X%X%X!.5 +   O o X #.*.* _ =X%X%X%X@X:X3X9X@XW.j ",
"k.J.J.J.J.J.J.L.K.J.K.l.1 O.:.;.<.>.o., P.J.J.L.K.J.J.J.G.J.G.s ",
"r.9.[ [ [ [ K r l ..8.g./ & : a 1.3 . d | [ K r l ..8.t.f.9.' N ",
"6X,X-X{.'.|.z.t H.;X,X4X3X( } 1X5XN.i B.].|.z.t H.;X,X4X6X,X&X*X",
"%X%X-X3X9X@XW.c L.*X%X%X%X=X=X%X%X*X2X3X9X@XW.c L.*X%X%X%X%X%X%X",
"K.J.J.G.G.G.V.g y.L.J.J.J.J.J.L.K.J.J.G.G.G.V.g y.L.J.J.J.J.J.L.",
"n  .8.d./.h.0.` D [ [ [ [ [ J e l ..8.d./.h.0.` D [ [ [ [ [ H q ",
"XX*X,X4XwX8X,X,X*X&X&X*X&X*X=XG V.;X,X4XwX8X,X,X*X&X&X*X&X*X=Xb ",
"&X%X%X%X@X@X%X%X%X&XXXS.}.c.[ u U.*X%X%X@X@X%X%X%X&XXXS.}.c.[ 0 ",
"k.K.J.J.J.J.J.L.K.J.G.m.R.Y.p.y u.L.J.J.J.J.J.L.K.J.G.m.R.Y.p.r ",
"H [ [ [ [ [ ] r l ..9.t.j./.g.Z D [ [ [ [ [ ] r l ..9.t.j./.d.A ",
"*X+XA.'. X.X7.t H.;X,X4X0XwX6X-X*X+XA.'. X.X7.t H.;X,X4X0XwX6X;X",
"@X+X#XOX3X7XQ.z K.%X@X@X@X@X@X@X@X+X#XOX3X7XQ.z K.%X@X@X@X@X@X@X",
"@X@X@X@X@X@X+Xx k.&X@X@X@X@X@X@X@X@X@X@X@X@X+Xx k.&X@X@X@X@X@X@X"
};
