/* XPM */
static char *colonna_merda[] = {
/* columns rows colors chars-per-pixel */
"32 32 77 1 ",
"  c #3C3751",
". c #3F3851",
"X c #443751",
"o c #443951",
"O c #4C3A52",
"+ c #523E53",
"@ c #5A3E54",
"# c #693C4F",
"$ c #613B53",
"% c #6B3B52",
"& c #713C52",
"* c #544054",
"= c #5D4053",
"- c #634153",
"; c #6D4353",
": c #754654",
"> c #7E4454",
", c #754855",
"< c #794A55",
"1 c #724F59",
"2 c #77525B",
"3 c #6B6069",
"4 c #8F3E51",
"5 c #903E51",
"6 c #94414E",
"7 c #844251",
"8 c #834B55",
"9 c #8B4A55",
"0 c #9A4E58",
"q c #895157",
"w c #85545B",
"e c #8C5559",
"r c #8F585A",
"t c #915257",
"y c #9F5257",
"u c #93565A",
"i c #93595B",
"p c #A6464F",
"a c #A15256",
"s c #AE5254",
"d c #A45458",
"f c #A65C5A",
"g c #AA5D5B",
"h c #B15656",
"j c #B35B59",
"k c #B6615C",
"l c #BA645D",
"z c #BD695F",
"x c #906765",
"c c #936966",
"v c #997B71",
"b c #A36563",
"n c #A56965",
"m c #BE6C61",
"M c #A57F72",
"N c #C06D61",
"B c #CF6F61",
"V c #D07463",
"C c #D37D6D",
"Z c #9B8276",
"A c #A68173",
"S c #A98A79",
"D c #A9907E",
"F c #D3806F",
"G c #D38471",
"H c #DA997D",
"J c #9D8D83",
"K c #AA9483",
"L c #AA9887",
"P c #AA9B8C",
"I c #AA9E91",
"U c #F1A481",
"Y c #F7B88D",
"T c #FAC292",
"R c #FECE9A",
"E c #FED19D",
"W c #FFD5A0",
/* pixels */
"DRYG+&4:;rrwo..X....-riw;>&+FTRD",
"MTUC@5py8mmgO...... <zmf8p4*CTEI",
"2nbuoO>ure*O........o*wre>o*FTEP",
"cHGmOX0mNgo.....X....OgmzyX+FTEK",
"SRYC*%78<ue<o........o**:7#+FTEL",
"PETC=4pa<mmgO..  ...    :p5@CHTA",
"LETG+O>ure*O..=ew=.o<-<we>OOibn2",
"SRYCOX0mmgo . <mN< OgqgNz0X+NGHc",
"cHFm+%48<iew$O===*++;eiq,7%*CYRS",
"2nbu+46a8jjj&9d9;aa9>jkf8p5*FTEL",
"ATUC+O>ue7+%&@@&&%OXXX8uu>O*CTEP",
"KRTC+o0mm0XX@+@++@*OXX0mzyXOCYRS",
"KRTC+%78:9%+mCCwwCCm+%98:4%+mGHc",
"PWTG@5pa8s4@VUTvvTUV@4sf>p5+ubn2",
"IWYC+o>ue>X+CTWZZWTC+O<ir>X+CUTM",
"KRTG*X0mm0XOwvJ33JveoX0zmyX+CTES",
"KETG+%79:7%OwvZ33JvwO%9q:4%+GTRK",
"MYUV@4pa8s4@CRWZZWTC@5sfq64=CTWI",
"1nbuOO<ie8O+CUTvvTUC+O>ur>O+GTEI",
"xHGmOX0mN0XOmCCwwCCmOX0mm0XOCYRK",
"SRYC*%79;XX.O**oO@-@O%9q:4%+GYWK",
"PRTC=5ps: .. $#@$565$4sf<p5@CUTM",
"LRTGOO>iew$%>:-774$&7&;uu>OXtcn2",
"SRYC*o0mmm8dzd7lmm>dmd8mm0XOmCUc",
"xHGm+%48,iiq**o**OoO;ieq,7%*CYRS",
"1bbuO5p08zmgo     . <Nmf8p5+CTEP",
"ATUC+X>urw,u= =qw=..o*eir>O+CTEP",
"KETCOXyzmf8z< <NN<...Ogmm0X+CYRS",
"KRTG*%78,urqO o*Ooo.=eiw:4%+mGHc",
"PWTC=6py8zmgO  .... :mmg<p5+ubn2",
"IETC+O>uuq,u= .....oq:eie>O+CUTM",
"KETC+XdVVkqV8 ...o OltjVVdX+CYRK"
};
