/* XPM */
static char * colonna_merda_xpm[] = {
"64 64 12 1",
" 	c #3F3851",
".	c #FFEAB7",
"+	c #FBCA97",
"@	c #E27F6D",
"#	c #89365C",
"$	c #AE444E",
"%	c #BF5753",
"&	c #CD7363",
"*	c #EDA27F",
"=	c #FFFAD6",
"-	c #D25654",
";	c #9E3B57",
" .++++@@                                                @@+++++ ",
" +++++@@  #$$$%$ $&&&&&$                 $&&&&&$ %$$$#  @@++++. ",
" ++++*@@  $$$$&& &&&&&&&                 &&&&&&& &$$$$  @@++++= ",
" *++*@@@  #$$$%$ $&&&&&$                 $&&&&&$ %$$$#  @@++++= ",
" @@@@@@-                                                @@++++. ",
"            #%&&&&&$                        $&&&&&%#    @@++++= ",
" @@@@@@-    $&&&&&&&                        &&&&&&&$    @@++++. ",
" *++*@@@    #%&&&&&$                        $&&&&&%#    @@+++++ ",
" ++++*@@                                                @@++++. ",
" +++++@@  #$$$%$ $&&&&&$                         %$$$#  @@++++. ",
" .++++@@  $$$$&& &&&&&&&                         &$$$$  @@*++++ ",
" =++++@@  #$$$%$ $&&&&&$                         %$$$#  @@@*++* ",
" .++++@@                                                -@@@@@@ ",
" .++++@@    #%&&&&&$         $&&&&$     %&$ $&&&&&%#            ",
" +++++@@    $&&&&&&&         &&&&&&     &&& &&&&&&&$    -@@@@@@ ",
" ++++*@@    #%&&&&&$         $&&&&$     $&% $&&&&&%#    @@@*++* ",
" *++*@@@                                                @@*++++ ",
" @@@@@@-  #$$$%$ $&&&&&&$                $&&&&&$ %$$$#  @@+++++ ",
"          $$$$&& &&&&&&&% %&&&&% %&&&&&% %&&&&&& &$$$$  @@++++. ",
" @@@@@@-  #$$$%$ $%$$$$$# #$$$$# #$$$$$# #$$$%&$ %$$$#  @@++++. ",
" *++*@@@                                                @@++++= ",
" ++++*@@    #%&&&&%#  #$$$#  #$$$$$#        #%&&&&%#    @@++++. ",
" .++++@@    $&&&&&&$                        $&&&&&&$    @@+++++ ",
" .++++@@    #%&&&&%#                        #%&&&&%#    @@*++++ ",
" +++++@@                -@@@@@-  -@@@@@-                @@@*++* ",
" .++++@@  #$$$%$ $%$$#  @@@@@@@  @@@@@@@  #$$%&$ %$$$#  -@@@@@@ ",
" =++++@@  $$$$&& &&$$$  @@@*+++  +++*@@@  $$$&&& &$$$$          ",
" .++++@@  #$$$%$ $%$$#  @@*++++  ++++*@@  #$$%&$ %$$$#  -@@@@@@ ",
" =++++@@                @@+++++  +++++@@                @@@*++* ",
" =++++@@    #%&&&&%#    @@+++++  +++++@@    #%&&&&%#    @@*++++ ",
" .++++@@    $&&&&&&$    -@++.=.  .=.++@-    $&&&&&&$    @@+++++ ",
" +++++@@    #%&&&&%#                        #%&&&&%#    @@++++. ",
" .++++@@                                                @@+++++ ",
" +++++@@  #$$$%$ $%$$#  -@++.=.  .=.++@-  #$$%&$ %$$$#  @@++++. ",
" ++++*@@  $$$$&& &&$$$  @@+++++  +++++@@  $$$&&& &$$$$  @@++++= ",
" *++*@@@  #$$$%$ $%$$#  @@+++++  +++++@@  #$$%&$ %$$$#  @@++++= ",
" &@@@@@-                @@*++++  ++++*@@                @@++++. ",
"            #%&&&&%#    @@@*+++  +++*@@@    #%&&&&%#    @@++++= ",
" &@@@@@-    $&&&&&&$    @@@@@@@  @@@@@@@    $&&&&&&$    @@++++. ",
" *++*@@@    #%&&&&%#    -@@@@@-  -@@@@@-    #%&&&&%#    @@+++++ ",
" ++++*@@                                                @@++++. ",
" +++++@@  #$$$%$$                         #$$%&$ %$$$#  @@++++. ",
" .++++@@  $$$$&&&                #;$$$$;# $$$&&& &$$$$  @@*++++ ",
" =++++@@  #$$$%$$         #$$$$# ;$$$$$$; #$$%&$ %$$$#  @@@*++* ",
" .++++@@                                                -@@@@@@ ",
" .++++@@    #%&&&&&&$ #$$$$# #$$$$$$# #$$$$# $&&&&%#            ",
" +++++@@    $&&&&&&&& %&&&&% %&&&&&&% %&&&&% &&&&&&$    -@@@@@@ ",
" ++++*@@    #%&&&&&&$ $&&&&$ $&&&&&&$ $&&&&$ $&&&&%#    @@@*++* ",
" *++*@@@                                                @@*++++ ",
" &@@@@@-  #$$$%$ $&&&&&$                 $&&&&&$ %$$$#  @@+++++ ",
"          $$$$&& &&&&&&&                 &&&&&&& &$$$$  @@++++. ",
" &@@@@@-  #$$$%$ $&&&&&$                 $&&&&&$ %$$$#  @@++++. ",
" *++*@@@                                                @@++++= ",
" ++++*@@    #%&&&&&$ $&&$    $&&&&$         $&&&&&%#    @@++++. ",
" .++++@@    $&&&&&&& &&&&    &&&&&&         &&&&&&&$    @@+++++ ",
" .++++@@    #%&&&&&$ $&&$    $&&&&$         $&&&&&%#    @@*++++ ",
" +++++@@                                                @@@*++* ",
" .++++@@  #$$$%$ $&&&&&$                 $&&&&&$ %$$$#  -@@@@@@ ",
" =++++@@  $$$$&& &&&&&&&                 &&&&&&& &$$$$          ",
" .++++@@  #$$$%$ $&&&&&$                 $&&&&&$ %$$$#  -@@@@@@ ",
" =++++@@                                                @@@*++* ",
" =++++@@    #%&&&&&$ $&&$               %&$ $&&&&&%#    @@*++++ ",
" .++++@@    $&&&&&&& &&&&               &&& &&&&&&&$    @@+++++ ",
" +++++@@    #%&&&&&$ $&&$               $&% $&&&&&%#    @@++++. "};
