/* XPM */
static char *colonna[] = {
/* columns rows colors chars-per-pixel */
"32 32 79 1 ",
"  c #3C3751",
". c #3F3851",
"X c #443751",
"o c #4B3751",
"O c #453951",
"+ c #4C3B52",
"@ c #523753",
"# c #523F54",
"$ c #5A3E53",
"% c #683C4F",
"& c #613754",
"* c #663B53",
"= c #6B3B52",
"- c #723C50",
"; c #7C3B53",
": c #554053",
"> c #5C4054",
", c #604052",
"< c #694253",
"1 c #754654",
"2 c #7B4354",
"3 c #754855",
"4 c #7A4A55",
"5 c #77525B",
"6 c #7B5E62",
"7 c #7C6263",
"8 c #8F3E51",
"9 c #903E51",
"0 c #94414F",
"q c #844351",
"w c #834B55",
"e c #904152",
"r c #9A4D56",
"t c #9A4E58",
"y c #855057",
"u c #895157",
"i c #875459",
"p c #8C5459",
"a c #8F585A",
"s c #945055",
"d c #93565A",
"f c #9D545B",
"g c #93595B",
"h c #A6464F",
"j c #A05255",
"k c #A05558",
"l c #A55D5C",
"z c #AA5E5B",
"x c #B35B59",
"c c #AD655F",
"v c #B9645D",
"b c #BC685F",
"n c #A25F60",
"m c #9C6261",
"M c #936966",
"N c #A26362",
"B c #A56A65",
"V c #BD6B61",
"C c #A57F72",
"Z c #AB7F71",
"A c #C06E61",
"S c #D27D6D",
"D c #A68275",
"F c #AF8776",
"G c #A98A79",
"H c #AA917F",
"J c #D3806F",
"K c #D38471",
"L c #DA997D",
"P c #EF9C7D",
"I c #AA9382",
"U c #AA9A8A",
"Y c #AA9E91",
"T c #F1A582",
"R c #F7B88D",
"E c #FAC292",
"W c #FCC896",
"Q c #FECE9A",
"! c #FED19D",
/* pixels */
"7IUH6MGUUIUHGM5DUHGM5CIYUGM6GUI7",
"GQ!!FLQ!!Q!QQLBE!QQLBEQ!!!LF!!QG",
"CWWWZKREEEEERKNPEERKmTEEERKZWQWC",
"mPTPNVSJJJJJSVdSSSSVdSJSKSVnPTPm",
"3NNf<+##$$$$##$>:>,>+>:>::+<nnn3",
"MLKV+$%$$80;%00;&8e;&9e8+*$+VKTM",
"G!RS#o;qq2=qq*2qq;*qq=2q2;+:SRWI",
"U!EJ#Xexbk2vv2fvVk2vv2fbve.OSEWI",
"U!EJ:=qw3ddi1agu1dau3dgu38=#KEQU",
"I!EJ:8hjwVVlwbVcwbAlwVAl2r8>SEQI",
"DRTS:o2ddu3dp1iggi1ga1uga2o:STEC",
"5BNdoOtAbl<yw<cVbc<yy*zAVrXodNB5",
"MLJV#=qw3di> X+::+   &gi3q=#VSTM",
"GQRS>9hjybb1  ..  X  4Alwh9:SRWI",
"H!EJ+o4gay1p> X .. O4=pga2O#SE!Y",
"I!EJ:XfAVcwb4  O.O.+zunVAt +KEWI",
"I!EJ$%qw3gau+.......<agu1q%:JE!H",
"Y!EJ$9hfwbbc+.......4bAzwh8:JE!H",
"IQRS:oqdgp:+  X.....O:ugawo:JRQG",
"MLKV+XrAbc+ .  ..... OcVbrO+VJLM",
"5BNd+%qw:$++,ii4+::+,igu1q=+dBB5",
"CETS:0hj2ccswbAl<ccswbbcwh9:SPEC",
"I!RJ:owaau1ga1idau1ga1igd2o#SEQI",
"U!EJ+OrVbcwbAwlAbzwbbylVVrX#JE!U",
"IQES#=qw1ddu1adu1dau1pgi4q=:KEQH",
"H!RS$8ht1xxt1xxr1xxt2xxt1he>SRQG",
"MLKV+o=-==oXXo=-==oOXo=-%=o+VKLM",
"3lmN<+>>&$#o+#$>$$+:#+:>*>+<nmn3",
"mPTPNVSSSKSdVSKSSdVSSJJJSSVnPTPm",
"CWQWDKREEETNKREEPNKREEEEERJZWWWD",
"GQ!!FLQQ!QEBLWW!EBLQQ!QQ!QLF!QQG",
"7HYG6MGHUIC5MGIUD5MGIUIUUGM6IUI7"
};
