/* XPM */
static char *corner_rd[] = {
/* columns rows colors chars-per-pixel */
"32 32 111 2 ",
"   c #3C3751",
".  c #3F3851",
"X  c #443751",
"o  c #463951",
"O  c #4C3C52",
"+  c #533753",
"@  c #533F54",
"#  c #5A3E54",
"$  c #683C4F",
"%  c #613754",
"&  c #643A52",
"*  c #6A3B52",
"=  c #733D53",
"-  c #7E3A53",
";  c #514054",
":  c #5D4054",
">  c #604052",
",  c #6B4252",
"<  c #744654",
"1  c #7C4353",
"2  c #754854",
"3  c #7A4A55",
"4  c #76535D",
"5  c #5E4D60",
"6  c #665363",
"7  c #6C5565",
"8  c #6E5967",
"9  c #735B69",
"0  c #7E5E6C",
"q  c #8F3E51",
"w  c #903E51",
"e  c #94414E",
"r  c #834352",
"t  c #834B55",
"y  c #9A4E58",
"u  c #855057",
"i  c #8A5157",
"p  c #8C5459",
"a  c #8F585A",
"s  c #93565A",
"d  c #93595B",
"f  c #A6464F",
"g  c #A74850",
"h  c #A05255",
"j  c #A15558",
"k  c #A65C5B",
"l  c #A95D5B",
"z  c #B9655D",
"x  c #BC685F",
"c  c #835F6D",
"v  c #8F6766",
"b  c #84626F",
"n  c #856570",
"m  c #8C6371",
"M  c #856871",
"N  c #8B6A73",
"B  c #936673",
"V  c #946D76",
"C  c #9B6B76",
"Z  c #847574",
"A  c #9F7A70",
"S  c #9A7079",
"D  c #9E797D",
"F  c #A36563",
"G  c #A66A65",
"H  c #BE6B61",
"J  c #A06B77",
"K  c #A66D79",
"L  c #AB6F7A",
"P  c #A07C71",
"I  c #AE707B",
"U  c #A17B7F",
"Y  c #B1757E",
"T  c #C06E61",
"R  c #C0766B",
"E  c #D27D6D",
"W  c #968076",
"Q  c #968179",
"!  c #A28577",
"~  c #A38B7D",
"^  c #B18D7A",
"/  c #B3957F",
"(  c #D3806F",
")  c #D38471",
"_  c #DB997D",
"`  c #9E7D80",
"'  c #A27D80",
"]  c #AD7A80",
"[  c #B07D82",
"{  c #A48284",
"}  c #A38E80",
"|  c #A68B8C",
" . c #A88B8C",
".. c #B58285",
"X. c #B98286",
"o. c #B88D8B",
"O. c #A39185",
"+. c #A4958B",
"@. c #AA9292",
"#. c #B4A08C",
"$. c #C1908E",
"%. c #C49591",
"&. c #C69A95",
"*. c #F1A581",
"=. c #E1B08A",
"-. c #F7B88D",
";. c #E6BC91",
":. c #FAC292",
">. c #FFCF9A",
",. c #FFD19D",
"<. c #FFD3A0",
/* pixels */
"n D { @.| ` { ` D D V B B m 9 6 ~ >.:.E @ = q 1 , d d u o . . . ",
"D %.%.&.&.%.&.%.%.%.X.L L K 9 6 P :.*.E # w e j t x T l o . . . ",
"D %.%.%.%.%.%.%.%.%.X.L I K 9 6 4 F F s o O r s a p 2 s : . . . ",
"V o.o.o.o.o.o.o.o.o.] K K C 9 6 v _ ) H O X y T H k 3 x 3 . . . ",
"D U D { ` U C b N ' C B m 9 8 6 ! >.-.E @ * r t 2 d a i O . X . ",
"%.%.%.%.%.o.I m N { [ L K 9 8 6 O.,.:.) # w g y t x H k o . . . ",
"$.%.%.%.%.$.Y m V o...L K 9 8 6 O.,.:.E @ O 1 s s i 2 s : . . . ",
"o.o.o.o.o...K b N o.] K C 9 9 6 ! >.-.E @ X y H H k t x 3   . . ",
"N { {  .@. .{ { D D S B B m 7 6 v _ ) T + $ r t 2 d s p O . . . ",
"D %.%.&.&.&.%.&.$.%...I L C 9 6 4 G G y + q f h u x T l o . . . ",
"D %.$.%.%.%.$.%.%.%.X.K K B 9 6 P :._ E ; O r s a i 2 d > . . . ",
"V o.o.o.o.o.o.o.o.o.Y K K C 9 6 ~ ,.:.E @ o y T H k 3 x 2 . . . ",
"D { U U { U B b N Q S B B 9 9 6 ~ ,.:.( @ $ r t 2 d a i O . . . ",
"X.X.X.....Y C 0 V X.] L K 9 7 6 +.,.:.( # q f h t x H k O . . . ",
"K K K K J J J b m K K L C 9 7 6 +.<.:.( ; O 3 d a i 2 s >   . . ",
"8 7 7 7 8 7 8 7 6 7 7 7 7 7 6 5 Q :.=.R O o y H H k t x 3   . . ",
"+.} } +.~ P 4 v ! O.O.W v 4 A A 0 #./ d O * r t 2 d a , o . . . ",
">.>.>.<.>.:.G _ >.,.,.>._ G :.;.#.,.:.) # w f g t H T 2   X . . ",
":.:.:.:.:.*.F ) -.:.:.-.) F _ -.^ :._ ( ; O 1 s a p ; o . . . . ",
"E E E E E E s H ( ( ( E H d E R d ( E T O X y H H l o . . . . . ",
"; : : : ; ; o O ; : : : O o ; O @ : : # o * r i 2 d p : . . . . ",
"% q e - + & $ # % e e - + $ $ # % e e q * w g j t x H 3   . . . ",
"r 1 * r r & 1 r r 1 & r r , 1 r r r & 1 r = < s a d , o . . . . ",
"H y 1 H z 1 j z x j 1 z z 1 j x x z 1 j x j t H T T 2 . . . . . ",
", d s i 2 a d u 2 a a i 2 p d i 2 d d d 2 o X ; ; O o . . . . . ",
"3 H T k t H H k t x T l t x H k u x H x 2   . . . . . . . . . . ",
"a i 2 s a 2 i d a i 2 d a 2 i d a d 2 i a 3 o . . . . . . . . . ",
"T l , u t , l T T l , u u , l T T x 3 2 p 2 o . . . . . . . . . ",
"; o .   . . O ; ; o .       O ; ; ; o       . . . . . . . . . . ",
". . . . . . . . . . . . . .   . . .     . . . . . . . . . X . . ",
". . . . . . . . . . . . . . . . . . . . X . . . . . . . . . . . ",
". . . . . . . . . . . .   o . . . . . . . . . . . . . . . . . . "
};
