/* XPM */
static char *corner_ul[] = {
/* columns rows colors chars-per-pixel */
"32 32 110 2 ",
"   c #3C3751",
".  c #3F3851",
"X  c #443751",
"o  c #453951",
"O  c #4B3A51",
"+  c #523E53",
"@  c #5A3B53",
"#  c #6C3B51",
"$  c #713C50",
"%  c #554055",
"&  c #5D4053",
"*  c #604052",
"=  c #6B4353",
"-  c #744754",
";  c #7A4354",
":  c #764855",
">  c #7A4B56",
",  c #76535D",
"<  c #5E4D60",
"1  c #655363",
"2  c #6E5967",
"3  c #745B69",
"4  c #7D5D6C",
"5  c #7B616D",
"6  c #903E51",
"7  c #844251",
"8  c #834C55",
"9  c #9A4E57",
"0  c #9A4E58",
"q  c #885057",
"w  c #87555A",
"e  c #8B5459",
"r  c #945055",
"t  c #93555A",
"y  c #935A5B",
"u  c #A6464F",
"i  c #A65358",
"p  c #A65C5B",
"a  c #AA5E5B",
"s  c #B35A59",
"d  c #AD655F",
"f  c #B6625C",
"g  c #BA625C",
"h  c #805F6D",
"j  c #8F6766",
"k  c #84616E",
"l  c #8B6370",
"z  c #856871",
"x  c #8C6B74",
"c  c #946673",
"v  c #946C76",
"b  c #9B6A76",
"n  c #847574",
"m  c #917178",
"M  c #9A767B",
"N  c #9F787D",
"B  c #A36563",
"V  c #A66A65",
"C  c #BE6C61",
"Z  c #BF766B",
"A  c #A56D79",
"S  c #AC6F7B",
"D  c #A07B71",
"F  c #AD707B",
"G  c #A17B7F",
"H  c #B1757E",
"J  c #C06E61",
"K  c #C0766B",
"L  c #D07463",
"P  c #D27D6D",
"I  c #968076",
"U  c #968179",
"Y  c #A28577",
"T  c #A38B7E",
"R  c #B18D7A",
"E  c #B3957F",
"W  c #D3806F",
"Q  c #D38471",
"!  c #DB997D",
"~  c #9F7E81",
"^  c #A37F81",
"/  c #AE7B81",
"(  c #B67E83",
")  c #9E8084",
"_  c #A58385",
"`  c #A88284",
"'  c #A38E80",
"]  c #B48285",
"[  c #B98286",
"{  c #B48B8A",
"}  c #BB8D8B",
"|  c #A49285",
" . c #A4958B",
".. c #B9908E",
"X. c #AB9090",
"o. c #BB9490",
"O. c #B4A08C",
"+. c #C08F8D",
"@. c #C2928F",
"#. c #C49591",
"$. c #C69994",
"%. c #C89D97",
"&. c #F1A581",
"*. c #E1B08A",
"=. c #F7B88D",
"-. c #E6BC91",
";. c #FAC292",
":. c #FFCF9A",
">. c #FFD19D",
",. c #FFD3A0",
/* pixels */
". . . . . . . . . . . . . . . . . . . . . . . . . . . . . . . . ",
". . . . . . . . . . . . . . . . . . . . . . . . . . . . . . . . ",
". . . . . . . .         . . . . . . . . . . . . . . . . . . . . ",
". . X . . . . .         .       . . . . .       . . . . .       ",
". . . . . . . . o % % % O > w > O % % % & w w : o % % % * e w 8 ",
". . . . . . .   O r d p - d J p = d d r > g C d - p d r > C C f ",
". . . . . . & w w y - e t 8 : y r 8 - y e - e y e q - y e - e y ",
". . . . .   > g J g 8 p J p 8 g C d 8 g C 8 d g C p 8 J g > d C ",
". . . . o > y y : q y y - 8 t q - y t q - e y q - r r q - e y r ",
". . . . O a g C 8 p s s ; 9 s 9 ; s s 9 ; s s 0 - s s 9 - s s i ",
". . . . X O e y e ; O # $ + @ - # # @ $ # @ o o o o @ $ # @ # $ ",
". . . .   o d C J 9 X O @ % % % @ + O % # + % O % o + * * % & * ",
". . . . & w y e - 7 # + C P W y K P t C P P Q P C y L W W W W W ",
". . . . > C C p 8 u 6 & P &.;.R *.&.B Q =.;.;.=.Q V &.;.;.;.;.;.",
". . . . o % q y t 8 O + P ;.,.O.-.;.V ! :.>.:.:.! V ;.>.>.>.:.:.",
". . . . . o a C g 0 X o y R o.5 M D , j Y | | Y j , Y T  .T U | ",
". . . . & e y 8 : 7 # O Z *.;.U < 1 1 1 1 1 1 1 1 1 1 1 1 1 1 1 ",
". . . . : J J p 8 u 7 % Q ;.>. .1 2 2 3 3 3 3 3 3 3 3 3 3 3 3 2 ",
". . . o 8 : e y t ; X % W ;.>. .1 2 3 b A A A A S S A A A A b 3 ",
". . . O d 8 p C J 9   % W ;.>.T 1 2 3 b A A A A A A A A A A b 3 ",
". . . . = y y w : 7 # + P ;.>.T 1 2 3 l c c c k h c c c c c c j ",
". . .   > g C p 8 u 6 @ P &.;.M 1 2 3 A F H ] v h H ( [ [ [ [ ( ",
". . . o 8 : e y y ; O O t B V , 1 2 3 A F ] $.M h A } #.#.#.#.#.",
". . . O a 8 d J g 9 o O C W ! j 1 2 3 b A H } x 4 A ] o...} } } ",
". . . . = y y w - 7 # % P =.:.Y 1 3 k c c b _ ^ M _ X._ _ ^ M 4 ",
". . . . : g g d 8 u 6 @ W ;.>.| 1 3 A F F [ #.#.#.$.$.$.$.$.{ 4 ",
". . . o 8 - w y y > O + W ;.>.| 1 3 A F F ] #.#.#.#.} } } _ M 3 ",
". . . O d 8 d C g 9 X O P =.>.Y 1 3 b A A / { } } } } } ..{ ^ 3 ",
". . .   = y y q ; 7 # + C W ! j 1 2 3 l c b ^ x k b G ^ _ _ G ) ",
". . .   - g C p 8 u 6 + e V d , 1 2 3 A A ] } m k H +.#.$.#.#.$.",
". .   o 8 - q y t ; O % P ! ;.M 1 2 3 A A ( ` z 4 A } @.#.#.#.@.",
"      % g t f L L i o % Q ;.:.T 1 2 3 A F ( @.v 5 F } $.%.#.#.#."
};
