/* XPM */
static char *corner_ur[] = {
/* columns rows colors chars-per-pixel */
"32 32 112 2 ",
"   c #3C3751",
".  c #3F3851",
"X  c #443751",
"o  c #443851",
"O  c #4B3A51",
"+  c #523E53",
"@  c #5A3C53",
"#  c #6C3B51",
"$  c #713C50",
"%  c #544053",
"&  c #5D4053",
"*  c #5E4D5F",
"=  c #604052",
"-  c #734553",
";  c #7B4354",
":  c #754855",
">  c #7A4A55",
",  c #76535D",
"<  c #655363",
"1  c #6E5967",
"2  c #745B69",
"3  c #7B5D6B",
"4  c #903E51",
"5  c #844251",
"6  c #824B55",
"7  c #8D4E56",
"8  c #9A4E57",
"9  c #9A4E58",
"0  c #875057",
"q  c #895157",
"w  c #875459",
"e  c #8B5459",
"r  c #8F585A",
"t  c #945055",
"y  c #93565A",
"u  c #93595B",
"i  c #A6464F",
"p  c #A05255",
"a  c #A65458",
"s  c #A65C5B",
"d  c #A95D5B",
"f  c #B35A59",
"g  c #AD655F",
"h  c #B6615C",
"j  c #BD685F",
"k  c #815F6D",
"l  c #8F6766",
"z  c #84616F",
"x  c #89626F",
"c  c #8C6371",
"v  c #876A73",
"b  c #8B6973",
"n  c #946673",
"m  c #956D76",
"M  c #9B6B76",
"N  c #847775",
"B  c #957279",
"V  c #98777B",
"C  c #9D797D",
"Z  c #A36563",
"A  c #A66A65",
"S  c #BE6C61",
"D  c #BF766B",
"F  c #A06B77",
"G  c #A56D79",
"H  c #AB6F7A",
"J  c #A07B71",
"K  c #AD707B",
"L  c #A17B7F",
"P  c #AB787F",
"I  c #B1757E",
"U  c #C06E62",
"Y  c #CF6F61",
"T  c #C0766B",
"R  c #D07463",
"E  c #D27D6D",
"W  c #968076",
"Q  c #A28577",
"!  c #A38C7E",
"~  c #B18D7A",
"^  c #B3957F",
"/  c #D3806F",
"(  c #D38471",
")  c #DB997D",
"_  c #9D7D80",
"`  c #A27D80",
"'  c #AD7A80",
"]  c #B57D82",
"[  c #978881",
"{  c #A58385",
"}  c #A38E80",
"|  c #B68386",
" . c #B98285",
".. c #BC8789",
"X. c #B48988",
"o. c #BA8D8B",
"O. c #A49285",
"+. c #A4968B",
"@. c #BA908D",
"#. c #AB9090",
"$. c #B5A18D",
"%. c #C2918E",
"&. c #C49591",
"*. c #C69994",
"=. c #F1A581",
"-. c #E1B08A",
";. c #F7B88D",
":. c #E6BD93",
">. c #FAC292",
",. c #FFCF9A",
"<. c #FFD19D",
"1. c #FFD3A0",
/* pixels */
". . . . . . . . . . . . . . . . . . . . . . . . . . . . . . . . ",
". . . . . . . . . . . . . . . . . . . . .   . . . . . . . . . . ",
". . . . . o . . . . . . . . . . . . . .   o o   . o . . . . . . ",
". . . .         . . . . .     . . . . .         . . . . . . . . ",
"o O % O & w w > O O + O = w w > O O % o & q q > o . . . . . . . ",
"- s g t 6 S S d : d g t 6 U U d ; d g t 6 j U g O . . . . . . . ",
"u q : u r : e u u q : y r - q u r u > 6 r 0 % O . . . . . . . o ",
"S s 6 S j 6 s S S s 6 S S 6 s U S j 6 g U g o   .     . . . . . ",
": y r 0 - r u q - y r 0 - e u q : u u 6 : u q > = w q =   o     ",
"- f f 8 ; f f 8 ; f f 9 ; f f 8 ; f f 8 ; f h s 6 S j >     . o ",
"# # @ $ # @ O o o O @ $ # @ # # $ # O X o O ; u r 0 - e & . . . ",
"& & O @ & % O % O o @ @ & % % % + @ + O o X 8 U U g > j >   . . ",
"/ R y S E E E E S y E / / / / D u E E U O # 5 6 : y r q O . . . ",
">.=.Z ( ;.>.>.;.( Z =.>.>.>.>.-.~ >.=.R @ 4 i p 6 j U g O   . . ",
"<.>.A ) ,.1.<.,.=.Z >.<.<.<.<.>.o.1.>.E + O > y r q % O . . . . ",
"! J , l Q O.O.Q z , J W +.! ! [ N $.^ u O o 8 j j g o   . . . o ",
"< < < < < < < < < < < < < < < * W >.-.D + # 5 6 : u e > o . . . ",
"2 2 3 2 2 3 2 2 3 2 2 2 2 1 1 < J >.) R & 4 i p 6 S S d O . . . ",
"3 n F F G G G G G G G G M 2 1 < , A A u O O ; y y q : y & . . . ",
"x F F G G G G G G G G G M 2 1 < l ) ( S O o 8 U S s 6 S > . . . ",
"c n n n n n n k k n n n x 2 1 < Q <.;.E % # 5 6 : u r q O . . . ",
" . .]  . .] H x n  .I I G 2 1 < O.<.>./ # 5 i p 6 S S s O . . . ",
"*.*.*.&.&...F 3 b X.] G F 2 1 < O.<.>./ % o ; u r q : y & . . . ",
"o.o.@.o.o.X.G k v X.P F M 2 1 < Q <.;.E % . 9 S S s 6 j >   . . ",
"b L { { #.{ { _ C L m n n x 2 < z =.( S @ $ 5 6 : u u q O     o ",
"C &.&.*.*.*.*.*.&.&. .K K M 2 < , A Z u + 5 i p 6 j U d O       ",
"C &.&.%.%.%.%.%.&.&. .G G n 2 < J ;.=.R @ X ; u r 0 - y & . o . ",
"B X.o.o.@.o.o.@.o.o.P G G M 2 < } <.>.E + X 8 U S g > j >   . . ",
"_ ` ` ` Q C M z b L M n b 2 1 < [ <.>./ % # 5 6 : u y q O   o   ",
"&.&.&.&.&.%.' x V &. .K G 2 1 < +.<.>./ @ 4 i 8 6 j j d O   o   ",
"&.&.&...%...M 3 V &. .K G 2 1 < +.<.>./ % O ; y r w : y & .     ",
"&.%.*.&.*.@.G k B %.] K F 2 1 < ! <.>./ % o a R R h q R 6     o "
};
