/* XPM */
static char * corner_ld_xpm[] = {
"64 64 19 1",
" 	c #3F3851",
".	c #E27F6D",
"+	c #FBCA97",
"@	c #6E5967",
"#	c #AE444E",
"$	c #CD7363",
"%	c #BF5753",
"&	c #89365C",
"*	c #FFEAB7",
"=	c #926475",
"-	c #AD707B",
";	c #B77F83",
">	c #C39490",
",	c #D1B1A5",
"'	c #DCCABE",
")	c #FFFAD6",
"!	c #EDA27F",
"~	c #D25654",
"{	c #9E3B57",
"                        ..+++++ @@@@@@@@@@@@@@@@@@@@@@@@@@@@@@@@",
"         #$$$$$# %###&  ..++++* @@@@=------;>>>>,,,''',>,>>>>-@@",
"         $$$$$$$ $####  ..++++) @@@@------->>>>>>>>>>>>>>>>>>>@@",
"         #$$$$$# %###&  ..++++) @@@@------->>>>>>>>>>>>>>>>>>>@@",
"                        ..++++* @@@@@@---==->->>>>>>>>>>>>>>>>@@",
"        %$# #$$$$$%&    ..++++) @@@@------->>>>>>>>>>>>>>>>>>>@@",
"        $$$ $$$$$$$#    ..++++* @@@@------->>>>>>>>>>>>>>>>>>>@@",
"        #$% #$$$$$%&    ..+++++ @@@@=------;>>>>>>>>>>>>>>>>>-@@",
"                        ..++++* @@@@@@@@@@@@@@@@@@@@@@@@@@@@@@@@",
"         #$$$$$# %###&  ..++++* @@@@@@=----;>>-@@=--;>>''',>>>,>",
"         $$$$$$$ $####  ..!++++ @@@@@@----->>>>@@--->>>>>>>>>>>>",
"         #$$$$$# %###&  ...!++! @@@@@@---==->@@@@--->>>>>>>>>>>>",
"                        ~...... @@@@@@----->>>;@@@@@>-->->>>>>>>",
"        %$# #$$$$$%&            @@@@@@----->>>>@@--->>,,,>,,>>>>",
"        $$$ $$$$$$$#    ~...... @@@@@@----->>>>@@--->>>>>>>>>>>>",
"        #$% #$$$$$%&    ...!++! @@@@@@=----;>>-@@=--;>>>>>>>>>>>",
"                        ..!++++ @@@@@@@@@@@@@@@@@@@@@@@@@@@@@@@@",
"         #$$$$$# %###&  ..+++++ @@@@=------;>,,'',,>,>>>>>>>>-@@",
"         $$$$$$$ $####  ..++++* @@@@------->>>>>>>>>>>>>>>>>>>@@",
"         #$$$$$# %###&  ..++++* @@@@------->>>>>>>>>>>>>>>>>>>@@",
"                        ..++++) @@@@------->>>>>>>>>>>>>>>>>>;@@",
"        %$# #$$$$$%&    ..++++* @@@@------->>>>>>>>>>->-->@@@@@@",
"        $$$ $$$$$$$#    ..+++++ @@@@------->>>>>>>>>>>>,>,,>>>@@",
"        #$% #$$$$$%&    ..!++++ @@@@=------;>>>>>>>>>>>>>>>>>-@@",
"                        ...!++! @@@@@@@@@@@@@@@@@@@@@@@@@@@@@@@@",
"         #$$$$$# %###&  ~...... @@@@@@=---->>>-@@=-->>>,'',,>>>>",
"         $$$$$$$ $####          @@@@@@-----;>>>@@---;>>>>>>>>>>>",
"         #$$$$$# %###&  ~...... @@@@@@---==-@@@@@---------------",
"                        ...!++! @@@@@@---------@@---------------",
"        %$# #$$$$$%&    ..!++++ @@@@@@=-------=@@=--------------",
"        $$$ $$$$$$$#    ..+++++ @@@@@@@@@@@@@@@@@@@@@@@@@@@@@@@@",
"        #$% #$$$$$%&    ..++++* @@@@@@@@@@@@@@@@@@@@@@@@@@@@@@@@",
"                                                                ",
"         #$$$$$# %###&  ~.++*)* *)*++*))*++!. .!++**)*++!. .!++*",
"         $$$$$$$ $####  ..+++++ ++++++++++++. .++++++++++. .++++",
"         #$$$$$# %###&  ..+++++ ++++++++++++. .++++++++++. .++++",
"                        ..!++++ +++++++++++!. .!++++++++!. .!+++",
"        %$# #$$$$$%&    ...!+++ ++++++++++!.. ..!++++++!.. ..!++",
"        $$$ $$$$$$$#    ....... ............. ............ .....",
"        #$% #$$$$$%&    ~.....~ ............~ ~..........~ ~....",
"                                                                ",
"          #$$$$$#                                               ",
"          $$$$$$$                &{###{&         &{###{&        ",
"          #$$$$$#         &####& {#####{ &#####& {#####{ &#####&",
"                                                                ",
"             #$$$$$$# &####& &#####& &####& &######& &####& &###",
"             $$$$$$$$ %$$$$% %$$$$$% %$$$$% %$$$$$$% %$$$$% %$$$",
"             #$$$$$$# #$$$$# #$$$$$# #$$$$# #$$$$$$# #$$$$# #$$$",
"                                                                ",
"          #$$$$$# #$$$$$# #$$$$$ #$$$$$# #$$$$$# #$$$$$# #$$$$$#",
"          $$$$$$$ $$$$$$$ $$$$$$ $$$$$$$ $$$$$$$ $$$$$$$ $$$$$$$",
"          #$$$$$# #$$$$$# #$$$$$ #$$$$$# #$$$$$# #$$$$$# #$$$$$#",
"                                                                ",
"               %$$$$%        #$$$$$# %$$$$% #$$$$$$# %$$$$% #$$$",
"               #%$$%#        $$$$$$$ #%$$%# $$$$$$$$ #%$$%# $$$$",
"                             #$$$$$#        #$$$$$$#        #$$$",
"                                                                ",
"                                                                ",
"                                                                ",
"                                                                ",
"                                                                ",
"                                                                ",
"                                                                ",
"                                                                "};
