/* XPM */
static char *corner_ld[] = {
/* columns rows colors chars-per-pixel */
"32 32 118 2 ",
"   c #3C3751",
".  c #3F3851",
"X  c #443751",
"o  c #443951",
"O  c #4C3C52",
"+  c #533753",
"@  c #523E54",
"#  c #5B3D53",
"$  c #683C4F",
"%  c #613754",
"&  c #653B51",
"*  c #6A3C52",
"=  c #703B52",
"-  c #7E3A53",
";  c #514054",
":  c #5C4054",
">  c #5E4D5F",
",  c #634153",
"<  c #6B4353",
"1  c #744754",
"2  c #7C4353",
"3  c #764855",
"4  c #794A55",
"5  c #76535D",
"6  c #665363",
"7  c #6C5565",
"8  c #6E5967",
"9  c #745B69",
"0  c #79606C",
"q  c #8F3E51",
"w  c #903E51",
"e  c #94414F",
"r  c #834352",
"t  c #884552",
"y  c #834C55",
"u  c #9A4E58",
"i  c #855057",
"p  c #865459",
"a  c #8C5459",
"s  c #8E585B",
"d  c #93565A",
"f  c #935A5B",
"g  c #A6464F",
"h  c #A05558",
"j  c #A65C5B",
"k  c #AB5E5B",
"l  c #AC665F",
"z  c #B5615C",
"x  c #B9645D",
"c  c #BB685F",
"v  c #815F6D",
"b  c #8F6766",
"n  c #84626F",
"m  c #856771",
"M  c #8C6371",
"N  c #856871",
"B  c #8B6A73",
"V  c #936673",
"C  c #976C76",
"Z  c #9C6B76",
"A  c #847775",
"S  c #917077",
"D  c #9F7B70",
"F  c #947078",
"G  c #9A747B",
"H  c #9E7A7E",
"J  c #A36563",
"K  c #A66A65",
"L  c #BE6C61",
"P  c #A66D79",
"I  c #AA6E7A",
"U  c #A07C71",
"Y  c #AC717B",
"T  c #A27B7F",
"R  c #B0717C",
"E  c #C06E62",
"W  c #C0766B",
"Q  c #D27D6D",
"!  c #968076",
"~  c #A28577",
"^  c #A38C7E",
"/  c #B18D7A",
"(  c #B3957F",
")  c #D3806F",
"_  c #D38471",
"`  c #DB997D",
"'  c #A17D80",
"]  c #AD7A80",
"[  c #B37C82",
"{  c #978881",
"}  c #A48284",
"|  c #AA8284",
" . c #A38E80",
".. c #A5898A",
"X. c #A88989",
"o. c #B58386",
"O. c #B98386",
"+. c #BB8688",
"@. c #B48A89",
"#. c #BA8D8B",
"$. c #A39185",
"%. c #A4968B",
"&. c #BB908E",
"*. c #AA9191",
"=. c #B5A18D",
"-. c #C08F8D",
";. c #C3938F",
":. c #C49591",
">. c #C79A95",
",. c #C89D97",
"<. c #F1A581",
"1. c #E1B08A",
"2. c #F7B88D",
"3. c #E6BD93",
"4. c #FAC292",
"5. c #FFCF9A",
"6. c #FFD19D",
"7. c #FFD3A0",
/* pixels */
". . . . , s f 4 < r * ; ) 4.6.^ 6 9 n V V C H H } ..*.{ ' ' F 9 ",
". . X   1 L L k r g w # ) 4.7.%.6 9 P I I o.;.;.>.,.,.:.:.:.#.9 ",
". . . o y 1 p f s 2 O @ Q 4.6.%.6 8 V I I ] #.;.:.;.:.;.:.:.#.0 ",
". . . O k i j E L u X @ ) 4.6. .6 9 Z P P ] #.#.#.#.#.#.#.#.| 9 ",
"X . . . < d f p 3 r $ @ ) 4.6.^ 6 8 9 M V Z T B m C G ..*.} ' ' ",
". . . . 1 E L j y g w # Q <.4.U 6 8 9 P I [ @.N n Y #.:.>.:.:.:.",
". . . o y 3 p f s 2 O O d J K 5 6 8 9 P I o.&.F v Z #.:.:.,.:.:.",
". . . O k y j E c u X O L ) ` b 6 8 9 Z P R #.B v P @.&.#.&.#.#.",
". . . . < a f a 1 r $ # Q 2.5.~ 6 9 n V V C ' ....' ' ' ' ' G 0 ",
". . .   2 L E j y g q # ) 4.6.$.6 9 P I I +.:.>.,.:.:.:.:.:.#.9 ",
". . . o y 3 p f d 2 o ; ) 4.6.$.6 9 P R I +.:.:.:.:.-.-.#.| ' 9 ",
". . . O k y j E c u X ; ) 2.6.! 6 9 Z P P ] #.#.#.#.@.#.&.@.' 9 ",
". . . . < a f p 1 t * @ L ) ` b 6 7 9 M V Z ' B m C ' } *.X.' ' ",
". . . . 4 c E j y g e + d J K 7 7 7 9 I I I ' m M R [ +.+.+.O.O.",
". . . o i 1 p f a 2 O ; Q <.4.D 6 7 9 Z P P P v n P P P P P P P ",
". . . O k y j E E u X O L 1.4.! > 6 6 7 7 7 7 6 6 7 7 7 7 7 7 7 ",
"X . . . < d f p 3 t * O f / =.A {  . .%. .U 5 b ~ $.$.~ b 5 D ^ ",
". . . . 1 L E k y g w # ) 4.6.( 3.6.5.7.6.4.K ` 5.6.6.5.` K 4.6.",
". . . o y 1 p f a r + ; Q ` 4./ 1.4.4.4.2.<.J _ 2.4.4.2._ J <.4.",
". . . O k i j E c u o : E ) ) f W _ Q Q Q Q d L Q Q ) Q L d Q Q ",
". . . . @ y f f 1 o . X O O O o @ # : # ; ; o O : # : : O X @ O ",
". . . . o k L c 1   .   . # $ & % w w - + & $ # % t e - + & & & ",
". . . . . O 1 f s i , < 2 2 $ r r 2 * r r * - t r 2 * r r * 2 t ",
". . . . .   1 L L c y h E h 2 x L u 2 L x 3 h c L u 2 x x 2 h x ",
". . . . o 4 s f 1 i d d 1 i d s 4 d d i 3 d f p 1 f f i 1 s f d ",
". . . . O k E c y j E E y l E l i c E j y c E j y L L j y c L z ",
". . . . . O ; 1 a d < ; X o < d s i 1 d a 1 i f s i 3 f a 4 p f ",
". . . . . . . # i i :   . . 4 E E l < i i $ l E E k * i i $ k E ",
". . . . . . . . .   . . . . o O O o X .   . O O ; O .   . . O O ",
". . . . . . . . . . . . . . X . . . . . . . . .   . . . X . . . ",
". . . . . . . . . . . . . . . . . . . . . . . . . . . . . . . . ",
". . . . . . . . . . . . . . . . . . . . . . . . . . . . . . . . "
};
