/* XPM */
static char *floor[] = {
/* columns rows colors chars-per-pixel */
"32 32 116 2 ",
"   c #856570",
".  c #876571",
"X  c #896A73",
"o  c #8A6A73",
"O  c #8B6A73",
"+  c #8C6A74",
"@  c #8D6A74",
"#  c #8D6B74",
"$  c #8F6E76",
"%  c #916D76",
"&  c #906F76",
"*  c #947077",
"=  c #947078",
"-  c #967178",
";  c #967379",
":  c #99737A",
">  c #99747A",
",  c #9B767B",
"<  c #9D757B",
"1  c #9B767C",
"2  c #9D777D",
"3  c #9E777C",
"4  c #9C787D",
"5  c #9D787D",
"6  c #9E797D",
"7  c #9D797E",
"8  c #9E797E",
"9  c #9D7A7E",
"0  c #9E7A7E",
"q  c #9F7A7E",
"w  c #A07A7E",
"e  c #A17A7E",
"r  c #A17B7F",
"t  c #A17C7F",
"y  c #A27C7F",
"u  c #9F7D80",
"i  c #9F7E81",
"p  c #A17C80",
"a  c #A27C80",
"s  c #A27D80",
"d  c #A37E81",
"f  c #A37F81",
"g  c #A07F82",
"h  c #A18083",
"j  c #A38082",
"k  c #A48183",
"l  c #A78183",
"z  c #A48384",
"x  c #A58384",
"c  c #A58385",
"v  c #A38586",
"b  c #A48586",
"n  c #A48787",
"m  c #A68687",
"M  c #A78787",
"N  c #AB8083",
"B  c #AB8183",
"V  c #AD8585",
"C  c #A78888",
"Z  c #A78988",
"A  c #A88888",
"S  c #A98C8C",
"D  c #A98D8D",
"F  c #B48687",
"G  c #B38988",
"H  c #B38A89",
"J  c #B48988",
"K  c #B68A89",
"L  c #B88B8A",
"P  c #BD898A",
"I  c #BD8A8A",
"U  c #BD8A8B",
"Y  c #BE8B8B",
"T  c #B88C8A",
"R  c #B98C8A",
"E  c #B88C8B",
"W  c #B88D8B",
"Q  c #B98D8B",
"!  c #BA8E8C",
"~  c #B6908E",
"^  c #B9908D",
"/  c #BE908D",
"(  c #BC918E",
")  c #BC928E",
"_  c #AB9191",
"`  c #C08E8D",
"'  c #C08F8D",
"]  c #C18F8D",
"[  c #C18F8E",
"{  c #C1908E",
"}  c #C2908E",
"|  c #C2918F",
" . c #C0938F",
".. c #C3938F",
"X. c #C29390",
"o. c #C39390",
"O. c #C39490",
"+. c #C39491",
"@. c #C39591",
"#. c #C49490",
"$. c #C49590",
"%. c #C49591",
"&. c #C59591",
"*. c #C49691",
"=. c #C59691",
"-. c #C49692",
";. c #C59692",
":. c #C59792",
">. c #C59893",
",. c #C69893",
"<. c #C69993",
"1. c #C59A94",
"2. c #C69A94",
"3. c #C69A95",
"4. c #C79A95",
"5. c #C79B96",
/* pixels */
": 0 h n v u g 0 0 0 0 0 0 0 6 . = 0 h n v u g 0 0 0 0 0 0 0 6   ",
"..$.:.<.,.*.;.$.%...' Y U ] G $ R &.:.<.,.*.;.$.%...' Y U ] J X ",
"$.#.#.#.#.#.#.#.#.O.-.>.3.O./ 1 Q %.#.#.#.#.#.#.#.O.-.>.3.O./ ; ",
"F E E E E E E Q W E E E T E T - N W E E E E E Q W E E E T E T * ",
"m x s s s s y # > f z M Z x t 7 b x s s s s y # > f z M Z x p 4 ",
"<.:.*.[ ` } G $ R =.:.,.<.:.$.&.,.:.*.[ ` } G $ R =.:.,.<.:.$.%.",
"#.#.*.>.3.O./ 1 Q %.#.#.#.#.#.#.#.#.*.>.3.O./ 1 Q %.#.#.#.#.#.#.",
"W E E T T T L - N Q E E E E E Q W E E T T T L - N Q E E E E E Q ",
"3 d z C _ S c i q s s s s s t @ > f z C _ S c i q s s s s s r O ",
"..%.:.<.5.2.:.:.%.$.$.%.%.%.&.e L =.:.<.5.2.:.:.%.$.$.%.%.%.&.2 ",
"$.#.#.#.O.O.#.#.#.$...I { H s & ! %.#.#.O.O.#.#.#.$...I { H s o ",
"F W E E E E E Q W E T K ^ ~ V % B Q E E E E E Q W E T K ^ ~ V # ",
"r s s s s s a # > f x M D _ A 8 q s s s s s a # > f x M D _ C 9 ",
"%.o.P ` |  .l $ R =.:.,.4.5.<.&.%.o.P ` |  .l $ R =.:.,.4.5.<.&.",
"#.O.@.o.<.3.) 1 Q %.#.#.O.O.#.#.#.O.@.o.<.3.) 1 Q %.#.#.O.O.#.#.",
"W E E E T E R - N Q E E E E E Q W E E E T E R - N Q E E E E E Q ",
"3 s z Z M j k 5 w s s s s s y # > s z Z M j k 5 w s s s s s y + ",
"..$.:.<.,.*.;.%.%...' Y U ] G $ R &.:.<.,.*.;.%.%...' Y U ] G X ",
"$.#.#.#.#.#.#.#.#.O.-.>.3.O./ 1 Q %.#.#.#.#.#.#.#.O.-.>.3.O./ ; ",
"F E E E E E E Q W E E E T E T - N W E E E E E Q W E E E T E T * ",
"m x s s s s y # > f z M Z x t 7 b x s s s s y # > f z M Z x p 4 ",
"<.:.*.[ ` } G $ R =.:.,.<.:.$.&.,.:.*.[ ` } G $ R =.:.,.<.:.$.%.",
"#.#.*.>.3.O./ 1 Q %.#.#.#.#.#.#.#.#.*.>.3.O./ 1 Q %.#.#.#.#.#.#.",
"W E E T T T L - N Q E E E E E Q W E E T T T L - N Q E E E E E Q ",
"3 d z C _ S c i q s s s s s t @ > f z C _ S c i q s s s s s r O ",
"..%.:.<.5.2.:.:.%.$.$.%.%.%.&.e L =.:.<.5.2.:.:.%.$.$.%.%.%.&.2 ",
"$.#.#.#.O.O.#.#.#.$...I { H s & ! %.#.#.O.O.#.#.#.$...I { H s o ",
"F W E E E E E Q W E T K ^ ~ V % B Q E E E E E Q W E T K ^ ~ V # ",
"r s s s s s a # > f x M D _ A 8 q s s s s s a # > f x M D _ C 9 ",
"%.o.P ` |  .l $ R =.:.,.4.5.<.&.%.o.P ` |  .l $ R =.:.,.4.5.<.&.",
"O.o.+.X.>.1.( , W #.O.O.O.O.O.O.O.o.+.X.>.1.( , W #.O.O.O.O.O.O.",
"O.O.O.O.O.O.o.< F $.O.O.O.O.O.O.O.O.O.O.O.O.o.< F $.O.O.O.O.O.O."
};
