/* XPM */
static char *wall_down[] = {
/* columns rows colors chars-per-pixel */
"32 32 87 1 ",
"  c #3C3751",
". c #3F3851",
"X c #473A51",
"o c #4E3D53",
"O c #533753",
"+ c #543F54",
"@ c #5B3C53",
"# c #683C4F",
"$ c #613754",
"% c #653B51",
"& c #693C52",
"* c #7E3A53",
"= c #5C4054",
"- c #694051",
"; c #754754",
": c #7C4253",
"> c #754854",
", c #7D4A55",
"< c #76535D",
"1 c #6C5565",
"2 c #8F3E51",
"3 c #94414F",
"4 c #834452",
"5 c #884552",
"6 c #824B55",
"7 c #855057",
"8 c #8B5358",
"9 c #8F585A",
"0 c #94565A",
"q c #93595B",
"w c #A05558",
"e c #A65C5B",
"r c #AA5E5B",
"t c #B5615C",
"y c #B9645D",
"u c #BB685F",
"i c #8F6766",
"p c #87626F",
"a c #866570",
"s c #8D6B74",
"d c #936F77",
"f c #9D6976",
"g c #947077",
"h c #9F7B70",
"j c #967178",
"k c #9A757B",
"l c #9E7A7E",
"z c #A36563",
"x c #A66A65",
"c c #BD6B61",
"v c #A66D78",
"b c #A27B7F",
"n c #C06E62",
"m c #D27E6D",
"M c #A28577",
"N c #A28B7D",
"B c #D2806F",
"V c #D38471",
"C c #DB997D",
"Z c #9F7D80",
"A c #A27E81",
"S c #AF7C81",
"D c #B17F84",
"F c #A58384",
"G c #AD8384",
"H c #A68B8B",
"J c #A98B8B",
"K c #B48386",
"L c #BA8487",
"P c #BB8689",
"I c #B58989",
"U c #B98C8B",
"Y c #A39185",
"T c #A3958A",
"R c #BD918E",
"E c #AB9291",
"W c #BB9490",
"Q c #C08F8D",
"! c #C2928F",
"~ c #C49591",
"^ c #C69A95",
"/ c #F1A481",
"( c #F7B88D",
") c #FAC292",
"_ c #FFCF9A",
"` c #FFD19D",
"' c #FFD3A0",
/* pixels */
"klFHHZFlbllbllladbFHHZFlllllllla",
"!~~^^~~W~~QPUQIsI~~^^~~!~!!UU!Is",
"~~~~~~~~~~~^^~!lU~~~~~!~~~~~^~Uj",
"KUUUUUUUUUUIIUIkFUUUUUUUUUUUUUUj",
"FFFbbbbskAFJEFAbFAAbAAbskFFJEFbl",
"^!!RR!IsU~^^^~~~^~~QQ!IsI~~^^^~~",
"!!!!^~RjkAUQ~~~~~~~~^~!jkFURR~!~",
"URUUUUUjbIIWWUIIIUUUIUIkbKUWRRUU",
"lbFHEJFZlAAAAAbskAFHEJAZbbFlbbbs",
"I!!!^^^^~~~~~~~bGQ~~^^^^~~~~!^!l",
"bR!^~~~~~~~~~~~lZR~~^~~~!~~!~!~l",
"KRRRUUUPUUIIUUIjSURUUUUUUUUUUUUg",
"bFFMAAAskAFJEJAbZFFAAAAskASJEJMZ",
"PPLLKDAsDLLPPPLPLPPPDSAsSLPQUPLD",
"vvvvvvfafvvvvvvvvvvvvvfafvvvvvvv",
"11111111111111111111111111111111",
"YNNTNv<iMYNMi<MMTFNTNb<iMNYMi<MM",
"`_``_)xC_``_Cx)_`_`'`)xC_`__Cx)_",
")))))CzV())(BzC))))))CzB())(VxC)",
"BBBVVB0cBBBBu0mBBBBBmmqcBBBBc0mV",
"=%==+oXo=====X=o===@==XO+===+Xoo",
"@53*O%#@@33*O#@@@23*o@#@$33*O###",
"4:&44&:54:%44#:5::&4:&*54:&44&:5",
"uw;yy:wuuw;yy:wuuw:yy:0cu0:yy:wy",
";0q8;9q8>qq7>9q7>qq7>998;0q8;8q0",
",cne6cce6cce6nnr6uce7cce6cne6uut",
"98;00>7q97;99;7qq8;q9;7q08;qq>8q",
"ne-77-enne-<7-rncr-77-ecnr#77-rn",
"oo    X+==    ===X.  Xo==o    oo",
" ...X   .      .  ....   ...X   ",
" X... X ..    ..........   .  X ",
". ...X  ...   .........   X  X  "
};
