/* XPM */
static char * wall_r_xpm[] = {
"64 64 18 1",
" 	c #6E5967",
".	c #3F3851",
"+	c #FFEAB7",
"@	c #FBCA97",
"#	c #E27F6D",
"$	c #AD707B",
"%	c #C39490",
"&	c #D1B1A5",
"*	c #DCCABE",
"=	c #B77F83",
"-	c #926475",
";	c #89365C",
">	c #AE444E",
",	c #BF5753",
"'	c #CD7363",
")	c #EDA27F",
"!	c #D25654",
"~	c #FFFAD6",
"                                .+@@@@##........................",
" $%%%%&**&%%&%%%%%%%=$$$$$$-    .@@@@@##..;>>>,>.>'''''>........",
" %%%%%%%%%%%%%%%%%%%%$$$$$$$    .@@@@)##..>>>>''.'''''''........",
" %%%%%%%%%%%%%%%%%%%%$$$$$$$    .)@@)###..;>>>,>.>'''''>........",
" %%%%%%%%%%%%%%%%%%%%$$$$$$$    .######!........................",
" %%%%%%%%%%%%%%%%%%%%$$$$$$$    ............;,'''''>.>''>.......",
" %%%%%%%%%%%%%%%%%%%%$$$$$$$    .######!....>'''''''.''''.......",
" $%%%%%%%%%%%%%%%%%%=$$$$$$-    .)@@)###....;,'''''>.>''>.......",
"                                .@@@@)##........................",
"%%%%%%%%%%%=$$-  $%%=$$$$-      .@@@@@##..;>>>,>.>'''''>........",
"%%%%%%%%%%%%$$$  %%%%$$$$$      .+@@@@##..>>>>''.'''''''........",
"%%%%%$%$$%$$$    %%%%$$$$$      .~@@@@##..;>>>,>.>'''''>........",
"%%%%%%&%&&%%$$-  %%%%$$$$$      .+@@@@##........................",
"%%%%%%%%%%%%$$$    %$-$-$$      .+@@@@##....;,'''''>.>''>.......",
"%%%%%%%%%%%%$$$  %%%%$$$$$      .@@@@@##....>'''''''.''''.......",
"%%%%%%%%%%%=$$-  $%%=$$$$-      .@@@@)##....;,'''''>.>''>.......",
"                                .)@@)###........................",
" $%%%&%&***&%&&%%%%%=$$$$$$-    .######!..;>>>,>.>'''''>........",
" %%%%%%%%%%%%%%%%%%%%$$$$$$$    ..........>>>>''.'''''''........",
" %%%%%%%%%%%%%%%%%%%%$$$$$$$    .######!..;>>>,>.>'''''>........",
" %%%%%%%%%%%%%%%%%%%%$--$$      .)@@)###........................",
" %%%%%%%%%%%%%%%%%%%%$$$$$$$    .@@@@)##....;,'''''>.>''>.......",
" %%%%%%%%%%%%%%%%%%%%$$$$$$$    .+@@@@##....>'''''''.''''.......",
" $%%%%%%%%%%%%%%%%%%=$$$$$$-    .+@@@@##....;,'''''>.>''>.......",
"                                .@@@@@##........................",
"%%%%%%%%%%%=$$-  $%%=$$$$-      .+@@@@##..;>>>,>.>'''''>........",
"%%%%%%%%%%%%$$$  %%%%$$$$$      .~@@@@##..>>>>''.'''''''........",
"%%%%$$$%%$$%     %%%%$$$$$      .+@@@@##..;>>>,>.>'''''>........",
"%%%&%&&&%&&%$$-  %%%%$$$$$      .~@@@@##........................",
"%%%%%%%%%%%%$$$  %%%%$$$$$      .~@@@@##....;,'''''>.>''>.......",
"%%%%%%%%%%%%$$$  %%%%$$$$$      .+@@@@##....>'''''''.''''.......",
"%%%%%%%%%%%=$$-  $%%=$$$$-      .@@@@@##....;,'''''>.>''>.......",
"                                .+@@@@##........................",
" $%%%%&**&%%&%%%%%%%=$$$$$$-    .@@@@@##..;>>>,>.>'''''>........",
" %%%%%%%%%%%%%%%%%%%%$$$$$$$    .@@@@)##..>>>>''.'''''''........",
" %%%%%%%%%%%%%%%%%%%%$$$$$$$    .)@@)###..;>>>,>.>'''''>........",
" %%%%%%%%%%%%%%%%%%%%$$$$$$$    .######!........................",
" %%%%%%%%%%%%%%%%%%%%$$$$$$$    ............;,'''''>.>''>.......",
" %%%%%%%%%%%%%%%%%%%%$$$$$$$    .######!....>'''''''.''''.......",
" $%%%%%%%%%%%%%%%%%%=$$$$$$-    .)@@)###....;,'''''>.>''>.......",
"                                .@@@@)##........................",
"%%%%%%%%%%%=$$-  $%%=$$$$-      .@@@@@##..;>>>,>.>'''''>........",
"%%%%%%%%%%%%$$$  %%%%$$$$$      .+@@@@##..>>>>''.'''''''........",
"%%%%%$%$$%$$$    %%%%$$$$$      .~@@@@##..;>>>,>.>'''''>........",
"%%%%%%&%&&%%$$-  %%%%$$$$$      .+@@@@##........................",
"%%%%%%%%%%%%$$$    %$-$-$$      .+@@@@##....;,'''''>.>''>.......",
"%%%%%%%%%%%%$$$  %%%%$$$$$      .@@@@@##....>'''''''.''''.......",
"%%%%%%%%%%%=$$-  $%%=$$$$-      .@@@@)##....;,'''''>.>''>.......",
"                                .)@@)###........................",
" $%%%&%&***&%&&%%%%%=$$$$$$-    .######!..;>>>,>.>'''''>........",
" %%%%%%%%%%%%%%%%%%%%$$$$$$$    ..........>>>>''.'''''''........",
" %%%%%%%%%%%%%%%%%%%%$$$$$$$    .######!..;>>>,>.>'''''>........",
" %%%%%%%%%%%%%%%%%%%%$--$$      .)@@)###........................",
" %%%%%%%%%%%%%%%%%%%%$$$$$$$    .@@@@)##....;,'''''>.>''>.......",
" %%%%%%%%%%%%%%%%%%%%$$$$$$$    .+@@@@##....>'''''''.''''.......",
" $%%%%%%%%%%%%%%%%%%=$$$$$$-    .+@@@@##....;,'''''>.>''>.......",
"                                .@@@@@##........................",
"%%%%%%%%%%%=$$-  $%%=$$$$-      .+@@@@##..;>>>,>.>'''''>........",
"%%%%%%%%%%%%$$$  %%%%$$$$$      .~@@@@##..>>>>''.'''''''........",
"%%%%$$$%%$$%     %%%%$$$$$      .+@@@@##..;>>>,>.>'''''>........",
"%%%&%&&&%&&%$$-  %%%%$$$$$      .~@@@@##........................",
"%%%%%%%%%%%%$$$  %%%%$$$$$      .~@@@@##....;,'''''>.>''>.......",
"%%%%%%%%%%%%$$$  %%%%$$$$$      .+@@@@##....>'''''''.''''.......",
"%%%%%%%%%%%=$$-  $%%=$$$$-      .@@@@@##....;,'''''>.>''>......."};
