/* XPM */
static char *wall_up[] = {
/* columns rows colors chars-per-pixel */
"32 32 252 2 ",
"   c #3C3751",
".  c #3D3751",
"X  c #3E3851",
"o  c #3F3851",
"O  c #433752",
"+  c #463751",
"@  c #463951",
"#  c #493850",
"$  c #483A51",
"%  c #4A3A51",
"&  c #4C3A51",
"*  c #4E3A52",
"=  c #4D3D52",
"-  c #4E3D52",
";  c #4F3D52",
":  c #503F53",
">  c #503F54",
",  c #553F54",
"<  c #563F54",
"1  c #593852",
"2  c #5A3852",
"3  c #5C3852",
"4  c #5D3852",
"5  c #5B3E52",
"6  c #693A51",
"7  c #6A3A51",
"8  c #6D3B51",
"9  c #6E3C50",
"0  c #713C50",
"q  c #723C50",
"w  c #733C50",
"e  c #5E4153",
"r  c #5F4153",
"t  c #5A4054",
"y  c #5E4154",
"u  c #604052",
"i  c #724251",
"p  c #734553",
"a  c #744653",
"s  c #744154",
"d  c #714654",
"f  c #744754",
"g  c #784452",
"h  c #784154",
"j  c #794154",
"k  c #754855",
"l  c #7A4C56",
"z  c #76535D",
"x  c #655262",
"c  c #655263",
"v  c #655363",
"b  c #665464",
"n  c #715A68",
"m  c #735B69",
"M  c #745B69",
"N  c #755C69",
"B  c #814A54",
"V  c #824A55",
"C  c #824B55",
"Z  c #824E57",
"A  c #9A4E57",
"S  c #9B4E57",
"D  c #885057",
"F  c #895157",
"G  c #875459",
"H  c #87565A",
"J  c #895258",
"K  c #8A5258",
"L  c #88565A",
"P  c #8E5559",
"I  c #8E5659",
"U  c #945055",
"Y  c #915358",
"T  c #94565B",
"R  c #90585B",
"E  c #90595B",
"W  c #91595B",
"Q  c #93585A",
"!  c #95595B",
"~  c #945A5B",
"^  c #945B5B",
"/  c #965A5B",
"(  c #A75158",
")  c #A65C5B",
"_  c #A75D5B",
"`  c #A95E5B",
"'  c #B15959",
"]  c #B25959",
"[  c #B35B59",
"{  c #B45C59",
"}  c #B55C59",
"|  c #AD655F",
" . c #B6625C",
".. c #8F6766",
"X. c #83606E",
"o. c #886270",
"O. c #896370",
"+. c #8A6370",
"@. c #8B6371",
"#. c #8C6371",
"$. c #8F6571",
"%. c #8F6572",
"&. c #8B6A73",
"*. c #8B6B74",
"=. c #8D6A74",
"-. c #8F6E76",
";. c #926572",
":. c #926672",
">. c #936673",
",. c #946673",
"<. c #926974",
"1. c #936F77",
"2. c #956F77",
"3. c #9A6975",
"4. c #9B6976",
"5. c #967078",
"6. c #99747A",
"7. c #9B767B",
"8. c #9D757B",
"9. c #9E777D",
"0. c #9D787D",
"q. c #9F797D",
"w. c #9D797E",
"e. c #9E797E",
"r. c #9E7B7E",
"t. c #9F7B7F",
"y. c #A36563",
"u. c #A66A65",
"i. c #BA6963",
"p. c #BB6963",
"a. c #BD6B60",
"s. c #BE6B60",
"d. c #BE6D61",
"f. c #BF6E62",
"g. c #A16B78",
"h. c #A26C78",
"j. c #A56D79",
"k. c #A66D79",
"l. c #A76E79",
"z. c #A07B70",
"x. c #A07B71",
"c. c #A07A7E",
"v. c #A17B7F",
"b. c #A37B7F",
"n. c #A17C7F",
"m. c #C06E62",
"M. c #D1786A",
"N. c #D27D6D",
"B. c #D37D6D",
"V. c #D27F6E",
"C. c #D37F6E",
"Z. c #D27F6F",
"A. c #A28577",
"S. c #A38B7C",
"D. c #A38B7D",
"F. c #A38B7E",
"G. c #A38C7E",
"H. c #D3806F",
"J. c #D38471",
"K. c #DB997D",
"L. c #9E7C80",
"P. c #A27C80",
"I. c #A27D80",
"U. c #A07E81",
"Y. c #A27E81",
"T. c #A37F81",
"R. c #A57D80",
"E. c #AD7A80",
"W. c #AB7F82",
"Q. c #B37D82",
"!. c #A78183",
"~. c #A48384",
"^. c #A58384",
"/. c #A58385",
"(. c #A68687",
"). c #A68787",
"_. c #AE8384",
"`. c #A78888",
"'. c #AD8988",
"]. c #AE8989",
"[. c #A98C8C",
"{. c #A88C8D",
"}. c #AA8D8D",
"|. c #B18486",
" X c #B48586",
".X c #B48687",
"XX c #B88085",
"oX c #B88185",
"OX c #B88285",
"+X c #B98286",
"@X c #BA8386",
"#X c #B38888",
"$X c #B68A89",
"%X c #B88B8A",
"&X c #BB8B8A",
"*X c #BC8889",
"=X c #B88C8A",
"-X c #B88C8B",
";X c #B88D8B",
":X c #B98D8B",
">X c #B98E8C",
",X c #B98F8C",
"<X c #BA8F8C",
"1X c #BA8F8D",
"2X c #BD8D8C",
"3X c #BC8F8D",
"4X c #A49183",
"5X c #A49286",
"6X c #A49488",
"7X c #A4968D",
"8X c #BD908D",
"9X c #BC918E",
"0X c #BF928F",
"qX c #AA8F90",
"wX c #AB9191",
"eX c #C08E8C",
"rX c #C08F8D",
"tX c #C0908E",
"yX c #C2918E",
"uX c #C0938F",
"iX c #C2928F",
"pX c #C29390",
"aX c #C39390",
"sX c #C39490",
"dX c #C49490",
"fX c #C49590",
"gX c #C49591",
"hX c #C59591",
"jX c #C59691",
"kX c #C59692",
"lX c #C59792",
"zX c #C59893",
"xX c #C69893",
"cX c #C69994",
"vX c #C59A94",
"bX c #C69A94",
"nX c #C69A95",
"mX c #C79A95",
"MX c #C79B96",
"NX c #F1A481",
"BX c #F1A581",
"VX c #F7B88D",
"CX c #F9C192",
"ZX c #F9C292",
"AX c #FAC393",
"SX c #FCC292",
"DX c #FFCF99",
"FX c #FFCF9B",
"GX c #FFD09B",
"HX c #FFD19D",
"JX c #FFD29E",
"KX c #FFD3A0",
/* pixels */
"o o o o o o o o o o o o o o o o o o o o o o o o o o o o o o o o ",
"o o o o o o o o o o o o o o o o o o o o o o o o o o o o o o o o ",
"o o o o o o o o o o o o o o o o o o o o o o o o o o o o o o o o ",
"o X X X X     . X X X X X     . X X X X X     . X X X X X       ",
"@ ; : % u G L l & - : % u G L l & - : % u G L l & - : % u G H Z ",
"i ` | U B s.f._ g ` | U B s.f._ g ` | U B s.f._ g ` | U B s.d. .",
"E K k ! I f J ~ W K k ! I f J ~ W K k ! I f J ~ W K k ! I f J / ",
"m.) V a.s.C ) d.f.) V a.s.C ) d.f.) V a.s.C ) d.f.) V a.s.C ) d.",
"d Q R D p P ^ F a Q R D p P ^ F a Q R D p P ^ F a Q R D p P ~ Y ",
"s ' { A h ] } S j ] { A h ] { A h ' { A h ] } S j ] { A h ] [ ( ",
"9 6 4 0 8 1 # + O # 2 0 8 3 7 q 9 6 4 0 8 1 # + O # 2 0 8 3 7 w ",
"r t * 5 y , > > = $ , y y < t e r t * 5 y , > > = $ , y y < t e ",
"V.M.T i.N.H.H.B.p.T M.V.Z.C.Z.Z.V.M.T i.N.H.H.B.p.T M.V.Z.C.Z.Z.",
"CXBXy.J.VXAXAXVXJ.y.NXCXZXZXZXZXCXNXy.J.VXAXAXVXJ.y.NXCXZXZXZXZX",
"GXSXu.K.DXJXHXDXK.u.SXGXKXFXFXJXGXSXu.K.DXJXHXDXK.u.SXGXKXFXFXJX",
"S.x.z ..A.5X4XA...z z.G.7XF.F.6XD.z.z ..A.5X4XA...z z.G.7XF.F.6X",
"c v b b c x c c b b v c x c c c c v b b c x c c b b v c x c c c ",
"M N N N N N N N N N N N N N N n m N N N N N N N N N N N N N N n ",
"h.l.l.l.l.l.l.l.l.l.l.l.l.l.k.@.4.l.l.l.l.l.l.l.l.l.l.l.l.l.k.O.",
"g.j.j.j.j.j.j.k.k.j.j.j.j.j.j.+.3.k.j.j.j.j.j.k.k.j.j.j.j.j.j.o.",
":.,.,.,.,.,.>.X.#.,.,.,.,.,.,.%.;.,.,.,.,.,.>.X.#.,.,.,.,.,.,.$.",
"+X+XOXoXoXXXQ.<.E.@X+X+X+X+X+X+X+X+XOXoXoXXXQ.<.E.@X+X+X+X+X+X+X",
"lXcXbXzXbXyX#X*.t.2XaXgXgXgXgXgXlXcXbXzXbXyX#X*.t.2XaXgXgXgXgXgX",
":X>X>X,X,X;X%X2.b.$X=X-X-X-X-X:X:X>X>X,X,X;X%X2.b.$X=X-X-X-X-X:X",
"9.T.^.`.wX[./.U.c.I.I.I.I.I.n.=.6.T.^.`.wX[./.U.c.I.I.I.I.I.v.&.",
"&X3XpXgXnXbXlXlXfXfXfXfXfXfXhXq.|.8XpXgXnXbXlXlXfXfXfXfXfXfXhX0.",
"_.'.0XtXrXdXdXdXdXdXdXdXdXdXjXe.R.].0XtXrXdXdXdXdXdXdXdXdXdXhXr.",
" X<X1X>X-X-X-X:X;X-X-X=X=X=X%X5.W.1X1X>X-X-X-X:X;X-X-X=X=X=X%X1.",
"qX`.Y.I.I.I.P.=.6.T.~.).}.}.(.L.{.`.Y.I.I.I.P.=.6.T.~.).}.}.(.w.",
"MXlX*XeXiXuX!.-.=XjXlXxXmXmXxXkXMXlX*XeXiXuX!.-.=XjXlXxXmXmXxXhX",
"sXaXtXiXzXvX9X7.:XdXsXsXsXsXsXsXsXaXtXiXzXvX9X7.:XdXsXsXsXsXsXsX",
"sXsXsXsXsXsXaX8..XfXsXsXsXsXsXsXsXsXsXsXsXsXaX8..XfXsXsXsXsXsXsX"
};
