/* XPM */
static char *wall_l[] = {
/* columns rows colors chars-per-pixel */
"32 32 91 1 ",
"  c #3C3751",
". c #3F3851",
"X c #443751",
"o c #463A51",
"O c #4B3A52",
"+ c #523F54",
"@ c #593F54",
"# c #6B3B52",
"$ c #703B52",
"% c #624153",
"& c #6B4353",
"* c #754754",
"= c #7E4554",
"- c #764855",
"; c #76535D",
": c #655363",
"> c #6E5967",
", c #745B69",
"< c #785F6B",
"1 c #7A616C",
"2 c #8F3E51",
"3 c #903E51",
"4 c #844251",
"5 c #834D55",
"6 c #9A4E58",
"7 c #8C5459",
"8 c #915257",
"9 c #94565B",
"0 c #935A5B",
"q c #A6464F",
"w c #A75159",
"e c #A65C5B",
"r c #AB5D5B",
"t c #B5625C",
"y c #BA625C",
"u c #835F6D",
"i c #8F6766",
"p c #84626F",
"a c #856771",
"s c #8C6370",
"d c #8B6A73",
"f c #946773",
"g c #966C76",
"h c #9A6C76",
"j c #96737A",
"k c #99757B",
"l c #9D797D",
"z c #A36563",
"x c #A66A65",
"c c #BE6C61",
"v c #A06B77",
"b c #A66D79",
"n c #AB6F7A",
"m c #A07C71",
"M c #AD717B",
"N c #A17B7F",
"B c #B1747E",
"V c #D07463",
"C c #D27D6D",
"Z c #A28577",
"A c #A38B7D",
"S c #D3806F",
"D c #D38471",
"F c #DB997D",
"G c #A37E81",
"H c #AD7A80",
"J c #B27C82",
"K c #A38384",
"L c #AC8083",
"P c #A38E80",
"I c #A68789",
"U c #A6898A",
"Y c #A98D8D",
"T c #B38687",
"R c #B88286",
"E c #B48B8A",
"W c #B98D8B",
"Q c #A49285",
"! c #A4958B",
"~ c #B9908E",
"^ c #AB9191",
"/ c #C08E8D",
"( c #C2918E",
") c #C49591",
"_ c #C79A95",
"` c #F1A481",
"' c #F7B88D",
"] c #FAC292",
"[ c #FFCF9A",
"{ c #FFD19D",
"} c #FFD3A0",
/* pixels */
"....%705&4#@C]{P:>ssfglllUKGKGj>",
"....-cce5q2@S]}!:,hMMJ)))_))~_W1",
"...o5*707=O+S]{!:,fnnHW)))))))W1",
"...Or5ecc6X+S]{P:,hbbHWWWWWWWWL,",
"....&707*2#OC]{P:>,sfhNdpgNKY^Uk",
"....-cce5q2@C`]m:>,bnR)jsB/____)",
"...o5-707=OO9zx;:>,bMJ_ksB~)()))",
"...or5ecc6XOcDFi:>,hbJWfubTWWWW~",
"....&007*4#+C'[Z:>pgfjNlKY^UKKk1",
"... *cyr5q4@C]}Q:,bMMR(_)___))W<",
"...o5*708=++C]}Q:,bMMR()))(W/Ek,",
"...Or;ecc6X+C'[Z:,hbbBWWWWW~WWN,",
"....&007*4$@cDFi:>,sghNdpgNK^YKk",
"... -cce5q4O9zx;:>,nMR)jsB/___))",
"...o5-7074O+V`]m:>,nnBTpsB(()()(",
"...Or5ecc6X+C][P;>,gbNTdubEWWWW~",
"....&707-4#+D][P:>uffhGllIKGKKk1",
"... -cce5q2@C]}!:>hnnJ())_))_)W<",
"...o5*707=O+C]}!:,fnbJW(())))(W1",
"...Or5ecc6X+C][P:,hbbJWWWWWWWWL,",
"....&707-4#@C'}P:>,sfhGdpgNKY^Yk",
"....-cce5q2@C`]m:>,bBJ)jsB/_____",
"...o5*709=OX9zx;:>,bMR_jsB((((((",
"...Or5ecc6XOcDFi:>,hbHWfubEW~WW~",
"....&007-4#+C'[Z:>ufghGlZY^ILGk<",
"... -cce5q2@D]{Q:,nBnJ))_____)W<",
"...o5*707=O+C]}Q:,bnnR)))))W/Ek,",
"...Or;ecc6X+C'[Z:,hbbJEWWWEWWEG,",
"....&807*2#OcDFi:>,ffhGsahNG^YGG",
"... -cce5q2O9zx;:>,bMJ_ksB/___))",
"...o5*709=O+V`]m:>,bnJTasn/))~))",
"...Oy8tVVwX+D'[A:>,vnJWdsBW))))("
};
