/* XPM */
static char *wall_r[] = {
/* columns rows colors chars-per-pixel */
"32 32 255 2 ",
"   c #3C3751",
".  c #3D3751",
"X  c #3E3851",
"o  c #3F3851",
"O  c #443751",
"+  c #463751",
"@  c #463951",
"#  c #493A51",
"$  c #4A3A51",
"%  c #4B3852",
"&  c #4C3A51",
"*  c #4D3D52",
"=  c #513A52",
"-  c #523D53",
";  c #503F54",
":  c #513F54",
">  c #553F54",
",  c #593F54",
"<  c #6B3B52",
"1  c #703B52",
"2  c #5F4052",
"3  c #604052",
"4  c #6A4253",
"5  c #7C4653",
"6  c #7E4554",
"7  c #744854",
"8  c #754855",
"9  c #794955",
"0  c #76535D",
"q  c #655263",
"w  c #655363",
"e  c #665464",
"r  c #675464",
"t  c #6E5967",
"y  c #705A68",
"u  c #715A68",
"i  c #725A68",
"p  c #725B68",
"a  c #735B69",
"s  c #745B69",
"d  c #755B69",
"f  c #755C69",
"g  c #7C5D6B",
"h  c #8F3E51",
"j  c #903E51",
"k  c #903F51",
"l  c #814150",
"z  c #844251",
"x  c #824B55",
"c  c #854B54",
"v  c #804C56",
"b  c #824E57",
"n  c #8D4E56",
"m  c #9A4E58",
"M  c #8A5157",
"N  c #885158",
"B  c #895158",
"V  c #8F575A",
"C  c #8F585A",
"Z  c #925659",
"A  c #935659",
"S  c #925759",
"D  c #94565B",
"F  c #93585A",
"G  c #915A5B",
"H  c #A6464F",
"J  c #A05255",
"K  c #A75159",
"L  c #A65C5B",
"P  c #A85D5B",
"I  c #B5625C",
"U  c #BD685F",
"Y  c #835F6E",
"T  c #8F6766",
"R  c #83636F",
"E  c #84606E",
"W  c #86616F",
"Q  c #87626F",
"!  c #88616F",
"~  c #856570",
"^  c #896270",
"/  c #8D6471",
"(  c #876B73",
")  c #886872",
"_  c #896972",
"`  c #8B6A73",
"'  c #8E6C75",
"]  c #916672",
"[  c #926672",
"{  c #936673",
"}  c #946773",
"|  c #956773",
" . c #936F77",
".. c #956C76",
"X. c #976C76",
"o. c #9A6975",
"O. c #9B6976",
"+. c #9C6976",
"@. c #9C6A76",
"#. c #9A6C76",
"$. c #996E77",
"%. c #947078",
"&. c #97757A",
"*. c #97757B",
"=. c #98767B",
"-. c #98777B",
";. c #9A777C",
":. c #9C787D",
">. c #9D787D",
",. c #9F787D",
"<. c #9D797E",
"1. c #9E7A7E",
"2. c #9E7B7E",
"3. c #9E7B7F",
"4. c #A36563",
"5. c #A66A65",
"6. c #BB6963",
"7. c #BD6A60",
"8. c #BE6C60",
"9. c #BF6E62",
"0. c #A06B77",
"q. c #A26B78",
"w. c #A36C78",
"e. c #A26D78",
"r. c #A56D78",
"t. c #A56C79",
"y. c #A56D79",
"u. c #A66D79",
"i. c #A66E79",
"p. c #A76E79",
"a. c #A66F79",
"s. c #A66F7A",
"d. c #A86D7A",
"f. c #AB6E7A",
"g. c #AA6F7A",
"h. c #AD6F7B",
"j. c #A07B71",
"k. c #A07C72",
"l. c #A8717B",
"z. c #AD707B",
"x. c #AE707B",
"c. c #AE717B",
"v. c #AB727C",
"b. c #AF737D",
"n. c #AB777E",
"m. c #A17B7F",
"M. c #A17C7F",
"N. c #C06E62",
"B. c #CF6F61",
"V. c #D07362",
"C. c #D17564",
"Z. c #D1786A",
"A. c #D2786A",
"S. c #D37D6D",
"D. c #D27F6E",
"F. c #D37F6E",
"G. c #D37F6F",
"H. c #A28577",
"J. c #A38A7B",
"K. c #A38B7C",
"L. c #A38C7F",
"P. c #D2806F",
"I. c #D3806F",
"U. c #D38471",
"Y. c #DB997D",
"T. c #9D7D80",
"R. c #9F7D80",
"E. c #A17C80",
"W. c #A17D81",
"Q. c #A27C80",
"!. c #A27D80",
"~. c #A27E81",
"^. c #A07F82",
"/. c #AD7A80",
"(. c #B27C82",
"). c #B67F83",
"_. c #A28083",
"`. c #A48183",
"'. c #A68586",
"]. c #A38D80",
"[. c #A38F80",
"{. c #A68B8C",
"}. c #A88A8B",
"|. c #A98C8C",
" X c #B78286",
".X c #B28787",
"XX c #B48586",
"oX c #B48687",
"OX c #B88185",
"+X c #B88285",
"@X c #B98285",
"#X c #B88286",
"$X c #B98286",
"%X c #BB8688",
"&X c #B48988",
"*X c #BB898A",
"=X c #B88B8A",
"-X c #BD8A8B",
";X c #B88C8A",
":X c #B88C8B",
">X c #B88D8B",
",X c #B98D8B",
"<X c #BF8C8B",
"1X c #BF8E8D",
"2X c #A49183",
"3X c #A49286",
"4X c #A49489",
"5X c #A4968C",
"6X c #AB9191",
"7X c #C08F8D",
"8X c #C08F8E",
"9X c #C1908E",
"0X c #C1918F",
"qX c #C3938F",
"wX c #C19390",
"eX c #C39490",
"rX c #C29491",
"tX c #C49490",
"yX c #C49590",
"uX c #C49591",
"iX c #C59591",
"pX c #C49691",
"aX c #C59691",
"sX c #C69691",
"dX c #C59692",
"fX c #C59792",
"gX c #C49793",
"hX c #C59793",
"jX c #C69692",
"kX c #C59893",
"lX c #C59994",
"zX c #C69A94",
"xX c #C69A95",
"cX c #C69B95",
"vX c #C79B96",
"bX c #C69C96",
"nX c #C79C96",
"mX c #F1A481",
"MX c #F1A581",
"NX c #F7B88D",
"BX c #F9C192",
"VX c #F9C292",
"CX c #FAC293",
"ZX c #FAC393",
"AX c #FCC292",
"SX c #FCC392",
"DX c #FFCF99",
"FX c #FFCF9A",
"GX c #FFD09B",
"HX c #FFD09C",
"JX c #FFD19C",
"KX c #FFD19D",
"LX c #FFD29E",
"PX c #FFD29F",
"IX c #FFD3A0",
/* pixels */
"~ >.3.{.{.R.^.1.1.<...] [ ^ u q K.GXBXF.> 1 l 5 4 C G b @ X o o ",
">.iXuXxXxXpXdXyXyXuX+Xz.c.y.f w j.AXMXZ., h H J x 7.9.P $ X o o ",
"2.iXtXeXeXtXtXtXtXuX$Xh.x.p.f r 0 5.4.D # % 6 S V B 8 A 3 X o o ",
" .=X>X:X:X>X,X,X,X;X/.r.u.+.a e T Y.U.6.* O m 8.9.L x U 9 . o o ",
":.Q.!.!.!.,.X.R _ m.$.| / d t w H.DXNXS.> < z c 8 F C M & X o o ",
"uXyX9X1X8X%Xe.g *.sX@Xx.y.s t q 3XLXZXP., j H J x 7.N.P # X o o ",
"tXtXeXhXcX7Xv.E ( &X(.d.y.f t q 2XKXZXI.: % 6 S V B 8 A 3 X o o ",
",X:X:X;X;XXXa.Y ) .Xn.w.o.i t w H.DXNXS.; O m 8.9.L x U 9 . o o ",
"` m.`.'.6X}._.T.:.M.$.| { Q y e T Y.U.6.- < z c 8 F C M & X o o ",
">.iXaXfXvXxXfXfXuXuXOXf.z.0.s r 0 5.4.D = k H J x 7.N.P # X o o ",
"2.iXtXtXeXeXtXtXtXuX Xt.g.} p w k.SXmXA.: % 6 S V B 8 A 3 X o o ",
" .=X>X:X:X>X,X,X,X;X/.r.u.@.a q [.JXBXF.; O m 8.9.L x U 9 . o o ",
":.E.!.!.!.,.X.R _ m.$.| / d t q ].GXCXG.> < z c 8 F C M & X o o ",
"uXyX-X0X9X*X#.g &.sX+Xx.y.s t q 4XPXVXD., j H J x 7.N.P # X o o ",
"tXkXhXnXzXrXl.E -.jX$Xz.p.f t q 5XIXVXG.: % 6 S V B 8 A 3 X o o ",
",X:X:X;X;XoXs.Y ' =X/.r.O.i t q ].HXCXG.; O m 8.9.L x U 9 . o o ",
"` m.~.|.|.~.W.;.:.m.$.| { W y q J.FXBXF.> < z c 8 F C M & X o o ",
">.iXuXxXxXpXdXiXuXuX+Xz.c.u.f w j.AXmXZ., j H J x 7.N.P # X o o ",
"2.iXtXeXeXtXtXtXtXuX$Xh.x.p.f r 0 5.4.D # % 6 S V B 8 A 3 X o o ",
" .=X>X:X:X>X,X,X,X;X/.r.u.+.a e T Y.U.6.* O m 8.9.L x U 9 . o o ",
":.Q.!.!.!.,.X.R _ m.$.| / d t w H.DXNXS.> < z c 8 F C M & X o o ",
"uXyX9X1X8X%Xe.g *.sX@Xx.y.s t q 3XLXZXP., j H J x 7.N.P # X o o ",
"tXtXeXhXcX7Xv.E ( &X(.d.y.f t q 2XKXZXI.: % 6 S V B 8 A 3 X o o ",
",X:X:X;X;XXXa.Y ) .Xn.w.o.i t w H.DXNXS.; O m 8.9.L x U 9 . o o ",
"` m.`.'.6X}._.T.:.M.$.| { Q y e T Y.U.6.- < z c 8 F C M & X o o ",
">.iXaXfXvXxXfXfXuXuXOXf.z.0.s r 0 5.4.D = k H J x 7.N.P # X o o ",
"2.iXtXtXeXeXtXtXtXuX Xt.g.} p w k.SXmXA.: % 6 S V B 8 A 3 X o o ",
" .=X>X:X:X>X,X,X,X;X/.r.u.@.a q [.JXBXF.; O m 8.9.L x U 9 . o o ",
":.E.!.!.!.,.X.R _ m.$.| / d t q ].GXCXG.> < z c 8 F C M & X o o ",
"uXyX-X0X9X*X#.g &.sX+Xx.y.s t q 4XPXVXD., j H J x 7.N.P # X o o ",
"eXkXgXbXlXwXl.E =.aX#Xh.i.f t q 5XIXVXG.: % 6 Z V N 7 Z 2 X o o ",
"eXeXeXeXeX<Xb.! %.qX).z.q.a t q L.GXCXG.; + K V.C.I n B.v   o o "
};
