/* XPM */
static char * door_open_xpm[] = {
"64 64 511 2",
"  	c #6E5967",
". 	c #AD707B",
"+ 	c #C39490",
"@ 	c #D1B1A5",
"# 	c #B77F83",
"$ 	c #FBCAAE",
"% 	c #EDA799",
"& 	c #FAEBCF",
"* 	c #E28989",
"= 	c #D2727E",
"- 	c #926475",
"; 	c #B85C00",
"> 	c #C56400",
", 	c #D36B00",
"' 	c #E47500",
") 	c #F47D00",
"! 	c #FC8200",
"~ 	c #FE8300",
"{ 	c #FF8300",
"] 	c #FD8200",
"^ 	c #F98000",
"/ 	c #EF7B00",
"( 	c #DE7200",
"_ 	c #C86600",
": 	c #AD5700",
"< 	c #914800",
"[ 	c #A15100",
"} 	c #B55B00",
"| 	c #CE6900",
"1 	c #FA8100",
"2 	c #FB8100",
"3 	c #F77F00",
"4 	c #EC7900",
"5 	c #DB7000",
"6 	c #C26200",
"7 	c #A95500",
"8 	c #854000",
"9 	c #683100",
"0 	c #773A00",
"a 	c #8D4600",
"b 	c #AC5700",
"c 	c #E07300",
"d 	c #EA7800",
"e 	c #EB7900",
"f 	c #E57500",
"g 	c #D26B00",
"h 	c #BA5E00",
"i 	c #9B4D00",
"j 	c #7E3E00",
"k 	c #5D2B00",
"l 	c #3F1B00",
"m 	c #492100",
"n 	c #632F00",
"o 	c #803F00",
"p 	c #C96600",
"q 	c #D06A00",
"r 	c #CC6800",
"s 	c #BF6100",
"t 	c #8E4600",
"u 	c #6E3500",
"v 	c #502500",
"w 	c #3A1800",
"x 	c #1B0800",
"y 	c #210A00",
"z 	c #371700",
"A 	c #532600",
"B 	c #743800",
"C 	c #894400",
"D 	c #9E4F00",
"E 	c #A15000",
"F 	c #A05000",
"G 	c #7B3C00",
"H 	c #5C2B00",
"I 	c #3E1B00",
"J 	c #260E00",
"K 	c #1D0700",
"L 	c #0E0300",
"M 	c #0A0200",
"N 	c #1A0800",
"O 	c #2D1200",
"P 	c #4A2100",
"Q 	c #5A2A00",
"R 	c #6D3400",
"S 	c #5E2C00",
"T 	c #4E2400",
"U 	c #321400",
"V 	c #200A00",
"W 	c #160500",
"X 	c #200900",
"Y 	c #1A0600",
"Z 	c #110400",
"` 	c #0D0300",
" .	c #130500",
"..	c #240D00",
"+.	c #341600",
"@.	c #3F1C00",
"#.	c #401C00",
"$.	c #361700",
"%.	c #190700",
"&.	c #180600",
"*.	c #210900",
"=.	c #2C0E00",
"-.	c #280C00",
";.	c #1E0700",
">.	c #170600",
",.	c #140803",
"'.	c #1A0D09",
").	c #231510",
"!.	c #251814",
"~.	c #261A15",
"{.	c #211512",
"].	c #1E0F0B",
"^.	c #1E0B04",
"/.	c #240B00",
"(.	c #2F0F00",
"_.	c #3A1500",
":.	c #86A0A8",
"<.	c #5D7889",
"[.	c #391400",
"}.	c #2E0F00",
"|.	c #270D01",
"1.	c #231009",
"2.	c #291E1C",
"3.	c #352E2C",
"4.	c #403C3B",
"5.	c #45403F",
"6.	c #474140",
"7.	c #433D3B",
"8.	c #3B302E",
"9.	c #35211B",
"0.	c #361709",
"a.	c #3F1801",
"b.	c #4C1E00",
"c.	c #728896",
"d.	c #4B1D00",
"e.	c #421A01",
"f.	c #3D1E11",
"g.	c #402D28",
"h.	c #514643",
"i.	c #645D5B",
"j.	c #736E6D",
"k.	c #797574",
"l.	c #7B7574",
"m.	c #736D6B",
"n.	c #655A57",
"o.	c #574540",
"p.	c #503025",
"q.	c #53260F",
"r.	c #5D2501",
"s.	c #612800",
"t.	c #57270B",
"u.	c #59372C",
"v.	c #67534E",
"w.	c #807573",
"x.	c #968F8D",
"y.	c #A8A3A2",
"z.	c #AFABAA",
"A.	c #B0ABAA",
"B.	c #A59F9D",
"C.	c #958A88",
"D.	c #806F6A",
"E.	c #705148",
"F.	c #6B3A27",
"G.	c #723209",
"H.	c #753204",
"I.	c #6F3A21",
"J.	c #7A584E",
"K.	c #907D78",
"L.	c #AEA3A1",
"M.	c #C4BEBD",
"N.	c #D5D1D1",
"O.	c #DBD8D7",
"P.	c #D2CDCC",
"Q.	c #C2BAB8",
"R.	c #AC9B97",
"S.	c #957871",
"T.	c #885746",
"U.	c #86411E",
"V.	c #893E11",
"W.	c #8B523F",
"X.	c #9D7B73",
"Y.	c #B7A6A2",
"Z.	c #D4CBCA",
"`.	c #E8E4E3",
" +	c #F2F0F0",
".+	c #F6F4F4",
"++	c #F5F4F3",
"@+	c #F0EDED",
"#+	c #E5DFDF",
"$+	c #D0C4C1",
"%+	c #B9A09A",
"&+	c #A67569",
"*+	c #9F593B",
"=+	c #DCCABE",
"-+	c #9F4D23",
";+	c #A56F5E",
">+	c #BD9F98",
",+	c #D8CAC7",
"'+	c #EDE8E7",
")+	c #F9F7F7",
"!+	c #FDFCFC",
"~+	c #FEFEFE",
"{+	c #FEFDFD",
"]+	c #FCFBFB",
"^+	c #F7F5F4",
"/+	c #EAE1E0",
"(+	c #D6C3BE",
"_+	c #C0988D",
":+	c #B46F58",
"<+	c #B55F38",
"[+	c #BF8C7E",
"}+	c #D6BDB7",
"|+	c #EDE4E2",
"1+	c #FAF7F7",
"2+	c #FFFFFF",
"3+	c #FDFDFC",
"4+	c #F7F3F2",
"5+	c #EADEDB",
"6+	c #D8B7AE",
"7+	c #CA8A78",
"8+	c #C87252",
"9+	c #D4A69A",
"0+	c #E8D5D2",
"a+	c #F8F3F1",
"b+	c #FDFCFB",
"c+	c #F6EFED",
"d+	c #E9D0CB",
"e+	c #DBA495",
"f+	c #D88669",
"g+	c #E3BBB1",
"h+	c #F3E5E2",
"i+	c #FDFAFA",
"j+	c #FFFEFE",
"k+	c #FCF8F8",
"l+	c #F4E5E0",
"m+	c #EAC0B4",
"n+	c #E59880",
"o+	c #EFCDC5",
"p+	c #F9F0EE",
"q+	c #FAF0EE",
"r+	c #F2D4CC",
"s+	c #EFA893",
"t+	c #F6D8D3",
"u+	c #FCF5F4",
"v+	c #FDF8F7",
"w+	c #F9E4DE",
"x+	c #F4B3A2",
"y+	c #F8E1DB",
"z+	c #FCF8F7",
"A+	c #FEFBFA",
"B+	c #FDEFEB",
"C+	c #F8BDAE",
"D+	c #FBE5E1",
"E+	c #FEFAF9",
"F+	c #FFFDFD",
"G+	c #FEF3F1",
"H+	c #FAC2B2",
"I+	c #FDE9E5",
"J+	c #FEFAFA",
"K+	c #FEF6F4",
"L+	c #FBC4B5",
"M+	c #FDE8E3",
"N+	c #FEF7F5",
"O+	c #FBC0B1",
"P+	c #FDE6E1",
"Q+	c #FEF9F8",
"R+	c #FEF5F3",
"S+	c #F8B8A8",
"T+	c #FBDFD8",
"U+	c #FFFFFE",
"V+	c #FFFCFC",
"W+	c #FDF0ED",
"X+	c #F5AB94",
"Y+	c #F9D5CC",
"Z+	c #FBF1ED",
"`+	c #FEFCFC",
" @	c #FEFEFD",
".@	c #FDF9F8",
"+@	c #FBE6E2",
"@@	c #EF9B7F",
"#@	c #F3C4B9",
"$@	c #FAE8E4",
"%@	c #FDFAF8",
"&@	c #FDFBFB",
"*@	c #FBF2EF",
"=@	c #F7D7D2",
"-@	c #E88863",
";@	c #EDB1A0",
">@	c #F5DAD4",
",@	c #FBF3F1",
"'@	c #FEFDFC",
")@	c #F6E2DE",
"!@	c #F0C2B8",
"~@	c #DF784B",
"{@	c #E49F8B",
"]@	c #EDCAC2",
"^@	c #F7EAE8",
"/@	c #FDFAF9",
"(@	c #F7ECEA",
"_@	c #EED0C8",
":@	c #E4A999",
"<@	c #D46B35",
"[@	c #D88C73",
"}@	c #E3B7AC",
"|@	c #EFDDD9",
"1@	c #F9F4F3",
"2@	c #F8F3F2",
"3@	c #EEDDDA",
"4@	c #E1BBB1",
"5@	c #D7917B",
"6@	c #CA6024",
"7@	c #CA795C",
"8@	c #D4A296",
"9@	c #E3CAC4",
"0@	c #F2E8E6",
"a@	c #FBF8F7",
"b@	c #F1E7E6",
"c@	c #E1CAC4",
"d@	c #D0A194",
"e@	c #C7795D",
"f@	c #BE5818",
"g@	c #BB6746",
"h@	c #C18B7B",
"i@	c #D0B2AC",
"j@	c #E2D5D1",
"k@	c #F1ECEB",
"l@	c #F9F7F6",
"m@	c #FCFAFA",
"n@	c #F8F6F6",
"o@	c #F0EBEA",
"p@	c #E0D3D0",
"q@	c #CDB0A9",
"r@	c #BE8879",
"s@	c #B66545",
"t@	c #AF4F0B",
"u@	c #AA5731",
"v@	c #AB705E",
"w@	c #B7938A",
"x@	c #CBB9B5",
"y@	c #DED3D1",
"z@	c #EAE4E3",
"A@	c #EFEBEA",
"B@	c #E9E3E2",
"C@	c #DDD3D1",
"D@	c #C8B5B1",
"E@	c #B39088",
"F@	c #A66D5B",
"G@	c #A55430",
"H@	c #A14704",
"I@	c #98481B",
"J@	c #955842",
"K@	c #9B7368",
"L@	c #AA938D",
"M@	c #BDAFAC",
"N@	c #CCC2C0",
"O@	c #D2CBC9",
"P@	c #CAC1BF",
"Q@	c #BBADAA",
"R@	c #A7918B",
"S@	c #957167",
"T@	c #8D5541",
"U@	c #90431B",
"V@	c #924000",
"W@	c #863B09",
"X@	c #7C4024",
"Y@	c #7B5042",
"Z@	c #866A63",
"`@	c #94827E",
" #	c #A29693",
".#	c #A99E9C",
"+#	c #A19592",
"@#	c #92817D",
"##	c #826962",
"$#	c #784F42",
"%#	c #753D24",
"&#	c #7D3609",
"*#	c #803700",
"=#	c #723001",
"-#	c #672F0F",
";#	c #603423",
">#	c #63453D",
",#	c #6A5651",
"'#	c #736562",
")#	c #786D6A",
"!#	c #726562",
"~#	c #685651",
"{#	c #5F443D",
"]#	c #5C3323",
"^#	c #602B0F",
"/#	c #6A2C01",
"(#	c #6E2F00",
"_#	c #602600",
":#	c #532001",
"<#	c #481F09",
"[#	c #44251A",
"}#	c #45312B",
"|#	c #493C38",
"1#	c #4B403D",
"2#	c #483B38",
"3#	c #43302B",
"4#	c #40241A",
"5#	c #451D09",
"6#	c #4D1E01",
"7#	c #592400",
"8#	c #5E2600",
"9#	c #4E1E00",
"0#	c #421900",
"a#	c #361300",
"b#	c #2C1104",
"c#	c #27130B",
"d#	c #251713",
"e#	c #251A17",
"f#	c #241713",
"g#	c #24110B",
"h#	c #280F04",
"i#	c #311100",
"j#	c #3B1600",
"k#	c #491C00",
"l#	c #4D1E00",
"m#	c #3E1700",
"n#	c #301000",
"o#	c #250A00",
"p#	c #1B0700",
"q#	c #140400",
"r#	c #0E0200",
"s#	c #0B0200",
"t#	c #0C0200",
"u#	c #100300",
"v#	c #170500",
"w#	c #381400",
"x#	c #3D1600",
"y#	c #210800",
"z#	c #080100",
"A#	c #040100",
"B#	c #030000",
"C#	c #020000",
"D#	c #030100",
"E#	c #060100",
"F#	c #130400",
"G#	c #290D00",
"H#	c #200800",
"I#	c #150400",
"J#	c #140500",
"K#	c #080200",
"L#	c #090200",
"M#	c #110300",
"N#	c #1C0900",
"O#	c #3B1900",
"P#	c #3A1900",
"Q#	c #2C1200",
"R#	c #260D00",
"S#	c #562800",
"T#	c #673100",
"U#	c #6F3600",
"V#	c #653000",
"W#	c #532700",
"X#	c #3E1A00",
"Y#	c #120500",
"Z#	c #0F0300",
"`#	c #150500",
" $	c #2E1200",
".$	c #4B2200",
"+$	c #854200",
"@$	c #994C00",
"#$	c #964B00",
"$$	c #643000",
"%$	c #441F00",
"&$	c #290F00",
"*$	c #160600",
"=$	c #1E0A00",
"-$	c #7A3C00",
";$	c #9B4E00",
">$	c #B45B00",
",$	c #C76500",
"'$	c #CD6800",
")$	c #C16200",
"!$	c #AE5700",
"~$	c #723700",
"{$	c #542700",
"]$	c #602D00",
"^$	c #844100",
"/$	c #A55400",
"($	c #C46300",
"_$	c #DA7000",
":$	c #E77600",
"<$	c #EB7800",
"[$	c #E27400",
"}$	c #D46C00",
"|$	c #BC5F00",
"1$	c #854100",
"2$	c #683200",
"3$	c #8B4500",
"4$	c #AE5800",
"5$	c #CB6800",
"6$	c #E17300",
"7$	c #F17B00",
"8$	c #F87F00",
"9$	c #F67E00",
"0$	c #DA6F00",
"a$	c #B15900",
"b$	c #B35A00",
"c$	c #CF6A00",
"d$	c #F27C00",
"e$	c #FA8000",
"f$	c #ED7A00",
"g$	c #D56C00",
"h$	c #C36300",
"i$	c #B05900",
"j$	c #F37D00",
"k$	c #FB8200",
"l$	c #F17C00",
"                                                                                                                                ",
". + + + + @ @ @ @ @ + + @ + + + + + + + + + + + + + + + + + .   . + + + + @ @ @ @ @ + + @ + + + + + + + + + + + + + + + + + .   ",
"+ + + + + + + + + + + + + + + + + + + + + + + + + + + + + + +   + + + + + + + + + + + + + + + + + + + + + + + + + + + + + + +   ",
"+ + + + + + + + + + + + + + + + + + + + . + . . . . . + +       + + + + + + + + + + + + + + + + + + + + . + . . . . . + +       ",
"+ + + + + + + + + + + + + + + + + + + + + @ + @ @ @ + + + + #   + + + + + + + + + + + + + + + + + + + + + @ + @ @ @ + + + + #   ",
"+ + + + + + + + + + + + + + + + + + + + + + + + + + + + + + +   + + + + + + + + + + + + + + + + + + + + + + + + + + + + + + +   ",
"+ + + + + + + + + + + + + + + + + + + + + + + + + + + + + + +   + + + + + + + + + + + + + + + + + + + + + + + + + + + + + + +   ",
". + + + + + + + + + + + + + +     $ %   % $ $ $ & $ & & $ %   % $ $ $ & $ & & & $ %   % $     + + + + + + + + + + + + + + + .   ",
"                              % $ $ $   $ $ $ $ $ $ $ $ $ $   $ $ $ $ $ $ $ $ $ $ $   $ $ $ %                                   ",
"@ @ @ + + + + + + + + +   % & & $ $ $   $ $ $ $ $ $ $ $ $ $   $ $ $ $ $ $ $ $ $ $ $   $ $ $ & & %   + + @ + @ @ @ @ @ + + + + + ",
"+ + + + + + + + + + +   % & $ $ $ $ %   % $ $ $ $ $ $ $ $ %   % $ $ $ $ $ $ $ $ $ %   % $ $ $ $ & %   + + + + + + + + + + + + + ",
"+ + + + + + + . . +   % & $ $ $ % * *   * * * * * * * * * *   * * * * * * * * * * *   * * % $ $ $ & %   + + + + + + + + + + + + ",
"+ + + + + + @ + @ @   $ $ $ $ % * * =                                                 = * * % $ $ $ $   + + + + + + + + + + + + ",
"+ + + + + + + + +   % $ $ $ % * *       . -     ; > , ' ) ! ~ { ~ ] ^ / ( _ :   - .       * * % $ $ $ %   + + + + + + + + + + + ",
"+ + + + + + + + +   $ $ $ $ * *       - . .     < [ } | ' ) 1 ! 2 3 4 5 6 7 8   . . -       * * $ $ $ $   + + + + + + + + + + + ",
"+ + + + + + + +   % $ $ $ % *                   9 0 a b _ c d / e f g h i j k                 * % $ $ $ %   + + + + + + + + + + ",
"                  $ $ $ $ * *     - . . -       l m n o [ h p q r s 7 t u v w                 * * $ $ $ $                       ",
". + + + @ + @ @   $ $ $ $ *     - . . . .       x y z A B C D E F t G H I J K       . . . -     * $ $ $ $     + + + + + + + .   ",
"+ + + + + + + +   % $ $ % *     . . . . -       L M N O P Q R u u S T U V W X       - . . .     * % $ $ %     + + + + + + + +   ",
"+ + + + + + + +                                 Y Z `  ...+.@.#.#.$.J %.&.*.=.                                + + + + + + + +   ",
"+ + + + + + + +   % $ $ % *       - . . . -     -.;.>.Z ,.'.).!.~.{.].^./.(._.    - . . -       * % $ $ %     + + + + + + + #   ",
"+ + + + + + + +   $ $ $ $ *   :.<.  . . . .     [.}.|.1.2.3.4.5.6.7.8.9.0.a.b.    . . .   <.:.  * $ $ $ $     . + . +           ",
"+ + + + + + + +   & $ $ $ *   :.c.  . . . .     d.e.f.g.h.i.j.k.l.m.n.o.p.q.r.    . . .   c.:.  * $ $ $ &     + @ + @ @ + + +   ",
". + + + + + + +   & $ $ $ *       - . . . .     s.t.u.v.w.x.y.z.A.B.C.D.E.F.G.    . . . -       * $ $ $ &     + + + + + + + .   ",
"                  $ $ $ $ *   - . . . . . -     H.I.J.K.L.M.N.O.O.P.Q.R.S.T.U.    - . . . . -   * $ $ $ $                       ",
"+ + + + + + + +   & $ $ $ *                     V.W.X.Y.Z.`. +.+++@+#+$+%+&+*+                  * $ $ $ &     @ @ =+=+=+@ @ + + ",
"+ + + + + + + +   $ $ $ $ *                     -+;+>+,+'+)+!+~+{+]+^+/+(+_+:+  - . . . . . -   * $ $ $ $     + + + + + + + + + ",
"+ + + + . . . +   $ $ $ $ *   - . . . . -       <+[+}+|+1+~+2+2+2+2+3+4+5+6+7+  . . . . . . .   * $ $ $ $     + + + + + + + + + ",
"+ + + + + @ + +   $ $ $ $ *   . . . . . .       8+9+0+a+{+2+2+2+2+2+2+b+c+d+e+  . . . . . . .   * $ $ $ $     + + + + + + + + + ",
"+ + + + + + + +   % $ $ % *   - . . . . -       f+g+h+i+j+2+2+2+2+2+2+~+k+l+m+  - . . . . . -   * % $ $ %     + + + + + + + + + ",
"+ + + + + + + +                                 n+o+p+{+2+2+2+2+2+2+2+~+3+q+r+                                + + + + + + + + + ",
"+ + + + + + + +   % $ $ % *   - . . . -         s+t+u+~+2+2+2+2+2+2+2+2+{+v+w+        - . . -   * % $ $ %     + + + + + + + + + ",
"                  $ $ $ $ *   . . . . .         x+y+z+~+2+2+2+2+2+2+2+2+j+A+B+        . . . .   * $ $ $ $                       ",
". + + + + @ @ @   & $ $ $ *   . . . . .         C+D+E+j+2+2+2+2+2+2+2+2+2+F+G+        . . . .   * $ $ $ &     + + + + + + + .   ",
"+ + + + + + + +   & $ $ $ *   - . . . -     c.c.H+I+J+j+2+2+2+2+2+2+2+2+2+j+K+c.c.    - . . -   * $ $ $ &     + + + + + + + +   ",
"+ + + + + + + +   $ $ $ $ *                 <.c.L+M+E+j+2+2+2+2+2+2+2+2+2+j+N+c.<.              * $ $ $ $     . . . . + +       ",
"+ + + + + + + +   & $ $ $ *                 <.c.O+P+Q+j+2+2+2+2+2+2+2+2+2+F+R+c.<.      - . -   * $ $ $ &     @ @ @ + + + + #   ",
"+ + + + + + + +   $ $ $ $ *     - . .       <.c.S+T+K+F+2+2+2+2+2+2+2+2+U+V+W+c.<.      . . .   * $ $ $ $     + + + + + + + +   ",
"+ + + + + + + +   $ $ $ $ *     . . .       <.c.X+Y+Z+`+j+2+2+2+2+2+2+2+ @.@+@c.<.      . . .   * $ $ $ $     + + + + + + + +   ",
". + + + + + + +   $ $ $ $ *     - . .       <.c.@@#@$@%@ @2+2+2+2+2+2+j+&@*@=@c.<.      - . -   * $ $ $ $     + + + + + + + .   ",
"                  % $ $ % *                 <.c.-@;@>@,@`+2+2+2+2+2+j+'@u+)@!@c.<.              * % $ $ %                       ",
"@ @ @ + + + + +               - . . . -     <.c.~@{@]@^@%@j+2+2+2+2+j+/@(@_@:@c.<.                            @ @ @ @ + + + + + ",
"+ + + + + + + +   % $ $ % *   . . . . .     <.c.<@[@}@|@1@'@2+2+2+U+`+2@3@4@5@c.<.    - . -     * % $ $ %     + + + + + + + + + ",
"+ + + + + + + .   $ $ $ $ *   . . . . .     <.c.6@7@8@9@0@a@{+U+j+{+1+b@c@d@e@c.<.    . . .     * $ $ $ $     + + + + + + + + + ",
"+ + + + + + @ +   & $ $ $ *   - . . . -     <.c.f@g@h@i@j@k@l@m@m@n@o@p@q@r@s@c.<.    - . -     * $ $ $ &     + + + + + + + + + ",
"+ + + + + + + +   & $ $ $ *                 <.c.t@u@v@w@x@y@z@A@A@B@C@D@E@F@G@c.<.              * $ $ $ &     + + + + + + + + + ",
"+ + + + + + + +   $ $ $ $ *   - . . . -     <.c.H@I@J@K@L@M@N@O@O@P@Q@R@S@T@U@c.<.  - . . . -   * $ $ $ $     + + + + + + + + + ",
"+ + + + + + + +   & $ $ $ *       - . .         V@W@X@Y@Z@`@ #.#.#+#@###$#%#&#      . . -       * $ $ $ &     + + + + + + + + + ",
"                  $ $ $ $ *   :.c.  . .         *#=#-#;#>#,#'#)#)#!#~#{#]#^#/#      . .   c.:.  * $ $ $ $                       ",
". + + + @ + @ @   $ $ $ $ *   :.<.  . .         (#_#:#<#[#}#|#1#1#2#3#4#5#6#7#      . .   <.:.  * $ $ $ $     + + + + + + + .   ",
"+ + + + + + + +   $ $ $ $ *       - . -         8#9#0#a#b#c#d#e#e#f#g#h#i#j#k#      - . -       * $ $ $ $     + + + + + + + +   ",
"+ + + + + + + +   % $ $ % *                     l#m#n#o#p#q#r#s#M t#u#v#*.=.w#                  * % $ $ %     + + + + + + + +   ",
"+ + + + + + + +               - . . . . -       x#}.y#v#L z#A#B#C#D#E#t#F#;.G#    - . . . . -                 + + + + + + + #   ",
"+ + + + + + + +   % $ $ % *   . . . . . .       }.H#I#t#M L J#>.>.J#` K#L#M#;.    . . . . . .   * % $ $ %     . + . +           ",
"+ + + + + + + +   $ $ $ $ *   - . . . . -       *.q#t#L N#O O#@.@.P#Q#x ` M F#    . . . . . .   * $ $ $ $     + @ + @ @ + + +   ",
". + + + + + + +   & $ $ $ *                     W t# .R##.S#T#U#U#V#W#X#..Y#s#    - . . . . -   * $ $ $ &     + + + + + + + .   ",
"                  & $ $ $ *                     Z#`# $.$R +$@$[ [ #$o $$%$&$*$                  * $ $ $ &                       ",
"+ + + + + + + +   $ $ $ $ *   - . . . -         =$$.Q -$;$>$,$'$r )$!$< ~${$O#                  * $ $ $ $     @ @ =+=+=+@ @ + + ",
"+ + + + + + + +   % $ $ % *   . . . . .         #.]$^$/$($_$:$4 <$[$}$|$D 1$R       - . . .     * % $ $ %     + + + + + + + + + ",
"+ + + + . . . +   * * * * =   - . . . -         2$3$4$5$6$7$8$2 ^ 9$<$0$> a$;$      . . . -     = * * * *     + + + + + + + + + ",
"+ + + + + @ + +                                 t b$c$' d$e$] ~ ~ ! 3 f$c g$h$                                + + + + + + + + + ",
"+ + + + + + + +                                 i$g :$j$^ ] ~ { { ~ k$3 l$<$[$                              + + + + + + + + + + ",
"+ + + + + + + + + + + + + + +   + + + + + + + + + + + + + + + + + + + + + + + + + + + + + + +   + + + + + + + + + + + + + + + + ",
"+ + + + + + + + + + + + + + .   . + + + + + + + + + + + + + + + + + + + + + + + + + + + + + .   . + + + + + + + + + + + + + + + "};
