/* XPM */
static char * box_xpm[] = {
"32 32 116 2",
"  	c #6E5967",
". 	c #6F5967",
"+ 	c #8A6270",
"@ 	c #926572",
"# 	c #966B74",
"$ 	c #A07B7D",
"% 	c #A07B7E",
"& 	c #9F7A7D",
"* 	c #83616E",
"= 	c #715A68",
"- 	c #725A68",
"; 	c #7D5D6C",
"> 	c #AB6F7A",
", 	c #AD707B",
"' 	c #B88386",
") 	c #C39490",
"! 	c #C39390",
"~ 	c #BF8D8C",
"{ 	c #BA8788",
"] 	c #BE8D8C",
"^ 	c #B48988",
"/ 	c #8B6C73",
"( 	c #A56D79",
"_ 	c #AC6F7B",
": 	c #B88486",
"< 	c #C69A94",
"[ 	c #C69B95",
"} 	c #C8A099",
"| 	c #C1938F",
"1 	c #9D757A",
"2 	c #A46C78",
"3 	c #AA6F7A",
"4 	c #B37D82",
"5 	c #C0928E",
"6 	c #C0928F",
"7 	c #9A7278",
"8 	c #946672",
"9 	c #956773",
"0 	c #9F767B",
"a 	c #A37D7F",
"b 	c #896570",
"c 	c #9C747A",
"d 	c #A47E80",
"e 	c #A78685",
"f 	c #AB8E8A",
"g 	c #AB8E8B",
"h 	c #A17B7E",
"i 	c #946773",
"j 	c #936672",
"k 	c #BA8688",
"l 	c #C2938F",
"m 	c #C39590",
"n 	c #C49591",
"o 	c #B98486",
"p 	c #C3938F",
"q 	c #BB8788",
"r 	c #C29491",
"s 	c #C49A95",
"t 	c #8C6A72",
"u 	c #BF8E8C",
"v 	c #C0918E",
"w 	c #9B7279",
"x 	c #B98989",
"y 	c #9D747A",
"z 	c #B29D99",
"A 	c #AE9692",
"B 	c #3F3851",
"C 	c #87656F",
"D 	c #C49792",
"E 	c #EFDCBE",
"F 	c #E6B698",
"G 	c #D18679",
"H 	c #DC9D88",
"I 	c #B48A89",
"J 	c #886770",
"K 	c #BC8B8A",
"L 	c #C39993",
"M 	c #C59E97",
"N 	c #BE908D",
"O 	c #977077",
"P 	c #BB626B",
"Q 	c #AF9693",
"R 	c #A17C7F",
"S 	c #A34F68",
"T 	c #C49692",
"U 	c #AD717B",
"V 	c #7C5D6C",
"W 	c #A46C79",
"X 	c #A68584",
"Y 	c #AA8D8A",
"Z 	c #AA8C8A",
"` 	c #996E76",
" .	c #966873",
"..	c #8E6572",
"+.	c #745D69",
"@.	c #735C69",
"#.	c #C9A099",
"$.	c #A88786",
"%.	c #A58484",
"&.	c #A37C7F",
"*.	c #C39591",
"=.	c #A27C7F",
"-.	c #BB8889",
";.	c #B98688",
">.	c #B98587",
",.	c #C29390",
"'.	c #A57F80",
").	c #8F6E75",
"!.	c #AC717B",
"~.	c #C59A94",
"{.	c #C69C95",
"].	c #9E777B",
"^.	c #A66D79",
"/.	c #B67E83",
"(.	c #9D737A",
"_.	c #765D6A",
"    . + @ # $ % % % % % % % & *     . + @ # $ % % $ # @ + .     ",
"= - ; > , ' ) ) ) ! ~ { { ] ^ / = - ; > , ' ) ) ) ) ' , > ; = . ",
"( > _ , , : ) ) ) ) < [ } ) | 1 2 > _ , , : ) ) ) ) : , , _ 3 + ",
"( > > > > 4 5 6 6 6 6 6 6 6 5 7 2 > > > > 4 5 6 6 5 4 > > > 3 + ",
"8 8 8 8 9 0 a b c d e f g e a h i 8 8 8 9 0 a b c a 0 9 8 8 8 j ",
": : : ' k l 6 h 5 ) m n n m ) ! o : : ' k l l h 5 ) p q : : : : ",
") ) m r s ] d t 6 ) ) ) ) ) ) ) ) ) m r s u ^ t 6 ) ) ) ) ) ) ) ",
"6 6 6 | | 6 v w x 6 6 6 6 6 6 6 6 6 6 | | 6 v w x 6 6 6 6 6 6 6 ",
"y d e g z A B B B B B B B B B B B B B B B B B B B a a a a a a C ",
"! ) m n D B E E F E B E E E F E E E G G H B G H H B ) ) ) ) ) & ",
") ) ) ) ) B F F F F F F F F F F F F G G G G G G G B ! k ~ I a J ",
"K 6 6 6 6 B B B B B B B B B B B B B B B B B B B B B 6 5 L M N O ",
"a a a a a B G G B B B B B B B B G G P B B B B B P B e f Q z g R ",
": : : : q B F H B B P P B P B B H F G B S B B B G B m n T D n ) ",
"> _ , , U B F F B B G G B G P B F F G B S B S B G B ) ) ) ) ) ) ",
"- V W > > B H F B G G H B G G B F H G B S P P B G B 6 6 6 6 6 6 ",
"7 % X Y Z B H F B H B H G G H B F H G B P P P B G B `  ...+.@.@.",
"! ) m n n B F F B H B G G B H B F F G B B P S B G B ' , > ; = . ",
") ) ) ) ) B F F B G B G G B G B F F G B B P B B G B : , , _ 3 + ",
"K 6 6 6 6 B E E B P G G P B P B E E H B S P B B H B 4 > > > 3 + ",
"g e a a a B B B B B B B B B B B B B B B B B B B B B 0 9 8 8 8 j ",
"n m ) ~ ] B F F F F F H H F F F B F G P G G G G G B p q : : : : ",
") ) m [ #.B H H B H F F F F F H H F G G G P P B P B ) ) ) ) ) ) ",
"6 6 6 6 6 6 B B B B B B B B B B B B B B B B B B B 6 6 6 6 6 6 6 ",
"y d e g z A $.%.&.a a a a a a b c d e g z A $.%.&.a a a a a a C ",
"! ) m n D T *.m ) ) ) ) ) ) ) =.5 ) m n D T *.m ) ) ) ) ) ) ) & ",
") ) ) ) ) ) ) ) ) ) ! k ~ I a t 6 ) ) ) ) ) ) ) ) ) ! k ~ I a J ",
"K 6 6 6 6 6 6 6 6 6 6 5 L M N 7 x 6 6 6 6 6 6 6 6 6 6 5 L M N O ",
"a a a a a a a b c d e f Q z g R &.a a a a a a b c d e f Q z g R ",
": : : : q p ) a 5 ) ) -.;.{ >.o ! ! k ] u ,.'.).5 ) ) -.;.{ >.: ",
"> _ , , U q ) a 6 ) q U , , _ !.l ) ~.) [ {.L ].6 ) q U , , _ > ",
"- V ^., , /.l (.K ) /., , ^.V _.6 ) ) ) ) ) ! (.K ) /., , ^.V - "};
