/* XPM */
static char * wall_up_xpm[] = {
"32 32 11 1",
" 	c #3F3851",
".	c #CD7363",
"+	c #AE444E",
"@	c #BF5753",
"#	c #89365C",
"$	c #D25654",
"%	c #E27F6D",
"&	c #EDA27F",
"*	c #FBCA97",
"=	c #FFEAB7",
"-	c #FFFAD6",
"                                ",
"....       +++..        ++++.. +",
"....       +++..        ++++.. +",
"...+       +++@+        #+++.+ #",
"                                ",
"..+ @.....+ #@.....+ #@.....+ #+",
"... ....... +....... +....... ++",
"..+ @.....+ #@.....+ #@.....+ #+",
"                                ",
"+ #++++.+ #+++.+ #@.....+ +.... ",
". +++++.. ++++.. +....... ..... ",
"+ #++++.+ #+++.+ #@.....+ +.... ",
"                                ",
" +++# #++++# +......+ +....+ +..",
" ...@ @....@ ........ ...... ...",
" ...+ +....+ +......+ +....+ +..",
"                                ",
" +......+ +.....+ +.....+ +....+",
" ........ ....... ......@ @....@",
" +......+ +.....+ @+++++# #++++#",
"                                ",
" ++# #++++# +++# #++++# +......+",
" ..@ @....@ ...@ @....@ ........",
"                                ",
"$%%%%%%%%%%%$ $%%%%%%%%%%$ $%%% ",
"%%%%%%%%%%%%% %%%%%%%%%%%% %%%% ",
"%%&*******&%% %%&******&%% %%&* ",
"%&*********&% %&********&% %&** ",
"%***********% %**********% %*** ",
"%***********% %**********% %*** ",
"%&**=*===**&% %&**=-==**&% %&*= ",
"                                "};
