/* XPM */
static char * wall_l_xpm[] = {
"32 32 11 1",
" 	c #3F3851",
".	c #E27F6D",
"+	c #FBCA97",
"@	c #FFEAB7",
"#	c #CD7363",
"$	c #AE444E",
"%	c #BF5753",
"&	c #89365C",
"*	c #EDA27F",
"=	c #D25654",
"-	c #FFFAD6",
"                        ..++++@ ",
"#$ $##$ $#####$ $%$$$&  ..*++++ ",
"## #### ####### ##$$$$  ...*++* ",
"#$ $##$ $#####$ $%$$$&  =...... ",
"                                ",
"  ###$ $##$ $#####%&    =...... ",
"  #### #### #######$    ...*++* ",
"  ###$ $##$ $#####%&    ..*++++ ",
"                        ..+++++ ",
"   $##$ $#####$ $%$$$&  ..++++@ ",
"   #### ####### ##$$$$  ..++++@ ",
"   $##$ $#####$ $%$$$&  ..++++- ",
"                        ..++++@ ",
"#####$ $##$ $#####%&    ..+++++ ",
"###### #### #######$    ..*++++ ",
"#####$ $##$ $#####%&    ...*++* ",
"                        =...... ",
" $ $##$ $#####$ $%$$$&          ",
" # #### ####### ##$$$$  =...... ",
" $ $##$ $#####$ $%$$$&  ...*++* ",
"                        ..*++++ ",
"  ###$ $##$ $######&    ..+++++ ",
"  #### #### #######$    ..++++@ ",
"  ###$ $##$ $######&    ..++++@ ",
"                        ..++++@ ",
"$ $%$$$& $####$ $%$$$&  ..+++++ ",
"# ##$$$$ ###### ##$$$$  ..++++@ ",
"$ $%$$$& $####$ $%$$$&  ..+++++ ",
"                        ..*++++ ",
" ####$ $##$ $#####%&    ...*++* ",
" ##### #### #######$    =...... ",
" ####$ $##$ $#####%&            "};
