/* XPM */
static char * corner_rd_xpm[] = {
"32 32 11 1",
" 	c #FFEAB7",
".	c #FFFAD6",
"+	c #FBCA97",
"@	c #E27F6D",
"#	c #D25654",
"$	c #3F3851",
"%	c #AE444E",
"&	c #CD7363",
"*	c #89365C",
"=	c #BF5753",
"-	c #EDA27F",
" . ++@#$$$$$$$$$$$$$$$$$$$$$$$$$",
"+++++@@$$$$$%&%%%*$*%%%=$*%%%$$$",
"+++++@@$$$$$&&%%%%$%%%%&$%%%%$$$",
"++++-@@$$%&$%&%%%*$*%%%=$*%%%$$$",
"+++-@@@$$$$$$$$$$$$$$$$$$$$$$$$$",
"@@@@@@@$$$*%%%$*=&&&&&%$%&%%%*$$",
"#@@@@@#$$$$$$$$%&&&&&&&$&&%%%%$$",
"$$$$$$$$$$$$$$$$$$$$$$$$$$$$$$$$",
"$%&&&&&&%$%&&&&&%$=%%%%%*$*%%%%$",
"$&&&&&&&&$&&&&&&&$&&&&&&=$=&&&&$",
"$%&&&&&&%$%&&&&&%$%&&&&&%$%&&&&$",
"$$$$$$$$$$$$$$$$$$$$$$$$$$$$$$$$",
"$&&&%$%&&&&%$%&&&&&&%$%&&&&%$%$$",
"$&&&=$=&&&&=$&&&&&&&&$&&&&&&$&$$",
"$%%%*$*%%%%*$%&&&&&&%$%&&&&%$%$$",
"$$$$$$$$$$$$$$$$$$$$$$$$$$$$$$$$",
"$%$*%%%&%$*%%%&%$*=&&&&&%$%&&$$$",
"$&$%%%%&&$%%%%&&$%&&&&&&&$&&&$$$",
"$%$*%%%&%$*%%%&%$*=&&&&&%$%&&$$$",
"$$$$$$$$$$$$$$$$$$$$$$$$$$$$$$$$",
"$&%$=&&&&&%$*=&&&&&%$*=&&&&&%$*$",
"$&&$&&&&&&&$%&&&&&&&$%&&&&&&&$%$",
"$&%$=&&&&&%$*=&&&&&%$*=&&&&&%$$$",
"$$$$$$$$$$$$$$$$$$$$$$$$$$$$$$$$",
"$%&&&&&&%$%&&&&&%$=%%%%%*$*%%%$$",
"$&&&&&&&&$&&&&&&&$&&&&&&=$=&&$$$",
"$%&&&&&&%$%&&&&&%$%&&&&&%$%&&$$$",
"$$$$$$$$$$$$$$$$$$$$$$$$$$$$$$$$",
"$&&&%$%&&&&%$%&&&&&&%$%&&&&%$$$$",
"$&&&=$=&&&&=$&&&&&&&&$&&&&$$$$$$",
"$%%%*$*%%%%*$%&&&&&&%$%&$$$$$$$$",
"$$$$$$$$$$$$$$$$$$$$$$$$$$$$$$$$"};
