/* XPM */
static char * corner_ur_xpm[] = {
"32 32 11 1",
" 	c #3F3851",
".	c #AE444E",
"+	c #CD7363",
"@	c #89365C",
"#	c #BF5753",
"$	c #D25654",
"%	c #E27F6D",
"&	c #FBCA97",
"*	c #EDA27F",
"=	c #FFEAB7",
"-	c #FFFAD6",
"                                ",
". ++.... ++++++ ++.... ++       ",
". ++.... ++++++ ++.... ++       ",
"@ .+...@ .++++. .#...@ .+++     ",
"                                ",
".@ .+++++#@ .+++++#@ .+++++     ",
".. +++++++. +++++++. +++++++    ",
".@ .+++++#@ .+++++#@ .+++++# .  ",
"                                ",
".++++. .+++++#@ .+...@ .+...@ . ",
"++++++ +++++++. ++.... ++.... + ",
".++++. .+++++#@ .+...@ .+...@ . ",
"                                ",
"++. .++++. .++++++. @....@ @..  ",
"+++ ++++++ ++++++++ #++++# #++  ",
"++. .++++. .++++++. .++++. .++  ",
"                                ",
".++++. .+++++. .+++++. .+++++   ",
"#++++# #++++++ +++++++ ++++++   ",
"@....@ @.....# .+++++. .+++++   ",
"                                ",
"..@  @...@  @#+++++. .+...@ ++  ",
"            .+++++++ ++.... ++  ",
"            @#+++++. .+...@ ++  ",
"$%%%%%$                         ",
"%%%%%%%   @...#  @...# .+++++#@ ",
"&&&*%%%   ....+  ....+ +++++++. ",
"&&&&*%%   @...#  @...# .+++++#@ ",
"&&&&&%%                         ",
"&&&&&%%     @#+++++. .+++++#@   ",
"=-=&&%$     .+++++++ +++++++.   ",
"            @#+++++. .+++++#@   "};
