/* XPM */
static char * floor_xpm[] = {
"32 32 113 2",
"  	c #6E5967",
". 	c #6F5967",
"+ 	c #8A6270",
"@ 	c #926572",
"# 	c #966B74",
"$ 	c #A07B7D",
"% 	c #A07B7E",
"& 	c #9F7A7D",
"* 	c #83616E",
"= 	c #715A68",
"- 	c #725A68",
"; 	c #7D5D6C",
"> 	c #AB6F7A",
", 	c #AD707B",
"' 	c #B88386",
") 	c #C39490",
"! 	c #C39390",
"~ 	c #BF8D8C",
"{ 	c #BA8788",
"] 	c #BE8D8C",
"^ 	c #B48988",
"/ 	c #8B6C73",
"( 	c #A56D79",
"_ 	c #AC6F7B",
": 	c #B88486",
"< 	c #C69A94",
"[ 	c #C69B95",
"} 	c #C8A099",
"| 	c #C1938F",
"1 	c #9D757A",
"2 	c #A46C78",
"3 	c #AA6F7A",
"4 	c #B37D82",
"5 	c #C0928E",
"6 	c #C0928F",
"7 	c #9A7278",
"8 	c #946672",
"9 	c #956773",
"0 	c #9F767B",
"a 	c #A37D7F",
"b 	c #896570",
"c 	c #9C747A",
"d 	c #A47E80",
"e 	c #A78685",
"f 	c #AB8E8A",
"g 	c #AB8E8B",
"h 	c #A17B7E",
"i 	c #946773",
"j 	c #936672",
"k 	c #BA8688",
"l 	c #C2938F",
"m 	c #C39590",
"n 	c #C49591",
"o 	c #B98486",
"p 	c #C3938F",
"q 	c #BB8788",
"r 	c #C29491",
"s 	c #C49A95",
"t 	c #8C6A72",
"u 	c #BF8E8C",
"v 	c #C0918E",
"w 	c #9B7279",
"x 	c #B98989",
"y 	c #9D747A",
"z 	c #B29D99",
"A 	c #AE9692",
"B 	c #A88786",
"C 	c #A58484",
"D 	c #A37C7F",
"E 	c #87656F",
"F 	c #C49792",
"G 	c #C49692",
"H 	c #C39591",
"I 	c #A27C7F",
"J 	c #B48A89",
"K 	c #886770",
"L 	c #BC8B8A",
"M 	c #C39993",
"N 	c #C59E97",
"O 	c #BE908D",
"P 	c #977077",
"Q 	c #AF9693",
"R 	c #A17C7F",
"S 	c #C29390",
"T 	c #A57F80",
"U 	c #8F6E75",
"V 	c #AD717B",
"W 	c #C59A94",
"X 	c #C69C95",
"Y 	c #9E777B",
"Z 	c #7C5D6C",
"` 	c #A46C79",
" .	c #9B7379",
"..	c #A68584",
"+.	c #AA8D8A",
"@.	c #AA8C8A",
"#.	c #A37E80",
"$.	c #A78585",
"%.	c #A47F80",
"&.	c #996E76",
"*.	c #966873",
"=.	c #8E6572",
"-.	c #745D69",
";.	c #735C69",
">.	c #C9A099",
",.	c #BB8889",
"'.	c #B98688",
").	c #B98587",
"!.	c #AC717B",
"~.	c #A66D79",
"{.	c #B67E83",
"].	c #9D737A",
"^.	c #765D6A",
"    . + @ # $ % % % % % % % & *     . + @ # $ % % $ # @ + .     ",
"= - ; > , ' ) ) ) ! ~ { { ] ^ / = - ; > , ' ) ) ) ) ' , > ; = . ",
"( > _ , , : ) ) ) ) < [ } ) | 1 2 > _ , , : ) ) ) ) : , , _ 3 + ",
"( > > > > 4 5 6 6 6 6 6 6 6 5 7 2 > > > > 4 5 6 6 5 4 > > > 3 + ",
"8 8 8 8 9 0 a b c d e f g e a h i 8 8 8 9 0 a b c a 0 9 8 8 8 j ",
": : : ' k l 6 h 5 ) m n n m ) ! o : : ' k l l h 5 ) p q : : : : ",
") ) m r s ] d t 6 ) ) ) ) ) ) ) ) ) m r s u ^ t 6 ) ) ) ) ) ) ) ",
"6 6 6 | | 6 v w x 6 6 6 6 6 6 6 6 6 6 | | 6 v w x 6 6 6 6 6 6 6 ",
"y d e g z A B C D a a a a a a b c d e g z A B C D a a a a a a E ",
"! ) m n F G H m ) ) ) ) ) ) ) I 5 ) m n F G H m ) ) ) ) ) ) ) & ",
") ) ) ) ) ) ) ) ) ) ! k ~ J a t 6 ) ) ) ) ) ) ) ) ) ! k ~ J a K ",
"L 6 6 6 6 6 6 6 6 6 6 5 M N O 7 x 6 6 6 6 6 6 6 6 6 6 5 M N O P ",
"a a a a a a a b c d e f Q z g R D a a a a a a b c d e f Q z g R ",
": : : : q p ) a 5 ) m n G F n ) ) ! k ] u S T U 5 ) m n G F n ) ",
"> _ , , V q ) a 6 ) ) ) ) ) ) ) ) ) W ) [ X M Y 6 ) ) ) ) ) ) ) ",
"- Z ` > > 4 v  .x 6 6 6 6 6 6 6 6 6 6 6 6 6 5  .x 6 6 6 6 6 6 6 ",
"7 % ..+.@.#.$.h D a a a a a a b c a e g f %.$.h D a &.*.=.-.;.;.",
"! ) m n n ) m ) ) ! ~ { { ] ^ U 5 ) m n n ) m ) ) ) ' , > ; = . ",
") ) ) ) ) ) ) ) ) ) < [ } ) | Y 6 ) ) ) ) ) ) ) ) ) : , , _ 3 + ",
"L 6 6 6 6 6 6 6 6 6 6 6 6 6 5  .x 6 6 6 6 6 6 6 6 5 4 > > > 3 + ",
"g e a a a a a b c d e f g e a R +.e a a a a a b c a 0 9 8 8 8 j ",
"n m ) ~ ] ~ ^ U 5 ) m n n m ) ) n m ) ~ ] ~ ^ U 5 ) p q : : : : ",
") ) m [ >.) | Y 6 ) ) ) ) ) ) ) ) ) m [ >.) | Y 6 ) ) ) ) ) ) ) ",
"6 6 6 6 6 6 5  .x 6 6 6 6 6 6 6 6 6 6 6 6 6 5  .x 6 6 6 6 6 6 6 ",
"y d e g z A B C D a a a a a a b c d e g z A B C D a a a a a a E ",
"! ) m n F G H m ) ) ) ) ) ) ) I 5 ) m n F G H m ) ) ) ) ) ) ) & ",
") ) ) ) ) ) ) ) ) ) ! k ~ J a t 6 ) ) ) ) ) ) ) ) ) ! k ~ J a K ",
"L 6 6 6 6 6 6 6 6 6 6 5 M N O 7 x 6 6 6 6 6 6 6 6 6 6 5 M N O P ",
"a a a a a a a b c d e f Q z g R D a a a a a a b c d e f Q z g R ",
": : : : q p ) a 5 ) ) ,.'.{ ).o ! ! k ] u S T U 5 ) ) ,.'.{ ).: ",
"> _ , , V q ) a 6 ) q V , , _ !.l ) W ) [ X M Y 6 ) q V , , _ > ",
"- Z ~., , {.l ].L ) {., , ~.Z ^.6 ) ) ) ) ) ! ].L ) {., , ~.Z - "};
