/* XPM */
static char * corner_ur_xpm[] = {
"64 64 18 1",
" 	c #3F3851",
".	c #AE444E",
"+	c #CD7363",
"@	c #BF5753",
"#	c #89365C",
"$	c #E27F6D",
"%	c #D25654",
"&	c #FBCA97",
"*	c #EDA27F",
"=	c #FFEAB7",
"-	c #FFFAD6",
";	c #6E5967",
">	c #926475",
",	c #AD707B",
"'	c #C39490",
")	c #B77F83",
"!	c #D1B1A5",
"~	c #DCCABE",
"                                                                ",
"                                                                ",
"                                                                ",
"                                                                ",
"                                                                ",
"                                                                ",
"                                                                ",
"                                                                ",
"                                                                ",
"         .+++++.         .+++++.         .+++++.                ",
" .@+++@. +++++++ .@+++@. +++++++ .@+++@. +++++++                ",
" @+++++@ .+++++. @+++++@ .+++++. @+++++@ .+++++.                ",
"                                                                ",
"+++. .++++. .++++++. .++++. .+++++++. .++++.                    ",
"++++ ++++++ ++++++++ ++++++ +++++++++ ++++++                    ",
"+++. .++++. .++++++. .++++. .+++++++. .++++.                    ",
"                                                                ",
" .+++++. .+++++. .+++++. .+++++. .+++++. .+++++. .++++.         ",
" @+++++@ @+++++@ @+++++@ @+++++@ @+++++@ @+++++@ ++++++         ",
" #.....# #.....# #.....# #.....# #.....# #...@+. .++++.         ",
"                                                                ",
"...# #....#          #....# #......#        #@+++++. .++.       ",
"                                            .+++++++ ++++       ",
"                                            #@+++++. .++.       ",
"$$$$% %$$$$$$$$$$% %$$$$$$$$$$$$ %$$$$$%                        ",
"$$$$$ $$$$$$$$$$$$ $$$$$$$$$$$$$ $$$$$$$  #...@. .+++++.        ",
"&&*$$ $$*&&&&&&*$$ $$*&&&&&&&&&& &&&*$$$  ....++ +++++++        ",
"&&&*$ $*&&&&&&&&*$ $*&&&&&&&&&&& &&&&*$$  #...@. .+++++.        ",
"&&&&$ $&&&&&&&&&&$ $&&&&&&&&&&&& &&&&&$$                        ",
"&&&&$ $&&&&&&&&&&$ $&&&&&&&&&&&& &&&&&$$    #@+++++.            ",
"=&&*$ $*&&=-==&&*$ $*&&=--=&&=-= =-=&&$%    .+++++++            ",
"                                            #@+++++.            ",
";;;;;;;;;;;;;;;;;;;;;;;;;;;;;;;; =&&&&$$                        ",
";;;;;;;;;;;;;;;;;;;;;;;;;;;;;;;; &&&&&$$  #...@. .+++++.        ",
";;;;;;;;;;;;;;;;;;;;;;;;;;;;;;;; &&&&*$$  ....++ +++++++        ",
";;;;;;;;;;;;;;;;;;;;;;;;;;;;;;;; *&&*$$$  #...@. .+++++.        ",
";>,,,,,,,,,,,,,,,,,,,,,,,>;;;;;; $$$$$$%                        ",
";;;,>>,>,,,,,,,,,,,,,,,,,,;;;;;;            #@+++++. .++.       ",
";,,,,,,,,,,,,,,,,,,,,,,,,,;;;;;; $$$$$$%    .+++++++ ++++       ",
";>,,,,,,,,,,,,,,,,,,,,,,,>;;;;;; *&&*$$$    #@+++++. .++.       ",
";;;;;;;;;;;;;;;;;;;;;;;;;;;;;;;; &&&&*$$                        ",
",,,,,,,,,,,,,,>;;>,,,,,,,>;;;;;; &&&&&$$  #...@. .+++++.        ",
",,,,,,,,,,,,,,,;;,,,,,,,,,;;;;;; =&&&&$$  ....++ +++++++        ",
"'''''''''''),,,;;)''),,,,,;;;;;; -&&&&$$  #...@. .+++++.        ",
"''''',,',',,,;;;;'''',,,,,;;;;;; =&&&&$$                        ",
"''!'!!!'!!'',,>;;;;',>,>>,;;;;;; =&&&&$$    #@+++++. .++.       ",
"'''''''''''',,,;;'''',,,,,;;;;;; &&&&&$$    .+++++++ ++++       ",
"'''''''''''),,>;;,''),,,,>;;;;;; &&&&*$$    #@+++++. .++.       ",
";;;;;;;;;;;;;;;;;;;;;;;;;;;;;;;; *&&*$$$                        ",
";,'''!'!~~!!'!!'''''),,,,,,>;;;; $$$$$$%  #...@. .+++++.        ",
";'''''''''''''''''''',,,,,,,;;;;          ....++ +++++++        ",
";'''''''''''''''''''',,,,,,,;;;; $$$$$$%  #...@. .+++++.        ",
";'''''''''''''''''''',>,>,;;;;;; *&&*$$$                        ",
";'''''''''''''''''''',,,,,,,;;;; &&&&*$$    #@+++++. .++.       ",
";'''''''''''''''''''',,,,,,,;;;; =&&&&$$    .+++++++ ++++       ",
";,''''''''''''''''''),,,,,,>;;;; =&&&&$$    #@+++++. .++.       ",
";;;;;;;;;;;;;;;;;;;;;;;;;;;;;;;; &&&&&$$                        ",
"'''''''''''),,>;;,''),,,,>;;;;;; =&&&&$$  #...@. .+++++.        ",
"'''''''''''',,,;;'''',,,,,;;;;;; -&&&&$$  ....++ +++++++        ",
"'''''''''''',,,;;'''',,,,,;;;;;; =&&&&$$  #...@. .+++++.        ",
"'''''''''''',,>;;'''',,,,,;;;;;; -&&&&$$                        ",
"'''''',,,',';;;;;'''',,,,,;;;;;; -&&&&$$    #@+++++. .++.       ",
"'''''!'!!'!',,,;;'''',,,,,;;;;;; =&&&&$$    .+++++++ ++++       ",
"'''''''''''),,>;;,''),,,,>;;;;;; &&&&&$$    #@+++++. .++.       "};
