/* XPM */
static char * diamante_9_xpm[] = {
"32 32 119 2",
"  	c #6E5967",
". 	c #6F5967",
"+ 	c #8A6270",
"@ 	c #926572",
"# 	c #966B74",
"$ 	c #A07B7D",
"% 	c #A07B7E",
"& 	c #9F7A7D",
"* 	c #83616E",
"= 	c #715A68",
"- 	c #725A68",
"; 	c #7D5D6C",
"> 	c #AB6F7A",
", 	c #AD707B",
"' 	c #B88386",
") 	c #C39490",
"! 	c #C39390",
"~ 	c #BF8D8C",
"{ 	c #BA8788",
"] 	c #BE8D8C",
"^ 	c #B48988",
"/ 	c #8B6C73",
"( 	c #A56D79",
"_ 	c #AC6F7B",
": 	c #B88486",
"< 	c #C69A94",
"[ 	c #C69B95",
"} 	c #C8A099",
"| 	c #C1938F",
"1 	c #9D757A",
"2 	c #A46C78",
"3 	c #AA6F7A",
"4 	c #B37D82",
"5 	c #C0928E",
"6 	c #C0928F",
"7 	c #9A7278",
"8 	c #946672",
"9 	c #956773",
"0 	c #9F767B",
"a 	c #A37D7F",
"b 	c #896570",
"c 	c #9C747A",
"d 	c #A47E80",
"e 	c #A78685",
"f 	c #AB8E8A",
"g 	c #AB8E8B",
"h 	c #A17B7E",
"i 	c #946773",
"j 	c #936672",
"k 	c #BA8688",
"l 	c #C2938F",
"m 	c #C39590",
"n 	c #C49591",
"o 	c #B98486",
"p 	c #C3938F",
"q 	c #BB8788",
"r 	c #C29491",
"s 	c #C49A95",
"t 	c #8C6A72",
"u 	c #BF8E8C",
"v 	c #C0918E",
"w 	c #9B7279",
"x 	c #B98989",
"y 	c #9D747A",
"z 	c #B29D99",
"A 	c #AE9692",
"B 	c #A88786",
"C 	c #A58484",
"D 	c #A37C7F",
"E 	c #87656F",
"F 	c #C49792",
"G 	c #C49692",
"H 	c #C39591",
"I 	c #A27C7F",
"J 	c #B48A89",
"K 	c #886770",
"L 	c #BC8B8A",
"M 	c #3F3851",
"N 	c #C39993",
"O 	c #C59E97",
"P 	c #BE908D",
"Q 	c #977077",
"R 	c #5987C6",
"S 	c #6198CC",
"T 	c #68B8D3",
"U 	c #90E3E4",
"V 	c #AF9693",
"W 	c #A17C7F",
"X 	c #A57F80",
"Y 	c #8F6E75",
"Z 	c #AD717B",
"` 	c #4F6DC0",
" .	c #9E777B",
"..	c #7C5D6C",
"+.	c #A46C79",
"@.	c #9B7379",
"#.	c #A68584",
"$.	c #AA8D8A",
"%.	c #AA8C8A",
"&.	c #A37E80",
"*.	c #A78585",
"=.	c #A47F80",
"-.	c #996E76",
";.	c #966873",
">.	c #8E6572",
",.	c #745D69",
"'.	c #735C69",
").	c #C9A099",
"!.	c #BB8889",
"~.	c #B98688",
"{.	c #B98587",
"].	c #C29390",
"^.	c #AC717B",
"/.	c #C59A94",
"(.	c #C69C95",
"_.	c #A66D79",
":.	c #B67E83",
"<.	c #9D737A",
"[.	c #765D6A",
"    . + @ # $ % % % % % % % & *     . + @ # $ % % $ # @ + .     ",
"= - ; > , ' ) ) ) ! ~ { { ] ^ / = - ; > , ' ) ) ) ) ' , > ; = . ",
"( > _ , , : ) ) ) ) < [ } ) | 1 2 > _ , , : ) ) ) ) : , , _ 3 + ",
"( > > > > 4 5 6 6 6 6 6 6 6 5 7 2 > > > > 4 5 6 6 5 4 > > > 3 + ",
"8 8 8 8 9 0 a b c d e f g e a h i 8 8 8 9 0 a b c a 0 9 8 8 8 j ",
": : : ' k l 6 h 5 ) m n n m ) ! o : : ' k l l h 5 ) p q : : : : ",
") ) m r s ] d t 6 ) ) ) ) ) ) ) ) ) m r s u ^ t 6 ) ) ) ) ) ) ) ",
"6 6 6 | | 6 v w x 6 6 6 6 6 6 6 6 6 6 | | 6 v w x 6 6 6 6 6 6 6 ",
"y d e g z A B C D a a a a a a b c d e g z A B C D a a a a a a E ",
"! ) m n F G H m ) ) ) ) ) ) ) I 5 ) m n F G H m ) ) ) ) ) ) ) & ",
") ) ) ) ) ) ) ) ) ) ! k ~ J a t 6 ) ) ) ) ) ) ) ) ) ! k ~ J a K ",
"L 6 6 6 6 6 6 6 6 6 6 5 M M M M M M M M 6 6 6 6 6 6 6 5 N O P Q ",
"a a a a a a a b c d e M M R S T T U U U M a a b c d e f V z g W ",
": : : : q p ) a 5 ) M M R S T T T T U U U M X Y 5 ) m n G F n ) ",
"> _ , , Z q ) a 6 ) M M ` ` S S S S U U T M N  .6 ) ) ) ) ) ) ) ",
"- ..+.> > 4 v @.x 6 M M ` ` R S S S U U T M 5 @.x 6 6 6 6 6 6 6 ",
"7 % #.$.%.&.*.h D a a M M ` ` S S S U T M =.*.h D a -.;.>.,.'.'.",
"! ) m n n ) m ) ) ! ~ { M M ` R S S U M n ) m ) ) ) ' , > ; = . ",
") ) ) ) ) ) ) ) ) ) < [ } M M ` R U M ) ) ) ) ) ) ) : , , _ 3 + ",
"L 6 6 6 6 6 6 6 6 6 6 6 6 6 M M U M 6 6 6 6 6 6 6 5 4 > > > 3 + ",
"g e a a a a a b c d e f g e a M M e a a a a a b c a 0 9 8 8 8 j ",
"n m ) ~ ] ~ ^ Y 5 ) m n n m ) ) n m ) ~ ] ~ ^ Y 5 ) p q : : : : ",
") ) m [ ).) |  .6 ) ) ) ) ) ) ) ) ) m [ ).) |  .6 ) ) ) ) ) ) ) ",
"6 6 6 6 6 6 5 @.x 6 6 6 6 6 6 6 6 6 6 6 6 6 5 @.x 6 6 6 6 6 6 6 ",
"y d e g z A B C D a a a a a a b c d e g z A B C D a a a a a a E ",
"! ) m n F G H m ) ) ) ) ) ) ) I 5 ) m n F G H m ) ) ) ) ) ) ) & ",
") ) ) ) ) ) ) ) ) ) ! k ~ J a t 6 ) ) ) ) ) ) ) ) ) ! k ~ J a K ",
"L 6 6 6 6 6 6 6 6 6 6 5 N O P 7 x 6 6 6 6 6 6 6 6 6 6 5 N O P Q ",
"a a a a a a a b c d e f V z g W D a a a a a a b c d e f V z g W ",
": : : : q p ) a 5 ) ) !.~.{ {.o ! ! k ] u ].X Y 5 ) ) !.~.{ {.: ",
"> _ , , Z q ) a 6 ) q Z , , _ ^.l ) /.) [ (.N  .6 ) q Z , , _ > ",
"- .._., , :.l <.L ) :., , _...[.6 ) ) ) ) ) ! <.L ) :., , _...- "};
