/* XPM */
static char * ReUmanoCollect_xpm[] = {
"32 32 447 2",
"  	c #6E5967",
". 	c #6F5967",
"+ 	c #8A6270",
"@ 	c #926572",
"# 	c #966B74",
"$ 	c #A07B7D",
"% 	c #A07B7E",
"& 	c #8C6F76",
"* 	c #575E6E",
"= 	c #5C6472",
"- 	c #5C6371",
"; 	c #656A77",
"> 	c #6B6E7A",
", 	c #665766",
"' 	c #715A68",
") 	c #725A68",
"! 	c #7D5D6C",
"~ 	c #AB6F7A",
"{ 	c #AD707B",
"] 	c #B88386",
"^ 	c #C39490",
"/ 	c #515669",
"( 	c #91ADB8",
"_ 	c #9CBAC1",
": 	c #9DBAC1",
"< 	c #ACC3CA",
"[ 	c #D1DFE1",
"} 	c #6B707B",
"| 	c #A96E79",
"1 	c #A56D79",
"2 	c #AC6F7B",
"3 	c #B88486",
"4 	c #4C5065",
"5 	c #7992A4",
"6 	c #96B2BB",
"7 	c #8DAAB6",
"8 	c #8CA9B5",
"9 	c #819BAA",
"0 	c #98B5BD",
"a 	c #CFDBDE",
"b 	c #7F7D86",
"c 	c #AA6F7A",
"d 	c #B37D82",
"e 	c #C0928E",
"f 	c #C0928F",
"g 	c #809BAB",
"h 	c #8EAAB6",
"i 	c #8BA7B4",
"j 	c #8CAAB6",
"k 	c #CCD9DC",
"l 	c #7C7B85",
"m 	c #946672",
"n 	c #956773",
"o 	c #9F767B",
"p 	c #A37D7F",
"q 	c #896570",
"r 	c #9C747A",
"s 	c #819CAC",
"t 	c #8BA8B4",
"u 	c #ACC3C9",
"v 	c #686D79",
"w 	c #936571",
"x 	c #936672",
"y 	c #BA8688",
"z 	c #C2938F",
"A 	c #A17B7E",
"B 	c #7B94A6",
"C 	c #95B1BA",
"D 	c #839EAD",
"E 	c #96B3BC",
"F 	c #D0DCDF",
"G 	c #807E87",
"H 	c #B68285",
"I 	c #C3938F",
"J 	c #BB8788",
"K 	c #C39590",
"L 	c #C29491",
"M 	c #C49A95",
"N 	c #BE8D8C",
"O 	c #A47E80",
"P 	c #8C6A72",
"Q 	c #7F99A9",
"R 	c #8FACB7",
"S 	c #89A5B2",
"T 	c #A7C0C7",
"U 	c #686B78",
"V 	c #C09390",
"W 	c #BF8E8C",
"X 	c #B48988",
"Y 	c #C1938F",
"Z 	c #C0918E",
"` 	c #9B7279",
" .	c #B98989",
"..	c #605768",
"+.	c #667F93",
"@.	c #718799",
"#.	c #718699",
"$.	c #708699",
"%.	c #7D96A5",
"&.	c #6C6572",
"*.	c #BF928E",
"=.	c #9D747A",
"-.	c #A78685",
";.	c #AB8E8B",
">.	c #B29D99",
",.	c #AE9692",
"'.	c #A88786",
").	c #A58484",
"!.	c #A37C7F",
"~.	c #9D787B",
"{.	c #725964",
"].	c #735964",
"^.	c #6F5662",
"/.	c #3E354F",
"(.	c #60495B",
"_.	c #6F5462",
":.	c #725864",
"<.	c #A18181",
"[.	c #87656F",
"}.	c #C39390",
"|.	c #C49591",
"1.	c #C49792",
"2.	c #C49692",
"3.	c #C39591",
"4.	c #BB8E8B",
"5.	c #3F3751",
"6.	c #9C777B",
"7.	c #9F7A7D",
"8.	c #B68787",
"9.	c #4B566C",
"0.	c #86666F",
"a.	c #BF8D8C",
"b.	c #B48A89",
"c.	c #886770",
"d.	c #BC8B8A",
"e.	c #BA928E",
"f.	c #536074",
"g.	c #946E75",
"h.	c #C39993",
"i.	c #C59E97",
"j.	c #BE908D",
"k.	c #977077",
"l.	c #AB8E8A",
"m.	c #A78F8E",
"n.	c #647382",
"o.	c #657382",
"p.	c #725D68",
"q.	c #785F6A",
"r.	c #775E6A",
"s.	c #79606B",
"t.	c #927277",
"u.	c #775D69",
"v.	c #63495F",
"w.	c #906C74",
"x.	c #81646F",
"y.	c #AF9693",
"z.	c #A17C7F",
"A.	c #BB8F8D",
"B.	c #647381",
"C.	c #617382",
"D.	c #C44B45",
"E.	c #D77C58",
"F.	c #DB9B6A",
"G.	c #D7875E",
"H.	c #705562",
"I.	c #A7685D",
"J.	c #DCA46E",
"K.	c #DDB379",
"L.	c #E2CA8F",
"M.	c #9F7D68",
"N.	c #D0A572",
"O.	c #8B6C71",
"P.	c #AD717B",
"Q.	c #BA8D8B",
"R.	c #71818B",
"S.	c #6E818C",
"T.	c #E38158",
"U.	c #EF885A",
"V.	c #F3AB6F",
"W.	c #F4BF7B",
"X.	c #735154",
"Y.	c #BC936A",
"Z.	c #F7C27D",
"`.	c #836058",
" +	c #604E56",
".+	c #D2A774",
"++	c #F7E3A0",
"@+	c #755C66",
"#+	c #7C5D6C",
"$+	c #A46C79",
"%+	c #9B7379",
"&+	c #B78B8A",
"*+	c #E27451",
"=+	c #F1895A",
"-+	c #F5AD6F",
";+	c #F8C27D",
">+	c #F49963",
",+	c #F9C57E",
"'+	c #F8C37E",
")+	c #EEA26A",
"!+	c #C58D65",
"~+	c #FEDA98",
"{+	c #F7DD9A",
"]+	c #745B66",
"^+	c #9A7278",
"/+	c #A68584",
"(+	c #AA8D8A",
"_+	c #AA8C8A",
":+	c #A37E80",
"<+	c #A78585",
"[+	c #9C787B",
"}+	c #93989E",
"|+	c #93999F",
"1+	c #913D49",
"2+	c #9E5E53",
"3+	c #A1735D",
"4+	c #A28062",
"5+	c #9F6656",
"6+	c #A28162",
"7+	c #A48162",
"8+	c #A69472",
"9+	c #9F8064",
"0+	c #5E4559",
"a+	c #966873",
"b+	c #8E6572",
"c+	c #745D69",
"d+	c #735C69",
"e+	c #BA8788",
"f+	c #B18183",
"g+	c #7C8891",
"h+	c #6A7E91",
"i+	c #647588",
"j+	c #4D5D73",
"k+	c #6B8195",
"l+	c #788E9E",
"m+	c #7A8C95",
"n+	c #889DA5",
"o+	c #99B3B9",
"p+	c #81959D",
"q+	c #82969E",
"r+	c #616472",
"s+	c #C7CACB",
"t+	c #8C5968",
"u+	c #C69A94",
"v+	c #C69B95",
"w+	c #BF9993",
"x+	c #A0A2A7",
"y+	c #A1A3A8",
"z+	c #683954",
"A+	c #7A3D50",
"B+	c #7A3D51",
"C+	c #784755",
"D+	c #7A6165",
"E+	c #7C6569",
"F+	c #7C6568",
"G+	c #74545C",
"H+	c #433D54",
"I+	c #895C6A",
"J+	c #A1A4A9",
"K+	c #C33F53",
"L+	c #DC4949",
"M+	c #DE504C",
"N+	c #E56154",
"O+	c #E06258",
"P+	c #C2786E",
"Q+	c #D6B29F",
"R+	c #E7C6B0",
"S+	c #E7C7B1",
"T+	c #A3746E",
"U+	c #584559",
"V+	c #9B6672",
"W+	c #A38886",
"X+	c #808B93",
"Y+	c #7E8B94",
"Z+	c #D0474A",
"`+	c #DA4849",
" @	c #E56355",
".@	c #F07760",
"+@	c #EC8974",
"@@	c #DEC6B2",
"#@	c #E5CEB9",
"$@	c #EF9B85",
"%@	c #EF9680",
"&@	c #D0B3A3",
"*@	c #644E5E",
"=@	c #8F6E75",
"-@	c #BB8E8C",
";@	c #71808A",
">@	c #6F818B",
",@	c #AD3858",
"'@	c #D24749",
")@	c #E76657",
"!@	c #F07860",
"~@	c #F07A62",
"{@	c #F08069",
"]@	c #F0836B",
"^@	c #E5745F",
"/@	c #4E3B52",
"(@	c #CB685B",
"_@	c #EA7C67",
":@	c #755B66",
"<@	c #C9A099",
"[@	c #9E777B",
"}@	c #9F797C",
"|@	c #647281",
"1@	c #373650",
"2@	c #6D3A50",
"3@	c #D86155",
"4@	c #EA6D5A",
"5@	c #F38A6A",
"6@	c #E8755F",
"7@	c #70364E",
"8@	c #C7665B",
"9@	c #EA755F",
"0@	c #765C66",
"a@	c #987478",
"b@	c #A9877E",
"c@	c #627281",
"d@	c #637382",
"e@	c #9C6764",
"f@	c #323651",
"g@	c #AD494F",
"h@	c #DD4C4A",
"i@	c #F07961",
"j@	c #E08166",
"k@	c #E37A63",
"l@	c #57475A",
"m@	c #82656D",
"n@	c #B88C8A",
"o@	c #695361",
"p@	c #CBA291",
"q@	c #4C5A70",
"r@	c #4C5B70",
"s@	c #D0A18F",
"t@	c #A97169",
"u@	c #943655",
"v@	c #833C52",
"w@	c #E16154",
"x@	c #E66556",
"y@	c #EF7860",
"z@	c #F17E63",
"A@	c #F07A61",
"B@	c #E9745F",
"C@	c #73515A",
"D@	c #CB9685",
"E@	c #796167",
"F@	c #735A65",
"G@	c #3F3851",
"H@	c #38334F",
"I@	c #CB9E8D",
"J@	c #BB7B6E",
"K@	c #564154",
"L@	c #483851",
"M@	c #D0464D",
"N@	c #D95D53",
"O@	c #E56455",
"P@	c #DD514C",
"Q@	c #EC715C",
"R@	c #C6494C",
"S@	c #644B57",
"T@	c #B2786C",
"U@	c #7F5D64",
"V@	c #957278",
"W@	c #59697C",
"X@	c #738791",
"Y@	c #8C6868",
"Z@	c #D08875",
"`@	c #B5786C",
" #	c #5A4355",
".#	c #843656",
"+#	c #923B52",
"@#	c #D9464B",
"##	c #B2424D",
"$#	c #D3434F",
"%#	c #D4434F",
"&#	c #593951",
"*#	c #5C4A5B",
"=#	c #86636E",
"-#	c #B88888",
";#	c #565465",
">#	c #8CAAB5",
",#	c #CFDEE0",
"'#	c #666571",
")#	c #7D565C",
"!#	c #7E575C",
"~#	c #4F3F53",
"{#	c #3C3851",
"]#	c #5A3753",
"^#	c #7F3C50",
"/#	c #493851",
"(#	c #793952",
"_#	c #473851",
":#	c #A38C8C",
"<#	c #535263",
"[#	c #595A6A",
"}#	c #31697D",
"|#	c #2B868D",
"1#	c #2B858D",
"2#	c #2D6378",
"3#	c #3E4458",
"4#	c #3D4559",
"5#	c #3E4459",
"6#	c #2D6278",
"7#	c #675562",
"8#	c #BB8889",
"9#	c #B78487",
"0#	c #89646D",
"a#	c #316275",
"b#	c #298890",
"c#	c #298B92",
"d#	c #298A92",
"e#	c #2D9495",
"f#	c #2E9695",
"g#	c #2D9796",
"h#	c #2A8E93",
"i#	c #2D9695",
"j#	c #2C9394",
"k#	c #288B92",
"l#	c #2B878F",
"m#	c #B98688",
"n#	c #B98587",
"o#	c #A56B77",
"p#	c #3B435B",
"q#	c #2C7D88",
"r#	c #287987",
"s#	c #376471",
"t#	c #3B7777",
"u#	c #3C7A78",
"v#	c #386B73",
"w#	c #3C7977",
"x#	c #3A7375",
"y#	c #2A7382",
"z#	c #A66D79",
"A#	c #B67E83",
"B#	c #9D737A",
"C#	c #AC6F7A",
"D#	c #825B6B",
"E#	c #3C4A5E",
"F#	c #41465C",
"G#	c #B28787",
"H#	c #B58988",
"I#	c #B58987",
"J#	c #B58887",
"K#	c #936C74",
"L#	c #765A65",
"M#	c #4B485D",
"N#	c #AD787E",
"    . + @ # $ % % & * = - - - - ; > , + @ # $ % % $ # @ + .     ",
"' ) ! ~ { ] ^ ^ ^ / ( _ _ _ _ : < [ } | { ] ^ ^ ^ ^ ] { ~ ! ' . ",
"1 ~ 2 { { 3 ^ ^ ^ 4 5 6 7 8 8 9 0 a b ~ { 3 ^ ^ ^ ^ 3 { { 2 c + ",
"1 ~ ~ ~ ~ d e f f 4 g h 8 8 8 i j k l | ~ d e f f e d ~ ~ ~ c + ",
"m m m m n o p q r 4 s 8 8 8 8 8 t u v w n o p q r p o n m m m x ",
"3 3 3 ] y z f A e 4 B C 7 8 8 D E F G H y z z A e ^ I J 3 3 3 3 ",
"^ ^ K L M N O P f 4 Q R 8 8 8 S R T U V M W X P f ^ ^ ^ ^ ^ ^ ^ ",
"f f f Y Y f Z `  ...+.@.#.@.@.#.$.%.&.*.Y f Z `  .f f f f f f f ",
"=.O -.;.>.,.'.).!.~.{.].^././.(._.:.<.;.>.,.'.).!.p p p p p p [.",
"}.^ K |.1.2.3.K ^ ^ ^ ^ 4.5.5.6.e ^ K |.1.2.3.K ^ ^ ^ ^ ^ ^ ^ 7.",
"^ ^ ^ ^ ^ ^ ^ ^ ^ ^ }.y 8.9.9.0.f ^ ^ ^ ^ ^ ^ ^ ^ ^ }.y a.b.p c.",
"d.f f f f f f f f f f e e.f.f.g. .f f f f f f f f f f e h.i.j.k.",
"p p p p p p p q r O -.l.m.n.o.p.q.r.s.p t.u.u.v.w.x.-.l.y.>.;.z.",
"3 3 3 3 J I ^ p e ^ K |.A.B.C.D.E.F.G.H.I.J.K.L.M.N.O.|.2.1.|.^ ",
"~ 2 { { P.J ^ p f ^ ^ ^ Q.R.S.T.U.V.W.X.Y.Z.`. +.+++@+^ ^ ^ ^ ^ ",
") #+$+~ ~ d Z %+ .f f f &+R.S.*+=+-+;+>+,+'+)+!+~+{+]+f f f f f ",
"^+% /+(+_+:+<+A !.p p p [+}+|+1+2+3+4+5+6+4+4+7+8+9+0+a+b+c+d+d+",
"}.^ K |.|.^ K ^ ^ }.a.e+f+g+g+h+i+j+k+l+m+n+o+p+q+r+s+t+~ ! ' . ",
"^ ^ ^ ^ ^ ^ ^ ^ ^ ^ u+v+w+x+y+z+A+A+A+B+C+D+E+F+F+G+H+I+{ 2 c + ",
"d.f f f f f f f f f f f &+y+J+K+L+M+N+O+P+Q+R+R+S+T+U+V+~ ~ c + ",
";.-.p p p p p q r O -.l.W+X+Y+Z+`+ @.@+@@@#@$@%@%@&@*@n m m m x ",
"|.K ^ a.N a.X =@e ^ K |.-@;@>@,@'@)@!@~@{@]@^@/@(@_@:@J 3 3 3 3 ",
"^ ^ K v+<@^ Y [@f ^ ^ ^ }@|@n.1@2@3@4@!@.@5@6@7@8@9@0@^ ^ ^ ^ ^ ",
"f f f f f f e %+ .f f a@b@c@d@e@f@g@h@!@!@.@i@j@k@9@l@m@n@f f f ",
"=.O -.;.>.,.'.).!.p p o@p@q@r@s@t@u@v@w@x@!@y@z@A@B@C@D@E@p p [.",
"}.^ K |.1.2.3.K ^ ^ ^ z F@G@H@I@J@K@L@M@N@O@P@Q@x@R@S@T@U@^ ^ 7.",
"^ ^ ^ ^ ^ ^ ^ ^ ^ ^ }.y V@W@X@Y@Z@`@ #.#+#@###$#%#&#*#=#-#b.p c.",
"d.f f f f f f f f f f e ;#>#,#'#)#!#~#{#]#^#/#(#(#_#]+e h.i.j.k.",
"p p p p p p p q r O -.l.:#<#[#}#|#|#1#2#3#4#4#4#5#6#7#l.y.>.;.z.",
"3 3 3 3 J I ^ p e ^ ^ 8#9#0#a#b#c#d#e#f#g#h#i#j#k#l#@+8#m#e+n#3 ",
"~ 2 { { P.J ^ p f ^ J P.o#p#q#r#s#s#t#u#u#v#w#x#s#y#_.P.{ { 2 ~ ",
") #+z#{ { A#z B#d.^ A#{ C#D#E#F#G#H#I#I#I#H#J#K#L#M#N#{ { z##+) "};
