/* XPM */
static char * ReUmanoFloor_xpm[] = {
"32 32 523 2",
"  	c #6E5967",
". 	c #6F5967",
"+ 	c #8A6270",
"@ 	c #926572",
"# 	c #966B74",
"$ 	c #A07B7D",
"% 	c #A07B7E",
"& 	c #9F7A7D",
"* 	c #83616E",
"= 	c #715A68",
"- 	c #725A68",
"; 	c #7D5D6C",
"> 	c #AB6F7A",
", 	c #AD707B",
"' 	c #B88386",
") 	c #C39490",
"! 	c #C39390",
"~ 	c #BF8D8C",
"{ 	c #BA8788",
"] 	c #BE8D8C",
"^ 	c #B48988",
"/ 	c #8B6C73",
"( 	c #A56D79",
"_ 	c #AC6F7B",
": 	c #B88486",
"< 	c #C69A94",
"[ 	c #C69B95",
"} 	c #C8A099",
"| 	c #C1938F",
"1 	c #9D757A",
"2 	c #A46C78",
"3 	c #AA6F7A",
"4 	c #B37D82",
"5 	c #C0928E",
"6 	c #C0928F",
"7 	c #9A7278",
"8 	c #946672",
"9 	c #956773",
"0 	c #9F767B",
"a 	c #A37D7F",
"b 	c #896570",
"c 	c #9C747A",
"d 	c #A47E80",
"e 	c #A78685",
"f 	c #AB8E8A",
"g 	c #AB8E8B",
"h 	c #A17B7E",
"i 	c #946773",
"j 	c #936672",
"k 	c #BA8688",
"l 	c #C2938F",
"m 	c #C39590",
"n 	c #C49591",
"o 	c #B68A88",
"p 	c #704252",
"q 	c #705054",
"r 	c #715556",
"s 	c #986B70",
"t 	c #AE7D81",
"u 	c #7C545B",
"v 	c #725B58",
"w 	c #73615B",
"x 	c #756860",
"y 	c #74655E",
"z 	c #8E7273",
"A 	c #85736B",
"B 	c #7A635F",
"C 	c #B88B89",
"D 	c #BB8788",
"E 	c #C29491",
"F 	c #C49A95",
"G 	c #8C6A72",
"H 	c #6C4C5A",
"I 	c #E56749",
"J 	c #F19C66",
"K 	c #F6B575",
"L 	c #A96E5A",
"M 	c #2E3150",
"N 	c #E29464",
"O 	c #F3BE7B",
"P 	c #D8B47C",
"Q 	c #DBC38B",
"R 	c #EFD393",
"S 	c #A09677",
"T 	c #E8D99C",
"U 	c #F2CD8B",
"V 	c #6E5961",
"W 	c #C0918E",
"X 	c #9B7279",
"Y 	c #B98989",
"Z 	c #BF918E",
"` 	c #6D505B",
" .	c #EC885A",
"..	c #F19B65",
"+.	c #F7C57E",
"@.	c #D09668",
"#.	c #B08363",
"$.	c #EEBC7B",
"%.	c #EFBB79",
"&.	c #995952",
"*.	c #67364C",
"=.	c #DEBE8A",
"-.	c #D0B683",
";.	c #F2E09F",
">.	c #F7E9A6",
",.	c #6E5B63",
"'.	c #9D747A",
").	c #B29D99",
"!.	c #AE9692",
"~.	c #A88786",
"{.	c #A58484",
"].	c #A37C7F",
"^.	c #A27C7F",
"/.	c #654857",
"(.	c #E76C4B",
"_.	c #F29C65",
":.	c #F8C57F",
"<.	c #F4A56A",
"[.	c #F7B675",
"}.	c #F8C47E",
"|.	c #F7C17C",
"1.	c #EEAF72",
"2.	c #DDA770",
"3.	c #FDD693",
"4.	c #FCD58F",
"5.	c #FFE8A2",
"6.	c #F3D18F",
"7.	c #65525D",
"8.	c #87656F",
"9.	c #C49792",
"0.	c #C49692",
"a.	c #C39591",
"b.	c #5E4A5B",
"c.	c #7A4150",
"d.	c #815956",
"e.	c #836B5E",
"f.	c #825D59",
"g.	c #83655C",
"h.	c #836A5D",
"i.	c #846C5F",
"j.	c #856C5F",
"k.	c #856B5E",
"l.	c #877767",
"m.	c #867465",
"n.	c #877A68",
"o.	c #836C61",
"p.	c #6C5864",
"q.	c #745865",
"r.	c #5B7287",
"s.	c #697C8F",
"t.	c #474E65",
"u.	c #647C91",
"v.	c #6E8397",
"w.	c #90A9B1",
"x.	c #59606F",
"y.	c #96AFB5",
"z.	c #9AB5BA",
"A.	c #7F939C",
"B.	c #ACADB1",
"C.	c #B8C8CC",
"D.	c #5E6673",
"E.	c #D8DCDC",
"F.	c #D1D3D4",
"G.	c #7C5B67",
"H.	c #B48A89",
"I.	c #886770",
"J.	c #BC8B8A",
"K.	c #6D5662",
"L.	c #433A53",
"M.	c #693A54",
"N.	c #763C50",
"O.	c #773E51",
"P.	c #773F52",
"Q.	c #734F59",
"R.	c #796368",
"S.	c #796468",
"T.	c #796367",
"U.	c #7A6468",
"V.	c #765B62",
"W.	c #764052",
"X.	c #774355",
"Y.	c #474056",
"Z.	c #795F68",
"`.	c #C39993",
" +	c #C59E97",
".+	c #BE908D",
"++	c #977077",
"@+	c #846E72",
"#+	c #573F55",
"$+	c #C73F54",
"%+	c #DB4949",
"&+	c #DB4848",
"*+	c #DD4D4A",
"=+	c #DD7267",
"-+	c #B5756C",
";+	c #E2BCA7",
">+	c #E5C1AB",
",+	c #E6C2AD",
"'+	c #BF9183",
")+	c #D4786D",
"!+	c #D75651",
"~+	c #534155",
"{+	c #897275",
"]+	c #AF9693",
"^+	c #A17C7F",
"/+	c #C3938F",
"(+	c #6A4B5A",
"_+	c #D84949",
":+	c #DB4D4B",
"<+	c #E25E52",
"[+	c #E96956",
"}+	c #E7B5A0",
"|+	c #C0AEA0",
"1+	c #EACFBA",
"2+	c #EFAB96",
"3+	c #F1AB95",
"4+	c #F0AB95",
"5+	c #CAA798",
"6+	c #DDC1AD",
"7+	c #E27866",
"8+	c #6E5460",
"9+	c #AD717B",
"0+	c #674A5B",
"a+	c #C43D55",
"b+	c #DF574F",
"c+	c #EF765F",
"d+	c #F0785F",
"e+	c #EF927B",
"f+	c #F09B85",
"g+	c #EF9680",
"h+	c #DF6F5C",
"i+	c #8B4B53",
"j+	c #C96458",
"k+	c #F1907A",
"l+	c #EF9A84",
"m+	c #E87963",
"n+	c #6E5360",
"o+	c #7A5C6B",
"p+	c #A16A78",
"q+	c #A86D79",
"r+	c #B07B80",
"s+	c #BD8F8C",
"t+	c #987178",
"u+	c #B78888",
"v+	c #5C495A",
"w+	c #793A51",
"x+	c #DA524D",
"y+	c #E15D52",
"z+	c #E86A58",
"A+	c #F07860",
"B+	c #F07960",
"C+	c #F48F6C",
"D+	c #EE7E63",
"E+	c #E78F6E",
"F+	c #EE926F",
"G+	c #F28265",
"H+	c #E8755F",
"I+	c #6D5360",
"J+	c #8E6D75",
"K+	c #6F6E79",
"L+	c #676874",
"M+	c #76737E",
"N+	c #626371",
"O+	c #72707A",
"P+	c #5B5D6D",
"Q+	c #72626F",
"R+	c #9B777B",
"S+	c #6F5A63",
"T+	c #604756",
"U+	c #873D50",
"V+	c #D4474B",
"W+	c #E16557",
"X+	c #EE745E",
"Y+	c #F07760",
"Z+	c #F07961",
"`+	c #F07A61",
" @	c #E7725E",
".@	c #604759",
"+@	c #966873",
"@@	c #8E6572",
"#@	c #745D69",
"$@	c #735C69",
"%@	c #686975",
"&@	c #D2DFE1",
"*@	c #B9CCD1",
"=@	c #DDE6E7",
"-@	c #DCE5E7",
";@	c #ADC5CA",
">@	c #D3DFE1",
",@	c #9CB8C0",
"'@	c #748998",
")@	c #926E73",
"!@	c #B28485",
"~@	c #937E7C",
"{@	c #DAB4A1",
"]@	c #C58D7D",
"^@	c #663653",
"/@	c #823656",
"(@	c #B34F51",
"_@	c #DE4F4B",
":@	c #ED735D",
"<@	c #ED725D",
"[@	c #EB705C",
"}@	c #EE765F",
"|@	c #EB6F5B",
"1@	c #EC715C",
"2@	c #DA5C52",
"3@	c #61475A",
"4@	c #9E6673",
"5@	c #555A6A",
"6@	c #9DBBC2",
"7@	c #90ADB8",
"8@	c #8FADB8",
"9@	c #89A7B3",
"0@	c #8BA9B5",
"a@	c #94B2BB",
"b@	c #88A4B1",
"c@	c #67788B",
"d@	c #947174",
"e@	c #83666D",
"f@	c #D6C0AE",
"g@	c #EDD4BE",
"h@	c #D8AC98",
"i@	c #835A5E",
"j@	c #293550",
"k@	c #A53D52",
"l@	c #B6414E",
"m@	c #DF6155",
"n@	c #DE504C",
"o@	c #E76757",
"p@	c #E45F53",
"q@	c #BD484D",
"r@	c #D6534E",
"s@	c #D5494A",
"t@	c #655560",
"u@	c #A18B86",
"v@	c #9A6471",
"w@	c #555B6A",
"x@	c #9FBCC3",
"y@	c #8BA6B3",
"z@	c #8CA9B5",
"A@	c #8AA5B1",
"B@	c #88A4B2",
"C@	c #67798C",
"D@	c #937074",
"E@	c #82636C",
"F@	c #D5BFAD",
"G@	c #A8968D",
"H@	c #A07B75",
"I@	c #C88372",
"J@	c #8A5E60",
"K@	c #673553",
"L@	c #523752",
"M@	c #BA3C54",
"N@	c #D4474A",
"O@	c #A03E50",
"P@	c #CF4151",
"Q@	c #D3434F",
"R@	c #7D3953",
"S@	c #B43C55",
"T@	c #943E4F",
"U@	c #786468",
"V@	c #C6A697",
"W@	c #7C5264",
"X@	c #8F5E6C",
"Y@	c #714B5E",
"Z@	c #865F6E",
"`@	c #8AA6B3",
" #	c #88A5B2",
".#	c #504155",
"+#	c #4D4156",
"@#	c #74686D",
"##	c #484156",
"$#	c #493E54",
"%#	c #72535C",
"&#	c #624B59",
"*#	c #403D54",
"=#	c #413D54",
"-#	c #674058",
";#	c #734154",
">#	c #504157",
",#	c #724258",
"'#	c #734156",
")#	c #513D55",
"!#	c #623C56",
"~#	c #443C54",
"{#	c #4E4457",
"]#	c #6B5861",
"^#	c #493751",
"/#	c #819199",
"(#	c #CCD5D6",
"_#	c #756B76",
":#	c #3D344E",
"<#	c #3E3650",
"[#	c #556B81",
"}#	c #5E788D",
"|#	c #829CA8",
"1#	c #839DA9",
"2#	c #8DA7B1",
"3#	c #9AB4BA",
"4#	c #99B4BA",
"5#	c #D5DDDE",
"6#	c #A9BDC2",
"7#	c #E0E4E4",
"8#	c #E1E5E5",
"9#	c #C0CDD0",
"0#	c #99B3B9",
"a#	c #88A2AD",
"b#	c #7D97A5",
"c#	c #53677C",
"d#	c #3B304B",
"e#	c #748997",
"f#	c #A4BFC5",
"g#	c #575C6B",
"h#	c #8BA8B5",
"i#	c #574557",
"j#	c #6D5663",
"k#	c #6B5563",
"l#	c #433D55",
"m#	c #413B53",
"n#	c #423C53",
"o#	c #423C54",
"p#	c #463F56",
"q#	c #433D54",
"r#	c #443E55",
"s#	c #413C53",
"t#	c #463F55",
"u#	c #6C5763",
"v#	c #6D5561",
"w#	c #60687B",
"x#	c #7992A0",
"y#	c #6F626E",
"z#	c #9FBCC2",
"A#	c #91AEB9",
"B#	c #95B2BB",
"C#	c #906E73",
"D#	c #BC8F8D",
"E#	c #494157",
"F#	c #375267",
"G#	c #38626F",
"H#	c #3B7374",
"I#	c #3C7474",
"J#	c #396770",
"K#	c #3B6F73",
"L#	c #38616F",
"M#	c #375066",
"N#	c #53465A",
"O#	c #9F797C",
"P#	c #81636B",
"Q#	c #BB8E8C",
"R#	c #565B6A",
"S#	c #A0BCC3",
"T#	c #8DA9B4",
"U#	c #8DA9B5",
"V#	c #8CAAB5",
"W#	c #8EA9B4",
"X#	c #89A5B2",
"Y#	c #7C5F68",
"Z#	c #434B5E",
"`#	c #267C8A",
" $	c #2D7381",
".$	c #366874",
"+$	c #3B7C7A",
"@$	c #376E76",
"#$	c #3A7779",
"$$	c #366774",
"%$	c #2C7482",
"&$	c #277B89",
"*$	c #4B495D",
"=$	c #A17C7E",
"-$	c #505567",
";$	c #8EABB6",
">$	c #7992A4",
",$	c #7D97A7",
"'$	c #7D96A7",
")$	c #778FA2",
"!$	c #7993A4",
"~$	c #5B6F84",
"{$	c #926F73",
"]$	c #474A5E",
"^$	c #2C687B",
"/$	c #685968",
"($	c #AA8180",
"_$	c #AB8181",
":$	c #AB8281",
"<$	c #AC8282",
"[$	c #AC8483",
"}$	c #AC8383",
"|$	c #70606C",
"1$	c #2B6B7D",
"2$	c #514B5D",
"3$	c #C1928F",
"4$	c #AF8686",
"5$	c #4F5265",
"6$	c #494B61",
"7$	c #4A4B61",
"8$	c #484A60",
"9$	c #7A646E",
"0$	c #BF918D",
"a$	c #BA8989",
"b$	c #483E55",
"c$	c #615363",
"d$	c #896870",
"e$	c #80636B",
"f$	c #404058",
"g$	c #B28887",
"h$	c #BB8889",
"i$	c #B98688",
"j$	c #B98587",
"k$	c #B98486",
"l$	c #BF8E8C",
"m$	c #C29390",
"n$	c #A57F80",
"o$	c #8F6E75",
"p$	c #AC717B",
"q$	c #C59A94",
"r$	c #C69C95",
"s$	c #9E777B",
"t$	c #7C5D6C",
"u$	c #A66D79",
"v$	c #B67E83",
"w$	c #9D737A",
"x$	c #765D6A",
"    . + @ # $ % % % % % % % & *     . + @ # $ % % $ # @ + .     ",
"= - ; > , ' ) ) ) ! ~ { { ] ^ / = - ; > , ' ) ) ) ) ' , > ; = . ",
"( > _ , , : ) ) ) ) < [ } ) | 1 2 > _ , , : ) ) ) ) : , , _ 3 + ",
"( > > > > 4 5 6 6 6 6 6 6 6 5 7 2 > > > > 4 5 6 6 5 4 > > > 3 + ",
"8 8 8 8 9 0 a b c d e f g e a h i 8 8 8 9 0 a b c a 0 9 8 8 8 j ",
": : : ' k l 6 h 5 ) m n o p q r s t u v w x y z A B C D : : : : ",
") ) m E F ] d G 6 ) ) l H I J K L M N O P Q R S T U V ) ) ) ) ) ",
"6 6 6 | | 6 W X Y 6 6 Z `  ...+.@.#.$.%.&.*.=.-.;.>.,.6 6 6 6 6 ",
"'.d e g ).!.~.{.].a a ^./.(._.:.<.[.}.|.1.2.3.4.5.6.7.a a a a 8.",
"! ) m n 9.0.a.m ) ) ) | b.c.d.e.f.g.h.i.j.k.l.m.n.o.p.) ) ) ) & ",
") ) ) ) ) ) ) ) ) ) ! q.r.s.t.u.v.w.x.y.z.A.B.C.D.E.F.G.~ H.a I.",
"J.6 6 6 6 6 6 6 6 6 6 K.L.M.N.O.O.P.Q.R.S.T.U.V.W.X.Y.Z.`. +.+++",
"a a a a a a a b c d e @+#+$+%+&+*+=+-+;+>+>+,+'+)+!+~+{+]+).g ^+",
": : : : D /+) a 5 ) m n (+_+:+<+[+}+|+1+2+3+4+5+6+7+8+n 0.9.n ) ",
"> _ , , 9+D ) a 6 ) ) l 0+a+b+c+d+e+f+g+h+i+j+k+l+m+n+) ) ) ) ) ",
"- o+p+q+q+r+s+t+u+6 6 Z v+w+x+y+z+A+B+C+D+E+F+G+A+H+I+6 6 6 6 6 ",
"J+K+L+M+M+N+O+P+Q+& a R+S+T+U+V+W+X+Y+Z+A+`+`+B+A+ @.@+@@@#@$@$@",
"%@&@*@=@-@;@>@,@'@)@!@~@{@]@^@/@(@_@:@<@[@B+}@|@1@2@3@4@> ; = . ",
"5@6@7@8@9@0@a@b@c@d@e@f@g@h@i@j@k@l@m@b+n@o@p@q@r@s@t@u@v@_ 3 + ",
"w@x@y@y@z@z@A@B@C@D@E@F@G@H@I@J@K@L@M@N@O@P@Q@R@S@T@U@V@W@X@Y@Z@",
"w@x@`@`@z@z@ #B@C@.#+#@###$#%#&#*#=#-#;#>#,#'#)#!#~#{#]#^#/#(#_#",
"w@x@z@z@z@z@z@B@C@:#<#[#}#|#1#2#3#4#5#6#7#8#9#0#a#1#b#c#d#e#f#g#",
"w@x@h#z@z@z@z@B@C@i#K.j#k#l#m#n#o#o#p#q#Y.Y.r#o#s#t#u#j#v#w#x#y#",
"w@z#7@A#z@z@B# #C@C#6 6 D#E#F#G#G#G#H#I#J#K#L#G#M#N#Z 6 6 O#P#Q#",
"R#S#T#U#V#z@W#X#C@Y#a a & Z#`# $.$.$+$+$@$#$$$%$&$*$=$a a a a 8.",
"-$;$>$>$,$'$)$!$~${$) ) .+]$^$/$($_$:$<$[$}$}$|$1$2$3$) ) ) ) & ",
"4$5$6$7$6$6$7$8$9$0$! k a$b$c$d$6 ) ) ) ) ) ) e$f$g$! k ~ H.a I.",
"J.6 6 6 6 6 6 6 6 6 6 5 `. +.+7 Y 6 6 6 6 6 6 6 6 6 6 5 `. +.+++",
"a a a a a a a b c d e f ]+).g ^+].a a a a a a b c d e f ]+).g ^+",
": : : : D /+) a 5 ) ) h$i${ j$k$! ! k ] l$m$n$o$5 ) ) h$i${ j$: ",
"> _ , , 9+D ) a 6 ) D 9+, , _ p$l ) q$) [ r$`.s$6 ) D 9+, , _ > ",
"- t$u$, , v$l w$J.) v$, , u$t$x$6 ) ) ) ) ) ! w$J.) v$, , u$t$- "};
