/* XPM */
static char *door_c[] = {
/* columns rows colors chars-per-pixel */
"32 32 98 2 ",
"   c #6C5867",
".  c #6F5E6C",
"X  c #745D6B",
"o  c #7C5E6B",
"O  c #75616E",
"+  c #7E626E",
"@  c #656373",
"#  c #6C6674",
"$  c #6B6877",
"%  c #6B6B7A",
"&  c #756270",
"*  c #7B6472",
"=  c #726C7A",
"-  c #7C6C78",
";  c #76717E",
":  c #7B737F",
">  c #815F6D",
",  c #84626E",
"<  c #836570",
"1  c #8C6370",
"2  c #836975",
"3  c #8B6A74",
"4  c #866F79",
"5  c #946673",
"6  c #996775",
"7  c #946B74",
"8  c #9B6A75",
"9  c #8C727B",
"0  c #937077",
"q  c #96747A",
"w  c #9B767B",
"e  c #97797E",
"r  c #9E797E",
"t  c #A26C76",
"y  c #A56D78",
"u  c #A86E79",
"i  c #A37379",
"p  c #A9767B",
"a  c #A17B7F",
"s  c #AC797D",
"d  c #B27C7F",
"f  c #6B7887",
"g  c #777581",
"h  c #7B7581",
"j  c #7B7B86",
"k  c #767D89",
"l  c #7E7D88",
"z  c #8B7680",
"x  c #9B7D80",
"c  c #A27D80",
"v  c #AF7C81",
"b  c #B37E81",
"n  c #7A848F",
"m  c #778591",
"M  c #788692",
"N  c #9A8082",
"B  c #A48284",
"V  c #AC8384",
"C  c #A78788",
"Z  c #A78888",
"A  c #A98B8A",
"S  c #B38485",
"D  c #B18986",
"F  c #B58788",
"G  c #B68C89",
"H  c #B98D8B",
"J  c #B6908E",
"K  c #BD918E",
"L  c #AB9191",
"P  c #BC9490",
"I  c #BC9B93",
"U  c #BDA39A",
"Y  c #C18283",
"T  c #C18F8D",
"R  c #C2938E",
"E  c #D1968E",
"W  c #DD918D",
"Q  c #C49591",
"!  c #C69993",
"~  c #C89B96",
"^  c #DE9B92",
"/  c #E09B93",
"(  c #C8A097",
")  c #D2A597",
"_  c #D8AC9B",
"`  c #E2A397",
"'  c #E2A598",
"]  c #E7B29F",
"[  c #EABBA5",
"{  c #E7BDA9",
"}  c #F8BFA8",
"|  c #EBC3AB",
" . c #F4C4AB",
".. c #FCC4AB",
"X. c #FDCAAE",
"o. c #EBC8B0",
"O. c #FFCFB1",
"+. c #FDD1B4",
/* pixels */
"w r c Z B x B x r r r r r r a , q a B C B c B r r r r r r r r , ",
"R Q Q ! ! Q Q Q R H G S b S B 2 V H H J K G G Q Q Q R T H T D 3 ",
"Q Q Q Q Q Q Q G V D w K I I I q D Q I U U r D V G R Q Q ! R R q ",
"S H H G G H S I { [ ! O.O.O.+.! | +.+.+.+.! ] [ I D J G H H H 7 ",
"Z c c c c 0 ( +.} ^ b ` _ ` ` b E ` ` ` _ d ^ ..+.( q Z Z B a r ",
"! Q Q T H S  . .W t , 6 6 6 5 & O , 8 8 6 1 t W  . .D Q ! ! Q Q ",
"Q Q ! ! G ) O./ 5 X 1 5 5 5 1 . @ o 1 1 1 ,   5 / X.) V Q Q R Q ",
"H H H H c [ ..Y > 8 v b b b y . $ + 0 w q q 7 o Y ..[ c H H G H ",
"w c B Z e G R 7 o 7 r c c c q & $ 1 a c c c q O 7 R J 0 a a a 3 ",
"Q Q Q ~ B _ ] i % - D G H H H 0 = S H H H S - % i ] _ c R ! R r ",
"Q Q Q Q C o...s g z R Q ! Q Q x ; H Q Q Q R 9 g s ..o.C R G c 3 ",
"S H H H B | ..d < 0 q e q q w 2 : q c c c a i 3 s ..| B H J V 3 ",
"c c c c w { ..s , 1 1 1 1 1 1 * h V H H H H K V d ..| r A L A x ",
"Q T H T c _ ] i 6 u y y y y y 2 : V H H H H H V p ] _ B ~ ~ ! Q ",
"Q Q Q Q c H R 8 0 a a a a a a 2 = w a a a c a q 7 R G c Q Q Q Q ",
"H H G H c | ..b H Q Q Q Q Q F 3 & c R Q Q Q Q H d ..| c H H H H ",
"w c B A N | ..s 3 w q w w q 2 M k j w a c c c q s ..o.e a a a 3 ",
"Q Q Q ! Z | ..p X 1 1 1 1 1 + m k l v H H H H V d ..| c H T D 3 ",
"Q Q R Q V [ ..p > y y y y y < m k l V H H H H v d ..[ V ! Q R w ",
"S H H H r G R 8 5 c c w c w 2 m k j o , + , * X 7 R G r H H G 7 ",
"C B c c w _ [ p G ~ Q Q Q Q x m k j 6 u u u y > i ] _ e Z C a w ",
"! Q Q R c o...s 0 c c c c c 2 m k j 3 8 8 7 7 , s ..o.C ! Q Q Q ",
"Q Q Q ! Z | ..p 3 x F H H H r g % z S H H H x 9 d ..| C Q Q Q Q ",
"G H H H c { ..v f h T Q Q Q R 0 % G Q Q Q H : f s ..| c H G H H ",
"w c B A x _ [ t . , w r r a w 2 = w c c c a 2 X i ] _ q a a a 3 ",
"Q Q Q Q c G R 7 8 u u u y y 8 . = V H H H H H V q K G a R ! R r ",
"Q Q Q Q C | ..s , 1 1 1 1 5 , O = S H H H H H V d ..| V R G c 3 ",
"F H H H c | ..s 3 e w w q q q * # o + + + , > X s ..| c H J S 3 ",
"a c c c q E ^ i V H J J H J H 0 @ > 8 t 8 t 6 > 8 ^ E e A L Z x ",
"Q Q H H a , , o + < , < < < < O O O , + + < < X + , , c ~ ~ ! Q ",
"Q Q Q R Q P K q S H H H H H H H H H J H P P K q S H G H R Q Q Q ",
"Q Q Q Q Q Q R a G Q Q Q Q Q Q Q Q Q Q Q Q Q Q w G Q Q Q Q Q Q Q "
};
