/* XPM */
static char *door_o[] = {
/* columns rows colors chars-per-pixel */
"32 32 186 2 ",
"   c #0E0300",
".  c #130400",
"X  c #1E0A02",
"o  c #1C0E0C",
"O  c #180700",
"+  c #1A100D",
"@  c #280E03",
"#  c #341401",
"$  c #3C1A00",
"%  c #35180B",
"&  c #2B1D18",
"*  c #2C160B",
"=  c #392E29",
"-  c #3E2E33",
";  c #4B2200",
":  c #4F240B",
">  c #522600",
",  c #572905",
"<  c #562911",
"1  c #6C350C",
"2  c #51372D",
"3  c #4C3433",
"4  c #473133",
"5  c #563A34",
"6  c #663F34",
"7  c #623A28",
"8  c #784C34",
"9  c #734432",
"0  c #5F5350",
"q  c #65505C",
"w  c #6C535C",
"e  c #605350",
"r  c #72565D",
"t  c #79574B",
"y  c #6C5C6B",
"u  c #6A5867",
"i  c #735966",
"p  c #745C6A",
"a  c #7C5E6B",
"s  c #7B5E62",
"d  c #74636C",
"f  c #7C616E",
"g  c #736764",
"h  c #656979",
"j  c #6C6675",
"k  c #776876",
"l  c #7A6E7B",
"z  c #7D6671",
"x  c #72777E",
"c  c #8C4500",
"v  c #844206",
"b  c #954A00",
"n  c #8F481B",
"m  c #A04F00",
"M  c #A65300",
"N  c #AE5700",
"B  c #B25900",
"V  c #AC601B",
"C  c #9C5F3C",
"Z  c #A9653A",
"A  c #BC6F36",
"S  c #B06836",
"D  c #BE7135",
"F  c #D46B00",
"G  c #DA6F00",
"H  c #DF7407",
"J  c #DC7610",
"K  c #ED7900",
"L  c #F17B00",
"P  c #C27237",
"I  c #865646",
"U  c #8C5D51",
"Y  c #A96E59",
"T  c #815E69",
"R  c #84616E",
"E  c #8B626F",
"W  c #8D746C",
"Q  c #9C706E",
"!  c #856370",
"~  c #8C6471",
"^  c #866872",
"/  c #8B6B74",
"(  c #816E7B",
")  c #936673",
"_  c #9A6875",
"`  c #936F77",
"'  c #897077",
"]  c #927077",
"[  c #957379",
"{  c #9B767C",
"}  c #9D7A7E",
"|  c #987A79",
" . c #A1796C",
".. c #A06B77",
"X. c #A66D79",
"o. c #AB6F7A",
"O. c #AF717C",
"+. c #A17B7F",
"@. c #A3777B",
"#. c #C77C5C",
"$. c #EE8011",
"%. c #F58311",
"&. c #BB8C7E",
"*. c #CA927E",
"=. c #767D86",
"-. c #807682",
";. c #9F7E81",
":. c #A27D80",
">. c #AF7F81",
",. c #C17C80",
"<. c #7A818D",
"1. c #8F8A89",
"2. c #9E8083",
"3. c #9E8985",
"4. c #A48485",
"5. c #AC8484",
"6. c #A78888",
"7. c #AB8C8C",
"8. c #A08B85",
"9. c #B28383",
"0. c #B88182",
"q. c #B28A87",
"w. c #B48B89",
"e. c #B98C8B",
"r. c #B5928D",
"t. c #BC928E",
"y. c #BE9082",
"u. c #AB9191",
"i. c #B39790",
"p. c #BC9C93",
"a. c #B39A93",
"s. c #BDA198",
"d. c #B39DA1",
"f. c #ACA1A2",
"g. c #B7ABAD",
"h. c #B8AEAC",
"j. c #B3B4B9",
"k. c #C28F82",
"l. c #C18F8D",
"z. c #C78384",
"x. c #C2928F",
"c. c #CC9687",
"v. c #D0958E",
"b. c #DA9A83",
"n. c #C49591",
"m. c #C59A93",
"M. c #C89B95",
"N. c #CE9590",
"B. c #D3A397",
"V. c #D3A599",
"C. c #DDA79B",
"Z. c #E2A397",
"A. c #E2A498",
"S. c #ECA89A",
"D. c #D1AFA1",
"F. c #DFB6A6",
"G. c #DFBAAA",
"H. c #D6BCB6",
"J. c #C6BBB9",
"K. c #EABBA5",
"L. c #E2B4A7",
"P. c #F8BCA6",
"I. c #F4B2A0",
"U. c #E2BEB5",
"Y. c #ECC3AE",
"T. c #F4C4AA",
"R. c #E9C6BF",
"E. c #FECEB1",
"W. c #FFD1B3",
"Q. c #B6BDC4",
"!. c #C9C1C0",
"~. c #DBCFCC",
"^. c #DDD0CD",
"/. c #ECCCC5",
"(. c #EDD1CA",
"). c #E2DEDE",
"_. c #F5DED8",
"`. c #F7E3DE",
"'. c #E3E0E0",
"]. c #F2EEED",
"[. c #F4E5E2",
"{. c #FDF1EE",
"}. c #F6F2F1",
"|. c #FAF4F3",
" X c #FFF8F6",
".X c #FFFEFE",
/* pixels */
"[ +.4.4.4.;.;.;.+.} } @.} } } ! ` +.:.6.4.;.:.;.} } :.} ;.@.} ! ",
"x.n.n.m.m.n.n.n.m.x.x.e.e.x.q.] e.n.n.m.n.n.n.n.n.n.x.e.e.l.w.^ ",
"n.n.n.n.n.n.n.n.x.x.x.x.n.x.t.[ w.n.n.x.n.n.n.n.n.n.n.n.n.x.l.[ ",
"9.e.e.e.e.e.e.5.n.x.B.F.L.L.V.q.C.F.F.G.V.x.m.5.e.e.e.w.e.e.w.[ ",
"6.4.:.:.:.{ ;.D.E.m.K.E.W.W.Y.m.E.E.E.E.K.m.T.D.;.{ 4.6.6.4.:.;.",
"n.n.n.l.e.w.Y.E.I.0.c.Z.A.A.c.O.C.C.Z.Z.N.0.I.E.Y.w.n.n.M.n.n.x.",
"n.n.n.m.w.V.E.S.O.) E R C S D D P A Z U ~ ) ,.S.E.B.5.n.n.n.x.n.",
"e.e.e.w.5.T.P.,.a f ! r v N G %.K F m 8 ! p p ,.P.P.9.w.e.e.e.e.",
"} :.4.;.t.W.S.) ~ o.R q % , b B M v ; 3 p ~ T ) A.E.r./ +.4.+./ ",
"n.n.n.t.} m.5.i E ) T q o X ; > ; # @ 4 p ~ ~ a 9.m.[ [ n.x.n.{ ",
"n.n.n.e.e.K.v.l k .._ u * X & = = & % 5 ! ..k l v.K.6.] x.q.+./ ",
"w.e.e.5.s.W.Z.( ( o.o.r < 2 g 1.1.g 7 6 ~ o.( ( A.W.a.] t.t.5.) ",
":.:.:.;.p.E.Z.T T ) ! r 8 | !.'.).J. .I a ) ~ R C.W.a./ 7.u.6.;.",
"n.l.e.9.p.E.Z.R ~ ~ a r Y H.}..X X].H._ _ X.X.) Z.W.r.{ m.M.m.n.",
"n.n.n.e.w.K.v.) X.X.T i c.[..X.X.X.X[.w._ X...) v.K.4.[ n.n.n.n.",
"e.e.e.5.} n.>.T ) ~ p a L.|..X.X.X.X Xd.i T ) a &.n.[ ] e.e.e.e.",
"] &.4.4.p.E.Z._ o.X.p z /. X.X.X.X.X.Xg.u E o._ Z.E.u.^ :.:.:./ ",
"t.x.x.r.s.E.Z.R ~ ! y <.(..X.X.X.X.X.XQ.j a ~ E A.E.i.] e.l.w./ ",
"n.n.x.e.p.E.A.a R T y <./. X.X.X.X.X.XQ.h p _ ) A.E.i.;.M.l.l.[ ",
"w.e.e.q.t.E.A.f _ ~ y =.L.{..X.X.X.X Xj.h p _ ) Z.E.w.] e.e.e.[ ",
"4.4.:.;.{ m.9.R ) ~ y =.b._..X.X.X.X`.f.h i a p &.m.[ ( 6.4.:.} ",
"n.n.n.w.q.K.v.) O.X.p x #.U.|..X.X}.U.3.h T _ a N.K.5.{ M.n.n.n.",
"n.n.n.e.s.W.A.E ) E y =.Z k.^.].].~.&.W h T ) a C.E.a.[ n.n.n.n.",
"e.e.e.5.p.E.A.! / _ y y n I 3.g.g.3.C e j _ ~ ! Z.E.i.` e.e.e.e.",
"{ :.4.:.p.E.Z.-.l _ p r 1 < 5 0 0 5 : 6 p ..l =.Z.E.r.^ &.:.;.^ ",
"n.n.n.t.w.K.N.f f ~ p w : # @ + + @ @ 5 p ~ a f v.K.5.[ r.t.n.} ",
"n.n.n.e.} m.>.~ X.X.R q % .         . 4 ~ X.X.~ >.n.[ [ l.w.:.~ ",
"9.e.e.5.p.E.Z.~ ~ ~ a q @ . $ > > # . - ~ X.X.) Z.W.i.] t.e.w./ ",
"+.:.:.} p.W.Z.R ~ R p q * > c B N v ; 3 p a a a Z.E.i.( 7.u.6.;.",
"n.n.e.0.>.Z.z.~ X._ p q 1 M G K K F M 8 p ) ) a z.Z.@.{ M.M.n.n.",
"n.x.n.r.! R R f a f a g V J %.%.%.$.K C a f f p R ! ! 4.n.t.n.n.",
"n.n.n.x.e.w.e.[ 5.e.e.e.*.*.*.*.*.*.c.x.e.e.e.[ 5.e.e.n.n.n.n.n."
};
