/* XPM */
static char *kingo_8[] = {
/* columns rows colors chars-per-pixel */
"32 32 136 2 ",
"   c #453D55",
".  c #6A3750",
"X  c #6F3A51",
"o  c #375F72",
"O  c #296F7E",
"+  c #5C4A5F",
"@  c #7A4252",
"#  c #7E4B59",
"$  c #664958",
"%  c #7E605E",
"&  c #464D64",
"*  c #4D4C62",
"=  c #475066",
"-  c #4D556A",
";  c #435C6E",
":  c #575063",
">  c #5F5769",
",  c #52596D",
"<  c #6B5E6E",
"1  c #645364",
"2  c #765262",
"3  c #5F606E",
"4  c #436171",
"5  c #5C6A77",
"6  c #5D657A",
"7  c #7C656F",
"8  c #6A6771",
"9  c #6B6975",
"0  c #626578",
"q  c #67687C",
"w  c #6B6E7D",
"e  c #746472",
"r  c #7B6671",
"t  c #776F77",
"y  c #736D79",
"u  c #7B6B78",
"i  c #75737C",
"p  c #7C717E",
"a  c #8C3C4F",
"s  c #804256",
"d  c #914854",
"f  c #9E5559",
"g  c #AE424D",
"h  c #B4434E",
"j  c #BE464E",
"k  c #A05E5D",
"l  c #8F5E65",
"z  c #87676D",
"x  c #8B646D",
"c  c #94696F",
"v  c #9A7F6A",
"b  c #866570",
"n  c #8A6771",
"m  c #836A74",
"M  c #8D6B74",
"N  c #886F7A",
"B  c #916E74",
"V  c #837279",
"C  c #8E767E",
"Z  c #8E7A7E",
"A  c #937176",
"S  c #997373",
"D  c #967279",
"F  c #9B757B",
"G  c #92797E",
"H  c #9E7A7E",
"J  c #A36261",
"K  c #A17B7F",
"L  c #C9464A",
"P  c #C95251",
"I  c #D15351",
"U  c #E75B50",
"Y  c #C97456",
"T  c #EA6B59",
"R  c #E36456",
"E  c #ED705C",
"W  c #D77863",
"Q  c #F17B62",
"!  c #B08164",
"~  c #A08C77",
"^  c #AA947B",
"/  c #CF9569",
"(  c #CA986D",
")  c #D1996B",
"_  c #EB8069",
"`  c #F1876D",
"'  c #E08978",
"]  c #CCA77B",
"[  c #DEAE75",
"{  c #E0A771",
"}  c #2C7C84",
"|  c #666D80",
" . c #6A6F81",
".. c #6B7283",
"X. c #717383",
"o. c #7F7A86",
"O. c #827888",
"+. c #967E84",
"@. c #9F7E81",
"#. c #A27D80",
"$. c #A87F81",
"%. c #2F8185",
"&. c #998284",
"*. c #9A8989",
"=. c #8A8090",
"-. c #878995",
";. c #A58485",
":. c #AB8284",
">. c #A78888",
",. c #A98B8B",
"<. c #B48687",
"1. c #B28887",
"2. c #B58A89",
"3. c #B98C8B",
"4. c #B6908E",
"5. c #BD908E",
"6. c #A59390",
"7. c #AB9191",
"8. c #B8A785",
"9. c #89A3AF",
"0. c #8BA6B3",
"q. c #8CA9B5",
"w. c #9AB0BA",
"e. c #A2B2BB",
"r. c #C08F8D",
"t. c #C2928F",
"y. c #CF998B",
"u. c #DD9D8A",
"i. c #C49591",
"p. c #C69994",
"a. c #C99C96",
"s. c #C8AD9F",
"d. c #D2AB9C",
"f. c #F0A991",
"g. c #E2C78E",
"h. c #A8BAC2",
/* pixels */
"F H ;.;.;.@.&.H H H H K H H H b A K #.>.;.@.@.@.@.F @.@.F #.F b ",
"t.i.i.p.p.i.i.i.i.t.t.3.3.r.1.B 3.i.i.p.p.i.i.i.i.i.r.3.3.r.3.n ",
"i.i.i.t.i.i.i.i.i.t.i.p.p.i.r.F 3.i.i.i.i.i.i.i.i.i.i.i.p.i.3.D ",
"<.3.3.3.3.3.3.3.3.3.3.3.3.3.3.D :.3.3.3.3.3.3.3.3.3.3.3.3.3.3.A ",
";.;.#.#.K K K M F #.;.;.>.;.K H ;.;.#.#.#.#.#.M F #.;.>.>.$.@.@.",
"p.i.i.r.5.t.3.B 3.i.p.p.p.i.i.i.p.i.i.3.3.i.1.B 3.i.i.i.p.p.i.i.",
"i.i.i.p.p.i.3.F 3.i.i.t.i.i.i.i.i.i.i.p.p.i.t.F 3.i.i.i.i.i.i.i.",
"3.3.3.3.3.3.3.D :.3.3.3.3.3.3.3.3.3.3.3.3.3.3.A $.3.3.3.2.3.3.3.",
"H #.;.>.7.,.;.@.@.#.#.#.#.;.K M F #.:.>.7.,.;.@.@.#.#.#.#.#.#.n ",
"t.i.i.p.p.p.p.i.i.i.i.3.S S :.z A H ~ >.p.p.p.p.i.i.i.i.t.i.i.F ",
"i.i.i.i.i.i.i.i.t.i.i.c Y ) % ( v ^ 8.>.1.i.i.i.i.i.i.3.r.2.#.M ",
"<.3.3.3.3.3.3.3.3.3.3.x Y { ) { ! ] g.~ $.3.3.3.3.3.3.2.4.4.:.B ",
"K #.#.#.#.#.K M F ;.H > : 3 9 8 i i y o.N #.#.M D $.;.;.,.7.>.@.",
"i.t.3.3.t.t.:.M 3.t.3.+ s d x Z *.*.B 2 m i.$.M 3.i.i.p.a.a.p.i.",
"i.i.i.i.p.p.5.F 3.i.i.x L U ' d.f.u.y.c 1.p.5.@.3.p.i.i.i.i.t.i.",
"3.3.3.3.3.3.3.F :.3.5.x j E Q ` Q W _ k $.3.2.A $.3.3.3.3.3.3.3.",
"K #.;.>.&.r e < < m F 1 @ I T Q Q Q Q k G ;.#.H K #.#.#.#.#.K B ",
"t.i.i.p.+.e.h.w.w.X.m s.B X P T T T U k G 5.i.i.i.t.r.3.3.r.2.n ",
"t.i.t.i.+.0.q.q.q...7 6.S $ . g g h a s V G ;.i.i.i.i.p.p.i.3.F ",
"<.3.3.3.N 9.q.q.0.6   - 0 w ..O.=.O.9 0 * ..-.:.3.3.3.3.3.3.3.A ",
";.;.#.#.r 0.q.q.q.| r V * = - - , - & < m y p n F #.;.>.>.;.#.F ",
"p.i.i.t.N 9.q.0.9. .3.3.4 } } } } %.O 7 t.3.:.B 3.i.i.i.p.i.i.i.",
"i.i.i.p.;... .| | p 5.1.; 6 V V V t o V p.t.t.F 3.i.i.i.i.i.i.i.",
"3.3.3.3.3.:.:.n F 1.3.1.m :.3.5.5.1.m :.3.3.3.A :.3.3.3.3.3.3.3.",
"K K ;.:.7.,.;.&.#.#.#.#.#.#.#.n F #.;.>.,.,.;.@.@.#.K #.K #.K n ",
"t.i.p.p.a.a.p.i.i.i.t.i.i.i.i.#.3.p.i.p.a.p.p.p.i.i.i.i.i.i.p.F ",
"i.i.i.t.i.i.t.i.i.i.t.3.t.3.#.B 3.i.i.i.i.i.i.i.i.i.t.3.5.3.#.n ",
"<.3.3.3.3.3.3.3.3.3.3.2.3.4.:.B $.3.3.3.3.3.3.3.3.3.3.3.4.3.:.B ",
"K #.#.K K ;.K n D #.;.;.,.7.;.@.@.#.#.#.#.#.#.M F #.#.>.,.7.>.@.",
"i.t.3.t.t.t.;.B 3.i.p.p.p.p.p.i.i.i.3.r.r.i.#.B 3.i.p.p.a.a.p.i.",
"t.t.i.t.p.p.5.F 3.i.i.i.i.i.i.i.i.r.t.t.p.p.3.F 3.i.i.5.i.r.i.i.",
"i.i.i.t.i.i.t.F <.i.i.i.i.i.i.i.i.i.i.i.i.i.i.F 2.i.i.i.i.i.i.i."
};
