/* XPM */
static char *kingoF[] = {
/* columns rows colors chars-per-pixel */
"32 32 146 2 ",
"   c #5C3952",
".  c #3D455E",
"X  c #345A6D",
"o  c #434259",
"O  c #4A4158",
"+  c #5E4B5A",
"@  c #6B4357",
"#  c #7B4953",
"$  c #6C505D",
"%  c #5C4E61",
"&  c #565165",
"*  c #5B5566",
"=  c #535B6C",
"-  c #475F70",
";  c #585B70",
":  c #655262",
">  c #6C5E6D",
",  c #745C64",
"<  c #755A69",
"1  c #7C5B65",
"2  c #456676",
"3  c #436A75",
"4  c #5F6377",
"5  c #5F6875",
"6  c #5E677C",
"7  c #66636F",
"8  c #6B606D",
"9  c #7C636B",
"0  c #676876",
"q  c #6B6972",
"w  c #64677A",
"e  c #646B7F",
"r  c #6C6575",
"t  c #736471",
"y  c #7F6772",
"u  c #776A74",
"i  c #7F6B76",
"p  c #706C7A",
"a  c #7A6C79",
"s  c #74757E",
"d  c #7C7279",
"f  c #843B4E",
"g  c #8F3F51",
"h  c #814256",
"j  c #914752",
"k  c #9A4550",
"l  c #944F5A",
"z  c #81595E",
"x  c #B1444D",
"c  c #BF464F",
"v  c #895C64",
"b  c #8E6263",
"n  c #81656D",
"m  c #8C6B6E",
"M  c #9F7764",
"N  c #9E726F",
"B  c #937A6A",
"V  c #866570",
"C  c #826B74",
"Z  c #8D6C75",
"A  c #906E76",
"S  c #84727C",
"D  c #8E767F",
"F  c #947077",
"G  c #967279",
"H  c #9B757B",
"J  c #957A7A",
"K  c #9D7A7E",
"L  c #A17965",
"P  c #A17B7F",
"I  c #C94349",
"U  c #D65E54",
"Y  c #E75B50",
"T  c #CE6157",
"R  c #C86C51",
"E  c #C56C5F",
"W  c #C86D5F",
"Q  c #D16E5E",
"!  c #E26155",
"~  c #EB6A59",
"^  c #F1765E",
"/  c #EE7661",
"(  c #E17B66",
")  c #EE7960",
"_  c #F17961",
"`  c #B28769",
"'  c #BD946E",
"]  c #AF8077",
"[  c #B59978",
"{  c #CD9B6D",
"}  c #D59A6B",
"|  c #F2856C",
" . c #E29967",
".. c #E29C69",
"X. c #D8A672",
"o. c #297380",
"O. c #2E7E84",
"+. c #6A6F81",
"@. c #6F7686",
"#. c #727484",
"$. c #797480",
"%. c #787B8A",
"&. c #807580",
"*. c #8D7780",
"=. c #847887",
"-. c #8E7881",
";. c #907780",
":. c #967C83",
">. c #9F7E81",
",. c #A27D80",
"<. c #26808B",
"1. c #28828A",
"2. c #2E8A8C",
"3. c #308386",
"4. c #758291",
"5. c #978485",
"6. c #998686",
"7. c #938489",
"8. c #888090",
"9. c #A58485",
"0. c #AC8284",
"q. c #A78888",
"w. c #A98C8C",
"e. c #B48687",
"r. c #BB8A80",
"t. c #B08788",
"y. c #B48989",
"u. c #B98C8B",
"i. c #B6908E",
"p. c #BD908E",
"a. c #AB9191",
"s. c #8AA4AF",
"d. c #8AA6B3",
"f. c #8CA9B5",
"g. c #90A8B3",
"h. c #9CB1BB",
"j. c #A3B1BA",
"k. c #C08F8D",
"l. c #C2928F",
"z. c #D09A8C",
"x. c #C49591",
"c. c #C69994",
"v. c #E29F8B",
"b. c #D1B786",
"n. c #E3AD99",
"m. c #A7B9C2",
/* pixels */
"H K 9.9.9.>.6.K ,.P K P P K ,.V F >.,.9.9.>.>.>.K K >.>.K K K V ",
"l.x.x.c.c.x.x.l.x.x.k.u.u.k.e.A u.x.c.c.x.x.x.x.x.x.l.u.u.k.e.V ",
"x.x.x.l.l.x.x.x.x.x.x.x.c.l.k.H u.x.x.x.x.x.x.x.x.x.x.x.c.x.l.G ",
"e.u.u.u.u.u.u.u.u.u.u.u.u.u.u.G ,.u.u.y.u.u.u.u.y.u.u.u.y.u.u.F ",
"q.9.P P ,.P P Z H C > > > > t G q.0.,.,.,.,.,.Z H ,.9.q.q.9.,.K ",
"c.c.x.p.l.l.y.A ,.#.d.d.d.f.j.:.c.c.x.k.k.k.e.A y.x.x.x.c.c.x.x.",
"l.l.l.c.c.l.p.H ,.#.f.f.d.f.m.:.x.x.x.c.c.x.u.K u.x.x.x.l.x.x.x.",
"u.u.u.u.u.u.u.H H +.d.f.f.f.h.*.u.u.u.u.u.u.u.G 0.u.u.u.u.u.u.u.",
"K 9.9.q.a.a.9.K F e d.f.d.d.h.> H ,.9.q.a.w.q.,.,.,.,.,.,.,.,.Z ",
"l.l.x.x.c.c.c.c.p.a +.e 6 +.@.u u.x.x.c.c.c.x.x.x.x.x.x.x.x.x.H ",
"x.x.l.x.x.l.x.l.x.p.y.<   J G Z u.x.x.x.x.x.x.x.x.x.x.u.l.y.,.Z ",
"y.u.u.u.u.u.u.u.u.u.u.y ; w.w.A 0.u.u.u.u.u.u.u.u.u.u.e.u.p.,.Z ",
"P P P P P P P Z H 9.9.a 5 $ , v n , 9 C H ,.,.Z H ,.,.q.a.a.w.,.",
"x.l.u.l.l.l.0.Z u.l.c.D p R  .L L ' B [ H x.9.Z y.x.c.x.x.c.c.x.",
"x.l.c.l.c.c.p.K u.l.x.-.s R ..} X.{ ` b.J c.u.K u.c.x.x.x.x.x.x.",
"u.u.u.u.u.u.u.G 0.u.u.D %.* * 0 7 s q 7 S e.u.H ,.u.u.u.u.u.u.u.",
"K ] 9.q.q.9.9.K P P P S 8.h j l v 5.6.C % K 9.K P P ,.,.,.P P Z ",
"p.x.x.c.c.l.l.c.x.l.l.D =.I Y / z.n.v.r.C x.x.l.x.l.k.u.k.k.u.V ",
"x.x.l.x.l.l.l.l.l.x.c.S w f U ^ | ( # W A x.x.x.x.l.x.c.c.x.u.H ",
"y.u.u.u.u.u.u.u.u.u.K t w + k ~ ) ) W Q 1 ,.u.u.u.u.u.u.u.u.u.A ",
"q.9.,.,.P P P Z H 9.H > & P @ k ! ~ / T v n H Z G ,.9.q.q.9.P K ",
"c.x.x.u.k.l.y.A u.x.p.r @.N b   g x x # $ P u.Z u.x.x.c.c.x.x.x.",
"x.x.x.c.c.l.l.H i.l.u.S 4.2 3 X o o O . C c.p.H u.x.x.x.l.x.x.x.",
"u.u.u.u.u.u.u.G 0.u.i.F X <.<.2.3.O.O.3 u u.u.G 0.u.u.u.u.u.u.u.",
"K ,.q.q.w.w.q.>.P ,.,.Z - 5 C > u S d = 7.w.9.,.P ,.P ,.,.,.P Z ",
"x.x.x.x.c.c.x.c.x.x.x.x.u.u.x.,.u.c.x.u.c.c.x.c.x.x.x.l.x.x.l.K ",
"x.x.x.x.x.x.x.x.x.x.x.u.l.y.,.A u.l.x.x.x.x.x.l.x.x.l.u.l.y.P Z ",
"e.u.u.u.u.u.u.u.u.u.u.e.u.i.t.A 0.i.u.u.u.u.u.u.u.u.u.u.p.p.0.Z ",
",.,.,.,.>.,.,.Z H ,.9.q.w.a.q.H P ] >.>.,.P ,.Z G 9.9.9.w.a.q.>.",
"x.x.u.k.x.p.0.Z u.x.x.c.c.c.c.x.l.l.u.p.l.x.9.Z u.x.x.c.c.c.c.x.",
"x.l.x.p.x.c.u.H y.x.x.x.x.x.l.x.x.l.x.x.c.c.p.G u.x.l.x.x.x.x.p.",
"x.x.x.x.x.x.x.K t.x.x.x.x.x.x.x.x.x.x.x.x.x.x.H e.x.x.l.x.x.x.x."
};
