/* XPM */
static char *kingo_5[] = {
/* columns rows colors chars-per-pixel */
"32 32 137 2 ",
"   c #453D55",
".  c #6A3750",
"X  c #6F3A51",
"o  c #375F72",
"O  c #296F7E",
"+  c #5C4A5F",
"@  c #7A4252",
"#  c #764F5F",
"$  c #7E4B59",
"%  c #755A5A",
"&  c #664958",
"*  c #464D64",
"=  c #4D4C62",
"-  c #574F62",
";  c #475066",
":  c #4D556A",
">  c #435C6E",
",  c #52596D",
"<  c #6B5E6E",
"1  c #655464",
"2  c #5F606E",
"3  c #436171",
"4  c #5C6A77",
"5  c #5D657A",
"6  c #7C656F",
"7  c #6A6772",
"8  c #6B6A75",
"9  c #626578",
"0  c #67687C",
"q  c #6B6E7D",
"w  c #736473",
"e  c #7B6671",
"r  c #776F77",
"t  c #7C6A76",
"y  c #736A79",
"u  c #7A6D7A",
"i  c #74727B",
"p  c #7C717E",
"a  c #8C3C4F",
"s  c #814256",
"d  c #924C56",
"f  c #91535D",
"g  c #9E5559",
"h  c #AE424D",
"j  c #B4434E",
"k  c #BE444E",
"l  c #A0605E",
"z  c #8E5F67",
"x  c #835E6B",
"c  c #83636A",
"v  c #8F676D",
"b  c #9A7F6A",
"n  c #866570",
"m  c #8A6771",
"M  c #826974",
"N  c #8D6B74",
"B  c #886F7A",
"V  c #926E74",
"C  c #8B7075",
"Z  c #837279",
"A  c #8B737C",
"S  c #8E7A7F",
"D  c #937176",
"F  c #997371",
"G  c #967279",
"H  c #9B757B",
"J  c #92797E",
"K  c #9E7A7E",
"L  c #A06061",
"P  c #A17B7F",
"I  c #C95250",
"U  c #D15350",
"Y  c #C97456",
"T  c #ED6756",
"R  c #EB6C5A",
"E  c #E36455",
"W  c #EC725D",
"Q  c #CE7562",
"!  c #EC7762",
"~  c #9D8A76",
"^  c #B08164",
"/  c #A7917B",
"(  c #AD977A",
")  c #C9976C",
"_  c #D09669",
"`  c #D0986B",
"'  c #F6846A",
"]  c #F3886D",
"[  c #E28776",
"{  c #CCA77B",
"}  c #DEAE75",
"|  c #E0A771",
" . c #2C7C84",
".. c #666D80",
"X. c #6A6F81",
"o. c #6B7283",
"O. c #717383",
"+. c #827A88",
"@. c #967E84",
"#. c #9F7E81",
"$. c #A27D80",
"%. c #A87F81",
"&. c #2F8185",
"*. c #998183",
"=. c #9B8A8A",
"-. c #8A8090",
";. c #878995",
":. c #A58385",
">. c #AB8284",
",. c #A78888",
"<. c #A98B8B",
"1. c #B48687",
"2. c #B28887",
"3. c #B58A89",
"4. c #B98C8B",
"5. c #B6908E",
"6. c #BD918E",
"7. c #A59390",
"8. c #AB9191",
"9. c #B8A785",
"0. c #89A3AF",
"q. c #8BA6B3",
"w. c #8CA9B5",
"e. c #9AB0BA",
"r. c #A2B2BB",
"t. c #C08F8D",
"y. c #C2928F",
"u. c #D39687",
"i. c #DA9B89",
"p. c #C49591",
"a. c #C69994",
"s. c #C89C96",
"d. c #C8AD9F",
"f. c #D2A899",
"g. c #E4A490",
"h. c #E2C78E",
"j. c #A8BAC2",
/* pixels */
"H K :.:.:.#.*.K K K K P K K K n G K $.,.:.#.$.#.K K P K K P H n ",
"y.p.p.a.a.p.p.p.a.p.y.4.4.t.3.V 4.p.p.a.a.p.p.p.p.p.4.4.4.t.3.N ",
"p.p.p.p.p.p.p.p.y.y.y.a.a.y.y.H 4.p.p.p.p.p.p.p.p.p.p.a.a.p.4.H ",
"1.4.4.4.4.4.4.4.4.4.4.4.4.4.4.V >.4.4.4.4.3.4.4.4.4.4.4.4.4.4.D ",
",.:.$.$.P P P N H P :.,.,.:.P K :.:.$.$.$.$.$.N H $.:.,.,.:.$.H ",
"a.a.p.4.6.y.2.V 4.a.p.a.a.p.p.p.a.p.p.6.t.6.3.N 3.p.p.a.a.p.p.p.",
"y.p.p.a.a.p.6.H 4.p.p.p.p.y.y.y.p.p.p.a.a.p.4.H 4.p.p.p.p.p.p.p.",
"4.4.4.4.4.4.4.G >.4.4.4.4.4.4.4.4.4.4.4.4.4.4.H >.4.4.4.4.4.4.4.",
"P $.:.,.8.<.:.$.#.$.$.$.P P P V H $.:.,.8.<.:.#.#.$.$.$.$.$.P m ",
"t.p.p.p.a.a.a.p.p.p.p.p.a.p.a.P 4.a.p.p.s.a.a.a.p.p.p.p.p.p.p.P ",
"p.p.p.p.p.p.p.p.y.a.p.%.D D D n D K #.:.p.p.p.p.p.p.y.4.t.4.$.m ",
"3.4.4.4.4.4.3.4.4.4.4.v Y ` % ) ~ ( 9./ %.4.4.4.4.4.3.4.5.4.>.N ",
"P $.P $.$.P $.N H $.:.c Y | ) | b { h.~ G $.$.N H $.$.,.<.8.,.#.",
"p.y.t.4.y.y.>.N 4.a.6.w - < 7 7 r r r +.#.p.%.N 3.p.a.a.s.s.a.p.",
"p.p.p.p.a.a.6.H 4.p.4.+ @ d f C =.*.z % A s.6.H 4.p.p.p.p.p.p.p.",
"4.4.4.4.4.4.4.H %.t.4.x k T [ f.g.i.u.l $.4.3.H >.4.4.4.3.4.4.4.",
"P P >.,.*.w w < < t H 1 @ U ! ] Q Q ' l J :.$.K P P $.$.$.P P V ",
"y.p.y.a.@.r.j.e.e.O.m d.V X I R R W E g @.4.p.p.p.y.t.4.4.t.3.n ",
"y.p.p.a.@.q.w.w.w.X.e 7.F & . h h j a s Z J >.y.p.p.p.a.a.p.t.G ",
"1.4.4.4.B 0.w.w.q.5   : 9 q X.+.-.+.q 9 = o.;.,.4.4.4.4.3.4.4.G ",
":.:.P $.t q.w.w.w...e Z = ; : : , : * < M y p m H :.:.:.,.:.$.K ",
"s.p.p.y.B q.q.q.q.X.4.4.3  . . . . .O 6 y.3.>.V 4.p.p.a.a.p.p.p.",
"y.y.p.s.:.O.X.X.X.u 6.3.3 4 Z Z Z r o B s.y.y.H 4.p.p.p.p.p.p.p.",
"4.4.4.4.3.>.%.m H 3.4.>.M >.4.4.6.2.M ,.4.4.4.D >.4.4.3.4.4.4.4.",
"P $.:.,.8.<.:.:.P $.$.$.$.$.#.m H :.:.,.8.<.:.#.K P $.$.P P P N ",
"y.p.a.a.s.a.p.p.p.p.p.p.p.p.a.$.3.p.p.a.s.a.p.p.p.p.p.p.a.p.y.P ",
"p.p.p.y.p.p.y.p.p.p.p.4.t.3.$.V 4.p.p.p.p.p.p.p.p.p.y.4.y.3.P N ",
"1.4.4.4.4.4.4.4.4.4.4.1.4.6.>.V >.4.4.4.4.4.4.4.4.4.4.3.4.4.>.N ",
"P P :.P P :.K N H $.:.,.<.8.,.H $.$.$.$.$.$.$.N G :.:.,.<.8.,.#.",
"y.y.4.6.y.y.>.N 4.p.p.a.s.s.a.p.p.p.4.4.p.6.:.V 4.p.p.p.s.s.a.p.",
"y.y.6.y.a.s.6.H 4.p.p.t.p.p.p.p.p.t.p.y.p.a.6.H 4.p.p.y.p.y.p.p.",
"y.p.a.y.y.p.y.H 1.p.p.p.p.p.p.p.p.p.p.p.p.p.p.H 1.p.p.y.p.p.y.p."
};
