/* XPM */
static char *kingo_7[] = {
/* columns rows colors chars-per-pixel */
"32 32 147 2 ",
"   c #413A53",
".  c #5E3E54",
"X  c #325569",
"o  c #325E6F",
"O  c #335F70",
"+  c #326070",
"@  c #48475F",
"#  c #5C4A5F",
"$  c #77515E",
"%  c #7E605E",
"&  c #424D62",
"*  c #574962",
"=  c #48576C",
"-  c #575063",
";  c #5F5769",
":  c #6B4760",
">  c #614F63",
",  c #645464",
"<  c #6A5967",
"1  c #675A68",
"2  c #7D5F6C",
"3  c #765262",
"4  c #5F606E",
"5  c #426B78",
"6  c #5A6176",
"7  c #5C6977",
"8  c #5C6579",
"9  c #5E687C",
"0  c #74606A",
"q  c #6B6772",
"w  c #61677A",
"e  c #686B7D",
"r  c #676A7A",
"t  c #766471",
"y  c #776E77",
"u  c #7C6974",
"i  c #726D79",
"p  c #75737C",
"a  c #9E414F",
"s  c #804256",
"d  c #914854",
"f  c #9A5459",
"g  c #BE4C4F",
"h  c #A14350",
"j  c #B1615B",
"k  c #875265",
"l  c #8C5063",
"z  c #8F5E65",
"x  c #87676D",
"c  c #8C646D",
"v  c #94696F",
"b  c #9A7F6A",
"n  c #856671",
"m  c #836974",
"M  c #8D6C74",
"N  c #876F79",
"B  c #906D75",
"V  c #8C7177",
"C  c #837279",
"Z  c #8D737B",
"A  c #8D7A7D",
"S  c #937176",
"D  c #987275",
"F  c #967179",
"G  c #9B757B",
"H  c #9E7A7E",
"J  c #917C7E",
"K  c #A36261",
"L  c #A17B7F",
"P  c #C8454B",
"I  c #D65550",
"U  c #DB5650",
"Y  c #D95852",
"T  c #E75B50",
"R  c #C1645B",
"E  c #C97456",
"W  c #E06356",
"Q  c #E86456",
"!  c #F1755E",
"~  c #EC7B62",
"^  c #F07C65",
"/  c #B08164",
"(  c #A08C77",
")  c #A7817C",
"_  c #AA947B",
"`  c #CF9569",
"'  c #CA986D",
"]  c #D1996B",
"[  c #F68369",
"{  c #F4886D",
"}  c #E08978",
"|  c #CCA77B",
" . c #DEAE75",
".. c #E0A771",
"X. c #287D88",
"o. c #676E81",
"O. c #6B6F80",
"+. c #6D7183",
"@. c #747787",
"#. c #7B7380",
"$. c #7F7A86",
"%. c #767C8A",
"&. c #8E7D81",
"*. c #807F8E",
"=. c #927A81",
"-. c #9F7E81",
";. c #A27D80",
":. c #26858E",
">. c #2B878C",
",. c #2C8A8D",
"<. c #758D9F",
"1. c #798F9E",
"2. c #7D8391",
"3. c #7990A1",
"4. c #988586",
"5. c #98878B",
"6. c #908F9C",
"7. c #90919C",
"8. c #99949E",
"9. c #A58485",
"0. c #AB8284",
"q. c #A78888",
"w. c #A98B8B",
"e. c #B48687",
"r. c #B58A89",
"t. c #B98C8B",
"y. c #B6908E",
"u. c #BD908E",
"i. c #AB9191",
"p. c #BA9390",
"a. c #B8A785",
"s. c #8AA5B2",
"d. c #8CA9B5",
"f. c #91AEB9",
"g. c #95ABB6",
"h. c #98B4BE",
"j. c #C08F8D",
"k. c #C2928F",
"l. c #D79C8B",
"z. c #C49591",
"x. c #C69994",
"c. c #C99C96",
"v. c #D3AB9C",
"b. c #E5A490",
"n. c #D1B8A9",
"m. c #E2C78E",
"M. c #A6B9C2",
/* pixels */
"G H 9.9.9.-.4.H H H H L H H H x B L 9.9.9.-.-.H H H ;.H H L H n ",
"k.z.z.x.x.z.z.k.x.z.u.t.t.j.r.M t.z.z.x.x.z.z.z.z.z.t.t.t.j.t.n ",
"z.z.z.k.z.z.z.z.k.k.k.x.x.k.k.G t.z.z.z.k.z.z.z.z.z.z.x.x.z.t.G ",
"e.t.t.t.t.t.t.t.t.t.t.t.t.t.t.F 0.t.t.t.t.t.t.t.t.t.t.t.t.t.t.B ",
"q.9.;.;.L L L M D 9.9.q.q.9.L H 9.9.;.;.;.;.-.M G ;.9.q.q.9.;.H ",
"z.x.z.t.k.k.t.M u.z.k.x.x.x.k.k.x.z.z.t.j.k.t.M t.z.z.z.x.z.z.z.",
"z.z.z.x.x.k.t.H t.k.k.k.k.z.k.x.z.z.z.x.x.z.u.G t.z.k.z.z.z.z.z.",
"t.t.t.t.t.t.t.F 0.t.u.t.t.u.t.t.t.t.t.t.t.t.t.F 0.t.t.t.t.t.t.t.",
"H ;.9.q.i.w.9.-.H ;.;.;.9.L L M G ;.9.q.i.w.9.;.H ;.;.;.L ;.L M ",
"k.k.z.x.c.c.x.z.z.z.z.t.D D 0.x V H 9.0.c.x.z.x.z.z.z.k.z.z.z.H ",
"z.z.z.z.k.z.z.k.z.z.z.v E ] % ' ( _ a._ r.z.z.z.z.z.z.t.j.r.L n ",
"e.t.t.t.t.t.t.t.t.t.t.c E ..`  .b | m.( 9.t.t.t.t.t.t.t.t.u.0.B ",
"L L L ;.L ;.L M G 9.H , - 6 q q y y p *.m ;.;.M G ;.9.q.i.i.q.-.",
"z.k.t.j.k.k.9.S t.k.t.# s d z A 9.4.M $ n z.0.M t.z.z.z.x.x.x.z.",
"z.z.z.z.x.c.u.G t.k.z.v P T } v.b.l.l.K w.c.u.G t.z.z.z.z.z.z.z.",
"t.t.t.t.t.e.e.M L t.u.0 a Q ^ { R j [ K 9.t.t.F 0.t.t.t.t.t.t.t.",
"G ;.9.q.Z 8.6.6.2.i m J $ a W ! ~ [ ! f u 9.9.H L L L L ;.L L M ",
"z.z.x.x.=.M.h.h.f.O.m n.L # a I U U g f =.0.u.k.z.k.j.t.j.j.e.M ",
"z.z.z.z.&.g.s.d.s.e > 0 0 < * k k l : # 1 #.5.t.z.k.x.x.x.k.u.F ",
"e.t.t.t.N s.f.s.d.8   = 6 q O.@.2.@.7 4 @ 9 %.0.t.t.t.t.t.t.t.S ",
"9.9.;.;.u s.f.f.d.o.V Z & + + + o o X < D V V M F 9.9.q.q.9.L H ",
"x.z.z.j.Z 1.<.3.<.e t.t.5 :.,.,.,.,.X.u k.u.r.M t.z.z.x.x.z.z.z.",
"z.z.z.x.p.Z N t m ;.z.r.= 7 C C C y O C c.k.u.H t.k.z.z.k.z.z.z.",
"t.t.t.t.t.t.t.G 0.t.t.w.m 0.t.t.t.e.m 0.t.t.t.F 0.t.t.t.t.t.t.t.",
"L ;.9.q.i.w.9.;.L L L ) ;.;.;.M F 9.9.q.i.w.9.;.H L L ;.L L L M ",
"k.z.z.z.c.x.x.x.k.x.x.k.z.z.z.H t.z.x.x.c.x.x.x.z.z.z.k.x.k.k.H ",
"z.z.z.z.z.z.z.z.k.k.k.t.k.t.H S t.k.z.k.k.z.k.z.z.z.k.t.j.r.9.M ",
"e.t.t.t.t.t.t.t.t.t.t.r.u.y.0.B 0.t.t.t.t.t.t.t.t.t.t.t.u.y.0.M ",
";.;.;.;.-.-.;.M D 9.9.q.w.i.q.L L 9.L L ;.;.;.M G ) 9.q.w.i.q.H ",
"z.j.j.t.j.z.;.M y.z.k.x.c.x.x.x.k.k.t.k.k.u.9.B t.k.x.x.x.c.x.z.",
"z.k.z.k.x.x.u.H u.k.k.z.k.z.z.k.k.z.k.k.x.x.u.G t.p.k.k.z.k.k.z.",
"z.z.z.k.z.z.z.G e.z.z.z.z.k.k.k.x.k.k.k.z.k.k.G t.z.k.x.k.z.z.k."
};
