/* XPM */
static char *kingo_1[] = {
/* columns rows colors chars-per-pixel */
"32 32 139 2 ",
"   c #5E3E54",
".  c #315267",
"X  c #325769",
"o  c #365C6A",
"O  c #365E71",
"+  c #4B4157",
"@  c #5B4A5F",
"#  c #764F5F",
"$  c #77515E",
"%  c #755A5A",
"&  c #454F63",
"*  c #564D63",
"=  c #425B6E",
"-  c #57596E",
";  c #6B4760",
":  c #604E62",
">  c #625263",
",  c #6A5967",
"<  c #6A5769",
"1  c #675A68",
"2  c #745C6B",
"3  c #5F606E",
"4  c #5B6276",
"5  c #5C6A77",
"6  c #5E677C",
"7  c #74606A",
"8  c #6B6772",
"9  c #6B6A75",
"0  c #61677A",
"q  c #636A7D",
"w  c #696B7D",
"e  c #716473",
"r  c #766E77",
"t  c #7C6A76",
"y  c #7B6573",
"u  c #74727B",
"i  c #9E414F",
"p  c #804256",
"a  c #924A55",
"s  c #91525D",
"d  c #BE4D4F",
"f  c #A14350",
"g  c #A15B5C",
"h  c #875265",
"j  c #8C5063",
"k  c #8E5F67",
"l  c #865F6B",
"z  c #83636C",
"x  c #8F676D",
"c  c #9A7F6A",
"v  c #866570",
"b  c #836A74",
"n  c #8D6B74",
"m  c #926E75",
"M  c #8B7075",
"N  c #82727A",
"B  c #8C737B",
"V  c #937176",
"C  c #957279",
"Z  c #9B757B",
"A  c #96797C",
"S  c #9E7A7E",
"D  c #A26160",
"F  c #A17B7F",
"G  c #C8454B",
"H  c #D65550",
"J  c #DB5650",
"K  c #D85852",
"L  c #E75B50",
"P  c #C97456",
"I  c #E06356",
"U  c #E86456",
"Y  c #F1755E",
"T  c #CE7562",
"R  c #F17B62",
"E  c #9D8A76",
"W  c #B08164",
"Q  c #A8817C",
"!  c #A7917B",
"~  c #AD977A",
"^  c #C9976C",
"/  c #D09669",
"(  c #D0986B",
")  c #F5846A",
"_  c #F3886D",
"`  c #E18575",
"'  c #CCA77B",
"]  c #DEAE75",
"[  c #E0A771",
"{  c #6A6F81",
"}  c #6C7182",
"|  c #7B7380",
" . c #747788",
".. c #787C8B",
"X. c #827480",
"o. c #827E8B",
"O. c #917980",
"+. c #9E7E81",
"@. c #A27D80",
"#. c #758C9E",
"$. c #7A8F9E",
"%. c #778EA0",
"&. c #7991A1",
"*. c #988384",
"=. c #97878B",
"-. c #8B8C98",
";. c #92939D",
":. c #A58385",
">. c #AC8284",
",. c #A88789",
"<. c #A78888",
"1. c #A98B8B",
"2. c #B48687",
"3. c #B28887",
"4. c #B58A89",
"5. c #B98C8B",
"6. c #B6908E",
"7. c #BD918E",
"8. c #AB9191",
"9. c #B8A785",
"0. c #9A99A3",
"q. c #8AA4AF",
"w. c #8AA6B2",
"e. c #8CA9B5",
"r. c #93ACB6",
"t. c #90ADB8",
"y. c #95B2BC",
"u. c #C08F8D",
"i. c #C2928F",
"p. c #D39687",
"a. c #DA9B89",
"s. c #C49591",
"d. c #C69994",
"f. c #C99C96",
"g. c #D2A899",
"h. c #E4A490",
"j. c #CAB1A4",
"k. c #E2C78E",
"l. c #9BB7C0",
/* pixels */
"Z S :.:.:.+.*.S F S S F F S S z C F :.:.:.S :.S S S S S S F F z ",
"i.s.s.d.d.s.s.i.i.i.i.5.5.u.3.m 5.s.s.d.d.d.s.i.d.i.u.5.5.u.3.n ",
"s.s.s.s.s.s.s.s.d.i.i.d.d.i.i.Z 5.s.i.s.s.i.s.i.i.i.d.d.d.s.5.Z ",
"2.5.5.5.5.5.5.5.5.5.5.5.5.5.5.V >.5.5.5.5.5.5.5.6.5.5.5.5.5.5.m ",
":.:.@.@.@.F F n Z F :.:.<.:.F F :.:.F F :.F F n Z @.:.:.<.:.F S ",
"d.s.s.u.u.i.3.m 5.d.d.d.d.d.i.s.d.d.i.7.u.i.3.m 5.s.d.d.d.s.s.s.",
"s.s.s.d.d.s.7.Z 5.i.d.i.i.i.i.i.i.i.d.d.d.i.7.Z 5.s.s.i.s.s.s.s.",
"5.5.5.5.5.5.5.C >.5.5.5.5.5.5.5.5.5.5.5.5.5.5.C >.5.5.5.5.5.5.5.",
"S @.:.<.8.1.:.+.S @.@.@.F F F m Z @.:.,.8.1.:.+.S F @.@.F @.F n ",
"i.s.s.d.d.d.s.d.s.s.s.s.d.i.d.F 5.s.s.d.f.d.d.d.s.s.s.i.s.s.s.Z ",
"s.s.s.s.s.s.s.s.s.s.s.@.m V V z C S @.:.s.s.s.s.s.s.i.5.i.5.@.n ",
"3.5.5.5.5.5.5.5.5.5.u.x P ( % ^ E ~ 9.! @.5.5.5.5.5.5.5.5.6.>.n ",
"F @.@.@.@.@.F n Z @.:.z P [ / ] c ' k.! C @.@.n C :.:.<.1.8.<.S ",
"s.i.5.5.i.i.>.n 5.s.7.e * 3 9 8 t t q E @.s.:.n 5.s.s.d.f.f.d.s.",
"s.s.s.s.d.d.7.Z 5.s.5.@ p a s M =.*.l # M d.7.Z 5.s.7.s.s.s.s.s.",
"5.5.5.5.5.5.5.Z 2.5.5.l G L ` g.h.p.p.D @.5.5.C >.5.5.5.5.5.5.5.",
"F @.:.,.<.C C n n Z @.2 i U R _ P T ) D +.:.@.S S @.@.@.@.@.F n ",
"i.s.s.s.,.-.0.-.-.N 2.A # f I Y R R Y g ,.s.s.s.s.s.u.5.5.u.2.n ",
"s.s.s.s.O.t.l.l.y.} n j.Q   i H J K G s B 5.5.i.s.s.s.d.d.s.5.Z ",
"2.5.5.5.N w.e.w.w.{ > 8 7 < * h h j ; > 1 | =.5.5.5.5.5.5.5.5.m ",
",.:.@.@.t w.e.e.w.{ + = 4 0 {  .-.} 0 0 * q ..z Z :.:.<.,.:.@.Z ",
"s.s.s.i.n w.t.t.e.{ @.@.& X X o o X . 2 3.S B n 5.s.s.s.d.s.s.s.",
"s.s.s.d.O.%.%.&.%.{ 5.5.= 5 N N N r O N d.s.7.Z 5.s.s.s.s.s.s.s.",
"5.5.5.5.,.b y < 2 C 5.2.b >.5.5.5.2.b >.5.5.5.C @.5.5.5.5.5.5.5.",
"F F :.,.8.1.,.@.@.@.@.@.@.@.@.n Z @.:.<.8.1.:.+.F @.@.F @.@.F n ",
"i.s.s.d.d.d.s.d.s.s.s.s.s.s.s.@.5.s.s.d.f.d.s.d.s.s.s.i.s.s.s.Z ",
"s.s.s.s.s.i.s.s.s.s.s.5.u.5.@.n 5.s.s.s.s.s.s.s.s.s.s.5.s.3.@.n ",
"2.5.5.5.5.5.5.5.5.5.5.2.5.7.>.m @.5.5.5.5.5.5.5.5.5.5.5.5.5.>.m ",
"F @.Q F :.F F n C @.:.<.1.8.,.F @.@.@.@.@.@.@.n Z @.@.<.1.8.<.+.",
"s.s.5.i.i.i.>.n 5.s.s.d.f.d.s.s.d.s.5.u.s.7.@.m 5.s.d.d.f.f.s.s.",
"s.s.s.i.d.d.6.S 5.s.s.s.s.s.i.s.s.i.i.i.d.d.7.Z 5.s.s.7.s.s.s.s.",
"i.s.s.i.i.i.i.Z 2.s.s.s.s.s.s.s.s.s.i.s.s.s.s.Z 2.s.s.s.s.7.s.s."
};
