/* XPM */
static char *kingo_10[] = {
/* columns rows colors chars-per-pixel */
"32 32 140 2 ",
"   c #5E3E54",
".  c #315267",
"X  c #325769",
"o  c #365C6A",
"O  c #365E71",
"+  c #4B4157",
"@  c #5B4A5F",
"#  c #764F5F",
"$  c #77515E",
"%  c #755A5A",
"&  c #454F63",
"*  c #564D63",
"=  c #425B6E",
"-  c #57596E",
";  c #6B4760",
":  c #604E62",
">  c #6A5967",
",  c #6A5769",
"<  c #675A68",
"1  c #625263",
"2  c #745C6B",
"3  c #5F606E",
"4  c #5B6276",
"5  c #5C6A77",
"6  c #5E677C",
"7  c #74606A",
"8  c #6B6772",
"9  c #6B6A75",
"0  c #61677A",
"q  c #636A7D",
"w  c #696B7D",
"e  c #766E77",
"r  c #7C6A76",
"t  c #766573",
"y  c #74727B",
"u  c #9E414F",
"i  c #804256",
"p  c #924A55",
"a  c #91525D",
"s  c #BE4D4F",
"d  c #A14350",
"f  c #A15B5C",
"g  c #875265",
"h  c #8C5063",
"j  c #8E5F67",
"k  c #865F6B",
"l  c #83636C",
"z  c #8F676D",
"x  c #9A7F6A",
"c  c #866570",
"v  c #836A74",
"b  c #8D6B74",
"n  c #926E75",
"m  c #8B7075",
"M  c #82727A",
"N  c #8C737B",
"B  c #937176",
"V  c #957279",
"C  c #9B757B",
"Z  c #96797C",
"A  c #9E7A7E",
"S  c #A26160",
"D  c #A17B7F",
"F  c #C8454B",
"G  c #D65550",
"H  c #DB5650",
"J  c #D85852",
"K  c #E75B50",
"L  c #C97456",
"P  c #E06356",
"I  c #E86456",
"U  c #F1755E",
"Y  c #D77863",
"T  c #E87861",
"R  c #F17A62",
"E  c #9D8A76",
"W  c #B08164",
"Q  c #A8817C",
"!  c #A7917B",
"~  c #AD977A",
"^  c #C9976C",
"/  c #D09669",
"(  c #D0986B",
")  c #F2886D",
"_  c #F5846A",
"`  c #E18575",
"'  c #CCA77B",
"]  c #DEAE75",
"[  c #E0A771",
"{  c #6A6F81",
"}  c #6C7182",
"|  c #7B7380",
" . c #747788",
".. c #787C8B",
"X. c #827480",
"o. c #827E8B",
"O. c #917980",
"+. c #9E7E81",
"@. c #A27D80",
"#. c #758C9E",
"$. c #7A8F9E",
"%. c #778EA0",
"&. c #7991A1",
"*. c #978384",
"=. c #9B8A8A",
"-. c #93848D",
";. c #8B8C98",
":. c #92939D",
">. c #A58385",
",. c #AC8284",
"<. c #A88789",
"1. c #A78888",
"2. c #A98B8B",
"3. c #B48687",
"4. c #B28887",
"5. c #B58A89",
"6. c #B98C8B",
"7. c #B6908E",
"8. c #BD918E",
"9. c #AB9191",
"0. c #B8A785",
"q. c #9A99A3",
"w. c #8AA4AF",
"e. c #8AA6B2",
"r. c #8CA9B5",
"t. c #93ACB6",
"y. c #90ADB8",
"u. c #95B2BC",
"i. c #C08F8D",
"p. c #C2928F",
"a. c #D29587",
"s. c #DD9C8A",
"d. c #C49591",
"f. c #C69994",
"g. c #C99C96",
"h. c #D2A899",
"j. c #EDA890",
"k. c #CAB1A4",
"l. c #E2C78E",
"z. c #9BB7C0",
/* pixels */
"C A >.>.>.+.*.A A A A D D A A l V A @.1.>.+.@.+.A A D A A D C c ",
"p.d.d.f.f.d.d.p.f.p.8.6.6.i.5.n 6.d.d.f.f.d.d.d.d.d.i.6.6.i.4.b ",
"d.d.d.d.d.d.d.d.d.p.d.f.f.p.i.C 6.d.d.d.d.d.d.d.d.d.d.f.f.d.6.C ",
"3.6.6.6.6.6.6.6.6.6.6.6.6.6.6.V ,.6.6.6.5.6.6.6.5.6.6.6.5.6.6.V ",
">.>.@.@.@.D D b C Q >.>.1.>.D D >.>.@.@.@.@.@.b C >.>.>.<.>.@.C ",
"f.d.d.i.i.p.4.n 6.f.d.f.f.f.p.f.f.d.d.8.6.p.5.b 5.d.d.f.f.d.d.d.",
"d.d.d.f.f.d.8.C 6.p.p.p.p.p.p.p.d.d.d.f.f.d.p.C 6.d.d.d.d.d.d.d.",
"6.6.6.6.6.6.6.V ,.6.8.6.6.6.6.6.6.6.6.6.6.6.6.V ,.6.6.6.6.6.6.6.",
"A @.>.1.9.2.>.@.+.@.@.@.D D D n C @.>.<.9.2.>.+.D @.@.@.@.@.D n ",
"p.d.d.f.f.f.f.d.d.d.d.d.d.d.f.D 6.d.d.f.g.f.f.d.d.d.d.d.d.d.d.C ",
"d.d.d.d.d.d.d.d.d.d.d.@.n B B l V A @.>.d.d.d.d.d.d.p.6.d.5.@.b ",
"4.6.6.6.6.6.6.6.6.6.i.z L / % ^ E ~ 0.! @.6.6.6.6.6.5.5.6.6.,.b ",
"D @.@.@.@.@.@.b C @.>.l L [ / ] x ' l.E V @.@.b C @.>.1.2.9.1.+.",
"d.p.6.6.p.p.@.n 6.d.i.t * < 8 8 r e 9 *.+.d.>.n 6.d.d.f.f.g.f.d.",
"d.d.d.d.f.f.8.C 6.d.5.* # p a b =.*.z $ N f.8.C 6.d.8.d.d.d.d.d.",
"6.6.6.6.6.6.6.C 3.6.6.k F K ` h.j.s.a.f @.6.6.V ,.6.6.6.6.6.6.6.",
"A @.>.1.>.V N b b C @.2 u I R ) T Y ) S +.>.>.A D D D D @.D D b ",
"p.d.d.f.<.;.q.q.;.X.3.Z # d P U T U U f <.f.p.p.d.p.i.6.i.i.4.b ",
"d.d.d.d.N t.z.u.u.} b k.Q   u G H J F a N 6.6.d.d.p.f.f.f.d.6.C ",
"3.6.6.6.N e.e.e.w.{ 1 8 7 > * g g a ; 1 > | -.3.6.6.6.6.6.6.6.n ",
"<.>.D D r e.r.r.e.6 + - 4 0 {  .$.y 0 0 * q ..l C @.>.>.1.>.D A ",
"f.d.d.p.N e.t.y.r.{ @.>.& X X o o . . 2 3.Z N b 6.d.f.f.f.d.d.d.",
"d.p.d.f.O.%.%.&.#.{ 6.5.= 5 M M M e O M g.d.p.C 6.d.p.d.d.d.d.d.",
"6.6.6.6.<.v t , 2 V 6.4.v ,.6.6.6.3.v ,.6.6.6.V ,.6.6.6.6.6.6.6.",
"D D >.<.9.2.<.D D @.D @.@.@.@.b C @.>.1.9.2.>.@.A D @.@.D @.D b ",
"p.d.f.g.f.f.d.f.d.d.d.d.d.d.d.@.5.d.f.d.g.f.f.d.d.d.d.p.d.d.d.A ",
"d.p.d.p.p.p.p.d.d.d.d.6.i.6.@.B 6.d.d.d.d.d.d.d.d.d.p.6.p.5.D b ",
"5.6.6.6.8.6.6.8.6.6.6.6.6.7.,.n ,.6.6.6.6.6.6.6.6.6.6.6.6.7.,.b ",
"D @.@.@.D Q A b C @.>.>.2.9.<.D D @.@.@.@.D @.b V >.>.>.2.9.1.A ",
"d.p.6.i.p.p.>.m 6.d.d.f.g.f.d.d.d.d.6.6.p.p.>.b 6.d.d.f.g.g.f.d.",
"p.d.d.p.f.f.8.C 5.d.d.p.d.d.d.d.d.p.d.d.f.f.8.C 6.d.p.d.p.p.d.d.",
"p.d.d.p.d.d.d.C 4.d.d.d.d.d.p.d.d.d.p.d.d.d.p.C 4.d.d.d.d.d.d.d."
};
