/* XPM */
static char *kingo_9[] = {
/* columns rows colors chars-per-pixel */
"32 32 146 2 ",
"   c #5E3E54",
".  c #315267",
"X  c #325769",
"o  c #365C6A",
"O  c #365E71",
"+  c #4B4157",
"@  c #77515E",
"#  c #454F63",
"$  c #554B63",
"%  c #425B6E",
"&  c #5C5469",
"*  c #57596E",
"=  c #6B4760",
"-  c #604E62",
";  c #6A5967",
":  c #6A5769",
">  c #675A68",
",  c #625263",
"<  c #745C6B",
"1  c #745464",
"2  c #665C70",
"3  c #5B6276",
"4  c #5C6A77",
"5  c #5E677C",
"6  c #74606A",
"7  c #78616C",
"8  c #656172",
"9  c #6C6373",
"0  c #61677A",
"q  c #636A7D",
"w  c #696B7D",
"e  c #766E77",
"r  c #786977",
"t  c #9E424F",
"y  c #8C4E56",
"u  c #924B55",
"i  c #8D5B57",
"p  c #B3414C",
"a  c #BE4D4F",
"s  c #A14350",
"d  c #A15B5C",
"f  c #9F645B",
"g  c #A3615F",
"h  c #875265",
"j  c #8C5063",
"k  c #85646D",
"l  c #8D656D",
"z  c #9E7664",
"x  c #957F6F",
"c  c #866570",
"v  c #836A74",
"b  c #8D6B74",
"n  c #8C6F79",
"m  c #906E76",
"M  c #887875",
"N  c #82727A",
"B  c #8C737B",
"V  c #947077",
"C  c #957279",
"Z  c #9B757B",
"A  c #96797C",
"S  c #9E7A7E",
"D  c #A56664",
"F  c #A37867",
"G  c #A27579",
"H  c #A17B7F",
"J  c #B57772",
"K  c #CB494B",
"L  c #D65550",
"P  c #DB5650",
"I  c #D85852",
"U  c #E06456",
"Y  c #E86556",
"T  c #ED6B59",
"R  c #EF745E",
"E  c #F0765F",
"W  c #C46561",
"Q  c #D47F6D",
"!  c #E97E64",
"~  c #F17A61",
"^  c #9E816D",
"/  c #9C8377",
"(  c #9B867A",
")  c #AF8163",
"_  c #A3806C",
"`  c #A28870",
"'  c #A8817C",
"]  c #A58E78",
"[  c #A9987E",
"{  c #DF8159",
"}  c #EC8B75",
"|  c #F28970",
" . c #C2A47C",
".. c #E9B376",
"X. c #F0B173",
"o. c #6A6F81",
"O. c #7A6F81",
"+. c #6C7182",
"@. c #707381",
"#. c #7B7380",
"$. c #747788",
"%. c #787C8B",
"&. c #827480",
"*. c #807F8F",
"=. c #917980",
"-. c #9E7D81",
";. c #A27D80",
":. c #758C9E",
">. c #7A8F9E",
",. c #778EA0",
"<. c #7991A1",
"1. c #93848D",
"2. c #8B8C98",
"3. c #92939D",
"4. c #A58385",
"5. c #AB8284",
"6. c #A88789",
"7. c #A78888",
"8. c #A98B8B",
"9. c #B48687",
"0. c #B28887",
"q. c #B48A89",
"w. c #B98C8B",
"e. c #AC9B80",
"r. c #B6918D",
"t. c #BC918E",
"y. c #AB9191",
"u. c #9A99A3",
"i. c #8AA4AF",
"p. c #8AA6B2",
"a. c #8CA9B5",
"s. c #93ACB6",
"d. c #90ADB8",
"f. c #95B2BC",
"g. c #C08F8D",
"h. c #C2928F",
"j. c #C49591",
"k. c #C69994",
"l. c #C99C96",
"z. c #E09380",
"x. c #E79E88",
"c. c #CAA394",
"v. c #D4AD9C",
"b. c #CAB1A4",
"n. c #DDCA92",
"m. c #9BB7C0",
/* pixels */
"Z S 4.4.4.-.1.G S S S H H S S c V H ;.7.4.-.4.S S S H S S H Z c ",
"h.j.j.k.k.j.k.h.k.t.t.w.w.g.q.m w.j.j.k.j.j.j.j.j.j.w.w.w.g.q.b ",
"j.j.j.h.h.h.h.j.j.j.j.j.k.j.g.Z w.j.j.j.j.j.j.j.j.j.j.k.k.j.w.Z ",
"9.w.w.w.t.w.w.t.w.w.w.w.w.w.w.V 5.w.w.w.w.w.w.w.w.w.w.w.q.w.w.V ",
"7.4.S ' H H H b C ' 4.7.7.4.H S 4.4.;.;.;.;.;.b Z 4.4.4.6.4.;.S ",
"j.k.j.h.h.h.0.b w.k.j.k.k.k.j.j.k.j.j.w.w.h.q.b w.j.j.k.k.j.j.j.",
"j.j.j.j.k.h.h.Z w.h.h.j.h.h.j.j.j.j.j.k.l.j.w.Z w.j.j.j.j.j.j.j.",
"w.w.w.w.w.w.w.C 5.w.t.w.w.w.w.w.w.w.w.w.w.w.w.Z 5.w.w.w.q.w.w.w.",
"S 4.4.4.y.8.4.' S ;.;.-.' S -.b Z ;.4.6.y.8.4.;.S H ;.H ;.;.H m ",
"h.j.k.j.l.l.k.j.j.j.j.j.r.q.j.C 5.w.w.t.l.k.j.j.j.j.j.j.j.j.j.Z ",
"j.j.h.j.h.j.h.h.j.j.j.G g F k z x ( ( / t.j.j.j.j.j.h.w.h.q.H b ",
"0.w.w.w.w.w.w.w.w.w.w.l { X.) ..z  .n.e.4.w.w.w.w.w.w.q.w.t.5.b ",
"S ;.H H H H H b Z ;.4.7 i ^ _ / ^ ] e.M C ;.;.b C 4.4.7.8.y.7.S ",
"k.h.w.t.h.h.4.m w.j.w.& $ & > 8 +.e 2 O.B t.4.b w.j.j.k.l.l.k.j.",
"h.h.k.h.k.l.t.Z w.j.t.1 p K W r.v.c.J y S l.t.Z w.j.t.j.j.j.j.j.",
"w.w.w.w.w.w.w.Z 5.w.t.l K T } x.| Q z.D 5.w.w.C 5.w.w.w.w.w.w.w.",
"S ' 4.6.4.C B b b Z ' < t Y E E ~ ! ~ d -.4.4.S H H H H ;.H H b ",
"h.h.k.k.6.2.u.u.2.N 9.A @ s U E ~ ~ E d 6.k.h.h.j.h.g.w.g.g.9.b ",
"j.j.h.j.B s.m.f.f.+.v b.' = t L P P a u B q.w.j.j.h.k.k.k.h.t.C ",
"9.w.w.w.B p.p.p.p.q , 9 6 , $ h h j = - : #.1.0.w.w.w.w.w.w.w.C ",
"4.4.;.;.r p.a.a.a.5 + * 3 5 w $.*.$.0 0 $ o.%.k Z 4.4.7.7.4.H S ",
"k.j.j.h.B p.d.s.a.o.4.4.# X o o o X . < 0.C B m w.j.j.k.k.h.j.h.",
"j.j.j.k.=.>.,.<.:.w q.w.% 4 N N N e O N l.j.t.Z w.h.h.h.h.h.j.j.",
"w.w.w.w.5.v r : 6 C q.9.v 5.t.w.w.q.v 5.w.w.w.V 5.w.w.w.t.w.w.t.",
"Z 4.4.7.y.8.4.4.H ;.;.;.;.;.H b C 4.4.7.y.8.4.;.S H H ' H ;.H b ",
"h.j.j.k.l.k.j.j.j.j.j.j.j.j.j.H w.j.k.j.l.k.k.j.j.j.h.h.j.j.j.S ",
"j.j.h.j.j.j.j.j.h.j.h.w.h.q.H V w.j.j.j.j.j.h.j.h.h.h.w.h.q.H b ",
"9.w.w.w.w.w.w.w.w.w.w.q.t.t.5.m 5.w.w.w.w.w.w.w.t.w.t.w.t.r.5.b ",
"H ;.;.;.;.;.;.b Z ;.4.7.8.y.7.H H ;.;.H ;.-.H b Z 4.4.7.8.y.7.S ",
"j.h.w.g.h.t.4.m w.j.j.k.k.l.k.j.h.h.w.h.j.t.4.m q.j.j.k.k.l.k.j.",
"h.j.j.h.k.k.t.Z w.j.j.j.j.h.j.j.j.h.h.h.j.l.t.S w.h.j.t.j.j.t.j.",
"h.j.j.j.h.j.h.Z 0.j.h.h.j.j.h.j.j.h.j.j.j.j.h.G 0.h.j.h.j.j.j.j."
};
