/* XPM */
static char *kingo_6[] = {
/* columns rows colors chars-per-pixel */
"32 32 148 2 ",
"   c #413A53",
".  c #5E3E54",
"X  c #325569",
"o  c #325E6F",
"O  c #335F70",
"+  c #326070",
"@  c #48475F",
"#  c #77515E",
"$  c #424D62",
"%  c #554A62",
"&  c #48576C",
"*  c #5C5469",
"=  c #6B4760",
"-  c #614F63",
";  c #645464",
":  c #6A5967",
">  c #675A68",
",  c #7E5F6D",
"<  c #745464",
"1  c #665C70",
"2  c #426B78",
"3  c #5A6176",
"4  c #5C6977",
"5  c #5C6579",
"6  c #5E687C",
"7  c #74606A",
"8  c #78616C",
"9  c #656172",
"0  c #6D6373",
"q  c #61677A",
"w  c #686B7D",
"e  c #646B7E",
"r  c #766471",
"t  c #776E77",
"y  c #7C6974",
"u  c #716B7A",
"i  c #9E414F",
"p  c #8C4E56",
"a  c #8D5B57",
"s  c #9A5459",
"d  c #BE4C4F",
"f  c #B4414E",
"g  c #A14350",
"h  c #9F645B",
"j  c #875265",
"k  c #8C5063",
"l  c #87666C",
"z  c #8D666C",
"x  c #9E7664",
"c  c #957F6F",
"v  c #856671",
"b  c #816973",
"n  c #8D6B74",
"m  c #876F79",
"M  c #8C6F79",
"N  c #906D75",
"B  c #8C7177",
"V  c #887875",
"C  c #837279",
"Z  c #8D737B",
"A  c #947077",
"S  c #967279",
"D  c #9B757B",
"F  c #9E7A7E",
"G  c #917C7E",
"H  c #A56664",
"J  c #A37867",
"K  c #A17B7F",
"L  c #A27579",
"P  c #B57772",
"I  c #D45650",
"U  c #DB5A53",
"Y  c #C96D5E",
"T  c #D96F5E",
"R  c #E06356",
"E  c #E96455",
"W  c #F4745C",
"Q  c #C56862",
"!  c #C9786B",
"~  c #C1746A",
"^  c #F27960",
"/  c #9E816D",
"(  c #9C8377",
")  c #9B867A",
"_  c #AF8163",
"`  c #A3806C",
"'  c #A28870",
"]  c #A7817C",
"[  c #A58E78",
"{  c #A9987E",
"}  c #DF8159",
"|  c #EC8A74",
" . c #C2A47C",
".. c #E9B376",
"X. c #F0B173",
"o. c #287D88",
"O. c #676E81",
"+. c #6B6F80",
"@. c #7A6F81",
"#. c #6D7183",
"$. c #737585",
"%. c #7B7380",
"&. c #767C8A",
"*. c #8E7D81",
"=. c #807F8E",
"-. c #927A81",
";. c #9F7D81",
":. c #A27D80",
">. c #26858E",
",. c #2B878C",
"<. c #2C8A8D",
"1. c #758D9F",
"2. c #798F9E",
"3. c #7D8391",
"4. c #7990A1",
"5. c #94858D",
"6. c #908F9C",
"7. c #90919C",
"8. c #99949E",
"9. c #A58385",
"0. c #AC8284",
"q. c #A78888",
"w. c #A98B8B",
"e. c #B48687",
"r. c #B58A89",
"t. c #B98C8B",
"y. c #AC9B80",
"u. c #B6918D",
"i. c #BD918E",
"p. c #AB9191",
"a. c #BA9390",
"s. c #8AA5B2",
"d. c #8CA9B5",
"f. c #91AEB9",
"g. c #95ABB6",
"h. c #98B4BE",
"j. c #C08F8D",
"k. c #C2928F",
"l. c #C49591",
"z. c #C69994",
"x. c #C89C96",
"c. c #EB9780",
"v. c #E99F89",
"b. c #CBA395",
"n. c #D6AE9C",
"m. c #D1B8A9",
"M. c #DDCA92",
"N. c #A6B9C2",
/* pixels */
"D F 9.9.9.;.5.L F F ;.K F F F v A F 9.9.9.;.5.L K F D K F L F l ",
"k.l.l.z.z.l.z.k.l.l.j.t.t.j.e.N t.l.l.x.l.l.l.l.k.k.k.t.t.k.e.n ",
"l.l.l.k.z.k.k.k.a.l.l.l.z.l.j.D t.l.l.l.l.l.l.l.z.k.z.l.z.l.i.S ",
"e.t.t.t.t.t.t.i.t.t.t.t.t.t.t.S 0.t.t.t.t.t.t.t.t.t.t.t.t.t.t.A ",
"9.] K K K K K n S ] 9.q.q.9.F F 9.9.:.:.:.:.:.n D 5.9.q.q.9.F D ",
"z.z.z.i.i.k.e.N t.z.l.z.z.z.l.l.z.l.l.t.t.k.t.n t.l.l.z.z.z.l.l.",
"k.l.z.l.x.k.i.D t.k.k.l.k.l.l.l.l.l.l.z.z.l.k.D t.k.l.l.l.l.l.l.",
"t.i.t.t.t.t.t.S 0.t.i.t.t.t.t.t.t.t.t.t.t.t.t.A ] t.t.t.t.t.t.t.",
"D 9.9.9.p.w.9.F F K 9.K K K K n D :.9.q.p.w.9.:.K K K K K K K N ",
"k.l.z.z.z.z.x.z.z.k.k.k.t.t.l.S :.t.t.a.x.x.z.l.l.l.k.k.l.l.z.D ",
"k.k.k.k.k.l.l.l.z.k.k.L h J v x c ( ) ( t.l.k.l.l.l.k.j.i.r.K n ",
"e.u.t.t.t.t.t.t.t.t.i.z } .._ ..J  .M.y.0.t.t.t.t.t.t.t.i.i.0.n ",
"K ] K :.:.K K n S 9.9.8 a ` / ' / [ { V S 5.K N S ] 9.9.w.p.w.F ",
"l.l.t.j.k.k.0.n t.k.t.* % * > 9 $.u 0 @.B l.] N t.z.z.z.z.z.z.l.",
"l.l.l.a.z.x.i.D i.k.i.< f I Y r.n.b.P p F z.i.D t.l.k.k.k.k.k.z.",
"t.t.t.t.t.e.e.N K t.i.8 i E | v.! P | H 9.i.t.A 0.t.t.t.i.t.t.t.",
"K K 9.w.Z 8.7.7.3.u b G # i R W T Y W s y 9.9.F K K K :.:.K K N ",
"k.l.l.z.-.N.h.h.f.#.v m.' = i I U U I s *.w.t.l.l.k.j.t.t.j.e.n ",
"k.k.l.l.-.g.s.d.s.e - r : : % k j k = % : t 5.i.l.l.l.x.x.l.t.D ",
"e.t.t.t.C s.d.d.d.5   & 3 e w &.5.$.6 5 @ 6 &.0.t.t.t.t.t.t.t.N ",
"q.9.K K y d.d.d.d.O.B Z & O + + o o X : S B S n A 9.9.9.9.9.K F ",
"z.z.k.k.Z 4.4.4.1.e t.t.+ >.<.<.>.>.o.y k.k.e.n t.l.l.z.x.l.l.l.",
"k.k.z.z.i.Z m r b ;.l.t.& 4 C C t t O C x.k.i.D t.l.l.l.k.l.l.l.",
"t.t.t.t.t.t.t.D 0.i.t.0.b 0.i.t.i.t.b 0.t.t.t.S 0.t.t.t.t.t.t.t.",
"L 9.9.9.p.w.9.9.K K K :.9.K K n S ] 9.9.p.w.9.9.K :.K :.:.:.K n ",
"k.k.z.z.z.z.l.z.l.l.l.l.l.k.l.F t.z.z.z.x.z.k.z.l.l.l.k.l.l.k.F ",
"z.k.k.k.k.k.k.l.k.l.k.t.k.e.:.S t.l.k.l.k.z.k.k.l.l.k.t.i.e.:.n ",
"e.t.i.t.u.t.t.i.t.t.t.t.i.u.0.N 0.i.t.t.t.t.t.t.t.t.t.t.i.i.0.n ",
"K :.:.K K ] ;.n S 9.9.9.w.w.w.F F :.:.:.9.K K n S 9.9.9.w.p.q.;.",
"l.k.t.i.k.k.9.n t.l.l.z.z.x.z.l.l.k.j.t.k.k.9.n t.l.z.z.z.x.x.l.",
"l.k.l.k.z.x.i.D t.l.l.k.z.l.k.l.l.k.k.k.z.z.i.D t.k.l.l.l.k.k.l.",
"k.l.l.k.k.l.k.D e.l.l.l.l.l.l.l.k.l.l.l.k.l.l.D e.k.l.i.l.l.l.k."
};
